<svg id="Capa_1" enable-background="new 0 0 512 512" height="512" viewBox="0 0 512 512" width="512" xmlns="http://www.w3.org/2000/svg" xmlns:xlink="http://www.w3.org/1999/xlink"><linearGradient id="SVGID_1_" gradientUnits="userSpaceOnUse" x1="256" x2="256" y1="512" y2="0"><stop offset="0"/><stop offset="1"/></linearGradient><g><g><g><path d="m215.606 334.393c-5.857-5.857-15.355-5.857-21.213 0-5.858 5.858-5.858 15.355 0 21.213l4.393 4.393h-23.787c-8.271 0-15-6.729-15-15v-30c0-8.284-6.716-15-15-15s-15 6.716-15 15v30c0 24.813 20.187 45 45 45h23.787l-4.393 4.393c-5.858 5.858-5.858 15.355 0 21.213s15.355 5.858 21.213 0l30-30c5.952-5.953 5.721-15.492 0-21.213zm128.787-158.786c5.858 5.858 15.355 5.858 21.213 0s5.858-15.355 0-21.213l-4.393-4.394h23.787c8.271 0 15 6.729 15 15v30c0 8.284 6.716 15 15 15s15-6.716 15-15v-30c0-24.813-20.187-45-45-45h-23.787l4.393-4.393c5.858-5.858 5.858-15.355 0-21.213-5.857-5.857-15.355-5.857-21.213 0l-30 30c-5.755 5.755-5.918 15.295 0 21.213zm141.698 282.421c-1.629.099-3.282.149-4.915.149-44.761 0-81.176-36.416-81.176-81.177s36.416-81.177 81.176-81.177c1.633 0 3.286.05 4.915.149 6.601.401 12.704-3.582 14.989-9.8 2.284-6.218.219-13.198-5.08-17.172-23.215-17.411-51.981-27-81-27-74.439 0-135 60.561-135 135s60.561 135 135 135c29.019 0 57.785-9.589 81-27 5.299-3.975 7.364-10.955 5.08-17.172-2.285-6.219-8.377-10.202-14.989-9.8zm-71.092 23.972c-57.897 0-105-47.103-105-105s47.103-105 105-105c7.729 0 15.437.875 22.955 2.569-39.894 16.898-67.955 56.45-67.955 102.431s28.061 85.533 67.955 102.431c-7.518 1.694-15.225 2.569-22.955 2.569zm-150-362h-46.509c-1.949-9.561-5.731-18.46-10.948-26.329l32.917-32.917c5.858-5.858 5.858-15.355 0-21.213s-15.355-5.858-21.213 0l-32.917 32.917c-7.869-5.217-16.768-9-26.329-10.948v-46.51c0-8.284-6.716-15-15-15s-15 6.716-15 15v46.509c-9.561 1.949-18.46 5.731-26.329 10.948l-32.918-32.916c-5.857-5.858-15.355-5.858-21.213 0s-5.858 15.355 0 21.213l32.917 32.917c-5.217 7.869-9 16.768-10.948 26.329h-46.51c-8.284 0-15 6.716-15 15s6.716 15 15 15h46.509c1.949 9.561 5.731 18.46 10.948 26.329l-32.916 32.917c-5.858 5.858-5.858 15.355 0 21.213 5.857 5.857 15.355 5.859 21.213 0l32.917-32.917c7.869 5.218 16.768 9 26.329 10.948v46.51c0 8.284 6.716 15 15 15s15-6.716 15-15v-46.509c9.561-1.949 18.46-5.731 26.329-10.948l32.917 32.917c5.857 5.858 15.355 5.858 21.213 0s5.858-15.355 0-21.213l-32.917-32.917c5.217-7.869 9-16.768 10.948-26.329h46.509c8.284 0 15-6.716 15-15s-6.714-15.001-14.999-15.001zm-120 60c-24.813 0-45-20.187-45-45s20.187-45 45-45 45 20.187 45 45-20.187 45-45 45z" fill="#B4B7BD"/></g></g></g></svg>