<?xml version="1.0" encoding="UTF-8"?>
<!DOCTYPE svg PUBLIC "-//W3C//DTD SVG 1.1//EN" "http://www.w3.org/Graphics/SVG/1.1/DTD/svg11.dtd">
<svg xmlns="http://www.w3.org/2000/svg" xmlns:xlink="http://www.w3.org/1999/xlink" version="1.1" width="771px" height="574px" viewBox="-0.5 -0.5 771 574" style="background-color: rgb(255, 255, 255);"><defs><clipPath id="mx-clip-14-41-202-26-0"><rect x="14" y="41" width="202" height="26"/></clipPath><clipPath id="mx-clip-14-75-202-130-0"><rect x="14" y="75" width="202" height="130"/></clipPath><clipPath id="mx-clip-544-41-212-26-0"><rect x="544" y="41" width="212" height="26"/></clipPath><clipPath id="mx-clip-544-75-212-490-0"><rect x="544" y="75" width="212" height="490"/></clipPath><clipPath id="mx-clip-14-281-482-24-0"><rect x="14" y="281" width="482" height="24"/></clipPath><clipPath id="mx-clip-14-313-482-72-0"><rect x="14" y="313" width="482" height="72"/></clipPath><clipPath id="mx-clip-264-41-232-26-0"><rect x="264" y="41" width="232" height="26"/></clipPath><clipPath id="mx-clip-264-75-232-140-0"><rect x="264" y="75" width="232" height="140"/></clipPath></defs><g><path d="M 10 36 L 10 10 L 220 10 L 220 36" fill="#ffffff" stroke="#000000" stroke-miterlimit="10" pointer-events="all"/><path d="M 10 36 L 10 200 L 220 200 L 220 36" fill="none" stroke="#000000" stroke-miterlimit="10" pointer-events="none"/><path d="M 10 36 L 220 36" fill="none" stroke="#000000" stroke-miterlimit="10" pointer-events="none"/><g fill="#000000" font-family="Helvetica" font-weight="bold" pointer-events="none" text-anchor="middle" font-size="12px"><text x="114.5" y="27.5">InputCheck</text></g><g fill="#000000" font-family="Helvetica" pointer-events="none" clip-path="url(#mx-clip-14-41-202-26-0)" font-size="12px"><text x="15.5" y="53.5">+ input_text: str</text></g><path d="M 10 66 L 220 66" fill="none" stroke="#000000" stroke-miterlimit="10" pointer-events="none"/><g fill="#000000" font-family="Helvetica" pointer-events="none" clip-path="url(#mx-clip-14-75-202-130-0)" font-size="12px"><text x="15.5" y="87.5">+ check_email(str): bool, str</text><text x="15.5" y="101.5">+ check_date(str): bool, str</text><text x="15.5" y="115.5">+ check_len(str): bool, str</text><text x="15.5" y="129.5">+ check_comment_len(str): bool, str</text><text x="15.5" y="143.5">+ check_time_value(str): bool, str</text><text x="15.5" y="157.5">+ check_incorrect_vals(str): bool, str</text><text x="15.5" y="171.5">+ check_spaces_tabs(str): bool, str</text><text x="15.5" y="185.5">+ number_only(str): bool, str</text></g><path d="M 540 36 L 540 10 L 760 10 L 760 36" fill="#ffffff" stroke="#000000" stroke-miterlimit="10" pointer-events="none"/><path d="M 540 36 L 540 560 L 760 560 L 760 36" fill="none" stroke="#000000" stroke-miterlimit="10" pointer-events="none"/><path d="M 540 36 L 760 36" fill="none" stroke="#000000" stroke-miterlimit="10" pointer-events="none"/><g fill="#000000" font-family="Helvetica" font-weight="bold" pointer-events="none" text-anchor="middle" font-size="12px"><text x="649.5" y="27.5">MainUI</text></g><g fill="#000000" font-family="Helvetica" pointer-events="none" clip-path="url(#mx-clip-544-41-212-26-0)" font-size="12px"><text x="545.5" y="53.5">+ field: type</text></g><path d="M 540 66 L 760 66" fill="none" stroke="#000000" stroke-miterlimit="10" pointer-events="none"/><g fill="#000000" font-family="Helvetica" pointer-events="none" clip-path="url(#mx-clip-544-75-212-490-0)" font-size="12px"><text x="545.5" y="87.5">+ pre_initUi():</text><text x="545.5" y="101.5">+ sorting_data_csv():</text><text x="545.5" y="115.5">+ post_initUi():</text><text x="545.5" y="129.5">+ create_forecast_data():</text><text x="545.5" y="143.5">+ forecast():</text><text x="545.5" y="157.5">+ change_theme(int): str</text><text x="545.5" y="171.5">+ show_login(): </text><text x="545.5" y="185.5">+ login(str): str</text><text x="545.5" y="199.5">+ show_registration():</text><text x="545.5" y="213.5">+ registation(str): str</text><text x="545.5" y="227.5">+ update_users_categs():</text><text x="545.5" y="241.5">+ get_current_row_tableview(str):list</text><text x="545.5" y="255.5">+ show_add_action():</text><text x="545.5" y="269.5">+ add_action(str): str</text><text x="545.5" y="283.5">+ show_edit_action(str):</text><text x="545.5" y="297.5">+ edit_action(str): str</text><text x="545.5" y="311.5">+ delete_action():</text><text x="545.5" y="325.5">+ del_categ():</text><text x="545.5" y="339.5">+ settings_export():str</text><text x="545.5" y="353.5">+ settings_import(): str</text><text x="545.5" y="367.5">+ settings_change_user_data(str): str</text><text x="545.5" y="381.5">+ setiings_telegram(): </text><text x="545.5" y="395.5">+ view_table():</text><text x="545.5" y="409.5">+ update_view_table():</text><text x="545.5" y="423.5">+ view_table_sort_by_day():</text><text x="545.5" y="437.5">+ view_table_sort_by_week():</text><text x="545.5" y="451.5">+ view_table_sort_by_month():</text><text x="545.5" y="465.5">+ view_table_sort_by_year():</text><text x="545.5" y="479.5">+ view_table_custom_sort():</text><text x="545.5" y="493.5">+ view_table_clear_filter():</text><text x="545.5" y="507.5">+ view_categ():</text><text x="545.5" y="521.5">+ update_view_categ():</text><text x="545.5" y="535.5">+ view_table_sort_by_category():</text><text x="545.5" y="549.5">+ graph_plot():</text></g><path d="M 10 276 L 10 250 L 500 250 L 500 276" fill="#ffffff" stroke="#000000" stroke-miterlimit="10" pointer-events="none"/><path d="M 10 276 L 10 380 L 500 380 L 500 276" fill="none" stroke="#000000" stroke-miterlimit="10" pointer-events="none"/><path d="M 10 276 L 500 276" fill="none" stroke="#000000" stroke-miterlimit="10" pointer-events="none"/><g fill="#000000" font-family="Helvetica" font-weight="bold" pointer-events="none" text-anchor="middle" font-size="12px"><text x="254.5" y="267.5">DbLogic</text></g><g fill="#000000" font-family="Helvetica" text-decoration="underline" pointer-events="none" clip-path="url(#mx-clip-14-281-482-24-0)" font-size="12px"><text x="15.5" y="293.5">+ config: ConfigParser*</text></g><path d="M 10 304 L 500 304" fill="none" stroke="#000000" stroke-miterlimit="10" pointer-events="none"/><g fill="#000000" font-family="Helvetica" pointer-events="none" clip-path="url(#mx-clip-14-313-482-72-0)" font-size="12px"><text x="15.5" y="325.5">+ register_user(user_n_name:str, user_p_email: str, user_p_password: str): str</text><text x="15.5" y="339.5">+ login_user(user_n_name: str, user_p_password: str): str</text><text x="15.5" y="353.5">+ get_logged_user_data(user_login: str, item: str, params: str): str</text><text x="15.5" y="367.5">+ set_logged_user_data(user_login: str, item: str, add_params: str, edit_params: str): str</text></g><path d="M 260 36 L 260 10 L 500 10 L 500 36" fill="#ffffff" stroke="#000000" stroke-miterlimit="10" pointer-events="none"/><path d="M 260 36 L 260 210 L 500 210 L 500 36" fill="none" stroke="#000000" stroke-miterlimit="10" pointer-events="none"/><path d="M 260 36 L 500 36" fill="none" stroke="#000000" stroke-miterlimit="10" pointer-events="none"/><g fill="#000000" font-family="Helvetica" font-weight="bold" pointer-events="none" text-anchor="middle" font-size="12px"><text x="379.5" y="27.5">InputCheckWithDiags</text></g><g fill="#000000" font-family="Helvetica" pointer-events="none" clip-path="url(#mx-clip-264-41-232-26-0)" font-size="12px"><text x="265.5" y="53.5">+ input_text: str</text></g><path d="M 260 66 L 500 66" fill="none" stroke="#000000" stroke-miterlimit="10" pointer-events="none"/><g fill="#000000" font-family="Helvetica" pointer-events="none" clip-path="url(#mx-clip-264-75-232-140-0)" font-size="12px"><text x="265.5" y="87.5">+ simple_diag(err_txt:str): QMessageBox</text><text x="265.5" y="101.5">+ extended_diag(err_txt:str): bool</text><text x="265.5" y="115.5">+ check_password_len(err_txt:str): bool</text><text x="265.5" y="129.5">+ check_email(err_txt:str): bool</text><text x="265.5" y="143.5">+ check_len(err_txt:str): bool</text><text x="265.5" y="157.5">+ check_incorrect_vals(err_txt:str): bool</text><text x="265.5" y="171.5">+ check_spaces_tabs(err_txt:str): bool</text><text x="265.5" y="185.5">+ check_number_only(err_txt:str): bool</text><text x="265.5" y="199.5">+ secondsToText(secs, inp_type=None):str</text></g><path d="M 260 110 L 222.24 110" fill="none" stroke="#000000" stroke-miterlimit="10" pointer-events="none"/><path d="M 234.12 103.5 L 221.12 110 L 234.12 116.5" fill="none" stroke="#000000" stroke-miterlimit="10" pointer-events="none"/><path d="M 540 109.76 L 502.24 109.76" fill="none" stroke="#000000" stroke-miterlimit="10" pointer-events="none"/><path d="M 514.12 103.26 L 501.12 109.76 L 514.12 116.26" fill="none" stroke="#000000" stroke-miterlimit="10" pointer-events="none"/><path d="M 540 350 L 535 350 Q 530 350 520 350 L 502.24 350" fill="none" stroke="#000000" stroke-miterlimit="10" pointer-events="none"/><path d="M 514.12 343.5 L 501.12 350 L 514.12 356.5" fill="none" stroke="#000000" stroke-miterlimit="10" pointer-events="none"/></g></svg>