<svg width="704" height="535" viewBox="0 0 704 535" fill="none" xmlns="http://www.w3.org/2000/svg">
<path opacity="0.05" fill-rule="evenodd" clip-rule="evenodd" d="M620.145 49.1679C621.722 46.7386 625.278 46.7386 626.855 49.1679L699.989 161.822C701.717 164.483 699.807 168 696.634 168H550.366C547.193 168 545.283 164.483 547.011 161.822L620.145 49.1679Z" fill="#EA5455"/>
<path opacity="0.05" fill-rule="evenodd" clip-rule="evenodd" d="M94.1399 244.204C95.7156 241.764 99.285 241.764 100.86 244.204L191.016 383.83C192.735 386.492 190.824 390 187.656 390H7.34446C4.17618 390 2.26547 386.492 3.98408 383.83L94.1399 244.204Z" fill="#EA5455"/>
<path opacity="0.25" fill-rule="evenodd" clip-rule="evenodd" d="M442.638 220.218C444.213 217.774 447.787 217.774 449.362 220.218L596.027 447.833C597.742 450.495 595.831 454 592.664 454H299.336C296.169 454 294.258 450.495 295.973 447.833L442.638 220.218Z" fill="#7367F0"/>
<path opacity="0.25" fill-rule="evenodd" clip-rule="evenodd" d="M585.558 39.8164C587.107 37.1995 590.894 37.1995 592.443 39.8164L643.428 125.963C645.006 128.629 643.083 132 639.985 132H538.016C534.918 132 532.996 128.629 534.574 125.963L585.558 39.8164Z" fill="#7367F0"/>
<path opacity="0.05" fill-rule="evenodd" clip-rule="evenodd" d="M174.131 5.26734C175.705 2.80802 179.297 2.80802 180.871 5.26734L217.063 61.8445C218.766 64.507 216.854 68 213.694 68H141.308C138.148 68 136.236 64.507 137.939 61.8445L174.131 5.26734Z" fill="#EA5455"/>
<path fill-rule="evenodd" clip-rule="evenodd" d="M95 149.137C95 135.254 106.254 124 120.137 124H582.669C596.552 124 607.806 135.254 607.806 149.137V434.647C607.806 448.53 596.552 459.784 582.669 459.784H120.137C106.254 459.784 95 448.53 95 434.647V149.137Z" fill="#313A53"/>
<g filter="url(#filter0_d)">
<path fill-rule="evenodd" clip-rule="evenodd" d="M238.033 183.361C238.033 179.227 241.384 175.876 245.518 175.876H433.887C438.02 175.876 441.371 179.227 441.371 183.361V308.167C441.371 312.301 438.02 315.652 433.887 315.652H245.518C241.384 315.652 238.033 312.301 238.033 308.167V183.361Z" fill="#7367F0"/>
</g>
<path opacity="0.39488" fill-rule="evenodd" clip-rule="evenodd" d="M291.856 227.909C292.683 227.909 293.353 228.579 293.353 229.406V259.678C293.353 260.505 292.683 261.175 291.856 261.175H284.982C284.156 261.175 283.485 260.505 283.485 259.678V229.406C283.485 228.579 284.156 227.909 284.982 227.909H291.856Z" fill="white"/>
<path fill-rule="evenodd" clip-rule="evenodd" d="M276.308 240.453C277.134 240.453 277.804 241.123 277.804 241.95V259.678C277.804 260.505 277.134 261.175 276.308 261.175H269.433C268.607 261.175 267.937 260.505 267.937 259.678V241.95C267.937 241.123 268.607 240.453 269.433 240.453H276.308Z" fill="white"/>
<path fill-rule="evenodd" clip-rule="evenodd" d="M307.405 215.962C308.232 215.962 308.902 216.632 308.902 217.459V259.678C308.902 260.505 308.232 261.175 307.405 261.175H300.531C299.704 261.175 299.034 260.505 299.034 259.678V217.459C299.034 216.632 299.704 215.962 300.531 215.962H307.405Z" fill="white"/>
<path opacity="0.39488" fill-rule="evenodd" clip-rule="evenodd" d="M322.956 221.936C323.783 221.936 324.453 222.606 324.453 223.432V259.678C324.453 260.505 323.783 261.175 322.956 261.175H316.082C315.255 261.175 314.585 260.505 314.585 259.678V223.432C314.585 222.606 315.255 221.936 316.082 221.936H322.956Z" fill="white"/>
<path fill-rule="evenodd" clip-rule="evenodd" d="M338.505 233.882C339.332 233.882 340.002 234.552 340.002 235.379V259.678C340.002 260.505 339.332 261.175 338.505 261.175H331.631C330.804 261.175 330.134 260.505 330.134 259.678V235.379C330.134 234.552 330.804 233.882 331.631 233.882H338.505Z" fill="white"/>
<path opacity="0.39488" fill-rule="evenodd" clip-rule="evenodd" d="M354.055 260.762C354.881 260.762 355.551 261.432 355.551 262.259V280.585C355.551 281.411 354.881 282.081 354.055 282.081H347.18C346.354 282.081 345.684 281.411 345.684 280.585V262.259C345.684 261.432 346.354 260.762 347.18 260.762H354.055Z" fill="white"/>
<path fill-rule="evenodd" clip-rule="evenodd" d="M369.602 260.762C370.429 260.762 371.099 261.432 371.099 262.259V297.31C371.099 298.136 370.429 298.807 369.602 298.807H362.728C361.902 298.807 361.231 298.136 361.231 297.31V262.259C361.231 261.432 361.902 260.762 362.728 260.762H369.602Z" fill="white"/>
<path opacity="0.39488" fill-rule="evenodd" clip-rule="evenodd" d="M385.152 260.762C385.979 260.762 386.649 261.432 386.649 262.259V288.35C386.649 289.177 385.979 289.847 385.152 289.847H378.278C377.451 289.847 376.781 289.177 376.781 288.35V262.259C376.781 261.432 377.451 260.762 378.278 260.762H385.152Z" fill="white"/>
<path fill-rule="evenodd" clip-rule="evenodd" d="M400.701 260.762C401.528 260.762 402.198 261.432 402.198 262.259V294.323C402.198 295.15 401.528 295.82 400.701 295.82H393.827C393 295.82 392.33 295.15 392.33 294.323V262.259C392.33 261.432 393 260.762 393.827 260.762H400.701Z" fill="white"/>
<path opacity="0.39488" fill-rule="evenodd" clip-rule="evenodd" d="M416.252 260.762C417.079 260.762 417.749 261.432 417.749 262.259V280.585C417.749 281.411 417.079 282.081 416.252 282.081H409.378C408.551 282.081 407.881 281.411 407.881 280.585V262.259C407.881 261.432 408.551 260.762 409.378 260.762H416.252Z" fill="white"/>
<path opacity="0.39488" fill-rule="evenodd" clip-rule="evenodd" d="M262.554 201.562C262.554 200.572 263.356 199.77 264.346 199.77H324.155C325.145 199.77 325.947 200.572 325.947 201.562C325.947 202.551 325.145 203.354 324.155 203.354H264.346C263.356 203.354 262.554 202.551 262.554 201.562Z" fill="white"/>
<path d="M294.253 189.615H264.346C263.356 189.615 262.554 190.417 262.554 191.407C262.554 192.397 263.356 193.199 264.346 193.199H294.253C295.242 193.199 296.045 192.397 296.045 191.407C296.045 190.417 295.242 189.615 294.253 189.615Z" fill="white"/>
<path fill-rule="evenodd" clip-rule="evenodd" d="M95 149.137C95 135.254 106.254 124 120.137 124H175.146C189.029 124 200.283 135.254 200.283 149.137V459.784H120.137C106.254 459.784 95 448.53 95 434.647V149.137Z" fill="#2C344B"/>
<path fill-rule="evenodd" clip-rule="evenodd" d="M107.785 175.29C107.785 172.528 110.024 170.29 112.785 170.29H181.094C183.855 170.29 186.094 172.528 186.094 175.29V179.656C186.094 182.417 183.855 184.656 181.094 184.656H112.785C110.024 184.656 107.785 182.417 107.785 179.656V175.29Z" fill="white" fill-opacity="0.423924"/>
<path fill-rule="evenodd" clip-rule="evenodd" d="M107.785 201.627C107.785 198.866 110.024 196.627 112.785 196.627H149.131C151.892 196.627 154.131 198.866 154.131 201.627V205.993C154.131 208.754 151.892 210.993 149.131 210.993H112.785C110.024 210.993 107.785 208.754 107.785 205.993V201.627Z" fill="white" fill-opacity="0.204873"/>
<path fill-rule="evenodd" clip-rule="evenodd" d="M107.785 225.57C107.785 222.809 110.024 220.57 112.785 220.57H149.131C151.892 220.57 154.131 222.809 154.131 225.57V229.936C154.131 232.697 151.892 234.936 149.131 234.936H112.785C110.024 234.936 107.785 232.697 107.785 229.936V225.57Z" fill="white" fill-opacity="0.204873"/>
<path fill-rule="evenodd" clip-rule="evenodd" d="M470.561 124H582.669C596.552 124 607.806 135.254 607.806 149.137V434.647C607.806 448.53 596.552 459.784 582.669 459.784H470.561V124Z" fill="#2C344B"/>
<g filter="url(#filter1_d)">
<path fill-rule="evenodd" clip-rule="evenodd" d="M493.773 181.127C493.751 175.589 498.235 171.088 503.773 171.088H579.181C584.689 171.088 589.159 175.541 589.181 181.048L589.582 282.36C589.603 287.898 585.12 292.399 579.582 292.399H504.173C498.666 292.399 494.195 287.946 494.173 282.439L493.773 181.127Z" fill="white"/>
</g>
<path opacity="0.33996" d="M524.098 248.504C524.098 247.181 525.17 246.109 526.492 246.109H556.862C558.185 246.109 559.257 247.181 559.257 248.504C559.257 249.826 558.185 250.898 556.862 250.898H526.492C525.17 250.898 524.098 249.826 524.098 248.504Z" fill="#467FFF"/>
<path opacity="0.33996" d="M516.106 261.273C516.106 259.951 517.178 258.879 518.501 258.879H564.852C566.175 258.879 567.247 259.951 567.247 261.273C567.247 262.596 566.175 263.668 564.852 263.668H518.501C517.178 263.668 516.106 262.596 516.106 261.273Z" fill="#467FFF"/>
<g filter="url(#filter2_dd)">
<path d="M541.736 228.691C551.92 228.691 560.175 220.263 560.175 209.866C560.175 199.469 551.92 191.041 541.736 191.041C531.553 191.041 523.298 199.469 523.298 209.866C523.298 220.263 531.553 228.691 541.736 228.691Z" fill="white"/>
</g>
<path fill-rule="evenodd" clip-rule="evenodd" d="M542.084 209.241C544.688 209.241 546.8 207.132 546.8 204.53C546.8 201.929 544.688 199.819 542.084 199.819C539.479 199.819 537.367 201.929 537.367 204.53C537.367 207.132 539.479 209.241 542.084 209.241ZM541.531 210.575C537.639 210.575 534.484 213.73 534.484 217.622C534.484 218.066 534.845 218.427 535.29 218.427H548.877C549.322 218.427 549.683 218.066 549.683 217.622C549.683 213.73 546.528 210.575 542.636 210.575H541.531Z" fill="#7367F0"/>
<path fill-rule="evenodd" clip-rule="evenodd" d="M491.337 366.036C491.337 363.274 493.575 361.036 496.337 361.036H587.019C589.781 361.036 592.019 363.274 592.019 366.036V434.249C592.019 437.011 589.781 439.249 587.019 439.249H496.337C493.575 439.249 491.337 437.011 491.337 434.249V366.036Z" fill="white" fill-opacity="0.345908"/>
<path fill-rule="evenodd" clip-rule="evenodd" d="M95 149.137C95 135.254 106.254 124 120.137 124H582.669C596.552 124 607.806 135.254 607.806 149.137V151.718H95V149.137Z" fill="#283046"/>
<path d="M115.775 140.76C117.541 140.76 118.972 139.331 118.972 137.568C118.972 135.805 117.541 134.375 115.775 134.375C114.01 134.375 112.579 135.805 112.579 137.568C112.579 139.331 114.01 140.76 115.775 140.76Z" fill="#F5818D"/>
<path d="M128.561 140.76C130.326 140.76 131.757 139.331 131.757 137.568C131.757 135.805 130.326 134.375 128.561 134.375C126.795 134.375 125.364 135.805 125.364 137.568C125.364 139.331 126.795 140.76 128.561 140.76Z" fill="#FFBD63"/>
<path d="M142.145 140.76C143.911 140.76 145.342 139.331 145.342 137.568C145.342 135.805 143.911 134.375 142.145 134.375C140.38 134.375 138.949 135.805 138.949 137.568C138.949 139.331 140.38 140.76 142.145 140.76Z" fill="#4CE47A"/>
<g filter="url(#filter3_d)">
<path fill-rule="evenodd" clip-rule="evenodd" d="M240 338.988C240 335.681 242.681 333 245.988 333H361.906C365.213 333 367.893 335.681 367.893 338.988V374.434C367.893 377.74 365.213 380.421 361.906 380.421H245.988C242.681 380.421 240 377.74 240 374.434V338.988Z" fill="white"/>
</g>
<path opacity="0.2" fill-rule="evenodd" clip-rule="evenodd" d="M281.673 360.782C281.673 359.988 282.316 359.345 283.11 359.345H307.06C307.854 359.345 308.497 359.988 308.497 360.782C308.497 361.576 307.854 362.219 307.06 362.219H283.11C282.316 362.219 281.673 361.576 281.673 360.782Z" fill="#FF9F43"/>
<path opacity="0.5" fill-rule="evenodd" clip-rule="evenodd" d="M281.673 352.639C281.673 351.845 282.316 351.202 283.11 351.202H297.48C298.274 351.202 298.917 351.845 298.917 352.639C298.917 353.433 298.274 354.076 297.48 354.076H283.11C282.316 354.076 281.673 353.433 281.673 352.639Z" fill="#FF9F43"/>
<path d="M328.737 351.333C329.149 350.43 330.214 350.032 331.117 350.444C331.415 350.58 331.67 350.794 331.855 351.064L331.92 351.168L335.443 357.158C335.477 357.215 335.55 357.234 335.607 357.201L335.622 357.19L335.636 357.177L337.51 355.058C338.168 354.315 339.303 354.245 340.046 354.902C340.095 354.946 340.141 354.991 340.185 355.04L340.249 355.114L342.998 358.489C343.039 358.541 343.115 358.548 343.166 358.507L343.18 358.493L343.192 358.477L347.534 351.46C348.056 350.617 349.163 350.356 350.007 350.878C350.138 350.959 350.257 351.056 350.363 351.167L350.439 351.253L352.462 353.671C352.759 354.026 352.712 354.555 352.357 354.852C352.022 355.132 351.531 355.106 351.228 354.803L351.176 354.747L349.154 352.329C349.145 352.319 349.136 352.311 349.125 352.304C349.078 352.275 349.019 352.282 348.98 352.318L348.96 352.343L344.618 359.359C344.513 359.529 344.38 359.68 344.225 359.807C343.482 360.412 342.402 360.324 341.764 359.625L341.698 359.548L338.949 356.172C338.945 356.167 338.94 356.162 338.935 356.158C338.894 356.122 338.835 356.119 338.791 356.148L338.766 356.169L336.892 358.288C336.767 358.429 336.62 358.55 336.457 358.646C335.63 359.132 334.574 358.882 334.05 358.092L333.998 358.008L330.475 352.017C330.463 351.996 330.444 351.979 330.422 351.969C330.372 351.946 330.314 351.961 330.28 352.001L330.263 352.028L326.831 359.56C326.703 359.841 326.505 360.083 326.257 360.265L326.162 360.33L322.093 362.924C321.702 363.173 321.184 363.059 320.935 362.668C320.7 362.3 320.789 361.817 321.129 361.555L321.191 361.511L325.261 358.916C325.274 358.908 325.285 358.897 325.294 358.885L325.305 358.865L328.737 351.333Z" fill="#FF9F43"/>
<path d="M263.71 367.01C269.133 367.01 273.53 362.613 273.53 357.19C273.53 351.767 269.133 347.37 263.71 347.37C258.287 347.37 253.891 351.767 253.891 357.19C253.891 362.613 258.287 367.01 263.71 367.01Z" fill="#FF9F43"/>
<g filter="url(#filter4_d)">
<path fill-rule="evenodd" clip-rule="evenodd" d="M240 403.988C240 400.681 242.681 398 245.988 398H361.906C365.213 398 367.893 400.681 367.893 403.988V439.434C367.893 442.74 365.213 445.421 361.906 445.421H245.988C242.681 445.421 240 442.74 240 439.434V403.988Z" fill="white"/>
</g>
<path opacity="0.454078" fill-rule="evenodd" clip-rule="evenodd" d="M282.631 426.261C282.631 425.467 283.274 424.824 284.068 424.824H308.018C308.812 424.824 309.455 425.467 309.455 426.261C309.455 427.055 308.812 427.698 308.018 427.698H284.068C283.274 427.698 282.631 427.055 282.631 426.261Z" fill="#28C76F"/>
<path fill-rule="evenodd" clip-rule="evenodd" d="M282.631 418.118C282.631 417.324 283.274 416.681 284.068 416.681H298.438C299.232 416.681 299.875 417.324 299.875 418.118C299.875 418.912 299.232 419.555 298.438 419.555H284.068C283.274 419.555 282.631 418.912 282.631 418.118Z" fill="#28C76F"/>
<path fill-rule="evenodd" clip-rule="evenodd" d="M321.909 427.495L326.819 418.877C327.481 417.715 328.966 417.32 330.118 418L331.333 418.717C332.182 419.219 333.253 419.148 334.029 418.539L336.176 416.853C336.975 416.225 338.082 416.17 338.94 416.715L340.103 417.455C341.404 418.281 343.158 417.678 343.988 416.38C344.778 415.144 345.902 413.865 347.324 413.466C350.324 412.626 354.156 413.466 354.156 413.466V427.495H321.909Z" fill="url(#paint0_linear)"/>
<path fill-rule="evenodd" clip-rule="evenodd" d="M321.909 427.495L327.208 423.28C328.024 422.63 329.166 422.584 330.033 423.165L330.339 423.37C331.201 423.948 332.336 423.906 333.152 423.265L335.218 421.643C336.017 421.015 337.124 420.96 337.982 421.505L339.795 422.658C340.86 423.334 342.27 423.07 343.124 422.141C344.328 420.829 346.126 419.167 347.864 418.68C350.864 417.839 354.156 418.256 354.156 418.256V427.495H321.909Z" fill="#28C76F"/>
<path d="M263.71 432.01C269.133 432.01 273.53 427.613 273.53 422.19C273.53 416.767 269.133 412.37 263.71 412.37C258.287 412.37 253.891 416.767 253.891 422.19C253.891 427.613 258.287 432.01 263.71 432.01Z" fill="#28C76F"/>
<path d="M367.75 415.456C375.799 415.456 382.324 408.741 382.324 400.457C382.324 392.173 375.799 385.458 367.75 385.458C359.702 385.458 353.177 392.173 353.177 400.457C353.177 408.741 359.702 415.456 367.75 415.456Z" fill="#28C76F"/>
<path fill-rule="evenodd" clip-rule="evenodd" d="M362.766 399.328C362.332 398.803 361.555 398.729 361.029 399.162C360.503 399.596 360.429 400.373 360.862 400.899L365.147 406.087C365.664 406.712 366.59 406.801 367.216 406.285C367.307 406.209 367.389 406.123 367.459 406.029L373.599 397.78C374.006 397.234 373.893 396.461 373.346 396.054C372.799 395.648 372.025 395.761 371.619 396.308L366.24 403.534L362.766 399.328Z" fill="white"/>
<path fill-rule="evenodd" clip-rule="evenodd" d="M180.619 509.175C180.619 509.175 180.494 517.068 185.385 519.872C190.276 522.676 197.854 527.886 197.854 527.886L169.027 528.854L169.849 509.104L180.619 509.175Z" fill="#F8CFCF"/>
<path fill-rule="evenodd" clip-rule="evenodd" d="M168.022 517.873L167.553 530.678H174.248L174.707 529.029C174.707 529.029 177.228 528.926 178.685 529.639C180.225 530.392 180.431 530.758 180.431 530.758L201.67 530.802C201.67 530.802 202.717 526.663 196.243 523.67C189.769 520.675 185.056 516.426 184.16 515.991C183.258 515.553 181.439 515.305 180.157 516.335C178.876 517.364 177.862 520.07 174.958 520.155C171.221 520.264 169.074 515.707 168.022 517.873Z" fill="#4B4B4B"/>
<path d="M186.172 517.38L183.97 519.489" stroke="white" stroke-width="2" stroke-linecap="round"/>
<path d="M189.383 518.979L187.181 521.088" stroke="white" stroke-width="2" stroke-linecap="round"/>
<path d="M192.593 520.578L190.392 522.687" stroke="white" stroke-width="2" stroke-linecap="round"/>
<path fill-rule="evenodd" clip-rule="evenodd" d="M159.521 338.651C159.521 338.651 167.529 425.981 167.778 432.052C168.027 438.123 165.206 448.599 165.261 459.955C165.316 471.311 166.291 511.332 166.291 511.332L183.957 511.703C183.957 511.703 191.382 439.38 191.462 428.535C191.542 417.69 192.223 339.695 192.223 339.695L159.521 338.651Z" fill="#383838"/>
<path opacity="0.283552" fill-rule="evenodd" clip-rule="evenodd" d="M172.254 434.77L172.274 434.986C172.54 438.688 170.218 450.869 165.309 471.527L165.261 459.955C165.207 448.802 167.927 438.497 167.788 432.381L167.778 432.052C167.694 430.006 166.729 418.732 165.486 404.681L166.066 406.739C169.472 418.928 171.535 428.272 172.254 434.77Z" fill="white" fill-opacity="0.192499"/>
<path fill-rule="evenodd" clip-rule="evenodd" d="M138.518 507.788L135.136 528.248L147.605 528.186L147.999 507.467L138.518 507.788Z" fill="#F8CFCF"/>
<path fill-rule="evenodd" clip-rule="evenodd" d="M137.386 516.592C136.042 516.883 135.068 518.05 135.023 519.425L134.929 522.248C133.172 524.194 132.338 529.802 132.245 530.464C132.239 530.507 132.235 530.55 132.24 530.594C132.524 533.347 150.548 533.317 152.326 530.738C152.415 530.609 152.421 530.451 152.395 530.297C152.196 529.098 151.183 523.577 149.246 522.064L149.236 519.265C149.231 517.911 148.32 516.728 147.012 516.378L145.343 515.931C143.52 513.276 141.036 513.37 138.907 516.263L137.386 516.592Z" fill="#4B4B4B"/>
<path d="M139.614 518.474H144.662" stroke="white" stroke-width="2" stroke-linecap="round"/>
<path d="M139.614 520.872H144.662" stroke="white" stroke-width="2" stroke-linecap="round"/>
<path d="M140.418 523.271H143.86" stroke="white" stroke-width="2" stroke-linecap="round"/>
<path fill-rule="evenodd" clip-rule="evenodd" d="M144.806 339.361C144.806 339.361 139.234 399.281 139.31 410.756C139.386 422.231 141.025 427.27 138.692 435.502C136.359 443.734 134.37 509.438 134.37 509.438L151.62 511.323C151.62 511.323 162.64 441.016 163.838 431.268C165.037 421.52 179.847 338.534 179.847 338.534L144.806 339.361Z" fill="#2E2E2E"/>
<path opacity="0.283552" fill-rule="evenodd" clip-rule="evenodd" d="M149.466 380.03L148.414 383.833C145.333 395.057 142.489 406.927 143.234 423.882L143.27 424.656C143.453 428.329 141.113 449.645 136.25 488.605L135.787 491.343C135.31 494.136 134.886 496.519 134.514 498.492L134.619 495.042C135.239 475.996 136.907 441.804 138.693 435.502C141.026 427.27 139.387 422.231 139.311 410.756C139.258 402.723 141.972 370.953 143.606 352.613L144.807 339.361L152.088 339.189L152.106 341.23C152.234 360.071 151.354 373.004 149.466 380.03Z" fill="white" fill-opacity="0.192499"/>
<path fill-rule="evenodd" clip-rule="evenodd" d="M229.585 265.519C229.585 265.519 228.148 257.545 228.665 255.931C229.106 254.535 233.276 252.523 233.276 252.523C233.276 252.523 240.528 241.111 242.115 242.273C243.406 243.215 238.338 251.628 238.338 251.628C238.338 251.628 242.96 256.458 242.895 258.617C242.831 260.776 235.352 267.534 235.352 267.534L229.585 265.519Z" fill="#F8CFCF"/>
<path fill-rule="evenodd" clip-rule="evenodd" d="M233.432 252.408C233.432 252.408 236.644 251.973 237.155 252.969C237.59 253.817 234.922 256.223 234.922 256.9C234.922 257.576 234.96 262.696 235.175 262.742C235.39 262.789 238.392 254.388 237.752 252.611C237.225 251.152 233.432 252.408 233.432 252.408Z" fill="#F28585"/>
<path fill-rule="evenodd" clip-rule="evenodd" d="M191.27 275.664C182.857 268.344 170.224 281.541 184.31 293.81C189.685 298.49 206.566 310.166 210.704 312.733C217.292 316.819 222.705 313.132 224.93 306.702C226.817 301.25 238.105 272.068 236.669 267.782C235.732 264.987 230.705 262.267 228.182 264.466C224.494 267.681 213.214 295.881 213.214 295.881C213.214 295.881 200.835 283.987 191.27 275.664Z" fill="#877BFF"/>
<path fill-rule="evenodd" clip-rule="evenodd" d="M213.214 295.881C213.214 295.881 216.909 300.395 217.175 299.705C217.442 299.016 214.245 293.216 214.245 293.216L213.214 295.881Z" fill="black" fill-opacity="0.159856"/>
<path d="M227.202 266.274C230.137 264.905 233.344 266.597 235.111 269.313" stroke="#5386BF" stroke-linecap="round"/>
<path fill-rule="evenodd" clip-rule="evenodd" d="M155.047 267.392C155.047 267.392 159.823 266.275 159.989 258.48C160.155 250.684 160.038 248.023 160.038 248.023L171.362 247.834C171.362 247.834 171.476 256.522 171.478 259.665C171.483 266.506 176.583 268.355 176.583 268.355C176.583 268.355 176.159 275.835 166.626 276.369C159.183 276.786 155.047 267.392 155.047 267.392Z" fill="#F8C5C5"/>
<path fill-rule="evenodd" clip-rule="evenodd" d="M181.449 239.62L181.196 246.987C183.336 244.482 184.781 241.376 185.209 237.393L181.449 239.62Z" fill="url(#paint1_linear)"/>
<path fill-rule="evenodd" clip-rule="evenodd" d="M158.999 244.083C154.305 243.902 155.071 250.746 159.946 250.736C159.946 250.736 165.186 261.231 173.412 261.258C177.375 261.271 178.669 257.755 179.856 255.287C181.044 252.819 181.916 249.127 181.989 246.867C182.066 244.457 182.076 236.539 182.076 236.539L158.816 236.528L158.999 244.083Z" fill="#F8CFCF"/>
<path fill-rule="evenodd" clip-rule="evenodd" d="M182.077 240.172H165.718C165.546 243.116 164.564 245.561 162.071 247.365C162.142 251.678 163.591 254.818 166.103 257.021C168.29 250.777 181.668 252.485 180.695 256.559C178.651 265.117 159.49 265.311 160.653 245.614C159.888 244.576 157.154 244.382 156.255 245.42C154.718 241.117 155.374 235.029 159.818 234.149C156.329 224.979 203.77 223.039 182.077 240.172Z" fill="#424242"/>
<path d="M171.595 256.181C171.595 256.181 173.726 257.741 176.532 256.035" stroke="#CC6969" stroke-linecap="round"/>
<path d="M159.729 247.99C159.778 246.892 159.441 246.02 158.317 245.845" stroke="#DE6767" stroke-linecap="round"/>
<path fill-rule="evenodd" clip-rule="evenodd" d="M156.936 266.175L170.6 275.08L176.762 267.89C176.762 267.89 189.742 271.926 192.15 276.645C195.625 283.455 191.047 338.013 193.042 341.305C197.295 348.32 191.641 353.136 172.921 354.906C154.202 356.675 137.594 355.226 140.608 345.864C143.622 336.501 131.992 275.399 142.245 272.033C145.449 270.982 156.936 266.175 156.936 266.175Z" fill="#7367F0"/>
<path fill-rule="evenodd" clip-rule="evenodd" d="M147.715 283.019C148.542 284.487 148.115 289.572 146.435 298.273C145.003 305.687 146.64 313.356 150.963 319.543L151.206 319.885C152.667 321.912 154.015 324.581 155.248 327.891C158.274 336.011 151.296 342.78 156.643 355.483L155.996 355.452C145.505 354.907 138.57 352.195 140.608 345.864C143.079 338.187 135.706 295.729 138.622 278.83C143.67 279.824 146.7 281.221 147.715 283.019Z" fill="black" fill-opacity="0.159856"/>
<path fill-rule="evenodd" clip-rule="evenodd" d="M156.936 266.175L169.158 274.17C167.367 276.259 166.406 278.69 166.043 281.365C161.346 277.68 156.463 272.531 154.95 266.994L156.936 266.175Z" fill="#5E54C7"/>
<path fill-rule="evenodd" clip-rule="evenodd" d="M171.566 273.962C173.633 275.364 175.282 277.846 176.624 280.669C178.233 277.425 178.849 273.142 178.849 268.574L176.831 267.773L171.566 273.962Z" fill="#5E54C7"/>
<path fill-rule="evenodd" clip-rule="evenodd" d="M169.158 274.169L169.317 274.258C170.049 274.669 170.965 274.548 171.566 273.962C176.174 290.908 179.415 309.56 180.395 328.516L175.586 336.529L169.961 329.03C170.694 309.329 170.689 290.119 169.158 274.169Z" fill="url(#paint2_linear)"/>
<path d="M181.937 317.326C182.083 315.933 183.359 314.942 184.744 315.145L195.481 316.716C196.789 316.907 197.713 318.097 197.575 319.411L195.609 338.118C195.462 339.51 194.187 340.501 192.801 340.298L182.065 338.727C180.757 338.536 179.833 337.347 179.971 336.032L181.937 317.326Z" fill="#6182EC"/>
<path fill-rule="evenodd" clip-rule="evenodd" d="M183.267 316.951C183.419 315.512 184.772 314.512 186.192 314.791L197.643 317.04L205.389 316.907C206.869 316.882 208.036 318.157 207.882 319.629L205.919 338.302C205.789 339.541 204.755 340.487 203.511 340.508L195.161 340.651L183.278 338.317C182.027 338.072 181.169 336.911 181.303 335.642L183.267 316.951Z" fill="#96EFFA"/>
<path d="M185.387 321.347C185.484 320.42 186.35 319.772 187.266 319.94L192.344 320.871C193.167 321.021 193.735 321.78 193.647 322.612L193.449 324.509C193.351 325.435 192.485 326.083 191.568 325.915L186.49 324.985C185.668 324.834 185.1 324.075 185.187 323.244L185.387 321.347Z" fill="#74CFDB"/>
<path d="M196.742 317.749C196.788 317.31 197.181 316.991 197.621 317.037L197.945 317.071C198.385 317.118 198.704 317.511 198.657 317.951L196.351 339.894C196.305 340.334 195.911 340.652 195.472 340.606L195.147 340.572C194.708 340.526 194.389 340.132 194.435 339.693L196.742 317.749Z" fill="#EAEFFF"/>
<path d="M197.38 317.816C197.426 317.377 197.82 317.058 198.259 317.104L198.584 317.138C199.023 317.185 199.342 317.578 199.296 318.018L196.99 339.961C196.943 340.401 196.55 340.72 196.11 340.673L195.786 340.639C195.346 340.593 195.028 340.199 195.074 339.76L197.38 317.816Z" fill="#7AD2DD"/>
<path fill-rule="evenodd" clip-rule="evenodd" d="M169.97 325.68C169.97 325.68 174.138 324.845 175.844 323.511C177.549 322.177 182.715 321.234 182.715 321.234L181.062 324.701C181.062 324.701 193.723 323.517 194.022 324.761C194.323 326.005 190.661 327.358 190.661 327.358C190.661 327.358 188.855 330.717 187.107 332.665C185.453 334.508 177.235 334.288 174.354 333.138C171.865 332.145 169.158 332.642 169.158 332.642L169.97 325.68Z" fill="#F8CFCF"/>
<path fill-rule="evenodd" clip-rule="evenodd" d="M136.449 277.239C140.976 267.494 156.477 274.06 152.571 284.499C148.786 294.612 139.618 318.224 139.618 318.224C139.618 318.224 168.672 321.898 170.936 323.611C173.958 325.897 172.09 332.42 169.522 333.581C167.349 334.563 151.209 335.137 135.417 333.897C127.604 333.284 121.827 329.941 121.021 321.256C120.456 315.175 132.088 286.626 136.449 277.239Z" fill="#877BFF"/>
<path fill-rule="evenodd" clip-rule="evenodd" d="M139.63 318.218C139.63 318.218 137.215 322.79 137.905 322.884C138.596 322.977 142.104 318.553 142.104 318.553L139.63 318.218Z" fill="black" fill-opacity="0.159856"/>
<path d="M168.892 323.115C169.788 325.965 169.158 329.306 167.915 331.668" stroke="#5386BF" stroke-linecap="round"/>
<path fill-rule="evenodd" clip-rule="evenodd" d="M476.856 298.31L454.111 312.523C454.111 312.523 459.198 320.664 464.286 328.805C469.373 336.947 471.211 347.118 471.211 347.118L493.956 332.906C493.956 332.906 492.118 322.734 487.031 314.593C481.944 306.451 476.856 298.31 476.856 298.31Z" fill="#E8FFFF"/>
<path d="M476.283 307.889L464.456 315.279" stroke="black" stroke-opacity="0.115767" stroke-width="0.8" stroke-linecap="round"/>
<path d="M478.685 312.455L466.858 319.845" stroke="black" stroke-opacity="0.115767" stroke-width="0.8" stroke-linecap="round"/>
<path d="M481.089 317.021L469.262 324.412" stroke="black" stroke-opacity="0.115767" stroke-width="0.8" stroke-linecap="round"/>
<path d="M483.491 321.588L471.664 328.978" stroke="black" stroke-opacity="0.115767" stroke-width="0.8" stroke-linecap="round"/>
<path fill-rule="evenodd" clip-rule="evenodd" d="M570.211 511.491C570.211 511.491 570.114 517.041 570.114 518.828C570.114 520.196 570.17 524.249 570.019 524.872C569.807 525.749 569.59 527.897 569.59 527.897L581.231 528.207C581.231 528.207 578.289 522.486 578.117 521.729C577.946 520.973 576.646 511.491 576.646 511.491H570.211Z" fill="#FFE2E2"/>
<path fill-rule="evenodd" clip-rule="evenodd" d="M579.092 526.108C578.835 525.885 577.266 522.346 574.486 522.346C571.38 522.346 570.536 525.995 570.431 526.108C570.259 526.294 569.463 526.22 569.27 526.574C568.33 528.291 567.832 531.775 568.694 533.036C569.609 534.382 582.069 534.405 582.758 533.137C583.479 531.799 581.775 528.151 580.462 526.574C580.128 526.173 579.226 526.225 579.092 526.108Z" fill="#2E2E2E"/>
<path fill-rule="evenodd" clip-rule="evenodd" d="M540.917 356.288L563.661 353.809L563.995 354.12C565.616 355.669 572.661 362.862 574.685 372.693C578.506 391.253 573.392 425.533 573.505 433.049C573.613 440.566 577.155 445.101 578.627 455.73C580.099 466.358 580.238 513.856 580.238 513.856C576.335 516.176 572.901 516.342 568.248 513.717L540.917 356.288Z" fill="#26553B"/>
<path fill-rule="evenodd" clip-rule="evenodd" d="M561.233 473.311L540.917 356.288L553.563 354.91C554.126 395.563 561.99 450.515 561.233 473.311Z" fill="white" fill-opacity="0.192499"/>
<path fill-rule="evenodd" clip-rule="evenodd" d="M545.576 511.062L537.301 511.184C537.301 511.184 537.793 518.966 534.918 521.602L524.09 527.456C523.243 528.168 522.751 530.376 524.487 530.691C529.861 531.666 545.253 529.352 545.253 529.352L545.576 511.062Z" fill="#FFE2E2"/>
<path fill-rule="evenodd" clip-rule="evenodd" d="M545.332 522.2C544.776 522.23 544.071 525.379 540.917 526.994C537.302 528.846 532.044 528.141 529.759 528.403C528.103 528.593 527.283 525.319 527.283 525.319C527.283 525.319 518.884 529.652 518.139 531.71C517.27 534.1 522.895 534.279 526.916 534.104C530.943 533.93 534.395 532.12 536.349 532.165C538.308 532.21 538.771 533.429 540.236 533.765C541.722 534.106 545.44 534.055 545.784 532.987C546.144 531.878 546.52 522.136 545.332 522.2Z" fill="#2E2E2E"/>
<path fill-rule="evenodd" clip-rule="evenodd" d="M529.635 357.897L555.174 357.029L555.365 357.383C556.604 359.74 563.395 373.54 561.298 389.225C558.355 411.241 549.278 437.051 548.911 440.994C548.258 448.024 549.565 453.114 550.1 460.375C550.636 467.636 547.26 513.301 547.26 513.301C543.47 515.586 538.961 516.035 533.227 513.37C533.227 513.37 528.849 451.343 528.811 441.527C528.773 431.71 529.635 357.897 529.635 357.897Z" fill="#31694A"/>
<path fill-rule="evenodd" clip-rule="evenodd" d="M534.89 381.71L534.719 383.341C532.956 400.542 531.467 437.071 532.096 442.705L532.184 443.419C532.887 449.634 532.7 465.235 531.621 490.223L530.664 475.881C529.505 458.119 528.89 446.894 528.818 442.204L528.811 441.527C528.773 431.71 529.635 357.897 529.635 357.897L535.021 357.714C535.597 367.152 535.553 375.151 534.89 381.71Z" fill="white" fill-opacity="0.192499"/>
<path fill-rule="evenodd" clip-rule="evenodd" d="M539.374 276.369C536.231 276.714 536.454 282.254 540.279 282.543C541.061 287.883 543.849 290.428 547.249 290.722L547.06 298.8L562.097 298.791C562.097 298.791 557.863 293.085 558.074 285.273C558.285 277.46 557.932 270.122 557.932 270.122L538.456 270.472L539.374 276.369Z" fill="url(#paint3_linear)"/>
<path fill-rule="evenodd" clip-rule="evenodd" d="M595.714 314.835C595.714 314.835 595.056 310.344 595.265 307.388C595.651 301.922 594.913 297.311 596.106 296.594C597.637 295.674 598.589 304.316 598.589 304.316C598.589 304.316 605.962 290.202 607.784 291.946C609.606 293.69 606.603 300.475 607.206 302.668C607.808 304.86 601.786 315.468 601.786 315.468L590.936 343.455L587.19 328.237L595.714 314.835Z" fill="#FFE2E2"/>
<path fill-rule="evenodd" clip-rule="evenodd" d="M563.404 320.63C563.404 320.63 576.643 341.519 579.568 345.57C582.636 349.818 588.054 351.7 591.899 344.922C592.602 343.682 594.416 340.218 594.416 340.218C593.382 333.995 591.279 328.857 586.944 325.991L585.033 328.803C585.033 328.803 576.242 312.648 573.501 308.836C566.111 298.556 554.85 307.787 563.404 320.63Z" fill="#88CEA7"/>
<path fill-rule="evenodd" clip-rule="evenodd" d="M535.429 300.364C532.075 305.306 526.484 322.078 526.166 325.851C525.809 330.203 530.462 337.137 530.539 343.437C530.607 349.739 527.068 370.312 528.131 372.084C528.799 373.206 545.199 378.835 558.605 377.377C570.18 376.119 574.794 368.6 574.22 367.248C572.655 363.557 565.391 352.786 566.131 347.757C566.862 342.729 571.111 324.169 573.22 317.852C575.321 311.535 574.621 304.903 570.699 302.185C568.759 300.84 563.581 297.019 554.36 297.036C545.139 297.054 535.69 299.981 535.429 300.364Z" fill="#6BCA95"/>
<path fill-rule="evenodd" clip-rule="evenodd" d="M530.56 311.052L530.663 311C536.876 307.89 540.608 307.753 541.859 310.588C543.429 314.145 539.524 324.004 530.145 340.163C529.016 334.84 525.87 329.459 526.166 325.851C526.35 323.667 528.299 317.13 530.56 311.052Z" fill="black" fill-opacity="0.159856"/>
<path fill-rule="evenodd" clip-rule="evenodd" d="M481.218 340.451C481.218 340.451 471.934 340.994 470.334 339.675C468.733 338.356 462.356 331.789 463.053 330.246C463.749 328.704 471.163 331.967 471.659 330.986C472.296 329.725 469.006 325.229 471.889 324.967C472.631 324.899 473.156 327.667 475.246 329.49C477.336 331.313 481.584 334.557 481.584 334.557L513.611 329.49L516.601 339.768L481.218 340.451Z" fill="#FFE2E2"/>
<path fill-rule="evenodd" clip-rule="evenodd" d="M532.502 302.578C525.168 309.535 514.784 325.962 512.572 327.409C512.085 327.728 507.889 329.408 507.889 329.408C506.123 334.119 509.108 339.457 513.447 341.743C513.447 341.743 518.206 341.05 519.326 340.724C525.041 339.065 535.046 323.934 539.203 319.104C550.635 305.825 539.836 295.621 532.502 302.578Z" fill="#88CEA7"/>
<path fill-rule="evenodd" clip-rule="evenodd" d="M576.201 298.209C568.506 285.923 566.867 270.281 561.411 265.031C557.08 260.863 550.206 262.019 550.206 262.019C550.206 262.019 544.252 257.012 538.414 262.019C532.575 267.027 532.48 284.441 536.54 295.386C540.6 306.331 544.86 319 560.83 319C569.779 319 584.892 312.085 576.201 298.209Z" fill="#28211D"/>
<path fill-rule="evenodd" clip-rule="evenodd" d="M576 213.938C576 209.63 579.492 206.138 583.8 206.138H618.284C622.592 206.138 626.084 209.63 626.084 213.938V257.959C626.084 262.266 622.592 265.759 618.284 265.759H583.8C579.492 265.759 576 262.266 576 257.959V213.938Z" fill="#FF9F43"/>
<path fill-rule="evenodd" clip-rule="evenodd" d="M580.174 215.522C580.174 212.65 582.502 210.322 585.374 210.322H616.711C619.583 210.322 621.911 212.65 621.911 215.522V256.375C621.911 259.247 619.583 261.575 616.711 261.575H585.374C582.502 261.575 580.174 259.247 580.174 256.375V215.522Z" fill="white"/>
<path d="M623.475 272.035C630.679 272.035 636.518 266.181 636.518 258.96C636.518 251.739 630.679 245.885 623.475 245.885C616.272 245.885 610.433 251.739 610.433 258.96C610.433 266.181 616.272 272.035 623.475 272.035Z" fill="#28C76F"/>
<path fill-rule="evenodd" clip-rule="evenodd" d="M627.002 254.814C627.366 254.191 628.166 253.982 628.787 254.348C629.367 254.689 629.587 255.409 629.317 256.01L629.252 256.137L624.879 263.608C624.785 263.768 624.673 263.916 624.544 264.05C623.687 264.941 622.299 265.008 621.362 264.234L621.225 264.111L617.868 260.868C617.349 260.367 617.334 259.539 617.834 259.019C618.3 258.534 619.051 258.488 619.571 258.892L619.678 258.985L622.796 261.998L627.002 254.814Z" fill="white"/>
<path opacity="0.33996" d="M586.435 222.874C586.435 222.296 586.903 221.828 587.481 221.828H614.604C615.182 221.828 615.65 222.296 615.65 222.874C615.65 223.451 615.182 223.92 614.604 223.92H587.481C586.903 223.92 586.435 223.451 586.435 222.874Z" fill="#467FFF"/>
<path opacity="0.33996" d="M586.435 231.241C586.435 230.664 586.903 230.195 587.481 230.195H614.604C615.182 230.195 615.65 230.664 615.65 231.241C615.65 231.819 615.182 232.287 614.604 232.287H587.481C586.903 232.287 586.435 231.819 586.435 231.241Z" fill="#467FFF"/>
<path opacity="0.33996" d="M586.435 239.609C586.435 239.032 586.903 238.563 587.481 238.563H614.604C615.182 238.563 615.65 239.032 615.65 239.609C615.65 240.187 615.182 240.655 614.604 240.655H587.481C586.903 240.655 586.435 240.187 586.435 239.609Z" fill="#467FFF"/>
<path d="M609.407 203H592.678C589.807 203 587.479 205.328 587.479 208.2V209.306C587.479 212.178 589.807 214.506 592.678 214.506H609.407C612.279 214.506 614.607 212.178 614.607 209.306V208.2C614.607 205.328 612.279 203 609.407 203Z" fill="#FF9F43"/>
<path d="M367.762 352.524C375.915 352.524 382.524 345.915 382.524 337.762C382.524 329.609 375.915 323 367.762 323C359.609 323 353 329.609 353 337.762C353 345.915 359.609 352.524 367.762 352.524Z" fill="#FF9F43"/>
<path d="M366.215 329.557C366.255 329.236 366.533 329.002 366.851 329.009L366.915 329.014L373.833 329.884C374.155 329.927 374.387 330.206 374.378 330.524L374.372 330.588L373.469 337.412C373.447 337.575 373.363 337.722 373.233 337.823C372.977 338.024 372.613 337.993 372.393 337.761L372.354 337.715L371.117 336.133L364.637 341.141C364.38 341.339 364.018 341.307 363.799 341.076L363.76 341.031L362.734 339.718L362.118 345.343L367.653 346.014L366.655 344.736C366.454 344.479 366.485 344.115 366.717 343.896L366.763 343.856L371.317 340.298C371.549 340.117 371.884 340.158 372.065 340.39C372.235 340.607 372.21 340.915 372.015 341.102L371.973 341.138L367.765 344.426L369.145 346.192C369.345 346.449 369.314 346.813 369.083 347.032L369.037 347.072C368.922 347.161 368.781 347.207 368.637 347.204L368.575 347.2L361.559 346.348C361.239 346.31 361.005 346.037 361.007 345.722L361.011 345.658L361.792 338.528C361.83 338.184 362.14 337.936 362.484 337.974C362.631 337.99 362.767 338.057 362.868 338.163L362.909 338.211L364.33 340.03L370.811 335.022C371.068 334.824 371.43 334.856 371.649 335.087L371.688 335.132L372.549 336.235L373.257 330.886L367.837 330.204L368.788 331.421C368.989 331.678 368.958 332.042 368.726 332.261L368.68 332.301L364.207 335.795C363.975 335.977 363.641 335.936 363.459 335.704C363.289 335.486 363.315 335.178 363.51 334.991L363.551 334.956L367.678 331.731L366.342 330.022C366.253 329.906 366.206 329.764 366.21 329.62L366.215 329.557Z" fill="white"/>
<defs>
<filter id="filter0_d" x="214.033" y="149.876" width="263.338" height="199.776" filterUnits="userSpaceOnUse" color-interpolation-filters="sRGB">
<feFlood flood-opacity="0" result="BackgroundImageFix"/>
<feColorMatrix in="SourceAlpha" type="matrix" values="0 0 0 0 0 0 0 0 0 0 0 0 0 0 0 0 0 0 127 0"/>
<feOffset dx="6" dy="4"/>
<feGaussianBlur stdDeviation="15"/>
<feColorMatrix type="matrix" values="0 0 0 0 0 0 0 0 0 0 0 0 0 0 0 0 0 0 0.264724 0"/>
<feBlend mode="normal" in2="BackgroundImageFix" result="effect1_dropShadow"/>
<feBlend mode="normal" in="SourceGraphic" in2="effect1_dropShadow" result="shape"/>
</filter>
<filter id="filter1_d" x="480.772" y="159.088" width="137.809" height="163.311" filterUnits="userSpaceOnUse" color-interpolation-filters="sRGB">
<feFlood flood-opacity="0" result="BackgroundImageFix"/>
<feColorMatrix in="SourceAlpha" type="matrix" values="0 0 0 0 0 0 0 0 0 0 0 0 0 0 0 0 0 0 127 0"/>
<feOffset dx="8" dy="9"/>
<feGaussianBlur stdDeviation="10.5"/>
<feColorMatrix type="matrix" values="0 0 0 0 0.276721 0 0 0 0 0.276721 0 0 0 0 0.276721 0 0 0 0.208725 0"/>
<feBlend mode="normal" in2="BackgroundImageFix" result="effect1_dropShadow"/>
<feBlend mode="normal" in="SourceGraphic" in2="effect1_dropShadow" result="shape"/>
</filter>
<filter id="filter2_dd" x="503.298" y="172.041" width="92.8768" height="93.6508" filterUnits="userSpaceOnUse" color-interpolation-filters="sRGB">
<feFlood flood-opacity="0" result="BackgroundImageFix"/>
<feColorMatrix in="SourceAlpha" type="matrix" values="0 0 0 0 0 0 0 0 0 0 0 0 0 0 0 0 0 0 127 0"/>
<feOffset dx="8" dy="9"/>
<feGaussianBlur stdDeviation="14"/>
<feColorMatrix type="matrix" values="0 0 0 0 0.0755213 0 0 0 0 0.582569 0 0 0 0 0.878793 0 0 0 0.229458 0"/>
<feBlend mode="normal" in2="BackgroundImageFix" result="effect1_dropShadow"/>
<feColorMatrix in="SourceAlpha" type="matrix" values="0 0 0 0 0 0 0 0 0 0 0 0 0 0 0 0 0 0 127 0"/>
<feOffset dy="2"/>
<feGaussianBlur stdDeviation="7.5"/>
<feColorMatrix type="matrix" values="0 0 0 0 0.503982 0 0 0 0 0.700178 0 0 0 0 1 0 0 0 0.233829 0"/>
<feBlend mode="normal" in2="effect1_dropShadow" result="effect2_dropShadow"/>
<feBlend mode="normal" in="SourceGraphic" in2="effect2_dropShadow" result="shape"/>
</filter>
<filter id="filter3_d" x="229" y="323" width="161.893" height="81.421" filterUnits="userSpaceOnUse" color-interpolation-filters="sRGB">
<feFlood flood-opacity="0" result="BackgroundImageFix"/>
<feColorMatrix in="SourceAlpha" type="matrix" values="0 0 0 0 0 0 0 0 0 0 0 0 0 0 0 0 0 0 127 0"/>
<feOffset dx="6" dy="7"/>
<feGaussianBlur stdDeviation="8.5"/>
<feColorMatrix type="matrix" values="0 0 0 0 0.561707 0 0 0 0 0.561707 0 0 0 0 0.561707 0 0 0 0.208725 0"/>
<feBlend mode="normal" in2="BackgroundImageFix" result="effect1_dropShadow"/>
<feBlend mode="normal" in="SourceGraphic" in2="effect1_dropShadow" result="shape"/>
</filter>
<filter id="filter4_d" x="232" y="390" width="153.893" height="73.421" filterUnits="userSpaceOnUse" color-interpolation-filters="sRGB">
<feFlood flood-opacity="0" result="BackgroundImageFix"/>
<feColorMatrix in="SourceAlpha" type="matrix" values="0 0 0 0 0 0 0 0 0 0 0 0 0 0 0 0 0 0 127 0"/>
<feOffset dx="5" dy="5"/>
<feGaussianBlur stdDeviation="6.5"/>
<feColorMatrix type="matrix" values="0 0 0 0 0.649655 0 0 0 0 0.649655 0 0 0 0 0.649655 0 0 0 0.208725 0"/>
<feBlend mode="normal" in2="BackgroundImageFix" result="effect1_dropShadow"/>
<feBlend mode="normal" in="SourceGraphic" in2="effect1_dropShadow" result="shape"/>
</filter>
<linearGradient id="paint0_linear" x1="326.855" y1="412.083" x2="326.855" y2="427.495" gradientUnits="userSpaceOnUse">
<stop stop-color="#71FFB0"/>
<stop offset="1" stop-color="#91F688"/>
</linearGradient>
<linearGradient id="paint1_linear" x1="186.894" y1="230.881" x2="178.043" y2="231.696" gradientUnits="userSpaceOnUse">
<stop stop-color="#4D63A0"/>
<stop offset="1" stop-color="#222735"/>
</linearGradient>
<linearGradient id="paint2_linear" x1="177.015" y1="329.953" x2="192.022" y2="325.585" gradientUnits="userSpaceOnUse">
<stop stop-color="#2E4175"/>
<stop offset="1" stop-color="#222735"/>
</linearGradient>
<linearGradient id="paint3_linear" x1="530.384" y1="263.14" x2="532.92" y2="303.061" gradientUnits="userSpaceOnUse">
<stop stop-color="#FDC6C6"/>
<stop offset="1" stop-color="#A47070"/>
</linearGradient>
</defs>
</svg>
