<svg width="698" height="532" viewBox="0 0 698 532" fill="none" xmlns="http://www.w3.org/2000/svg">
<path opacity="0.05" fill-rule="evenodd" clip-rule="evenodd" d="M617.145 46.1679C618.722 43.7386 622.278 43.7386 623.855 46.1679L696.989 158.822C698.717 161.483 696.807 165 693.634 165H547.366C544.193 165 542.283 161.483 544.011 158.822L617.145 46.1679Z" fill="#EA5455"/>
<path opacity="0.05" fill-rule="evenodd" clip-rule="evenodd" d="M91.1399 241.204C92.7156 238.764 96.285 238.764 97.8603 241.204L188.016 380.83C189.735 383.492 187.824 387 184.656 387H4.34446C1.17618 387 -0.734527 383.492 0.984083 380.83L91.1399 241.204Z" fill="#EA5455"/>
<path opacity="0.25" fill-rule="evenodd" clip-rule="evenodd" d="M439.638 217.218C441.213 214.774 444.787 214.774 446.362 217.218L593.027 444.833C594.742 447.495 592.831 451 589.664 451H296.336C293.169 451 291.258 447.495 292.973 444.833L439.638 217.218Z" fill="#7367F0"/>
<path opacity="0.25" fill-rule="evenodd" clip-rule="evenodd" d="M582.558 36.8164C584.107 34.1995 587.894 34.1995 589.443 36.8164L640.428 122.963C642.006 125.629 640.083 129 636.985 129H535.016C531.918 129 529.996 125.629 531.574 122.963L582.558 36.8164Z" fill="#7367F0"/>
<path opacity="0.05" fill-rule="evenodd" clip-rule="evenodd" d="M171.131 2.26734C172.705 -0.191978 176.297 -0.191978 177.871 2.26734L214.063 58.8445C215.766 61.507 213.854 65 210.694 65H138.308C135.148 65 133.236 61.507 134.939 58.8445L171.131 2.26734Z" fill="#EA5455"/>
<path fill-rule="evenodd" clip-rule="evenodd" d="M92 146.137C92 132.254 103.254 121 117.137 121H579.669C593.552 121 604.806 132.254 604.806 146.137V431.647C604.806 445.53 593.552 456.784 579.669 456.784H117.137C103.254 456.784 92 445.53 92 431.647V146.137Z" fill="#313A53"/>
<g filter="url(#filter0_d)">
<path fill-rule="evenodd" clip-rule="evenodd" d="M235.033 180.361C235.033 176.227 238.384 172.876 242.518 172.876H430.887C435.02 172.876 438.371 176.227 438.371 180.361V305.167C438.371 309.301 435.02 312.652 430.887 312.652H242.518C238.384 312.652 235.033 309.301 235.033 305.167V180.361Z" fill="#7367F0"/>
</g>
<path opacity="0.39488" fill-rule="evenodd" clip-rule="evenodd" d="M288.856 224.909C289.683 224.909 290.353 225.579 290.353 226.406V256.678C290.353 257.505 289.683 258.175 288.856 258.175H281.982C281.156 258.175 280.485 257.505 280.485 256.678V226.406C280.485 225.579 281.156 224.909 281.982 224.909H288.856Z" fill="white"/>
<path fill-rule="evenodd" clip-rule="evenodd" d="M273.308 237.453C274.134 237.453 274.804 238.123 274.804 238.95V256.678C274.804 257.505 274.134 258.175 273.308 258.175H266.433C265.607 258.175 264.937 257.505 264.937 256.678V238.95C264.937 238.123 265.607 237.453 266.433 237.453H273.308Z" fill="white"/>
<path fill-rule="evenodd" clip-rule="evenodd" d="M304.405 212.962C305.232 212.962 305.902 213.632 305.902 214.459V256.678C305.902 257.505 305.232 258.175 304.405 258.175H297.531C296.704 258.175 296.034 257.505 296.034 256.678V214.459C296.034 213.632 296.704 212.962 297.531 212.962H304.405Z" fill="white"/>
<path opacity="0.39488" fill-rule="evenodd" clip-rule="evenodd" d="M319.956 218.936C320.783 218.936 321.453 219.606 321.453 220.432V256.678C321.453 257.505 320.783 258.175 319.956 258.175H313.082C312.255 258.175 311.585 257.505 311.585 256.678V220.432C311.585 219.606 312.255 218.936 313.082 218.936H319.956Z" fill="white"/>
<path fill-rule="evenodd" clip-rule="evenodd" d="M335.505 230.882C336.332 230.882 337.002 231.552 337.002 232.379V256.678C337.002 257.505 336.332 258.175 335.505 258.175H328.631C327.804 258.175 327.134 257.505 327.134 256.678V232.379C327.134 231.552 327.804 230.882 328.631 230.882H335.505Z" fill="white"/>
<path opacity="0.39488" fill-rule="evenodd" clip-rule="evenodd" d="M351.055 257.762C351.881 257.762 352.551 258.432 352.551 259.259V277.585C352.551 278.411 351.881 279.081 351.055 279.081H344.18C343.354 279.081 342.684 278.411 342.684 277.585V259.259C342.684 258.432 343.354 257.762 344.18 257.762H351.055Z" fill="white"/>
<path fill-rule="evenodd" clip-rule="evenodd" d="M366.602 257.762C367.429 257.762 368.099 258.432 368.099 259.259V294.31C368.099 295.136 367.429 295.807 366.602 295.807H359.728C358.902 295.807 358.231 295.136 358.231 294.31V259.259C358.231 258.432 358.902 257.762 359.728 257.762H366.602Z" fill="white"/>
<path opacity="0.39488" fill-rule="evenodd" clip-rule="evenodd" d="M382.152 257.762C382.979 257.762 383.649 258.432 383.649 259.259V285.35C383.649 286.177 382.979 286.847 382.152 286.847H375.278C374.451 286.847 373.781 286.177 373.781 285.35V259.259C373.781 258.432 374.451 257.762 375.278 257.762H382.152Z" fill="white"/>
<path fill-rule="evenodd" clip-rule="evenodd" d="M397.701 257.762C398.528 257.762 399.198 258.432 399.198 259.259V291.323C399.198 292.15 398.528 292.82 397.701 292.82H390.827C390 292.82 389.33 292.15 389.33 291.323V259.259C389.33 258.432 390 257.762 390.827 257.762H397.701Z" fill="white"/>
<path opacity="0.39488" fill-rule="evenodd" clip-rule="evenodd" d="M413.252 257.762C414.079 257.762 414.749 258.432 414.749 259.259V277.585C414.749 278.411 414.079 279.081 413.252 279.081H406.378C405.551 279.081 404.881 278.411 404.881 277.585V259.259C404.881 258.432 405.551 257.762 406.378 257.762H413.252Z" fill="white"/>
<path opacity="0.39488" fill-rule="evenodd" clip-rule="evenodd" d="M259.554 198.562C259.554 197.572 260.356 196.77 261.346 196.77H321.155C322.145 196.77 322.947 197.572 322.947 198.562C322.947 199.551 322.145 200.354 321.155 200.354H261.346C260.356 200.354 259.554 199.551 259.554 198.562Z" fill="white"/>
<path d="M291.253 186.615H261.346C260.356 186.615 259.554 187.417 259.554 188.407C259.554 189.397 260.356 190.199 261.346 190.199H291.253C292.242 190.199 293.045 189.397 293.045 188.407C293.045 187.417 292.242 186.615 291.253 186.615Z" fill="white"/>
<path fill-rule="evenodd" clip-rule="evenodd" d="M92 146.137C92 132.254 103.254 121 117.137 121H172.146C186.029 121 197.283 132.254 197.283 146.137V456.784H117.137C103.254 456.784 92 445.53 92 431.647V146.137Z" fill="#2C344B"/>
<path fill-rule="evenodd" clip-rule="evenodd" d="M104.785 172.29C104.785 169.528 107.024 167.29 109.785 167.29H178.094C180.855 167.29 183.094 169.528 183.094 172.29V176.656C183.094 179.417 180.855 181.656 178.094 181.656H109.785C107.024 181.656 104.785 179.417 104.785 176.656V172.29Z" fill="white" fill-opacity="0.423924"/>
<path fill-rule="evenodd" clip-rule="evenodd" d="M104.785 198.627C104.785 195.866 107.024 193.627 109.785 193.627H146.131C148.892 193.627 151.131 195.866 151.131 198.627V202.993C151.131 205.754 148.892 207.993 146.131 207.993H109.785C107.024 207.993 104.785 205.754 104.785 202.993V198.627Z" fill="white" fill-opacity="0.204873"/>
<path fill-rule="evenodd" clip-rule="evenodd" d="M104.785 222.57C104.785 219.809 107.024 217.57 109.785 217.57H146.131C148.892 217.57 151.131 219.809 151.131 222.57V226.936C151.131 229.697 148.892 231.936 146.131 231.936H109.785C107.024 231.936 104.785 229.697 104.785 226.936V222.57Z" fill="white" fill-opacity="0.204873"/>
<path fill-rule="evenodd" clip-rule="evenodd" d="M467.561 121H579.669C593.552 121 604.806 132.254 604.806 146.137V431.647C604.806 445.53 593.552 456.784 579.669 456.784H467.561V121Z" fill="#2C344B"/>
<g filter="url(#filter1_d)">
<path fill-rule="evenodd" clip-rule="evenodd" d="M490.773 178.127C490.751 172.589 495.235 168.088 500.773 168.088H576.181C581.689 168.088 586.159 172.541 586.181 178.048L586.582 279.36C586.603 284.898 582.12 289.399 576.582 289.399H501.173C495.666 289.399 491.195 284.946 491.173 279.439L490.773 178.127Z" fill="white"/>
</g>
<path opacity="0.33996" d="M521.098 245.504C521.098 244.181 522.17 243.109 523.492 243.109H553.862C555.185 243.109 556.257 244.181 556.257 245.504C556.257 246.826 555.185 247.898 553.862 247.898H523.492C522.17 247.898 521.098 246.826 521.098 245.504Z" fill="#467FFF"/>
<path opacity="0.33996" d="M513.106 258.273C513.106 256.951 514.178 255.879 515.501 255.879H561.852C563.175 255.879 564.247 256.951 564.247 258.273C564.247 259.596 563.175 260.668 561.852 260.668H515.501C514.178 260.668 513.106 259.596 513.106 258.273Z" fill="#467FFF"/>
<g filter="url(#filter2_dd)">
<path d="M538.736 225.691C548.92 225.691 557.175 217.263 557.175 206.866C557.175 196.469 548.92 188.041 538.736 188.041C528.553 188.041 520.298 196.469 520.298 206.866C520.298 217.263 528.553 225.691 538.736 225.691Z" fill="white"/>
</g>
<path fill-rule="evenodd" clip-rule="evenodd" d="M539.084 206.241C541.688 206.241 543.8 204.132 543.8 201.53C543.8 198.929 541.688 196.819 539.084 196.819C536.479 196.819 534.367 198.929 534.367 201.53C534.367 204.132 536.479 206.241 539.084 206.241ZM538.531 207.575C534.639 207.575 531.484 210.73 531.484 214.622C531.484 215.066 531.845 215.427 532.29 215.427H545.877C546.322 215.427 546.683 215.066 546.683 214.622C546.683 210.73 543.528 207.575 539.636 207.575H538.531Z" fill="#7367F0"/>
<path fill-rule="evenodd" clip-rule="evenodd" d="M488.337 363.036C488.337 360.274 490.575 358.036 493.337 358.036H584.019C586.781 358.036 589.019 360.274 589.019 363.036V431.249C589.019 434.011 586.781 436.249 584.019 436.249H493.337C490.575 436.249 488.337 434.011 488.337 431.249V363.036Z" fill="white" fill-opacity="0.345908"/>
<path fill-rule="evenodd" clip-rule="evenodd" d="M92 146.137C92 132.254 103.254 121 117.137 121H579.669C593.552 121 604.806 132.254 604.806 146.137V148.718H92V146.137Z" fill="#283046"/>
<path d="M112.775 137.76C114.541 137.76 115.972 136.331 115.972 134.568C115.972 132.805 114.541 131.375 112.775 131.375C111.01 131.375 109.579 132.805 109.579 134.568C109.579 136.331 111.01 137.76 112.775 137.76Z" fill="#F5818D"/>
<path d="M125.561 137.76C127.326 137.76 128.757 136.331 128.757 134.568C128.757 132.805 127.326 131.375 125.561 131.375C123.795 131.375 122.364 132.805 122.364 134.568C122.364 136.331 123.795 137.76 125.561 137.76Z" fill="#FFBD63"/>
<path d="M139.145 137.76C140.911 137.76 142.342 136.331 142.342 134.568C142.342 132.805 140.911 131.375 139.145 131.375C137.38 131.375 135.949 132.805 135.949 134.568C135.949 136.331 137.38 137.76 139.145 137.76Z" fill="#4CE47A"/>
<g filter="url(#filter3_d)">
<path fill-rule="evenodd" clip-rule="evenodd" d="M237 335.988C237 332.681 239.681 330 242.988 330H358.906C362.213 330 364.893 332.681 364.893 335.988V371.434C364.893 374.74 362.213 377.421 358.906 377.421H242.988C239.681 377.421 237 374.74 237 371.434V335.988Z" fill="white"/>
</g>
<path opacity="0.2" fill-rule="evenodd" clip-rule="evenodd" d="M278.673 357.782C278.673 356.988 279.316 356.345 280.11 356.345H304.06C304.854 356.345 305.497 356.988 305.497 357.782C305.497 358.576 304.854 359.219 304.06 359.219H280.11C279.316 359.219 278.673 358.576 278.673 357.782Z" fill="#FF9F43"/>
<path opacity="0.5" fill-rule="evenodd" clip-rule="evenodd" d="M278.673 349.639C278.673 348.845 279.316 348.202 280.11 348.202H294.48C295.274 348.202 295.917 348.845 295.917 349.639C295.917 350.433 295.274 351.076 294.48 351.076H280.11C279.316 351.076 278.673 350.433 278.673 349.639Z" fill="#FF9F43"/>
<path d="M325.737 348.333C326.149 347.43 327.214 347.032 328.117 347.444C328.415 347.58 328.67 347.794 328.855 348.064L328.92 348.168L332.443 354.158C332.477 354.215 332.55 354.234 332.607 354.201L332.622 354.19L332.636 354.177L334.51 352.058C335.168 351.315 336.303 351.245 337.046 351.902C337.095 351.946 337.141 351.991 337.185 352.04L337.249 352.114L339.998 355.489C340.039 355.541 340.115 355.548 340.166 355.507L340.18 355.493L340.192 355.477L344.534 348.46C345.056 347.617 346.163 347.356 347.007 347.878C347.138 347.959 347.257 348.056 347.363 348.167L347.439 348.253L349.462 350.671C349.759 351.026 349.712 351.555 349.357 351.852C349.022 352.132 348.531 352.106 348.228 351.803L348.176 351.747L346.154 349.329C346.145 349.319 346.136 349.311 346.125 349.304C346.078 349.275 346.019 349.282 345.98 349.318L345.96 349.343L341.618 356.359C341.513 356.529 341.38 356.68 341.225 356.807C340.482 357.412 339.402 357.324 338.764 356.625L338.698 356.548L335.949 353.172C335.945 353.167 335.94 353.162 335.935 353.158C335.894 353.122 335.835 353.119 335.791 353.148L335.766 353.169L333.892 355.288C333.767 355.429 333.62 355.55 333.457 355.646C332.63 356.132 331.574 355.882 331.05 355.092L330.998 355.008L327.475 349.017C327.463 348.996 327.444 348.979 327.422 348.969C327.372 348.946 327.314 348.961 327.28 349.001L327.263 349.028L323.831 356.56C323.703 356.841 323.505 357.083 323.257 357.265L323.162 357.33L319.093 359.924C318.702 360.173 318.184 360.059 317.935 359.668C317.7 359.3 317.789 358.817 318.129 358.555L318.191 358.511L322.261 355.916C322.274 355.908 322.285 355.897 322.294 355.885L322.305 355.865L325.737 348.333Z" fill="#FF9F43"/>
<path d="M260.71 364.01C266.133 364.01 270.53 359.613 270.53 354.19C270.53 348.767 266.133 344.37 260.71 344.37C255.287 344.37 250.891 348.767 250.891 354.19C250.891 359.613 255.287 364.01 260.71 364.01Z" fill="#FF9F43"/>
<g filter="url(#filter4_d)">
<path fill-rule="evenodd" clip-rule="evenodd" d="M237 400.988C237 397.681 239.681 395 242.988 395H358.906C362.213 395 364.893 397.681 364.893 400.988V436.434C364.893 439.74 362.213 442.421 358.906 442.421H242.988C239.681 442.421 237 439.74 237 436.434V400.988Z" fill="white"/>
</g>
<path opacity="0.454078" fill-rule="evenodd" clip-rule="evenodd" d="M279.631 423.261C279.631 422.467 280.274 421.824 281.068 421.824H305.018C305.812 421.824 306.455 422.467 306.455 423.261C306.455 424.055 305.812 424.698 305.018 424.698H281.068C280.274 424.698 279.631 424.055 279.631 423.261Z" fill="#28C76F"/>
<path fill-rule="evenodd" clip-rule="evenodd" d="M279.631 415.118C279.631 414.324 280.274 413.681 281.068 413.681H295.438C296.232 413.681 296.875 414.324 296.875 415.118C296.875 415.912 296.232 416.555 295.438 416.555H281.068C280.274 416.555 279.631 415.912 279.631 415.118Z" fill="#28C76F"/>
<path fill-rule="evenodd" clip-rule="evenodd" d="M318.909 424.495L323.819 415.877C324.481 414.715 325.966 414.32 327.118 415L328.333 415.717C329.182 416.219 330.253 416.148 331.029 415.539L333.176 413.853C333.975 413.225 335.082 413.17 335.94 413.715L337.103 414.455C338.404 415.281 340.158 414.678 340.988 413.38C341.778 412.144 342.902 410.865 344.324 410.466C347.324 409.626 351.156 410.466 351.156 410.466V424.495H318.909Z" fill="url(#paint0_linear)"/>
<path fill-rule="evenodd" clip-rule="evenodd" d="M318.909 424.495L324.208 420.28C325.024 419.63 326.166 419.584 327.033 420.165L327.339 420.37C328.201 420.948 329.336 420.906 330.152 420.265L332.218 418.643C333.017 418.015 334.124 417.96 334.982 418.505L336.795 419.658C337.86 420.334 339.27 420.07 340.124 419.141C341.328 417.829 343.126 416.167 344.864 415.68C347.864 414.839 351.156 415.256 351.156 415.256V424.495H318.909Z" fill="#28C76F"/>
<path d="M260.71 429.01C266.133 429.01 270.53 424.613 270.53 419.19C270.53 413.767 266.133 409.37 260.71 409.37C255.287 409.37 250.891 413.767 250.891 419.19C250.891 424.613 255.287 429.01 260.71 429.01Z" fill="#28C76F"/>
<path d="M364.75 412.456C372.799 412.456 379.324 405.741 379.324 397.457C379.324 389.173 372.799 382.458 364.75 382.458C356.702 382.458 350.177 389.173 350.177 397.457C350.177 405.741 356.702 412.456 364.75 412.456Z" fill="#28C76F"/>
<path fill-rule="evenodd" clip-rule="evenodd" d="M359.766 396.328C359.332 395.803 358.555 395.729 358.029 396.162C357.503 396.596 357.429 397.373 357.862 397.899L362.147 403.087C362.664 403.712 363.59 403.801 364.216 403.285C364.307 403.209 364.389 403.123 364.459 403.029L370.599 394.78C371.006 394.234 370.893 393.461 370.346 393.054C369.799 392.648 369.025 392.761 368.619 393.308L363.24 400.534L359.766 396.328Z" fill="white"/>
<path fill-rule="evenodd" clip-rule="evenodd" d="M177.619 506.175C177.619 506.175 177.494 514.068 182.385 516.872C187.276 519.676 194.854 524.886 194.854 524.886L166.027 525.854L166.849 506.104L177.619 506.175Z" fill="#F8CFCF"/>
<path fill-rule="evenodd" clip-rule="evenodd" d="M165.022 514.873L164.553 527.678H171.248L171.707 526.029C171.707 526.029 174.228 525.926 175.685 526.639C177.225 527.392 177.431 527.758 177.431 527.758L198.67 527.802C198.67 527.802 199.717 523.663 193.243 520.67C186.769 517.675 182.056 513.426 181.16 512.991C180.258 512.553 178.439 512.305 177.157 513.335C175.876 514.364 174.862 517.07 171.958 517.155C168.221 517.264 166.074 512.707 165.022 514.873Z" fill="#4B4B4B"/>
<path d="M183.172 514.38L180.97 516.489" stroke="white" stroke-width="2" stroke-linecap="round"/>
<path d="M186.383 515.979L184.181 518.088" stroke="white" stroke-width="2" stroke-linecap="round"/>
<path d="M189.593 517.578L187.392 519.687" stroke="white" stroke-width="2" stroke-linecap="round"/>
<path fill-rule="evenodd" clip-rule="evenodd" d="M156.521 335.651C156.521 335.651 164.529 422.981 164.778 429.052C165.027 435.123 162.206 445.599 162.261 456.955C162.316 468.311 163.291 508.332 163.291 508.332L180.957 508.703C180.957 508.703 188.382 436.38 188.462 425.535C188.542 414.69 189.223 336.695 189.223 336.695L156.521 335.651Z" fill="#383838"/>
<path opacity="0.283552" fill-rule="evenodd" clip-rule="evenodd" d="M169.254 431.77L169.274 431.986C169.54 435.688 167.218 447.869 162.309 468.527L162.261 456.955C162.207 445.802 164.927 435.497 164.788 429.381L164.778 429.052C164.694 427.006 163.729 415.732 162.486 401.681L163.066 403.739C166.472 415.928 168.535 425.272 169.254 431.77Z" fill="white" fill-opacity="0.192499"/>
<path fill-rule="evenodd" clip-rule="evenodd" d="M135.518 504.788L132.136 525.248L144.605 525.186L144.999 504.467L135.518 504.788Z" fill="#F8CFCF"/>
<path fill-rule="evenodd" clip-rule="evenodd" d="M134.386 513.592C133.042 513.883 132.068 515.05 132.023 516.425L131.929 519.248C130.172 521.194 129.338 526.802 129.245 527.464C129.239 527.507 129.235 527.55 129.24 527.594C129.524 530.347 147.548 530.317 149.326 527.738C149.415 527.609 149.421 527.451 149.395 527.297C149.196 526.098 148.183 520.577 146.246 519.064L146.236 516.265C146.231 514.911 145.32 513.728 144.012 513.378L142.343 512.931C140.52 510.276 138.036 510.37 135.907 513.263L134.386 513.592Z" fill="#4B4B4B"/>
<path d="M136.614 515.474H141.662" stroke="white" stroke-width="2" stroke-linecap="round"/>
<path d="M136.614 517.872H141.662" stroke="white" stroke-width="2" stroke-linecap="round"/>
<path d="M137.418 520.271H140.86" stroke="white" stroke-width="2" stroke-linecap="round"/>
<path fill-rule="evenodd" clip-rule="evenodd" d="M141.806 336.361C141.806 336.361 136.234 396.281 136.31 407.756C136.386 419.231 138.025 424.27 135.692 432.502C133.359 440.734 131.37 506.438 131.37 506.438L148.62 508.323C148.62 508.323 159.64 438.016 160.838 428.268C162.037 418.52 176.847 335.534 176.847 335.534L141.806 336.361Z" fill="#2E2E2E"/>
<path opacity="0.283552" fill-rule="evenodd" clip-rule="evenodd" d="M146.466 377.03L145.414 380.833C142.333 392.057 139.489 403.927 140.234 420.882L140.27 421.656C140.453 425.329 138.113 446.645 133.25 485.605L132.787 488.343C132.31 491.136 131.886 493.519 131.514 495.492L131.619 492.042C132.239 472.996 133.907 438.804 135.693 432.502C138.026 424.27 136.387 419.231 136.311 407.756C136.258 399.723 138.972 367.953 140.606 349.613L141.807 336.361L149.088 336.189L149.106 338.23C149.234 357.071 148.354 370.004 146.466 377.03Z" fill="white" fill-opacity="0.192499"/>
<path fill-rule="evenodd" clip-rule="evenodd" d="M226.585 262.519C226.585 262.519 225.148 254.545 225.665 252.931C226.106 251.535 230.276 249.523 230.276 249.523C230.276 249.523 237.528 238.111 239.115 239.273C240.406 240.215 235.338 248.628 235.338 248.628C235.338 248.628 239.96 253.458 239.895 255.617C239.831 257.776 232.352 264.534 232.352 264.534L226.585 262.519Z" fill="#F8CFCF"/>
<path fill-rule="evenodd" clip-rule="evenodd" d="M230.432 249.408C230.432 249.408 233.644 248.973 234.155 249.969C234.59 250.817 231.922 253.223 231.922 253.9C231.922 254.576 231.96 259.696 232.175 259.742C232.39 259.789 235.392 251.388 234.752 249.611C234.225 248.152 230.432 249.408 230.432 249.408Z" fill="#F28585"/>
<path fill-rule="evenodd" clip-rule="evenodd" d="M188.27 272.664C179.857 265.344 167.224 278.541 181.31 290.81C186.685 295.49 203.566 307.166 207.704 309.733C214.292 313.819 219.705 310.132 221.93 303.702C223.817 298.25 235.105 269.068 233.669 264.782C232.732 261.987 227.705 259.267 225.182 261.466C221.494 264.681 210.214 292.881 210.214 292.881C210.214 292.881 197.835 280.987 188.27 272.664Z" fill="#877BFF"/>
<path fill-rule="evenodd" clip-rule="evenodd" d="M210.214 292.881C210.214 292.881 213.909 297.395 214.175 296.705C214.442 296.016 211.245 290.216 211.245 290.216L210.214 292.881Z" fill="black" fill-opacity="0.159856"/>
<path d="M224.202 263.274C227.137 261.905 230.344 263.597 232.111 266.313" stroke="#5386BF" stroke-linecap="round"/>
<path fill-rule="evenodd" clip-rule="evenodd" d="M152.047 264.392C152.047 264.392 156.823 263.275 156.989 255.48C157.155 247.684 157.038 245.023 157.038 245.023L168.362 244.834C168.362 244.834 168.476 253.522 168.478 256.665C168.483 263.506 173.583 265.355 173.583 265.355C173.583 265.355 173.159 272.835 163.626 273.369C156.183 273.786 152.047 264.392 152.047 264.392Z" fill="#F8C5C5"/>
<path fill-rule="evenodd" clip-rule="evenodd" d="M178.449 236.62L178.196 243.987C180.336 241.482 181.781 238.376 182.209 234.393L178.449 236.62Z" fill="url(#paint1_linear)"/>
<path fill-rule="evenodd" clip-rule="evenodd" d="M155.999 241.083C151.305 240.902 152.071 247.746 156.946 247.736C156.946 247.736 162.186 258.231 170.412 258.258C174.375 258.271 175.669 254.755 176.856 252.287C178.044 249.819 178.916 246.127 178.989 243.867C179.066 241.457 179.076 233.539 179.076 233.539L155.816 233.528L155.999 241.083Z" fill="#F8CFCF"/>
<path fill-rule="evenodd" clip-rule="evenodd" d="M179.077 237.172H162.718C162.546 240.116 161.564 242.561 159.071 244.365C159.142 248.678 160.591 251.818 163.103 254.021C165.29 247.777 178.668 249.485 177.695 253.559C175.651 262.117 156.49 262.311 157.653 242.614C156.888 241.576 154.154 241.382 153.255 242.42C151.718 238.117 152.374 232.029 156.818 231.149C153.329 221.979 200.77 220.039 179.077 237.172Z" fill="#424242"/>
<path d="M168.595 253.181C168.595 253.181 170.726 254.741 173.532 253.035" stroke="#CC6969" stroke-linecap="round"/>
<path d="M156.729 244.99C156.778 243.892 156.441 243.02 155.317 242.845" stroke="#DE6767" stroke-linecap="round"/>
<path fill-rule="evenodd" clip-rule="evenodd" d="M153.936 263.175L167.6 272.08L173.762 264.89C173.762 264.89 186.742 268.926 189.15 273.645C192.625 280.455 188.047 335.013 190.042 338.305C194.295 345.32 188.641 350.136 169.921 351.906C151.202 353.675 134.594 352.226 137.608 342.864C140.622 333.501 128.992 272.399 139.245 269.033C142.449 267.982 153.936 263.175 153.936 263.175Z" fill="#7367F0"/>
<path fill-rule="evenodd" clip-rule="evenodd" d="M144.715 280.019C145.542 281.487 145.115 286.572 143.435 295.273C142.003 302.687 143.64 310.356 147.963 316.543L148.206 316.885C149.667 318.912 151.015 321.581 152.248 324.891C155.274 333.011 148.296 339.78 153.643 352.483L152.996 352.452C142.505 351.907 135.57 349.195 137.608 342.864C140.079 335.187 132.706 292.729 135.622 275.83C140.67 276.824 143.7 278.221 144.715 280.019Z" fill="black" fill-opacity="0.159856"/>
<path fill-rule="evenodd" clip-rule="evenodd" d="M153.936 263.175L166.158 271.17C164.367 273.259 163.406 275.69 163.043 278.365C158.346 274.68 153.463 269.531 151.95 263.994L153.936 263.175Z" fill="#5E54C7"/>
<path fill-rule="evenodd" clip-rule="evenodd" d="M168.566 270.962C170.633 272.364 172.282 274.846 173.624 277.669C175.233 274.425 175.849 270.142 175.849 265.574L173.831 264.773L168.566 270.962Z" fill="#5E54C7"/>
<path fill-rule="evenodd" clip-rule="evenodd" d="M166.158 271.169L166.317 271.258C167.049 271.669 167.965 271.548 168.566 270.962C173.174 287.908 176.415 306.56 177.395 325.516L172.586 333.529L166.961 326.03C167.694 306.329 167.689 287.119 166.158 271.169Z" fill="url(#paint2_linear)"/>
<path d="M178.937 314.326C179.083 312.933 180.359 311.942 181.744 312.145L192.481 313.716C193.789 313.907 194.713 315.097 194.575 316.411L192.609 335.118C192.462 336.51 191.187 337.501 189.801 337.298L179.065 335.727C177.757 335.536 176.833 334.347 176.971 333.032L178.937 314.326Z" fill="#6182EC"/>
<path fill-rule="evenodd" clip-rule="evenodd" d="M180.267 313.951C180.419 312.512 181.772 311.512 183.192 311.791L194.643 314.04L202.389 313.907C203.869 313.882 205.036 315.157 204.882 316.629L202.919 335.302C202.789 336.541 201.755 337.487 200.511 337.508L192.161 337.651L180.278 335.317C179.027 335.072 178.169 333.911 178.303 332.642L180.267 313.951Z" fill="#96EFFA"/>
<path d="M182.387 318.347C182.484 317.42 183.35 316.772 184.266 316.94L189.344 317.871C190.167 318.021 190.735 318.78 190.647 319.612L190.449 321.509C190.351 322.435 189.485 323.083 188.568 322.915L183.49 321.985C182.668 321.834 182.1 321.075 182.187 320.244L182.387 318.347Z" fill="#74CFDB"/>
<path d="M193.742 314.749C193.788 314.31 194.181 313.991 194.621 314.037L194.945 314.071C195.385 314.118 195.704 314.511 195.657 314.951L193.351 336.894C193.305 337.334 192.911 337.652 192.472 337.606L192.147 337.572C191.708 337.526 191.389 337.132 191.435 336.693L193.742 314.749Z" fill="#EAEFFF"/>
<path d="M194.38 314.816C194.426 314.377 194.82 314.058 195.259 314.104L195.584 314.138C196.023 314.185 196.342 314.578 196.296 315.018L193.99 336.961C193.943 337.401 193.55 337.72 193.11 337.673L192.786 337.639C192.346 337.593 192.028 337.199 192.074 336.76L194.38 314.816Z" fill="#7AD2DD"/>
<path fill-rule="evenodd" clip-rule="evenodd" d="M166.97 322.68C166.97 322.68 171.138 321.845 172.844 320.511C174.549 319.177 179.715 318.234 179.715 318.234L178.062 321.701C178.062 321.701 190.723 320.517 191.022 321.761C191.323 323.005 187.661 324.358 187.661 324.358C187.661 324.358 185.855 327.717 184.107 329.665C182.453 331.508 174.235 331.288 171.354 330.138C168.865 329.145 166.158 329.642 166.158 329.642L166.97 322.68Z" fill="#F8CFCF"/>
<path fill-rule="evenodd" clip-rule="evenodd" d="M133.449 274.239C137.976 264.494 153.477 271.06 149.571 281.499C145.786 291.612 136.618 315.224 136.618 315.224C136.618 315.224 165.672 318.898 167.936 320.611C170.958 322.897 169.09 329.42 166.522 330.581C164.349 331.563 148.209 332.137 132.417 330.897C124.604 330.284 118.827 326.941 118.021 318.256C117.456 312.175 129.088 283.626 133.449 274.239Z" fill="#877BFF"/>
<path fill-rule="evenodd" clip-rule="evenodd" d="M136.63 315.218C136.63 315.218 134.215 319.79 134.905 319.884C135.596 319.977 139.104 315.553 139.104 315.553L136.63 315.218Z" fill="black" fill-opacity="0.159856"/>
<path d="M165.892 320.115C166.788 322.965 166.158 326.306 164.915 328.668" stroke="#5386BF" stroke-linecap="round"/>
<path fill-rule="evenodd" clip-rule="evenodd" d="M473.856 295.31L451.111 309.523C451.111 309.523 456.198 317.664 461.286 325.805C466.373 333.947 468.211 344.118 468.211 344.118L490.956 329.906C490.956 329.906 489.118 319.734 484.031 311.593C478.944 303.451 473.856 295.31 473.856 295.31Z" fill="#E8FFFF"/>
<path d="M473.283 304.889L461.456 312.279" stroke="black" stroke-opacity="0.115767" stroke-width="0.8" stroke-linecap="round"/>
<path d="M475.685 309.455L463.858 316.845" stroke="black" stroke-opacity="0.115767" stroke-width="0.8" stroke-linecap="round"/>
<path d="M478.089 314.021L466.262 321.412" stroke="black" stroke-opacity="0.115767" stroke-width="0.8" stroke-linecap="round"/>
<path d="M480.491 318.588L468.664 325.978" stroke="black" stroke-opacity="0.115767" stroke-width="0.8" stroke-linecap="round"/>
<path fill-rule="evenodd" clip-rule="evenodd" d="M567.211 508.491C567.211 508.491 567.114 514.041 567.114 515.828C567.114 517.196 567.17 521.249 567.019 521.872C566.807 522.749 566.59 524.897 566.59 524.897L578.231 525.207C578.231 525.207 575.289 519.486 575.117 518.729C574.946 517.973 573.646 508.491 573.646 508.491H567.211Z" fill="#FFE2E2"/>
<path fill-rule="evenodd" clip-rule="evenodd" d="M576.092 523.108C575.835 522.885 574.266 519.346 571.486 519.346C568.38 519.346 567.536 522.995 567.431 523.108C567.259 523.294 566.463 523.22 566.27 523.574C565.33 525.291 564.832 528.775 565.694 530.036C566.609 531.382 579.069 531.405 579.758 530.137C580.479 528.799 578.775 525.151 577.462 523.574C577.128 523.173 576.226 523.225 576.092 523.108Z" fill="#2E2E2E"/>
<path fill-rule="evenodd" clip-rule="evenodd" d="M537.917 353.288L560.661 350.809L560.995 351.12C562.616 352.669 569.661 359.862 571.685 369.693C575.506 388.253 570.392 422.533 570.505 430.049C570.613 437.566 574.155 442.101 575.627 452.73C577.099 463.358 577.238 510.856 577.238 510.856C573.335 513.176 569.901 513.342 565.248 510.717L537.917 353.288Z" fill="#26553B"/>
<path fill-rule="evenodd" clip-rule="evenodd" d="M558.233 470.311L537.917 353.288L550.563 351.91C551.126 392.563 558.99 447.515 558.233 470.311Z" fill="white" fill-opacity="0.192499"/>
<path fill-rule="evenodd" clip-rule="evenodd" d="M542.576 508.062L534.301 508.184C534.301 508.184 534.793 515.966 531.918 518.602L521.09 524.456C520.243 525.168 519.751 527.376 521.487 527.691C526.861 528.666 542.253 526.352 542.253 526.352L542.576 508.062Z" fill="#FFE2E2"/>
<path fill-rule="evenodd" clip-rule="evenodd" d="M542.332 519.2C541.776 519.23 541.071 522.379 537.917 523.994C534.302 525.846 529.044 525.141 526.759 525.403C525.103 525.593 524.283 522.319 524.283 522.319C524.283 522.319 515.884 526.652 515.139 528.71C514.27 531.1 519.895 531.279 523.916 531.104C527.943 530.93 531.395 529.12 533.349 529.165C535.308 529.21 535.771 530.429 537.236 530.765C538.722 531.106 542.44 531.055 542.784 529.987C543.144 528.878 543.52 519.136 542.332 519.2Z" fill="#2E2E2E"/>
<path fill-rule="evenodd" clip-rule="evenodd" d="M526.635 354.897L552.174 354.029L552.365 354.383C553.604 356.74 560.395 370.54 558.298 386.225C555.355 408.241 546.278 434.051 545.911 437.994C545.258 445.024 546.565 450.114 547.1 457.375C547.636 464.636 544.26 510.301 544.26 510.301C540.47 512.586 535.961 513.035 530.227 510.37C530.227 510.37 525.849 448.343 525.811 438.527C525.773 428.71 526.635 354.897 526.635 354.897Z" fill="#31694A"/>
<path fill-rule="evenodd" clip-rule="evenodd" d="M531.89 378.71L531.719 380.341C529.956 397.542 528.467 434.071 529.096 439.705L529.184 440.419C529.887 446.634 529.7 462.235 528.621 487.223L527.664 472.881C526.505 455.119 525.89 443.894 525.818 439.204L525.811 438.527C525.773 428.71 526.635 354.897 526.635 354.897L532.021 354.714C532.597 364.152 532.553 372.151 531.89 378.71Z" fill="white" fill-opacity="0.192499"/>
<path fill-rule="evenodd" clip-rule="evenodd" d="M536.374 273.369C533.231 273.714 533.454 279.254 537.279 279.543C538.061 284.883 540.849 287.428 544.249 287.722L544.06 295.8L559.097 295.791C559.097 295.791 554.863 290.085 555.074 282.273C555.285 274.46 554.932 267.122 554.932 267.122L535.456 267.472L536.374 273.369Z" fill="url(#paint3_linear)"/>
<path fill-rule="evenodd" clip-rule="evenodd" d="M592.714 311.835C592.714 311.835 592.056 307.344 592.265 304.388C592.651 298.922 591.913 294.311 593.106 293.594C594.637 292.674 595.589 301.316 595.589 301.316C595.589 301.316 602.962 287.202 604.784 288.946C606.606 290.69 603.603 297.475 604.206 299.668C604.808 301.86 598.786 312.468 598.786 312.468L587.936 340.455L584.19 325.237L592.714 311.835Z" fill="#FFE2E2"/>
<path fill-rule="evenodd" clip-rule="evenodd" d="M560.404 317.63C560.404 317.63 573.643 338.519 576.568 342.57C579.636 346.818 585.054 348.7 588.899 341.922C589.602 340.682 591.416 337.218 591.416 337.218C590.382 330.995 588.279 325.857 583.944 322.991L582.033 325.803C582.033 325.803 573.242 309.648 570.501 305.836C563.111 295.556 551.85 304.787 560.404 317.63Z" fill="#88CEA7"/>
<path fill-rule="evenodd" clip-rule="evenodd" d="M532.429 297.364C529.075 302.306 523.484 319.078 523.166 322.851C522.809 327.203 527.462 334.137 527.539 340.437C527.607 346.739 524.068 367.312 525.131 369.084C525.799 370.206 542.199 375.835 555.605 374.377C567.18 373.119 571.794 365.6 571.22 364.248C569.655 360.557 562.391 349.786 563.131 344.757C563.862 339.729 568.111 321.169 570.22 314.852C572.321 308.535 571.621 301.903 567.699 299.185C565.759 297.84 560.581 294.019 551.36 294.036C542.139 294.054 532.69 296.981 532.429 297.364Z" fill="#6BCA95"/>
<path fill-rule="evenodd" clip-rule="evenodd" d="M527.56 308.052L527.663 308C533.876 304.89 537.608 304.753 538.859 307.588C540.429 311.145 536.524 321.004 527.145 337.163C526.016 331.84 522.87 326.459 523.166 322.851C523.35 320.667 525.299 314.13 527.56 308.052Z" fill="black" fill-opacity="0.159856"/>
<path fill-rule="evenodd" clip-rule="evenodd" d="M478.218 337.451C478.218 337.451 468.934 337.994 467.334 336.675C465.733 335.356 459.356 328.789 460.053 327.246C460.749 325.704 468.163 328.967 468.659 327.986C469.296 326.725 466.006 322.229 468.889 321.967C469.631 321.899 470.156 324.667 472.246 326.49C474.336 328.313 478.584 331.557 478.584 331.557L510.611 326.49L513.601 336.768L478.218 337.451Z" fill="#FFE2E2"/>
<path fill-rule="evenodd" clip-rule="evenodd" d="M529.502 299.578C522.168 306.535 511.784 322.962 509.572 324.409C509.085 324.728 504.889 326.408 504.889 326.408C503.123 331.119 506.108 336.457 510.447 338.743C510.447 338.743 515.206 338.05 516.326 337.724C522.041 336.065 532.046 320.934 536.203 316.104C547.635 302.825 536.836 292.621 529.502 299.578Z" fill="#88CEA7"/>
<path fill-rule="evenodd" clip-rule="evenodd" d="M573.201 295.209C565.506 282.923 563.867 267.281 558.411 262.031C554.08 257.863 547.206 259.019 547.206 259.019C547.206 259.019 541.252 254.012 535.414 259.019C529.575 264.027 529.48 281.441 533.54 292.386C537.6 303.331 541.86 316 557.83 316C566.779 316 581.892 309.085 573.201 295.209Z" fill="#28211D"/>
<path fill-rule="evenodd" clip-rule="evenodd" d="M573 210.938C573 206.63 576.492 203.138 580.8 203.138H615.284C619.592 203.138 623.084 206.63 623.084 210.938V254.959C623.084 259.266 619.592 262.759 615.284 262.759H580.8C576.492 262.759 573 259.266 573 254.959V210.938Z" fill="#FF9F43"/>
<path fill-rule="evenodd" clip-rule="evenodd" d="M577.174 212.522C577.174 209.65 579.502 207.322 582.374 207.322H613.711C616.583 207.322 618.911 209.65 618.911 212.522V253.375C618.911 256.247 616.583 258.575 613.711 258.575H582.374C579.502 258.575 577.174 256.247 577.174 253.375V212.522Z" fill="white"/>
<path d="M620.475 269.035C627.679 269.035 633.518 263.181 633.518 255.96C633.518 248.739 627.679 242.885 620.475 242.885C613.272 242.885 607.433 248.739 607.433 255.96C607.433 263.181 613.272 269.035 620.475 269.035Z" fill="#28C76F"/>
<path fill-rule="evenodd" clip-rule="evenodd" d="M624.002 251.814C624.366 251.191 625.166 250.982 625.787 251.348C626.367 251.689 626.587 252.409 626.317 253.01L626.252 253.137L621.879 260.608C621.785 260.768 621.673 260.916 621.544 261.05C620.687 261.941 619.299 262.008 618.362 261.234L618.225 261.111L614.868 257.868C614.349 257.367 614.334 256.539 614.834 256.019C615.3 255.534 616.051 255.488 616.571 255.892L616.678 255.985L619.796 258.998L624.002 251.814Z" fill="white"/>
<path opacity="0.33996" d="M583.435 219.874C583.435 219.296 583.903 218.828 584.481 218.828H611.604C612.182 218.828 612.65 219.296 612.65 219.874C612.65 220.451 612.182 220.92 611.604 220.92H584.481C583.903 220.92 583.435 220.451 583.435 219.874Z" fill="#467FFF"/>
<path opacity="0.33996" d="M583.435 228.241C583.435 227.664 583.903 227.195 584.481 227.195H611.604C612.182 227.195 612.65 227.664 612.65 228.241C612.65 228.819 612.182 229.287 611.604 229.287H584.481C583.903 229.287 583.435 228.819 583.435 228.241Z" fill="#467FFF"/>
<path opacity="0.33996" d="M583.435 236.609C583.435 236.032 583.903 235.563 584.481 235.563H611.604C612.182 235.563 612.65 236.032 612.65 236.609C612.65 237.187 612.182 237.655 611.604 237.655H584.481C583.903 237.655 583.435 237.187 583.435 236.609Z" fill="#467FFF"/>
<path d="M606.407 200H589.678C586.807 200 584.479 202.328 584.479 205.2V206.306C584.479 209.178 586.807 211.506 589.678 211.506H606.407C609.279 211.506 611.607 209.178 611.607 206.306V205.2C611.607 202.328 609.279 200 606.407 200Z" fill="#FF9F43"/>
<path d="M364.762 349.524C372.915 349.524 379.524 342.915 379.524 334.762C379.524 326.609 372.915 320 364.762 320C356.609 320 350 326.609 350 334.762C350 342.915 356.609 349.524 364.762 349.524Z" fill="#FF9F43"/>
<path d="M363.215 326.557C363.255 326.236 363.533 326.002 363.851 326.009L363.915 326.014L370.833 326.884C371.155 326.927 371.387 327.206 371.378 327.524L371.372 327.588L370.469 334.412C370.447 334.575 370.363 334.722 370.233 334.823C369.977 335.024 369.613 334.993 369.393 334.761L369.354 334.715L368.117 333.133L361.637 338.141C361.38 338.339 361.018 338.307 360.799 338.076L360.76 338.031L359.734 336.718L359.118 342.343L364.653 343.014L363.655 341.736C363.454 341.479 363.485 341.115 363.717 340.896L363.763 340.856L368.317 337.298C368.549 337.117 368.884 337.158 369.065 337.39C369.235 337.607 369.21 337.915 369.015 338.102L368.973 338.138L364.765 341.426L366.145 343.192C366.345 343.449 366.314 343.813 366.083 344.032L366.037 344.072C365.922 344.161 365.781 344.207 365.637 344.204L365.575 344.2L358.559 343.348C358.239 343.31 358.005 343.037 358.007 342.722L358.011 342.658L358.792 335.528C358.83 335.184 359.14 334.936 359.484 334.974C359.631 334.99 359.767 335.057 359.868 335.163L359.909 335.211L361.33 337.03L367.811 332.022C368.068 331.824 368.43 331.856 368.649 332.087L368.688 332.132L369.549 333.235L370.257 327.886L364.837 327.204L365.788 328.421C365.989 328.678 365.958 329.042 365.726 329.261L365.68 329.301L361.207 332.795C360.975 332.977 360.641 332.936 360.459 332.704C360.289 332.486 360.315 332.178 360.51 331.991L360.551 331.956L364.678 328.731L363.342 327.022C363.253 326.906 363.206 326.764 363.21 326.62L363.215 326.557Z" fill="white"/>
<defs>
<filter id="filter0_d" x="211.033" y="146.876" width="263.338" height="199.776" filterUnits="userSpaceOnUse" color-interpolation-filters="sRGB">
<feFlood flood-opacity="0" result="BackgroundImageFix"/>
<feColorMatrix in="SourceAlpha" type="matrix" values="0 0 0 0 0 0 0 0 0 0 0 0 0 0 0 0 0 0 127 0"/>
<feOffset dx="6" dy="4"/>
<feGaussianBlur stdDeviation="15"/>
<feColorMatrix type="matrix" values="0 0 0 0 0 0 0 0 0 0 0 0 0 0 0 0 0 0 0.264724 0"/>
<feBlend mode="normal" in2="BackgroundImageFix" result="effect1_dropShadow"/>
<feBlend mode="normal" in="SourceGraphic" in2="effect1_dropShadow" result="shape"/>
</filter>
<filter id="filter1_d" x="477.772" y="156.088" width="137.809" height="163.311" filterUnits="userSpaceOnUse" color-interpolation-filters="sRGB">
<feFlood flood-opacity="0" result="BackgroundImageFix"/>
<feColorMatrix in="SourceAlpha" type="matrix" values="0 0 0 0 0 0 0 0 0 0 0 0 0 0 0 0 0 0 127 0"/>
<feOffset dx="8" dy="9"/>
<feGaussianBlur stdDeviation="10.5"/>
<feColorMatrix type="matrix" values="0 0 0 0 0.276721 0 0 0 0 0.276721 0 0 0 0 0.276721 0 0 0 0.208725 0"/>
<feBlend mode="normal" in2="BackgroundImageFix" result="effect1_dropShadow"/>
<feBlend mode="normal" in="SourceGraphic" in2="effect1_dropShadow" result="shape"/>
</filter>
<filter id="filter2_dd" x="500.298" y="169.041" width="92.8768" height="93.6508" filterUnits="userSpaceOnUse" color-interpolation-filters="sRGB">
<feFlood flood-opacity="0" result="BackgroundImageFix"/>
<feColorMatrix in="SourceAlpha" type="matrix" values="0 0 0 0 0 0 0 0 0 0 0 0 0 0 0 0 0 0 127 0"/>
<feOffset dx="8" dy="9"/>
<feGaussianBlur stdDeviation="14"/>
<feColorMatrix type="matrix" values="0 0 0 0 0.0755213 0 0 0 0 0.582569 0 0 0 0 0.878793 0 0 0 0.229458 0"/>
<feBlend mode="normal" in2="BackgroundImageFix" result="effect1_dropShadow"/>
<feColorMatrix in="SourceAlpha" type="matrix" values="0 0 0 0 0 0 0 0 0 0 0 0 0 0 0 0 0 0 127 0"/>
<feOffset dy="2"/>
<feGaussianBlur stdDeviation="7.5"/>
<feColorMatrix type="matrix" values="0 0 0 0 0.503982 0 0 0 0 0.700178 0 0 0 0 1 0 0 0 0.233829 0"/>
<feBlend mode="normal" in2="effect1_dropShadow" result="effect2_dropShadow"/>
<feBlend mode="normal" in="SourceGraphic" in2="effect2_dropShadow" result="shape"/>
</filter>
<filter id="filter3_d" x="226" y="320" width="161.893" height="81.421" filterUnits="userSpaceOnUse" color-interpolation-filters="sRGB">
<feFlood flood-opacity="0" result="BackgroundImageFix"/>
<feColorMatrix in="SourceAlpha" type="matrix" values="0 0 0 0 0 0 0 0 0 0 0 0 0 0 0 0 0 0 127 0"/>
<feOffset dx="6" dy="7"/>
<feGaussianBlur stdDeviation="8.5"/>
<feColorMatrix type="matrix" values="0 0 0 0 0.561707 0 0 0 0 0.561707 0 0 0 0 0.561707 0 0 0 0.208725 0"/>
<feBlend mode="normal" in2="BackgroundImageFix" result="effect1_dropShadow"/>
<feBlend mode="normal" in="SourceGraphic" in2="effect1_dropShadow" result="shape"/>
</filter>
<filter id="filter4_d" x="229" y="387" width="153.893" height="73.421" filterUnits="userSpaceOnUse" color-interpolation-filters="sRGB">
<feFlood flood-opacity="0" result="BackgroundImageFix"/>
<feColorMatrix in="SourceAlpha" type="matrix" values="0 0 0 0 0 0 0 0 0 0 0 0 0 0 0 0 0 0 127 0"/>
<feOffset dx="5" dy="5"/>
<feGaussianBlur stdDeviation="6.5"/>
<feColorMatrix type="matrix" values="0 0 0 0 0.649655 0 0 0 0 0.649655 0 0 0 0 0.649655 0 0 0 0.208725 0"/>
<feBlend mode="normal" in2="BackgroundImageFix" result="effect1_dropShadow"/>
<feBlend mode="normal" in="SourceGraphic" in2="effect1_dropShadow" result="shape"/>
</filter>
<linearGradient id="paint0_linear" x1="323.855" y1="409.083" x2="323.855" y2="424.495" gradientUnits="userSpaceOnUse">
<stop stop-color="#71FFB0"/>
<stop offset="1" stop-color="#91F688"/>
</linearGradient>
<linearGradient id="paint1_linear" x1="183.894" y1="227.881" x2="175.043" y2="228.696" gradientUnits="userSpaceOnUse">
<stop stop-color="#4D63A0"/>
<stop offset="1" stop-color="#222735"/>
</linearGradient>
<linearGradient id="paint2_linear" x1="174.015" y1="326.953" x2="189.022" y2="322.585" gradientUnits="userSpaceOnUse">
<stop stop-color="#2E4175"/>
<stop offset="1" stop-color="#222735"/>
</linearGradient>
<linearGradient id="paint3_linear" x1="527.384" y1="260.14" x2="529.92" y2="300.061" gradientUnits="userSpaceOnUse">
<stop stop-color="#FDC6C6"/>
<stop offset="1" stop-color="#A47070"/>
</linearGradient>
</defs>
</svg>
