<svg width="619" height="558" viewBox="0 0 619 558" fill="none" xmlns="http://www.w3.org/2000/svg">
<g opacity="0.1" filter="url(#filter0_f)">
<path opacity="0.1" d="M118.673 381.905C180.564 381.905 230.737 331.398 230.737 269.095C230.737 206.791 180.564 156.284 118.673 156.284C56.7813 156.284 6.6084 206.791 6.6084 269.095C6.6084 331.398 56.7813 381.905 118.673 381.905Z" fill="#7367F0"/>
</g>
<path opacity="0.05" fill-rule="evenodd" clip-rule="evenodd" d="M370.113 173.702C370.113 114.82 417.884 67.0879 476.813 67.0879C535.741 67.0879 583.512 114.82 583.512 173.702C583.512 232.584 535.741 280.316 476.813 280.316C417.884 280.316 370.113 232.584 370.113 173.702ZM537.923 173.218C537.923 139.762 510.779 112.641 477.298 112.641C443.816 112.641 416.673 139.762 416.673 173.218C416.673 206.673 443.816 233.794 477.298 233.794C510.779 233.794 537.923 206.673 537.923 173.218Z" fill="#00CFE8"/>
<path opacity="0.1" d="M303.796 90.2484C324.123 90.2484 340.602 73.7412 340.602 53.3786C340.602 33.016 324.123 16.5088 303.796 16.5088C283.469 16.5088 266.991 33.016 266.991 53.3786C266.991 73.7412 283.469 90.2484 303.796 90.2484Z" stroke="#7367F0" stroke-width="30"/>
<path opacity="0.1" d="M477.216 67.0879C535.922 67.0879 583.512 114.82 583.512 173.702C583.512 232.584 535.922 280.316 477.216 280.316C441.849 280.316 409.386 262.839 389.682 234.201C382.51 223.779 385.121 209.5 395.511 202.307C405.799 195.188 419.855 197.683 427.093 207.846L427.309 208.156C438.567 224.517 457.037 234.461 477.216 234.461C510.672 234.461 537.793 207.258 537.793 173.702C537.793 140.482 511.212 113.489 478.217 112.951L477.216 112.944C464.59 112.944 454.356 102.678 454.356 90.0157C454.356 77.353 464.59 67.0879 477.216 67.0879Z" fill="#00CFE8"/>
<path fill-rule="evenodd" clip-rule="evenodd" d="M164.895 178.447C164.895 163.167 177.29 150.781 192.581 150.781H332.583C347.874 150.781 360.269 163.167 360.269 178.447V527.871C360.269 543.151 347.874 555.537 332.583 555.537H192.581C177.29 555.537 164.895 543.151 164.895 527.871V178.447Z" fill="#8EE9F4"/>
<path fill-rule="evenodd" clip-rule="evenodd" d="M171.94 179.323C171.94 168.064 181.075 158.938 192.341 158.938H215.798C216.524 158.938 217.118 159.514 217.14 160.239C217.289 165.435 221.549 169.57 226.751 169.57H297.773C302.975 169.57 307.234 165.435 307.385 160.239C307.406 159.514 307.999 158.938 308.726 158.938H332.182C343.449 158.938 352.583 168.064 352.583 179.323V524.579C352.583 535.837 343.449 544.965 332.182 544.965H192.341C181.075 544.965 171.94 535.837 171.94 524.579V179.323Z" fill="#262E43"/>
<mask id="mask0" mask-type="alpha" maskUnits="userSpaceOnUse" x="171" y="158" width="182" height="387">
<path fill-rule="evenodd" clip-rule="evenodd" d="M171.94 179.323C171.94 168.064 181.075 158.938 192.341 158.938H215.798C216.524 158.938 217.118 159.514 217.14 160.239C217.289 165.435 221.549 169.57 226.751 169.57H297.773C302.975 169.57 307.234 165.435 307.385 160.239C307.406 159.514 307.999 158.938 308.726 158.938H332.182C343.449 158.938 352.583 168.064 352.583 179.323V524.579C352.583 535.837 343.449 544.965 332.182 544.965H192.341C181.075 544.965 171.94 535.837 171.94 524.579V179.323Z" fill="white"/>
</mask>
<g mask="url(#mask0)">
<path d="M240.426 409.355C248.983 409.355 255.92 402.43 255.92 393.889C255.92 385.347 248.983 378.423 240.426 378.423C231.869 378.423 224.933 385.347 224.933 393.889C224.933 402.43 231.869 409.355 240.426 409.355Z" fill="#E97EFF" fill-opacity="0.548951"/>
<path fill-rule="evenodd" clip-rule="evenodd" d="M193.945 230.287C193.945 227.484 196.219 225.212 199.024 225.212H326.858C329.664 225.212 331.937 227.484 331.937 230.287C331.937 233.089 329.664 235.362 326.858 235.362H199.024C196.219 235.362 193.945 233.089 193.945 230.287Z" fill="#E97EFF" fill-opacity="0.548951"/>
</g>
<path d="M273.172 157.867C274.843 157.867 276.198 159.165 276.198 160.767C276.198 162.333 274.903 163.61 273.284 163.665L273.172 163.667H238.954C237.282 163.667 235.928 162.369 235.928 160.767C235.928 159.201 237.223 157.925 238.843 157.869L238.954 157.867H273.172Z" fill="#00CFE8"/>
<path d="M285.435 157.384C287.107 157.384 288.462 158.736 288.462 160.405C288.462 162.036 287.167 163.365 285.546 163.424L285.435 163.426H285.277C283.606 163.426 282.251 162.073 282.251 160.405C282.251 158.774 283.546 157.444 285.166 157.386L285.277 157.384H285.435Z" fill="#00CFE8"/>
<g filter="url(#filter1_d)">
<path fill-rule="evenodd" clip-rule="evenodd" d="M183.576 351.922C183.576 346.599 187.894 342.284 193.221 342.284H376.426C381.753 342.284 386.071 346.599 386.071 351.922V465.252C386.071 470.574 381.753 474.89 376.426 474.89H193.221C187.894 474.89 183.576 470.574 183.576 465.252V351.922Z" fill="#313A53"/>
</g>
<mask id="mask1" mask-type="alpha" maskUnits="userSpaceOnUse" x="183" y="342" width="204" height="133">
<path fill-rule="evenodd" clip-rule="evenodd" d="M183.576 351.922C183.576 346.599 187.894 342.284 193.221 342.284H376.426C381.753 342.284 386.071 346.599 386.071 351.922V465.252C386.071 470.574 381.753 474.89 376.426 474.89H193.221C187.894 474.89 183.576 470.574 183.576 465.252V351.922Z" fill="white"/>
</mask>
<g mask="url(#mask1)">
<path fill-rule="evenodd" clip-rule="evenodd" d="M179.033 337.084H391.263V376.085H179.033V337.084Z" fill="#A8EDF6"/>
<path opacity="0.365606" fill-rule="evenodd" clip-rule="evenodd" d="M200.45 365.685C200.45 364.608 201.324 363.735 202.402 363.735H267.296C268.373 363.735 269.246 364.608 269.246 365.685C269.246 366.762 268.373 367.635 267.296 367.635H202.402C201.324 367.635 200.45 366.762 200.45 365.685Z" fill="#6FA3FF"/>
<path d="M234.844 352.685H202.402C201.324 352.685 200.45 353.558 200.45 354.635C200.45 355.712 201.324 356.585 202.402 356.585H234.844C235.922 356.585 236.795 355.712 236.795 354.635C236.795 353.558 235.922 352.685 234.844 352.685Z" fill="white"/>
<path d="M241.01 441.089H209.218C207.961 441.089 206.941 442.107 206.941 443.364C206.941 444.62 207.961 445.639 209.218 445.639H241.01C242.267 445.639 243.287 444.62 243.287 443.364C243.287 442.107 242.267 441.089 241.01 441.089Z" fill="#EA5455"/>
<path fill-rule="evenodd" clip-rule="evenodd" d="M206.941 456.364C206.941 455.108 207.96 454.089 209.218 454.089H228.029C229.287 454.089 230.306 455.108 230.306 456.364C230.306 457.621 229.287 458.639 228.029 458.639H209.218C207.96 458.639 206.941 457.621 206.941 456.364Z" fill="#F8F9FA"/>
<path d="M298.773 441.089H266.981C265.723 441.089 264.704 442.107 264.704 443.364C264.704 444.62 265.723 445.639 266.981 445.639H298.773C300.03 445.639 301.049 444.62 301.049 443.364C301.049 442.107 300.03 441.089 298.773 441.089Z" fill="#FF9F43"/>
<path fill-rule="evenodd" clip-rule="evenodd" d="M264.704 456.364C264.704 455.108 265.724 454.089 266.981 454.089H285.792C287.05 454.089 288.069 455.108 288.069 456.364C288.069 457.621 287.05 458.639 285.792 458.639H266.981C265.724 458.639 264.704 457.621 264.704 456.364Z" fill="#F8F9FA"/>
<path d="M358.482 441.089H326.691C325.433 441.089 324.414 442.107 324.414 443.364C324.414 444.62 325.433 445.639 326.691 445.639H358.482C359.74 445.639 360.759 444.62 360.759 443.364C360.759 442.107 359.74 441.089 358.482 441.089Z" fill="#28C76F"/>
<path fill-rule="evenodd" clip-rule="evenodd" d="M324.414 456.364C324.414 455.108 325.434 454.089 326.691 454.089H345.502C346.76 454.089 347.779 455.108 347.779 456.364C347.779 457.621 346.76 458.639 345.502 458.639H326.691C325.434 458.639 324.414 457.621 324.414 456.364Z" fill="#F8F9FA"/>
<path fill-rule="evenodd" clip-rule="evenodd" d="M342.587 427.926C352.892 427.926 361.246 419.558 361.246 409.238C361.246 398.916 352.892 390.548 342.587 390.548C332.281 390.548 323.928 398.916 323.928 409.238C323.928 419.558 332.281 427.926 342.587 427.926ZM342.587 420.45C336.404 420.45 331.391 415.429 331.391 409.238C331.391 403.044 336.404 398.024 342.587 398.024C348.77 398.024 353.782 403.044 353.782 409.238C353.782 415.429 348.77 420.45 342.587 420.45Z" fill="#F2F2F2"/>
<path fill-rule="evenodd" clip-rule="evenodd" d="M361.246 409.238C361.246 398.916 352.892 390.548 342.587 390.548C340.525 390.548 338.854 392.222 338.854 394.286C338.854 396.351 340.525 398.024 342.587 398.024C348.7 398.024 353.669 402.931 353.781 409.026L353.782 409.238C353.782 411.301 355.453 412.975 357.515 412.975C359.576 412.975 361.246 411.301 361.246 409.238Z" fill="#28C76F"/>
<path fill-rule="evenodd" clip-rule="evenodd" d="M284.175 427.926C294.48 427.926 302.834 419.558 302.834 409.238C302.834 398.916 294.48 390.548 284.175 390.548C273.869 390.548 265.515 398.916 265.515 409.238C265.515 419.558 273.869 427.926 284.175 427.926ZM284.175 420.45C277.992 420.45 272.979 415.429 272.979 409.238C272.979 403.044 277.992 398.024 284.175 398.024C290.357 398.024 295.37 403.044 295.37 409.238C295.37 415.429 290.357 420.45 284.175 420.45Z" fill="#F2F2F2"/>
<path d="M284.174 427.926C294.48 427.926 302.834 419.558 302.834 409.238C302.834 398.916 294.48 390.548 284.174 390.548C282.113 390.548 280.442 392.222 280.442 394.286C280.442 396.351 282.113 398.024 284.174 398.024C290.357 398.024 295.37 403.044 295.37 409.238C295.37 415.359 290.471 420.336 284.384 420.448L284.174 420.45C282.113 420.45 280.442 422.123 280.442 424.188C280.442 426.252 282.113 427.926 284.174 427.926Z" fill="#FF9F43"/>
<path fill-rule="evenodd" clip-rule="evenodd" d="M225.762 427.926C236.068 427.926 244.422 419.558 244.422 409.238C244.422 398.916 236.068 390.548 225.762 390.548C215.457 390.548 207.103 398.916 207.103 409.238C207.103 419.558 215.457 427.926 225.762 427.926ZM225.762 420.45C219.579 420.45 214.567 415.429 214.567 409.238C214.567 403.044 219.579 398.024 225.762 398.024C231.945 398.024 236.958 403.044 236.958 409.238C236.958 415.429 231.945 420.45 225.762 420.45Z" fill="#F2F2F2"/>
<path fill-rule="evenodd" clip-rule="evenodd" d="M207.103 409.238C207.103 419.558 215.457 427.926 225.762 427.926C236.068 427.926 244.422 419.558 244.422 409.238C244.422 398.916 236.068 390.548 225.762 390.548C223.701 390.548 222.03 392.222 222.03 394.286C222.03 396.351 223.701 398.024 225.762 398.024C231.945 398.024 236.958 403.044 236.958 409.238C236.958 415.429 231.945 420.45 225.762 420.45C219.579 420.45 214.567 415.429 214.567 409.238C214.567 407.173 212.896 405.499 210.834 405.499C208.773 405.499 207.103 407.173 207.103 409.238Z" fill="#EA5455"/>
</g>
<g filter="url(#filter2_d)">
<path fill-rule="evenodd" clip-rule="evenodd" d="M185.722 202.509H386.615C389.014 202.509 390.959 204.458 390.959 206.862V321.118C390.959 323.522 389.014 325.47 386.615 325.47H185.722C183.323 325.47 181.379 323.522 181.379 321.118V206.862C181.379 204.458 183.323 202.509 185.722 202.509Z" fill="#BFB9FF"/>
</g>
<path d="M334.708 247.052C341.665 247.052 347.304 241.437 347.304 234.511C347.304 227.584 341.665 221.969 334.708 221.969C327.751 221.969 322.111 227.584 322.111 234.511C322.111 241.437 327.751 247.052 334.708 247.052Z" fill="#8E83FF"/>
<path d="M352.082 247.052C359.039 247.052 364.678 241.437 364.678 234.511C364.678 227.584 359.039 221.969 352.082 221.969C345.125 221.969 339.485 227.584 339.485 234.511C339.485 241.437 345.125 247.052 352.082 247.052Z" fill="#FFBB7A"/>
<path fill-rule="evenodd" clip-rule="evenodd" d="M343.28 225.539L343.395 225.431C345.803 227.715 347.303 230.938 347.303 234.511C347.303 238.083 345.803 241.307 343.395 243.591C340.985 241.308 339.485 238.083 339.485 234.511C339.485 230.994 340.938 227.816 343.28 225.539L343.395 225.431L343.28 225.539Z" fill="white" fill-opacity="0.416193"/>
<path fill-rule="evenodd" clip-rule="evenodd" d="M212.434 242.511H238.713C239.673 242.511 240.451 243.286 240.451 244.241V263.269C240.451 264.225 239.673 264.999 238.713 264.999H212.434C211.475 264.999 210.697 264.225 210.697 263.269V244.241C210.697 243.286 211.475 242.511 212.434 242.511Z" fill="#9F95FF"/>
<path fill-rule="evenodd" clip-rule="evenodd" d="M214.606 277.756H236.324C238.484 277.756 240.234 279.498 240.234 281.648C240.234 283.797 238.484 285.541 236.324 285.541H214.606C212.447 285.541 210.697 283.797 210.697 281.648C210.697 279.498 212.447 277.756 214.606 277.756Z" fill="white" fill-opacity="0.646908"/>
<path fill-rule="evenodd" clip-rule="evenodd" d="M214.606 297.217H268.902C271.061 297.217 272.811 298.959 272.811 301.109C272.811 303.258 271.061 305.001 268.902 305.001H214.606C212.447 305.001 210.697 303.258 210.697 301.109C210.697 298.959 212.447 297.217 214.606 297.217Z" fill="white" fill-opacity="0.646908"/>
<path fill-rule="evenodd" clip-rule="evenodd" d="M338.399 297.217H360.117C362.276 297.217 364.026 298.959 364.026 301.109C364.026 303.258 362.276 305.001 360.117 305.001H338.399C336.241 305.001 334.489 303.258 334.489 301.109C334.489 298.959 336.241 297.217 338.399 297.217Z" fill="white" fill-opacity="0.646908"/>
<path fill-rule="evenodd" clip-rule="evenodd" d="M214.606 221.537H236.324C238.484 221.537 240.234 223.279 240.234 225.429C240.234 227.578 238.484 229.321 236.324 229.321H214.606C212.447 229.321 210.697 227.578 210.697 225.429C210.697 223.279 212.447 221.537 214.606 221.537Z" fill="white" fill-opacity="0.646908"/>
<path fill-rule="evenodd" clip-rule="evenodd" d="M255.436 277.756H277.155C279.314 277.756 281.064 279.498 281.064 281.648C281.064 283.797 279.314 285.541 277.155 285.541H255.436C253.278 285.541 251.527 283.797 251.527 281.648C251.527 279.498 253.278 277.756 255.436 277.756Z" fill="white" fill-opacity="0.646908"/>
<path fill-rule="evenodd" clip-rule="evenodd" d="M297.135 277.756H318.853C321.012 277.756 322.762 279.498 322.762 281.648C322.762 283.797 321.012 285.541 318.853 285.541H297.135C294.977 285.541 293.227 283.797 293.227 281.648C293.227 279.498 294.977 277.756 297.135 277.756Z" fill="white" fill-opacity="0.646908"/>
<path fill-rule="evenodd" clip-rule="evenodd" d="M337.966 277.756H359.683C361.843 277.756 363.594 279.498 363.594 281.648C363.594 283.797 361.843 285.541 359.683 285.541H337.966C335.807 285.541 334.057 283.797 334.057 281.648C334.057 279.498 335.807 277.756 337.966 277.756Z" fill="white" fill-opacity="0.646908"/>
<path fill-rule="evenodd" clip-rule="evenodd" d="M139.189 527.943C139.189 527.943 139.039 537.5 144.913 540.895C150.786 544.29 159.885 550.597 159.885 550.597L125.271 551.77L126.257 527.857L139.189 527.943Z" fill="url(#paint0_linear)"/>
<path fill-rule="evenodd" clip-rule="evenodd" d="M124.907 539.516C127.584 539.792 126.999 543.66 131.855 543.472C135.394 543.335 140.913 536.813 145.453 539.228C152.382 542.915 160.508 547.888 162.5 549.071C164.492 550.255 165.28 554.721 159.393 555.27C153.762 555.793 146.164 555.735 144.26 555.388C142.356 555.042 138.825 552.615 135.983 553.002C133.143 553.391 132.819 554.37 131.232 554.803C129.643 555.237 124.851 555.331 124.354 553.994C123.784 552.46 123.212 539.342 124.907 539.516Z" fill="#482B61"/>
<path fill-rule="evenodd" clip-rule="evenodd" d="M122.224 325.196C122.224 325.196 135.428 428.761 136.531 438.555C137.635 448.349 143.697 518.025 142.868 527.319C142.022 536.784 124.303 536.835 121.927 529.694C118.673 519.92 111.151 471.069 109.908 460.868C108.664 450.667 109.101 438.824 104.102 428.378C100.522 420.899 88.6787 327.851 88.6787 327.851L122.224 325.196Z" fill="#2F2B57"/>
<path opacity="0.59096" fill-rule="evenodd" clip-rule="evenodd" d="M114.462 444.875L114.509 445.34C115.013 450.749 115.435 468.669 115.777 499.097L115.017 494.553C112.633 480.142 110.517 465.866 109.907 460.868C108.689 450.879 109.083 439.315 104.406 429.033L104.101 428.378C102.526 425.086 99.3497 405.221 96.2871 384.009L97.2488 386.581C107.474 414.06 113.212 433.491 114.462 444.875Z" fill="white" fill-opacity="0.192499"/>
<path d="M148.012 540.89L146.356 543.367" stroke="white" stroke-linecap="round"/>
<path d="M150.903 541.859L149.247 544.335" stroke="white" stroke-linecap="round"/>
<path fill-rule="evenodd" clip-rule="evenodd" d="M58.759 530.135L55.6611 551.035L70.6337 550.961L70.1435 529.747L58.759 530.135Z" fill="url(#paint1_linear)"/>
<path fill-rule="evenodd" clip-rule="evenodd" d="M52.903 554.418C52.8529 553.198 53.9891 545.289 55.6616 542.157C56.8748 539.886 59.565 539.354 63.5015 539.338C68.5791 539.319 72.8225 540.086 72.8167 542.157C72.7988 548.497 74.4077 553.373 74.5157 553.93C74.8333 555.564 70.292 556.785 64.0892 556.722C59.0122 556.673 52.9807 556.319 52.903 554.418Z" fill="#482B61"/>
<path fill-rule="evenodd" clip-rule="evenodd" d="M105.252 328.596C105.252 328.596 98.3867 374.819 94.2315 404.065C90.148 432.802 78.0551 518.524 76.8055 527.497C75.6583 535.735 54.7187 535.735 54.9391 525.758C55.1595 515.781 53.2208 453.611 57.1198 444.407C61.0187 435.201 57.6244 424.489 57.7661 415.547C57.9084 406.605 63.5156 329.194 63.5156 329.194L105.252 328.596Z" fill="#3A3669"/>
<path opacity="0.461565" fill-rule="evenodd" clip-rule="evenodd" d="M67.6952 388.535L67.3674 389.725C63.3924 403.996 62.0206 405.283 63.1471 428.045L63.1587 428.509C63.1979 434.235 60.4723 463.871 54.9819 517.417L54.957 514.087C54.7645 492.244 53.9592 452.749 57.0199 444.654L57.1189 444.407C61.0178 435.201 57.6235 424.489 57.7651 415.547C57.9074 406.605 63.5148 329.194 63.5148 329.194L70.6773 329.09L70.7506 332.636C71.2658 360.329 70.2474 378.962 67.6952 388.535Z" fill="white" fill-opacity="0.192499"/>
<path d="M61.6865 543.974H67.1673" stroke="white" stroke-linecap="round"/>
<path d="M61.6865 546.877H67.1673" stroke="white" stroke-linecap="round"/>
<path fill-rule="evenodd" clip-rule="evenodd" d="M79.5693 235.209C79.5693 235.209 85.3046 233.857 85.5036 224.418C85.7025 214.98 85.5628 211.758 85.5628 211.758L99.1597 211.529C99.1597 211.529 99.2974 222.049 99.2994 225.852C99.3046 236.071 106.394 235.209 106.394 235.209C106.394 235.209 104.92 243.495 93.4734 244.141C84.5358 244.647 79.5693 235.209 79.5693 235.209Z" fill="url(#paint2_linear)"/>
<path fill-rule="evenodd" clip-rule="evenodd" d="M84.3162 206.987C78.6805 206.768 79.5998 215.055 85.4541 215.044C85.4541 215.044 91.7458 227.749 101.623 227.782C106.382 227.797 107.935 223.541 109.361 220.553C110.788 217.565 111.835 213.096 111.922 210.358C112.015 207.441 112.027 197.853 112.027 197.853L84.0968 197.841L84.3162 206.987Z" fill="url(#paint3_linear)"/>
<path d="M101.228 221.727C102.072 222.193 103.077 222.078 103.856 221.727" stroke="#F49494" stroke-linecap="round"/>
<path d="M85.1944 211.717C85.2524 210.388 84.8487 209.332 83.499 209.121" stroke="#DE6767" stroke-linecap="round"/>
<path fill-rule="evenodd" clip-rule="evenodd" d="M84.3156 206.987C84.3156 206.987 86.9068 209.992 87.8653 210.074C88.8246 210.157 87.7316 201.944 89.1434 200.449C92.2445 197.16 100.348 202.747 108.869 201.382C112.026 200.877 111.97 206.267 111.97 206.267C119.936 198.972 122.824 193.217 113.305 190.813C113.229 184.639 109.692 183.089 102.854 185.953C101.94 177.611 90.1235 178.87 84.745 189.482C80.852 185.677 75.38 188.749 77.7023 194.473C73.5102 194.473 75.6947 205.728 80.6349 209.596C81.2244 207.906 82.3016 206.987 84.3156 206.987Z" fill="#422851"/>
<path d="M99.3164 219.052C99.3164 219.052 102 221.587 105.369 219.523" stroke="#DE6767" stroke-linecap="round"/>
<path fill-rule="evenodd" clip-rule="evenodd" d="M178.068 265.514C178.068 265.514 179.681 256.556 181.814 253.417C183.949 250.278 184.57 245.003 186.583 245.196C188.597 245.391 186.58 253.812 186.58 253.812C186.58 253.812 195.969 246.773 200.228 244.348C204.115 242.137 201.982 253.581 201.374 255.039C199.928 258.512 183.191 271.618 183.191 271.618C183.191 271.618 178.434 266.311 178.068 265.514Z" fill="url(#paint4_linear)"/>
<path fill-rule="evenodd" clip-rule="evenodd" d="M186.581 253.812C186.581 253.812 185.887 256.692 186.233 256.692C186.58 256.692 192.952 249.179 192.952 249.179L186.581 253.812Z" fill="#F28585"/>
<path fill-rule="evenodd" clip-rule="evenodd" d="M123.871 245.464C128.462 255.412 145.631 281.116 145.631 281.116C145.631 281.116 173.766 262.786 177.347 262.749C180.927 262.71 185.789 267.457 185.482 270.733C185.177 274.01 154.372 302.744 144.492 302.502C129.129 302.126 109.865 262.206 107.886 256.87C102.588 242.578 119.393 235.761 123.871 245.464Z" fill="#FF5C5D"/>
<path fill-rule="evenodd" clip-rule="evenodd" d="M145.529 281.098C145.529 281.098 148.778 285.853 149.36 285.542C149.943 285.229 148.084 279.728 148.084 279.728L145.529 281.098Z" fill="black" fill-opacity="0.159856"/>
<path fill-rule="evenodd" clip-rule="evenodd" d="M55.9171 247.055C54.4756 253.963 64.3474 288.774 61.6314 305.06C59.4833 317.941 57.4327 335.676 63.0002 339.613C68.6684 343.622 117.46 346.805 124.416 335.676C129.933 326.846 125.416 307.265 124.416 298.333C122.42 280.513 125.433 249.718 122.048 243.419C119.947 239.512 105.628 234.473 105.091 234.63C104.553 234.786 103.288 240.322 94.2342 240.322C85.1802 240.322 81.182 234.63 80.6955 234.473C80.209 234.317 57.2215 240.807 55.9171 247.055Z" fill="#EA5455"/>
<path fill-rule="evenodd" clip-rule="evenodd" d="M80.6727 234.471L80.6955 234.473C81.182 234.629 85.1802 240.322 94.2342 240.322C103.288 240.322 104.553 234.786 105.091 234.629C105.285 234.573 107.274 235.193 109.836 236.193L109.825 236.311C103.353 247.17 85.5558 248.508 76.0426 236.084L75.8271 235.797L76.8887 235.468C78.8318 234.878 80.2222 234.523 80.6003 234.475L80.6727 234.471Z" fill="#FF9B86"/>
<path fill-rule="evenodd" clip-rule="evenodd" d="M55.9473 251.853L56.745 251.964C65.2078 253.173 70.1712 255.087 71.6352 257.706C72.5956 259.423 72.149 265.233 70.2953 275.135L70.0985 276.174C68.3793 285.15 70.3451 294.435 75.5354 301.925L75.8271 302.34C77.5823 304.793 79.2005 308.025 80.6815 312.033C84.117 321.331 76.8094 329.166 81.4376 342.998L80.4927 342.929C71.8898 342.271 64.9321 340.98 62.9997 339.613C57.4322 335.676 59.4828 317.941 61.6311 305.061C63.942 291.203 57.1394 263.934 55.9473 251.853Z" fill="black" fill-opacity="0.0667614"/>
<path fill-rule="evenodd" clip-rule="evenodd" d="M65.8364 321.044C65.8364 321.044 69.0846 324.873 71.857 325.349C74.6294 325.826 86.2317 328.093 86.9398 328.429C87.6091 328.747 89.8981 329.951 91.8554 331.882C93.5513 333.556 96.4851 337.526 95.5014 338.209C94.4498 338.939 91.611 335.359 90.1867 334.474C88.693 333.546 86.3977 332.724 86.3977 332.724C86.3977 332.724 92.0755 339.569 91.7145 340.764C91.4509 341.637 86.6229 343.128 85.5905 343.016C84.5582 342.904 78.8693 338.742 76.3124 338.257C74.5389 337.922 66.5987 335.773 64.924 334.159C63.2498 332.545 59.4834 329.268 59.4834 329.268L65.8364 321.044Z" fill="url(#paint5_linear)"/>
<path fill-rule="evenodd" clip-rule="evenodd" d="M90.6198 341.558C90.6198 341.558 84.6782 335.576 84.4301 335.677C84.1822 335.779 89.6075 341.975 89.6075 341.975L90.6198 341.558Z" fill="#F28585"/>
<path fill-rule="evenodd" clip-rule="evenodd" d="M87.9714 342.54C87.9714 342.54 83.5204 338.465 83.2295 338.662C82.9386 338.858 86.7945 342.873 86.7945 342.873L87.9714 342.54Z" fill="#F28585"/>
<path fill-rule="evenodd" clip-rule="evenodd" d="M69.0661 241.285C78.2404 247.736 72.1112 259.462 64.4998 270.218C57.3897 280.266 46.6134 295.4 46.6134 295.4C46.6134 295.4 66.8768 317.58 68.8343 321.683C70.7916 325.787 65.7931 333.495 59.579 331.389C53.3643 329.285 18.0001 303.107 25.1916 290.737C36.1759 271.841 58.2297 233.666 69.0661 241.285Z" fill="#FF5C5D"/>
<path fill-rule="evenodd" clip-rule="evenodd" d="M46.6138 295.4C46.6138 295.4 42.4555 291.004 42.844 290.496C43.2324 289.986 47.919 293.58 47.919 293.58L46.6138 295.4Z" fill="black" fill-opacity="0.159856"/>
<path fill-rule="evenodd" clip-rule="evenodd" d="M380.274 483.384C380.274 468.729 392.164 456.848 406.831 456.848H482.386V536.274C482.386 538.706 480.414 540.677 477.981 540.677H384.68C382.247 540.677 380.274 538.706 380.274 536.274V483.384Z" fill="#86E5F0"/>
<path fill-rule="evenodd" clip-rule="evenodd" d="M389.5 524.128H463.996V540.677H389.5V524.128Z" fill="#86E5F0"/>
<path fill-rule="evenodd" clip-rule="evenodd" d="M484.372 540.077L489.07 551.838H466.354L470.29 540.077H484.372Z" fill="#86E5F0"/>
<path fill-rule="evenodd" clip-rule="evenodd" d="M406.972 540.077L411.672 551.838H388.955L392.892 540.077H406.972Z" fill="#91D6FF"/>
<path fill-rule="evenodd" clip-rule="evenodd" d="M560.801 540.077L565.501 551.838H542.784L546.721 540.077H560.801Z" fill="#86E5F0"/>
<path fill-rule="evenodd" clip-rule="evenodd" d="M438.333 396.742C438.333 382.31 449.875 370.524 464.313 370.212L482.965 369.808V464.755H438.333V396.742Z" fill="#91D6FF"/>
<path fill-rule="evenodd" clip-rule="evenodd" d="M447.04 396.344C447.04 381.688 458.93 369.808 473.596 369.808H541.533C554.819 369.808 565.588 380.569 565.588 393.845V464.767C565.588 465.829 564.727 466.689 563.664 466.689H447.04V396.344Z" fill="#C6F9FF"/>
<path fill-rule="evenodd" clip-rule="evenodd" d="M532.458 387.179C532.458 377.584 540.241 369.808 549.842 369.808C558.539 369.808 565.589 376.853 565.589 385.543V455.094C565.589 456.156 564.727 457.016 563.665 457.016H532.458V387.179Z" fill="#86E5F0"/>
<path fill-rule="evenodd" clip-rule="evenodd" d="M389.5 479.637C389.5 471.978 395.713 465.769 403.378 465.769H477.677V529.521H389.5V479.637Z" fill="#C6F9FF"/>
<path fill-rule="evenodd" clip-rule="evenodd" d="M481.013 361.56C492.849 358.804 493.627 342.561 484.63 336.927C493.909 317.478 472.45 298.167 457.751 310.076C448.114 305.952 440.106 322.045 449.073 334.545C445.313 356.006 452.965 361.554 466.758 361.79L481.013 361.56Z" fill="#422851"/>
<path fill-rule="evenodd" clip-rule="evenodd" d="M480.865 357.68C480.865 357.68 475.108 356.33 474.907 346.898C474.708 337.466 474.848 334.245 474.848 334.245L462.166 334.016C462.166 334.016 462.028 344.528 462.026 348.331C462.021 358.543 454.904 357.68 454.904 357.68C454.904 357.68 456.383 365.961 467.875 366.607C476.847 367.112 480.865 357.68 480.865 357.68Z" fill="url(#paint6_linear)"/>
<path fill-rule="evenodd" clip-rule="evenodd" d="M477.805 329.536C483.463 329.317 482.54 337.597 476.663 337.586C476.663 337.586 473.25 349.349 461.4 349.349C451.774 349.349 451.149 335.639 451.062 332.904C450.967 329.988 450.956 320.408 450.956 320.408L478.026 320.396L477.805 329.536Z" fill="url(#paint7_linear)"/>
<path d="M463.683 341.447C463.683 341.447 460.861 343.836 457.591 341.598" stroke="#F77B7B" stroke-width="1.5" stroke-linecap="round"/>
<path d="M461.82 344.213C460.942 344.618 460.096 344.648 459.342 344.244" stroke="#F49494" stroke-linecap="round"/>
<path d="M477.229 333.989C477.171 332.66 477.576 331.605 478.931 331.394" stroke="#F77B7B" stroke-linecap="round"/>
<path fill-rule="evenodd" clip-rule="evenodd" d="M478.701 328.512C478.701 328.512 475.6 332.672 474.971 332.694C474.344 332.716 474.123 327.284 474.123 327.284C470.32 326.993 460.694 325.077 458.333 320.612C456.683 324.551 453.529 326.301 451.456 325.965L451.063 334.335L450.096 317.509H479.46L478.701 328.512Z" fill="#422851"/>
<path fill-rule="evenodd" clip-rule="evenodd" d="M422.923 524.013C422.923 524.013 427.998 534.261 423.837 537.49C419.671 540.721 408.664 546.775 408.664 546.775L437.824 544.943L431.342 522.589L422.923 524.013Z" fill="url(#paint8_linear)"/>
<path fill-rule="evenodd" clip-rule="evenodd" d="M435.004 533.766C433.565 533.934 435.101 538.778 431.986 539.147C428.876 539.514 427.365 534.925 423.837 536.38C420.308 537.835 407.439 545.357 406.932 548.432C406.419 551.506 411.213 552.411 417.789 551.717C424.364 551.022 425.576 548.683 430.513 549.626C435.442 550.568 439.137 549.066 438.974 545.464C438.811 541.863 436.443 533.598 435.004 533.766Z" fill="#222D4E"/>
<path fill-rule="evenodd" clip-rule="evenodd" d="M422.226 537.126L422.788 537.968C423.145 538.503 422.97 539.227 422.408 539.54L413.894 544.29C413.575 544.469 413.186 544.477 412.859 544.311L411.571 543.657C413.692 542.122 415.426 540.967 417.343 539.835C418.814 538.964 420.443 538.067 422.226 537.126Z" fill="white" fill-opacity="0.540975"/>
<path fill-rule="evenodd" clip-rule="evenodd" d="M466.848 433.68C458.02 434.075 408.887 444.941 399.96 446.786C391.034 448.632 383.487 458.621 390.294 470.187C397.939 483.171 417.665 520.045 422.455 528.357C424.826 532.472 436.785 530.165 433.976 523.259C428.739 510.386 426.307 478.049 412.956 466.258C412.956 466.258 457.856 474.071 477.251 465.121C491.347 458.615 488.159 432.728 466.848 433.68Z" fill="url(#paint9_linear)"/>
<path fill-rule="evenodd" clip-rule="evenodd" d="M404.299 381.487C404.299 381.487 404.398 374.306 401.885 370.552C399.373 366.799 399.273 362.812 397.372 362.942C395.47 363.073 397.353 372.34 397.353 372.34C397.353 372.34 394.94 371.418 393.207 370.252C391.474 369.087 386.218 363.339 384.989 364.359C382.907 366.093 386.262 375.882 388.088 377.839C389.921 379.795 399.934 386.233 399.934 386.233L404.299 381.487Z" fill="url(#paint10_linear)"/>
<path fill-rule="evenodd" clip-rule="evenodd" d="M458.549 377.184C454.443 386.707 446.924 404.201 443.824 409.42C439.94 415.956 433.813 418.837 426.641 413.986C419.105 408.891 398.353 389.015 397.745 384.512C397.143 380.011 402.221 374.608 406.817 377.406C411.413 380.203 430.509 396.092 430.509 396.092C430.509 396.092 438.216 376.339 444.416 364.897C449.784 354.997 464.8 362.706 458.549 377.184Z" fill="#6A5EE3"/>
<path fill-rule="evenodd" clip-rule="evenodd" d="M430.429 396.102C430.429 396.102 428.359 403.121 427.875 402.715C427.391 402.308 428.245 394.267 428.245 394.267L430.429 396.102Z" fill="black" fill-opacity="0.302803"/>
<path d="M378.191 363.737C377.739 362.349 378.499 360.859 379.888 360.409L390.318 357.022C391.706 356.571 393.198 357.33 393.648 358.718L402.066 384.604C402.517 385.992 401.757 387.482 400.369 387.933L389.939 391.319C388.551 391.77 387.059 391.011 386.608 389.624L378.191 363.737Z" fill="#7596FF"/>
<path d="M391.349 356.238L380.919 359.624C379.531 360.075 378.771 361.565 379.222 362.953L387.64 388.839C388.091 390.227 389.582 390.986 390.971 390.535L401.401 387.149C402.789 386.698 403.549 385.208 403.098 383.82L394.68 357.934C394.229 356.546 392.738 355.787 391.349 356.238Z" fill="#93C2F9"/>
<path d="M381.527 360.647L382.7 360.267C382.939 360.188 383.194 360.296 383.308 360.51L383.345 360.595C383.432 360.863 383.721 361.011 383.989 360.924L389.642 359.088C389.881 359.011 390.024 358.774 389.992 358.533L389.971 358.444C389.884 358.174 390.03 357.886 390.299 357.799L391.465 357.42C392.332 357.139 393.26 357.576 393.604 358.402L393.655 358.536L401.805 383.681C402.16 384.779 401.559 385.957 400.463 386.314L391.188 389.326C390.138 389.668 389.015 389.133 388.606 388.126L388.555 387.985C388.554 387.985 388.554 387.984 388.556 387.983L380.407 362.844C380.11 361.929 380.611 360.945 381.527 360.647Z" fill="#E6F3FF"/>
<path fill-rule="evenodd" clip-rule="evenodd" d="M499.589 365.709C499.589 365.709 489.692 398.84 489.399 405.111C489.106 411.383 497.494 429.817 496.065 434.476C492.773 445.242 450.738 449.879 449.132 435.395C448.384 428.64 449.942 422.578 448.146 414.618C446.356 406.66 439.162 394.832 443.243 383.712C447.323 372.592 446.229 362.305 449.148 360.36C452.067 358.415 458.888 356.351 458.888 356.351C462.205 361.232 473.405 361.16 478.749 356.006C478.749 356.006 492.025 358.581 499.589 365.709Z" fill="#7367F0"/>
<path fill-rule="evenodd" clip-rule="evenodd" d="M490.721 371.075C484.125 381.542 484.145 399.766 480.602 402.152C477.059 404.539 463.27 402.197 463.27 404.087C463.27 405.976 482.325 423.299 479.197 431.578C477.559 435.915 478.003 439.793 480.53 443.216L481.355 443.035C488.863 441.339 494.899 438.293 496.066 434.476C497.494 429.817 488.14 411.384 488.433 405.111C488.682 399.788 496.547 375.11 498.919 367.773C496.987 364.366 494.256 365.467 490.721 371.075Z" fill="black" fill-opacity="0.199355"/>
<path fill-rule="evenodd" clip-rule="evenodd" d="M479.472 398.843C479.472 398.843 471.136 391.467 468.585 390.612C466.033 389.756 451.089 388.728 451.184 390.661C451.291 392.734 459.317 392.614 460.149 393.634C460.98 394.653 461.17 401.621 464.313 402.402C467.451 403.185 476.857 404.534 476.857 404.534L479.472 398.843Z" fill="url(#paint11_linear)"/>
<path fill-rule="evenodd" clip-rule="evenodd" d="M501.648 367.613C510.43 380.004 517.927 398.881 520.805 406.24C523.683 413.6 520.78 424.699 508.125 422.52C495.492 420.347 475.393 408.537 473.169 405.092C470.946 401.648 474.324 395.379 478.579 396.199C482.519 396.958 502.071 405.27 502.071 405.27C502.071 405.27 489.493 382.979 486.422 377.003C481.291 367.024 493.913 356.694 501.648 367.613Z" fill="#6A5EE3"/>
<path fill-rule="evenodd" clip-rule="evenodd" d="M501.873 405.118C501.873 405.118 508.46 408.39 507.657 407.017C506.853 405.645 499.359 400.823 499.359 400.823L501.873 405.118Z" fill="black" fill-opacity="0.302803"/>
<path fill-rule="evenodd" clip-rule="evenodd" d="M392.26 524.424C392.26 524.424 392.413 536.487 382.471 540.997C372.535 545.506 365.457 545.235 366.358 548.722C367.258 552.207 393.12 552.067 395.534 549.34C397.593 547.02 402.069 525.421 403.301 527.073L392.26 524.424Z" fill="url(#paint12_linear)"/>
<path fill-rule="evenodd" clip-rule="evenodd" d="M400.126 537.926C399.016 535.782 398.945 541.816 394.567 540.486C391.013 539.407 389.798 533.231 387.552 534.584C385.308 535.936 365.54 546.424 365.428 546.487C362.994 547.797 363.674 551.768 367.785 552.462C372.353 553.231 396.018 552.713 397.288 551.495C398.558 550.278 401.016 539.646 400.126 537.926Z" fill="#222D4E"/>
<path fill-rule="evenodd" clip-rule="evenodd" d="M384.629 538.19C384.985 538.19 385.326 538.602 385.585 539.031C385.892 539.541 385.615 540.17 385.065 540.397L375.057 544.518C374.681 544.672 374.242 544.617 373.981 544.306C373.786 544.073 373.622 543.799 373.714 543.607C373.907 543.205 383.883 538.19 384.629 538.19Z" fill="white" fill-opacity="0.540975"/>
<path fill-rule="evenodd" clip-rule="evenodd" d="M495.478 429.952C495.478 429.952 508.311 457.051 490.276 466.357C472.833 475.356 420.616 464.713 420.616 464.713C420.616 464.713 421.549 472.224 420.616 478.922C418.18 496.418 406.589 525.568 404.138 529.23C400.746 534.295 390.416 530.475 390.222 526.258C390.027 522.04 398.009 468.177 399.223 457.905C400.43 447.634 404.242 446.141 415.377 443.334C417.935 442.689 448.185 435.172 450.956 435.391C474.766 437.274 495.478 429.952 495.478 429.952Z" fill="#2C3757"/>
<path opacity="0.461565" fill-rule="evenodd" clip-rule="evenodd" d="M481.408 463.56C464.14 465.495 418.422 461.507 416.586 463.319C414.833 465.049 415.126 495.147 411.192 512.569L411.79 510.923C415.489 500.654 419.33 488.163 420.616 478.922C421.549 472.223 420.616 464.713 420.616 464.713L422.722 465.12C432.647 466.984 474.926 474.277 490.276 466.357C498.592 462.066 501.986 454.937 500.457 444.971C497.824 456.236 491.474 462.432 481.408 463.56Z" fill="white" fill-opacity="0.192499"/>
<path fill-rule="evenodd" clip-rule="evenodd" d="M463.477 483.384C463.477 468.729 475.366 456.848 490.033 456.848H565.588V538.753C565.588 539.815 564.727 540.677 563.664 540.677H463.477V483.384Z" fill="#86E5F0"/>
<path d="M578.25 494.978H586.012C593.514 494.978 599.596 501.055 599.596 508.552H591.834C584.332 508.552 578.25 502.475 578.25 494.978Z" fill="#2CE780"/>
<path d="M587.953 487.221H593.774C597.524 487.221 600.565 490.26 600.565 494.008H594.745C590.993 494.008 587.953 490.97 587.953 487.221Z" fill="#28C76F"/>
<path d="M618.03 494.008H611.239C604.809 494.008 599.596 499.217 599.596 505.643H606.387C612.817 505.643 618.03 500.434 618.03 494.008Z" fill="#28C76F"/>
<path fill-rule="evenodd" clip-rule="evenodd" d="M609.695 481.61L604.17 483.851C599.856 485.601 597.772 490.507 599.509 494.824L605.034 492.582C609.347 490.832 611.431 485.926 609.695 481.61Z" fill="#2CE780"/>
<path fill-rule="evenodd" clip-rule="evenodd" d="M595.486 480.435C598.522 482.357 600.447 486.015 600.561 490.03L600.566 490.407V519.217H599.009V490.407C599.009 487.029 597.48 483.915 595.004 482.207L594.745 482.035L595.486 480.435Z" fill="#28C76F"/>
<path fill-rule="evenodd" clip-rule="evenodd" d="M588.01 509.521H612.214C613.345 509.521 614.262 510.418 614.262 511.525V511.583C614.262 512.806 614.856 513.956 615.864 514.682L616.491 515.133C617.499 515.858 618.093 517.008 618.093 518.232V548.179C618.093 550.305 616.333 552.027 614.163 552.027H586.062C583.891 552.027 582.131 550.305 582.131 548.179V518.232C582.131 517.008 582.727 515.858 583.733 515.133L584.361 514.682C585.301 514.005 585.882 512.957 585.955 511.826L585.964 511.525C585.964 510.418 586.88 509.521 588.01 509.521Z" fill="#DA4E4F"/>
<mask id="mask2" mask-type="alpha" maskUnits="userSpaceOnUse" x="582" y="509" width="37" height="44">
<path fill-rule="evenodd" clip-rule="evenodd" d="M588.01 509.521H612.214C613.345 509.521 614.262 510.418 614.262 511.525V511.583C614.262 512.806 614.856 513.956 615.864 514.682L616.491 515.133C617.499 515.858 618.093 517.008 618.093 518.232V548.179C618.093 550.305 616.333 552.027 614.163 552.027H586.062C583.891 552.027 582.131 550.305 582.131 548.179V518.232C582.131 517.008 582.727 515.858 583.733 515.133L584.361 514.682C585.301 514.005 585.882 512.957 585.955 511.826L585.964 511.525C585.964 510.418 586.88 509.521 588.01 509.521Z" fill="white"/>
</mask>
<g mask="url(#mask2)">
<path fill-rule="evenodd" clip-rule="evenodd" d="M581.148 507.598H590.974C586.638 524.126 597.198 537.833 590.974 554.719H581.148V507.598Z" fill="#E95B5C"/>
<path d="M618.093 535.486H582.131V539.333H618.093V535.486Z" fill="#FFDFE2" fill-opacity="0.257949"/>
<path d="M618.093 524.907H582.131V528.754H618.093V524.907Z" fill="#FFDFE2" fill-opacity="0.257949"/>
</g>
<path fill-rule="evenodd" clip-rule="evenodd" d="M590.252 476.475L594.829 477.792C598.664 478.896 600.881 482.893 599.786 486.728L595.21 485.409C591.375 484.305 589.157 480.309 590.252 476.475Z" fill="#2CE780"/>
<defs>
<filter id="filter0_f" x="1.17184" y="150.847" width="235.002" height="236.494" filterUnits="userSpaceOnUse" color-interpolation-filters="sRGB">
<feFlood flood-opacity="0" result="BackgroundImageFix"/>
<feBlend mode="normal" in="SourceGraphic" in2="BackgroundImageFix" result="shape"/>
<feGaussianBlur stdDeviation="2.71828" result="effect1_foregroundBlur"/>
</filter>
<filter id="filter1_d" x="168.576" y="327.284" width="242.495" height="172.606" filterUnits="userSpaceOnUse" color-interpolation-filters="sRGB">
<feFlood flood-opacity="0" result="BackgroundImageFix"/>
<feColorMatrix in="SourceAlpha" type="matrix" values="0 0 0 0 0 0 0 0 0 0 0 0 0 0 0 0 0 0 127 0"/>
<feOffset dx="5" dy="5"/>
<feGaussianBlur stdDeviation="10"/>
<feColorMatrix type="matrix" values="0 0 0 0 0.0862745 0 0 0 0 0.113725 0 0 0 0 0.192157 0 0 0 0.7 0"/>
<feBlend mode="normal" in2="BackgroundImageFix" result="effect1_dropShadow"/>
<feBlend mode="normal" in="SourceGraphic" in2="effect1_dropShadow" result="shape"/>
</filter>
<filter id="filter2_d" x="173.379" y="192.509" width="237.58" height="150.961" filterUnits="userSpaceOnUse" color-interpolation-filters="sRGB">
<feFlood flood-opacity="0" result="BackgroundImageFix"/>
<feColorMatrix in="SourceAlpha" type="matrix" values="0 0 0 0 0 0 0 0 0 0 0 0 0 0 0 0 0 0 127 0"/>
<feOffset dx="6" dy="4"/>
<feGaussianBlur stdDeviation="7"/>
<feColorMatrix type="matrix" values="0 0 0 0 0.0189934 0 0 0 0 0.0189934 0 0 0 0 0.0189934 0 0 0 0.11 0"/>
<feBlend mode="normal" in2="BackgroundImageFix" result="effect1_dropShadow"/>
<feBlend mode="normal" in="SourceGraphic" in2="effect1_dropShadow" result="shape"/>
</filter>
<linearGradient id="paint0_linear" x1="119.281" y1="522.036" x2="120.553" y2="550.61" gradientUnits="userSpaceOnUse">
<stop stop-color="#FDC6C6"/>
<stop offset="1" stop-color="#FAB2B2"/>
</linearGradient>
<linearGradient id="paint1_linear" x1="53.0704" y1="524.565" x2="55.3869" y2="549.842" gradientUnits="userSpaceOnUse">
<stop stop-color="#FDC6C6"/>
<stop offset="1" stop-color="#FAB2B2"/>
</linearGradient>
<linearGradient id="paint2_linear" x1="70.8373" y1="206.684" x2="81.2718" y2="254.833" gradientUnits="userSpaceOnUse">
<stop stop-color="#FFAFAF"/>
<stop offset="1" stop-color="#F07777"/>
</linearGradient>
<linearGradient id="paint3_linear" x1="73.4647" y1="197.501" x2="80.1647" y2="230.092" gradientUnits="userSpaceOnUse">
<stop stop-color="#FDC6C6"/>
<stop offset="1" stop-color="#FAB2B2"/>
</linearGradient>
<linearGradient id="paint4_linear" x1="176.164" y1="235.306" x2="176.508" y2="269.603" gradientUnits="userSpaceOnUse">
<stop stop-color="#FDC6C6"/>
<stop offset="1" stop-color="#FAB2B2"/>
</linearGradient>
<linearGradient id="paint5_linear" x1="53.2167" y1="315.694" x2="54.2446" y2="341.968" gradientUnits="userSpaceOnUse">
<stop stop-color="#FDC6C6"/>
<stop offset="1" stop-color="#FAB2B2"/>
</linearGradient>
<linearGradient id="paint6_linear" x1="489.316" y1="329.175" x2="478.579" y2="377.15" gradientUnits="userSpaceOnUse">
<stop stop-color="#FFAFAF"/>
<stop offset="1" stop-color="#F07777"/>
</linearGradient>
<linearGradient id="paint7_linear" x1="488.482" y1="320.066" x2="482.04" y2="351.598" gradientUnits="userSpaceOnUse">
<stop stop-color="#FDC6C6"/>
<stop offset="1" stop-color="#FAB2B2"/>
</linearGradient>
<linearGradient id="paint8_linear" x1="442.87" y1="516.702" x2="441.326" y2="545.577" gradientUnits="userSpaceOnUse">
<stop stop-color="#FDC6C6"/>
<stop offset="1" stop-color="#FAB2B2"/>
</linearGradient>
<linearGradient id="paint9_linear" x1="412.722" y1="553.887" x2="366.13" y2="464.391" gradientUnits="userSpaceOnUse">
<stop stop-color="#28324F"/>
<stop offset="1" stop-color="#222735"/>
</linearGradient>
<linearGradient id="paint10_linear" x1="407.755" y1="357.27" x2="405.67" y2="385.001" gradientUnits="userSpaceOnUse">
<stop stop-color="#FDC6C6"/>
<stop offset="1" stop-color="#FAB2B2"/>
</linearGradient>
<linearGradient id="paint11_linear" x1="484.368" y1="385.915" x2="483.756" y2="403.822" gradientUnits="userSpaceOnUse">
<stop stop-color="#FDC6C6"/>
<stop offset="1" stop-color="#FAB2B2"/>
</linearGradient>
<linearGradient id="paint12_linear" x1="409.707" y1="517.866" x2="408.197" y2="550.052" gradientUnits="userSpaceOnUse">
<stop stop-color="#FDC6C6"/>
<stop offset="1" stop-color="#FAB2B2"/>
</linearGradient>
</defs>
</svg>
