<svg width="582" height="515" viewBox="0 0 582 515" fill="none" xmlns="http://www.w3.org/2000/svg">
<g clip-path="url(#clip0)">
<path opacity="0.0528274" fill-rule="evenodd" clip-rule="evenodd" d="M582 155.781C582 69.7452 512.007 0 425.667 0C339.327 0 269.335 69.7452 269.335 155.781C269.335 241.815 339.327 311.561 425.667 311.561C512.007 311.561 582 241.815 582 155.781ZM327.777 155.781C327.777 101.908 371.604 58.2357 425.667 58.2357C479.731 58.2357 523.557 101.908 523.557 155.781C523.557 209.652 479.731 253.325 425.667 253.325C371.604 253.325 327.777 209.652 327.777 155.781Z" fill="#7367F0"/>
<g opacity="0.14102" filter="url(#filter0_f)">
<path opacity="0.14102" fill-rule="evenodd" clip-rule="evenodd" d="M94.0089 247.016C94.0089 222.626 74.167 202.854 49.6906 202.854C25.2142 202.854 5.37207 222.626 5.37207 247.016C5.37207 271.407 25.2142 291.178 49.6906 291.178C74.167 291.178 94.0089 271.407 94.0089 247.016ZM34.593 247.016C34.593 238.707 41.3525 231.972 49.6906 231.972C58.0287 231.972 64.7881 238.707 64.7881 247.016C64.7881 255.325 58.0287 262.061 49.6906 262.061C41.3525 262.061 34.593 255.325 34.593 247.016Z" fill="#8BF78F"/>
</g>
<path d="M186.543 475.591C234.958 475.591 274.206 436.481 274.206 388.237C274.206 339.993 234.958 300.884 186.543 300.884C138.128 300.884 98.8799 339.993 98.8799 388.237C98.8799 436.481 138.128 475.591 186.543 475.591Z" fill="#7367F0" fill-opacity="0.0612161"/>
<path opacity="0.14102" d="M157.32 113.56C174.535 113.56 188.489 99.6539 188.489 82.5005C188.489 65.347 174.535 51.4414 157.32 51.4414C140.106 51.4414 126.151 65.347 126.151 82.5005C126.151 99.6539 140.106 113.56 157.32 113.56Z" fill="#CEF5FF"/>
<g filter="url(#filter1_f)">
<path d="M524.532 419.297C541.747 419.297 555.701 405.391 555.701 388.238C555.701 371.084 541.747 357.178 524.532 357.178C507.318 357.178 493.363 371.084 493.363 388.238C493.363 405.391 507.318 419.297 524.532 419.297Z" fill="#7367F0" fill-opacity="0.135927"/>
</g>
<path fill-rule="evenodd" clip-rule="evenodd" d="M186.723 129.097C186.723 116.662 196.799 106.583 209.23 106.583H361.271C373.701 106.583 383.778 116.662 383.778 129.097V490.223C383.778 502.656 373.701 512.737 361.271 512.737H209.23C196.799 512.737 186.723 502.656 186.723 490.223V129.097Z" fill="#C4E3E7"/>
<path fill-rule="evenodd" clip-rule="evenodd" d="M193.83 131.356C193.83 122.195 201.255 114.767 210.414 114.767H238.072C238.8 114.767 239.395 115.346 239.417 116.074C239.568 121.288 243.838 125.437 249.054 125.437H320.802C326.017 125.437 330.287 121.288 330.439 116.074C330.46 115.346 331.056 114.767 331.783 114.767H359.441C368.6 114.767 376.026 122.195 376.026 131.356V485.538C376.026 494.699 368.6 502.127 359.441 502.127H210.414C201.255 502.127 193.83 494.699 193.83 485.538V131.356Z" fill="#161D31"/>
<mask id="mask0" mask-type="alpha" maskUnits="userSpaceOnUse" x="193" y="114" width="184" height="389">
<path fill-rule="evenodd" clip-rule="evenodd" d="M193.83 131.356C193.83 122.195 201.255 114.767 210.414 114.767H238.072C238.8 114.767 239.395 115.346 239.417 116.074C239.568 121.288 243.838 125.437 249.054 125.437H320.802C326.017 125.437 330.287 121.288 330.439 116.074C330.46 115.346 331.056 114.767 331.783 114.767H359.441C368.6 114.767 376.026 122.195 376.026 131.356V485.538C376.026 494.699 368.6 502.127 359.441 502.127H210.414C201.255 502.127 193.83 494.699 193.83 485.538V131.356Z" fill="white"/>
</mask>
<g mask="url(#mask0)">
<path opacity="0.0987723" d="M262.905 366.049C271.536 366.049 278.533 359.101 278.533 350.53C278.533 341.959 271.536 335.01 262.905 335.01C254.275 335.01 247.278 341.959 247.278 350.53C247.278 359.101 254.275 366.049 262.905 366.049Z" fill="#7367F0"/>
<path opacity="0.14102" fill-rule="evenodd" clip-rule="evenodd" d="M356.424 335.01C398.094 335.01 431.874 368.557 431.874 409.94C431.874 451.323 398.094 484.87 356.424 484.87C314.755 484.87 280.975 451.323 280.975 409.94C280.975 368.557 314.755 335.01 356.424 335.01ZM356.424 367.746C332.96 367.746 313.938 386.637 313.938 409.94C313.938 433.242 332.96 452.133 356.424 452.133C379.889 452.133 398.91 433.242 398.91 409.94C398.91 386.637 379.889 367.746 356.424 367.746Z" fill="#C8F5D0"/>
<path fill-rule="evenodd" clip-rule="evenodd" d="M216.024 186.363C216.024 183.55 218.303 181.27 221.115 181.27H350.113C352.924 181.27 355.203 183.55 355.203 186.363C355.203 189.175 352.924 191.455 350.113 191.455H221.115C218.303 191.455 216.024 189.175 216.024 186.363Z" fill="#68DE9E" fill-opacity="0.642073"/>
</g>
<path d="M295.932 113.693C297.617 113.693 298.984 114.996 298.984 116.603C298.984 118.174 297.677 119.455 296.043 119.511L295.932 119.513H261.419C259.734 119.513 258.367 118.21 258.367 116.603C258.367 115.031 259.674 113.751 261.308 113.695L261.419 113.693H295.932Z" fill="#56CDD9"/>
<path d="M308.301 113.208C309.987 113.208 311.353 114.566 311.353 116.24C311.353 117.876 310.047 119.21 308.412 119.269L308.301 119.27H308.14C306.455 119.27 305.088 117.914 305.088 116.24C305.088 114.602 306.394 113.269 308.028 113.21L308.14 113.208H308.301Z" fill="#56CDD9"/>
<path fill-rule="evenodd" clip-rule="evenodd" d="M199.42 247.615C199.42 245.636 201.024 244.032 203.001 244.032H209.8C211.779 244.032 213.382 245.636 213.382 247.615V250.752C213.382 251.355 213.871 251.844 214.474 251.844H259.251C261.229 251.844 262.833 253.448 262.833 255.426V293.669C262.833 295.648 261.229 297.252 259.251 297.252H203.001C201.024 297.252 199.42 295.648 199.42 293.669V247.615Z" fill="url(#paint0_linear)"/>
<path fill-rule="evenodd" clip-rule="evenodd" d="M214.477 248.647C214.562 248.118 215.018 247.728 215.554 247.728H264.193C264.865 247.728 265.377 248.329 265.271 248.994L257.964 294.485C257.879 295.014 257.423 295.404 256.886 295.404H208.247C207.576 295.404 207.063 294.803 207.169 294.139L214.477 248.647Z" fill="url(#paint1_linear)"/>
<path fill-rule="evenodd" clip-rule="evenodd" d="M266.902 259.836C269.156 259.836 270.85 261.894 270.417 264.107L264.944 292.064C264.285 295.426 261.339 297.853 257.914 297.853H203.771C201.516 297.853 199.823 295.794 200.256 293.581L205.73 265.623C206.388 262.261 209.334 259.836 212.759 259.836H266.902Z" fill="#FFCC7B"/>
<path fill-rule="evenodd" clip-rule="evenodd" d="M127.145 199.254C127.145 196.286 129.55 193.88 132.517 193.88H162.662L174.026 205.519V243.794C174.026 246.762 171.621 249.168 168.654 249.168H132.517C129.55 249.168 127.145 246.762 127.145 243.794V199.254Z" fill="#B7B1FB"/>
<path fill-rule="evenodd" clip-rule="evenodd" d="M157.676 230.635V215.367C157.676 213.745 156.436 212.504 154.815 212.504H150.044C149.471 212.504 149.089 212.886 149.089 213.458C149.089 214.03 149.471 214.413 150.044 214.413H154.815C155.387 214.413 155.768 214.794 155.768 215.367V230.635C155.768 231.207 155.387 231.589 154.815 231.589H150.044C149.471 231.589 149.089 231.97 149.089 232.543C149.089 233.116 149.471 233.497 150.044 233.497H154.815C156.436 233.497 157.676 232.257 157.676 230.635ZM151.856 222.619C151.952 222.905 151.952 223.191 151.856 223.383C151.856 223.478 151.761 223.574 151.665 223.668L147.849 227.486C147.658 227.677 147.372 227.771 147.181 227.771C146.991 227.771 146.704 227.677 146.513 227.486C146.131 227.104 146.131 226.531 146.513 226.149L148.708 223.955H139.548C138.975 223.955 138.594 223.574 138.594 223C138.594 222.428 138.975 222.046 139.548 222.046H148.708L146.513 219.851C146.131 219.47 146.131 218.897 146.513 218.516C146.895 218.134 147.467 218.134 147.849 218.516L151.665 222.333C151.713 222.381 151.737 222.428 151.761 222.475C151.785 222.524 151.809 222.571 151.856 222.619Z" fill="black"/>
<mask id="mask1" mask-type="alpha" maskUnits="userSpaceOnUse" x="138" y="212" width="20" height="22">
<path fill-rule="evenodd" clip-rule="evenodd" d="M157.676 230.635V215.367C157.676 213.745 156.436 212.504 154.815 212.504H150.044C149.471 212.504 149.089 212.886 149.089 213.458C149.089 214.03 149.471 214.413 150.044 214.413H154.815C155.387 214.413 155.768 214.794 155.768 215.367V230.635C155.768 231.207 155.387 231.589 154.815 231.589H150.044C149.471 231.589 149.089 231.97 149.089 232.543C149.089 233.116 149.471 233.497 150.044 233.497H154.815C156.436 233.497 157.676 232.257 157.676 230.635ZM151.856 222.619C151.952 222.905 151.952 223.191 151.856 223.383C151.856 223.478 151.761 223.574 151.665 223.668L147.849 227.486C147.658 227.677 147.372 227.771 147.181 227.771C146.991 227.771 146.704 227.677 146.513 227.486C146.131 227.104 146.131 226.531 146.513 226.149L148.708 223.955H139.548C138.975 223.955 138.594 223.574 138.594 223C138.594 222.428 138.975 222.046 139.548 222.046H148.708L146.513 219.851C146.131 219.47 146.131 218.897 146.513 218.516C146.895 218.134 147.467 218.134 147.849 218.516L151.665 222.333C151.713 222.381 151.737 222.428 151.761 222.475C151.785 222.524 151.809 222.571 151.856 222.619Z" fill="white"/>
</mask>
<g mask="url(#mask1)">
<path d="M159.585 211.549H136.686V234.451H159.585V211.549Z" fill="white"/>
</g>
<path opacity="0.33996" d="M174.025 205.519H165.347C163.864 205.519 162.661 204.316 162.661 202.832V193.88L174.025 205.519Z" fill="#7367F0"/>
<path fill-rule="evenodd" clip-rule="evenodd" d="M147.655 342.809C147.655 339.841 150.061 337.435 153.028 337.435H208.698C211.665 337.435 214.07 339.841 214.07 342.809V387.349C214.07 390.317 211.665 392.723 208.698 392.723H153.028C150.061 392.723 147.655 390.317 147.655 387.349V342.809Z" fill="#6FD9E6"/>
<path fill-rule="evenodd" clip-rule="evenodd" d="M187.889 362.881H186.776V359.542C186.776 355.868 183.77 352.862 180.096 352.862C176.423 352.862 173.418 355.868 173.418 359.542V362.881H172.305C170.412 362.881 168.965 364.328 168.965 366.221V374.014C168.965 375.907 170.412 377.353 172.305 377.353H187.889C189.781 377.353 191.228 375.907 191.228 374.014V366.221C191.228 364.328 189.781 362.881 187.889 362.881ZM175.644 359.542C175.644 357.092 177.647 355.088 180.096 355.088C182.545 355.088 184.549 357.092 184.549 359.542V362.881H175.644V359.542ZM187.889 375.127C188.557 375.127 189.002 374.682 189.002 374.014V366.221C189.002 365.553 188.557 365.108 187.889 365.108H172.305C171.637 365.108 171.191 365.553 171.191 366.221V374.014C171.191 374.682 171.637 375.127 172.305 375.127H187.889Z" fill="black"/>
<mask id="mask2" mask-type="alpha" maskUnits="userSpaceOnUse" x="168" y="352" width="24" height="26">
<path fill-rule="evenodd" clip-rule="evenodd" d="M187.889 362.881H186.776V359.542C186.776 355.868 183.77 352.862 180.096 352.862C176.423 352.862 173.418 355.868 173.418 359.542V362.881H172.305C170.412 362.881 168.965 364.328 168.965 366.221V374.014C168.965 375.907 170.412 377.353 172.305 377.353H187.889C189.781 377.353 191.228 375.907 191.228 374.014V366.221C191.228 364.328 189.781 362.881 187.889 362.881ZM175.644 359.542C175.644 357.092 177.647 355.088 180.096 355.088C182.545 355.088 184.549 357.092 184.549 359.542V362.881H175.644V359.542ZM187.889 375.127C188.557 375.127 189.002 374.682 189.002 374.014V366.221C189.002 365.553 188.557 365.108 187.889 365.108H172.305C171.637 365.108 171.191 365.553 171.191 366.221V374.014C171.191 374.682 171.637 375.127 172.305 375.127H187.889Z" fill="white"/>
</mask>
<g mask="url(#mask2)">
<path d="M193.455 351.749H166.739V378.467H193.455V351.749Z" fill="white"/>
</g>
<path d="M205.28 166.274C205.28 163.307 207.685 160.9 210.653 160.9H266.323C269.29 160.9 271.695 163.307 271.695 166.274V210.815C271.695 213.783 269.29 216.189 266.323 216.189H210.653C207.685 216.189 205.28 213.783 205.28 210.815V166.274Z" fill="#BAF3C4"/>
<mask id="mask3" mask-type="alpha" maskUnits="userSpaceOnUse" x="205" y="160" width="67" height="57">
<path d="M205.28 166.274C205.28 163.307 207.685 160.9 210.653 160.9H266.323C269.29 160.9 271.695 163.307 271.695 166.274V210.815C271.695 213.783 269.29 216.189 266.323 216.189H210.653C207.685 216.189 205.28 213.783 205.28 210.815V166.274Z" fill="white"/>
</mask>
<g mask="url(#mask3)">
<path d="M234.58 190C239.435 190 243.371 186.091 243.371 181.27C243.371 176.449 239.435 172.54 234.58 172.54C229.726 172.54 225.79 176.449 225.79 181.27C225.79 186.091 229.726 190 234.58 190Z" fill="white"/>
<path d="M214.558 257.897C232.089 257.897 246.301 243.783 246.301 226.373C246.301 208.963 232.089 194.849 214.558 194.849C197.027 194.849 182.815 208.963 182.815 226.373C182.815 243.783 197.027 257.897 214.558 257.897Z" fill="#28C76F"/>
<path d="M272.184 255.958C292.951 255.958 309.787 239.455 309.787 219.099C309.787 198.742 292.951 182.24 272.184 182.24C251.416 182.24 234.581 198.742 234.581 219.099C234.581 239.455 251.416 255.958 272.184 255.958Z" fill="#69E09E"/>
</g>
<g filter="url(#filter2_d)">
<path fill-rule="evenodd" clip-rule="evenodd" d="M293.218 147.584C293.198 142.623 297.213 138.591 302.172 138.591H400.882C405.812 138.591 409.816 142.58 409.835 147.512L410.35 277.034C410.37 281.994 406.355 286.026 401.396 286.026H302.687C297.756 286.026 293.752 282.038 293.733 277.106L293.218 147.584Z" fill="#313A53"/>
</g>
<path opacity="0.33996" d="M330.298 232.678C330.298 231.071 331.6 229.768 333.207 229.768H370.363C371.97 229.768 373.272 231.071 373.272 232.678C373.272 234.286 371.97 235.588 370.363 235.588H333.207C331.6 235.588 330.298 234.286 330.298 232.678Z" fill="#7367F0"/>
<path opacity="0.33996" d="M320.53 248.198C320.53 246.591 321.833 245.288 323.439 245.288H380.13C381.737 245.288 383.039 246.591 383.039 248.198C383.039 249.804 381.737 251.108 380.13 251.108H323.439C321.833 251.108 320.53 249.804 320.53 248.198Z" fill="#7367F0"/>
<g filter="url(#filter3_dd)">
<path d="M351.857 208.599C364.304 208.599 374.395 198.356 374.395 185.72C374.395 173.084 364.304 162.84 351.857 162.84C339.411 162.84 329.32 173.084 329.32 185.72C329.32 198.356 339.411 208.599 351.857 208.599Z" fill="white"/>
</g>
<path fill-rule="evenodd" clip-rule="evenodd" d="M352.283 184.961C355.467 184.961 358.048 182.398 358.048 179.235C358.048 176.074 355.467 173.51 352.283 173.51C349.099 173.51 346.517 176.074 346.517 179.235C346.517 182.398 349.099 184.961 352.283 184.961ZM351.556 186.582C346.827 186.582 342.994 190.417 342.994 195.146C342.994 195.687 343.433 196.125 343.973 196.125H360.593C361.133 196.125 361.572 195.687 361.572 195.146C361.572 190.417 357.738 186.582 353.01 186.582H351.556Z" fill="#7367F0"/>
<path fill-rule="evenodd" clip-rule="evenodd" d="M463.402 304.586C463.402 304.586 452.48 315.316 453.15 316.365C453.819 317.422 459.323 314.968 459.323 314.968C459.323 314.968 452.457 326.238 453.87 327.104C455.282 327.971 462.506 326.217 464.722 323.894C466.938 321.57 470.356 309.846 470.356 309.846L486.968 278.951L474.921 274.81L463.402 304.586Z" fill="url(#paint2_linear)"/>
<path fill-rule="evenodd" clip-rule="evenodd" d="M452.248 247.474C456.835 254.551 472.275 274.722 472.275 274.722L471.149 278.747L485.339 288.407C485.339 288.407 489.37 277.348 489.72 275.792C490.873 270.66 467.562 237.908 462.342 233.176C454.125 225.724 445.239 236.657 452.248 247.474Z" fill="#FD8715"/>
<path fill-rule="evenodd" clip-rule="evenodd" d="M475.965 280.077C476.23 279.564 472.297 274.65 472.297 274.65L471.631 277.04C471.631 277.04 475.7 280.59 475.965 280.077Z" fill="black" fill-opacity="0.159856"/>
<path fill-rule="evenodd" clip-rule="evenodd" d="M471.062 277.396L486.136 288.829L482.777 296.222L469.597 281.663L471.062 277.396Z" fill="#FFEDC2"/>
<path fill-rule="evenodd" clip-rule="evenodd" d="M461.545 485.465L460.708 499.632L471.441 499.91L469.424 485.465H461.545Z" fill="url(#paint3_linear)"/>
<path fill-rule="evenodd" clip-rule="evenodd" d="M471.95 491.047C471.95 491.047 471.649 499.578 473.428 502.557C475.219 505.535 475.76 507.845 475.84 509.627C475.924 511.536 475.743 513.267 475.743 513.267H457.978C457.978 513.267 457.533 504.29 458.71 502.597C459.886 500.905 460.658 500.875 460.658 499.38C460.668 497.884 460.922 491.102 460.922 491.102L471.95 491.047Z" fill="#391B0B"/>
<path fill-rule="evenodd" clip-rule="evenodd" d="M423.73 296.318L451.574 293.312L451.983 293.69C453.968 295.568 462.592 304.288 465.069 316.208C469.748 338.711 463.486 380.274 463.625 389.387C463.758 398.501 468.094 404.001 469.896 416.887C471.698 429.772 471.868 487.363 471.868 487.363C467.09 490.175 462.887 490.376 457.189 487.194L423.73 296.318Z" fill="#4E3319"/>
<path fill-rule="evenodd" clip-rule="evenodd" d="M448.602 438.203L423.73 296.318L439.212 294.647C439.901 343.938 449.529 410.564 448.602 438.203Z" fill="white" fill-opacity="0.192499"/>
<path fill-rule="evenodd" clip-rule="evenodd" d="M429.434 483.975L420.281 484.123C420.281 484.123 420.883 493.558 417.363 496.754L417.171 496.921C412.922 500.458 429.315 499.182 429.315 499.182L429.434 483.975Z" fill="url(#paint4_linear)"/>
<path fill-rule="evenodd" clip-rule="evenodd" d="M429.919 491.33L429.656 513.259L423.139 513.263L423.082 507.86C423.082 507.86 421.026 512.898 417.884 513.189C414.734 513.48 400.692 513.302 400.692 513.302C400.692 513.302 399.526 508.243 406.515 505.946C412.329 504.036 418.757 491.33 418.757 491.33H429.919Z" fill="#391B0B"/>
<path fill-rule="evenodd" clip-rule="evenodd" d="M409.919 298.269L441.185 297.217L441.419 297.646C442.935 300.504 451.248 317.235 448.682 336.253C445.079 362.947 435.92 394.24 435.471 399.021C434.672 407.544 436.271 413.715 436.926 422.518C437.582 431.322 434.427 486.689 434.427 486.689C429.787 489.46 424.266 490.004 417.247 486.772C417.247 486.772 410.91 411.568 410.864 399.666C410.817 387.764 409.919 298.269 409.919 298.269Z" fill="#604021"/>
<path fill-rule="evenodd" clip-rule="evenodd" d="M416.353 327.141L416.145 329.119C414.062 349.974 414.077 394.264 414.885 401.094L414.995 401.975C415.89 409.682 415.919 429.25 415.082 460.678L413.993 447.117C411.928 421.021 410.885 405.204 410.864 399.666L410.826 393.934C410.646 370.76 409.919 298.268 409.919 298.268L416.513 298.047C417.218 309.49 417.164 319.188 416.353 327.141Z" fill="white" fill-opacity="0.192499"/>
<path fill-rule="evenodd" clip-rule="evenodd" d="M421.842 199.42C417.995 199.838 418.268 206.554 422.951 206.905C423.908 213.38 427.322 216.465 431.484 216.822L431.253 226.616L449.661 226.605C449.661 226.605 444.477 219.686 444.736 210.215C444.994 200.742 444.562 191.845 444.562 191.845L420.719 192.27L421.842 199.42Z" fill="url(#paint5_linear)"/>
<path fill-rule="evenodd" clip-rule="evenodd" d="M421.005 199.923C425.486 198.163 428.796 205.739 432.225 211.006C435.653 216.271 444.535 215.376 445.759 211.006C450.394 201.431 454.388 188.416 448.98 187.347C448.218 173.511 411.751 176.777 421.005 199.923Z" fill="#8B5030"/>
<path fill-rule="evenodd" clip-rule="evenodd" d="M446.027 181.888H438.094H437.994L437.928 181.962C430.9 189.753 429.337 201.236 432.641 211.584C432.871 211.872 433.119 212.138 433.381 212.382C429.723 201.952 431.139 190.219 438.194 182.336H446.558C446.388 182.181 446.211 182.032 446.027 181.888Z" fill="black" fill-opacity="0.199355"/>
<path d="M441.153 186.477C443.58 186.477 445.548 184.523 445.548 182.112C445.548 179.701 443.58 177.747 441.153 177.747C438.726 177.747 436.758 179.701 436.758 182.112C436.758 184.523 438.726 186.477 441.153 186.477Z" fill="#FB9934"/>
<path fill-rule="evenodd" clip-rule="evenodd" d="M417.012 228.512C412.905 234.504 406.061 254.84 405.672 259.414C405.235 264.691 410.932 273.098 411.025 280.737C411.108 288.377 406.776 311.38 408.078 313.53C409.369 315.679 446.397 325.192 448.813 325.141C451.219 325.089 466.406 312.141 464.501 307.666C462.585 303.192 453.691 292.071 454.597 285.974C455.492 279.878 460.694 257.374 463.276 249.716C465.848 242.056 464.991 234.015 460.19 230.72C457.814 229.089 451.476 224.456 440.188 224.477C428.899 224.499 417.331 228.048 417.012 228.512Z" fill="#FD8715"/>
<path fill-rule="evenodd" clip-rule="evenodd" d="M429.758 224.039C429.758 224.039 429.282 226.616 431.362 226.616C433.441 226.616 447.391 227.072 449.28 226.257C451.169 225.443 450.602 224.039 450.602 224.039H429.758Z" fill="#FFF6E1"/>
<path fill-rule="evenodd" clip-rule="evenodd" d="M411.051 241.471L411.177 241.407C418.784 237.637 423.353 237.47 424.884 240.908C426.863 245.352 421.729 256.029 409.483 272.941C407.801 267.811 405.381 262.921 405.672 259.414C405.897 256.766 408.284 248.84 411.051 241.471Z" fill="black" fill-opacity="0.159856"/>
<path fill-rule="evenodd" clip-rule="evenodd" d="M360.314 228.981C360.314 228.981 358.944 226.027 356.79 225.228C354.636 224.429 351.342 219.135 351.852 217.598C352.361 216.061 356.816 211.797 356.816 211.797C356.816 211.797 352.878 201.3 354.622 200.115C356.163 199.068 361.995 212.29 361.995 212.29C361.995 212.29 365.425 212.803 366.215 214.156C368.21 217.563 366.702 225.228 366.702 225.228L386.945 254.604L377.657 266.431L360.314 228.981Z" fill="url(#paint6_linear)"/>
<path fill-rule="evenodd" clip-rule="evenodd" d="M411.989 231.258C405.142 237.298 388.397 253.322 388.397 253.322L385.91 249.537L373.387 262.272C373.387 262.272 382.833 276.187 385.91 276.284C393.924 276.538 408.285 261.509 421.787 249.774C433.892 239.252 424.75 220 411.989 231.258Z" fill="#FD8715"/>
<path fill-rule="evenodd" clip-rule="evenodd" d="M388.446 253.341C388.446 253.341 383.749 258.737 383.361 258.148C382.973 257.56 386.904 251.001 386.904 251.001L388.446 253.341Z" fill="black" fill-opacity="0.159856"/>
<path fill-rule="evenodd" clip-rule="evenodd" d="M387.408 250.395L372.884 266.431L368.409 257.28L384.645 247.161L387.408 250.395Z" fill="#FFEDC2"/>
<path fill-rule="evenodd" clip-rule="evenodd" d="M440.381 178.638C440.381 178.638 444.494 173.317 449.243 174.714C453.993 176.109 458.288 184.665 456.248 192.707C454.219 200.751 455.893 205.339 458.355 210.76C464.968 225.341 442.07 234.601 442.07 234.601C442.07 234.601 443.857 223.796 440.381 217.271C436.802 210.552 434.77 201.934 434.77 196.662C434.77 187.492 440.381 178.638 440.381 178.638Z" fill="#8B5030"/>
<path fill-rule="evenodd" clip-rule="evenodd" d="M388.899 120.265C405.446 110.796 422.218 111.357 439.18 120.265L438.105 132.15C436.648 148.256 427.745 162.754 414.039 171.334C399.741 162.814 390.578 147.773 389.564 131.155L388.899 120.265Z" fill="#28C76F"/>
<path d="M414.04 153.092C421.613 153.092 427.753 146.995 427.753 139.474C427.753 131.952 421.613 125.855 414.04 125.855C406.467 125.855 400.327 131.952 400.327 139.474C400.327 146.995 406.467 153.092 414.04 153.092Z" fill="#1CA258"/>
<path fill-rule="evenodd" clip-rule="evenodd" d="M413.843 129.8C418.205 129.8 421.98 132.718 423.075 136.836C423.16 137.154 422.968 137.48 422.649 137.564C422.328 137.648 422 137.458 421.915 137.14C420.958 133.543 417.657 130.991 413.843 130.991C409.233 130.991 405.497 134.689 405.497 139.249C405.497 141.823 406.346 144.136 408.057 146.212C408.267 146.467 408.229 146.842 407.972 147.051C407.716 147.258 407.338 147.222 407.128 146.967C405.244 144.681 404.297 142.1 404.297 139.249C404.297 134.03 408.571 129.8 413.843 129.8Z" fill="white"/>
<path fill-rule="evenodd" clip-rule="evenodd" d="M411.721 133.15C415.116 131.989 418.782 133.67 420.035 136.956L420.103 137.144C420.747 139.001 421.622 139.841 422.742 139.826C423.074 139.822 423.346 140.085 423.349 140.415C423.354 140.744 423.089 141.014 422.758 141.018C421.088 141.039 419.848 139.903 419.049 137.757L418.968 137.532C418.003 134.749 414.949 133.307 412.111 134.277C409.557 135.15 408.191 138.238 408.792 140.96C408.909 141.491 409.056 141.966 409.247 142.425L409.418 142.821C409.988 144.071 410.728 145.009 414.073 149.001C414.285 149.254 414.251 149.629 413.995 149.84C413.741 150.05 413.362 150.015 413.15 149.763L411.357 147.611C409.204 145.002 408.718 144.259 408.175 142.969L408.138 142.879C407.92 142.354 407.751 141.812 407.619 141.216C406.899 137.946 408.538 134.239 411.721 133.15Z" fill="white"/>
<path fill-rule="evenodd" clip-rule="evenodd" d="M413.107 136.367C414.866 135.765 416.812 136.705 417.358 138.461C418.147 140.992 419.597 142.563 421.739 143.239C422.055 143.338 422.23 143.673 422.129 143.987C422.029 144.3 421.691 144.474 421.376 144.374C418.841 143.576 417.112 141.701 416.212 138.813C415.868 137.709 414.625 137.109 413.498 137.494C412.298 137.904 411.704 139.053 412.032 140.626C412.198 141.426 412.856 142.515 413.976 143.934L414.167 144.174C414.324 144.37 414.489 144.571 414.668 144.785L416.596 147.05C416.807 147.303 416.771 147.679 416.516 147.889C416.261 148.099 415.882 148.063 415.671 147.809L414.129 146.002L413.743 145.544C413.56 145.325 413.391 145.119 413.229 144.917L412.841 144.426C411.725 142.984 411.061 141.846 410.856 140.867C410.411 138.728 411.315 136.98 413.107 136.367Z" fill="white"/>
<path fill-rule="evenodd" clip-rule="evenodd" d="M414.176 139.612C414.493 139.516 414.828 139.693 414.925 140.007C415.572 142.104 416.838 143.592 419.219 145.368C419.484 145.565 419.538 145.938 419.339 146.202C419.141 146.465 418.765 146.518 418.5 146.321C415.933 144.407 414.512 142.738 413.777 140.357C413.681 140.042 413.859 139.709 414.176 139.612Z" fill="white"/>
</g>
<defs>
<filter id="filter0_f" x="-0.0644898" y="197.418" width="99.5099" height="99.197" filterUnits="userSpaceOnUse" color-interpolation-filters="sRGB">
<feFlood flood-opacity="0" result="BackgroundImageFix"/>
<feBlend mode="normal" in="SourceGraphic" in2="BackgroundImageFix" result="shape"/>
<feGaussianBlur stdDeviation="2.71828" result="effect1_foregroundBlur"/>
</filter>
<filter id="filter1_f" x="485.208" y="349.024" width="78.6478" height="78.4278" filterUnits="userSpaceOnUse" color-interpolation-filters="sRGB">
<feFlood flood-opacity="0" result="BackgroundImageFix"/>
<feBlend mode="normal" in="SourceGraphic" in2="BackgroundImageFix" result="shape"/>
<feGaussianBlur stdDeviation="4.07742" result="effect1_foregroundBlur"/>
</filter>
<filter id="filter2_d" x="273.218" y="119.591" width="173.133" height="203.435" filterUnits="userSpaceOnUse" color-interpolation-filters="sRGB">
<feFlood flood-opacity="0" result="BackgroundImageFix"/>
<feColorMatrix in="SourceAlpha" type="matrix" values="0 0 0 0 0 0 0 0 0 0 0 0 0 0 0 0 0 0 127 0"/>
<feOffset dx="8" dy="9"/>
<feGaussianBlur stdDeviation="14"/>
<feColorMatrix type="matrix" values="0 0 0 0 0.0862745 0 0 0 0 0.113725 0 0 0 0 0.192157 0 0 0 0.7 0"/>
<feBlend mode="normal" in2="BackgroundImageFix" result="effect1_dropShadow"/>
<feBlend mode="normal" in="SourceGraphic" in2="effect1_dropShadow" result="shape"/>
</filter>
<filter id="filter3_dd" x="309.32" y="143.84" width="101.074" height="101.759" filterUnits="userSpaceOnUse" color-interpolation-filters="sRGB">
<feFlood flood-opacity="0" result="BackgroundImageFix"/>
<feColorMatrix in="SourceAlpha" type="matrix" values="0 0 0 0 0 0 0 0 0 0 0 0 0 0 0 0 0 0 127 0"/>
<feOffset dx="8" dy="9"/>
<feGaussianBlur stdDeviation="14"/>
<feColorMatrix type="matrix" values="0 0 0 0 0.0755213 0 0 0 0 0.582569 0 0 0 0 0.878793 0 0 0 0.229458 0"/>
<feBlend mode="normal" in2="BackgroundImageFix" result="effect1_dropShadow"/>
<feColorMatrix in="SourceAlpha" type="matrix" values="0 0 0 0 0 0 0 0 0 0 0 0 0 0 0 0 0 0 127 0"/>
<feOffset dy="2"/>
<feGaussianBlur stdDeviation="7.5"/>
<feColorMatrix type="matrix" values="0 0 0 0 0.503982 0 0 0 0 0.700178 0 0 0 0 1 0 0 0 0.233829 0"/>
<feBlend mode="normal" in2="effect1_dropShadow" result="effect2_dropShadow"/>
<feBlend mode="normal" in="SourceGraphic" in2="effect2_dropShadow" result="shape"/>
</filter>
<linearGradient id="paint0_linear" x1="267.808" y1="287.235" x2="267.808" y2="225.665" gradientUnits="userSpaceOnUse">
<stop stop-color="#FF8C19"/>
<stop offset="1" stop-color="#FFC967"/>
</linearGradient>
<linearGradient id="paint1_linear" x1="260.524" y1="262.689" x2="260.524" y2="234.628" gradientUnits="userSpaceOnUse">
<stop stop-color="#F8FDFF"/>
<stop offset="1" stop-color="#AAD4FF"/>
</linearGradient>
<linearGradient id="paint2_linear" x1="450.373" y1="260.552" x2="454.024" y2="324.078" gradientUnits="userSpaceOnUse">
<stop stop-color="#FDC6C6"/>
<stop offset="1" stop-color="#FFCCA1"/>
</linearGradient>
<linearGradient id="paint3_linear" x1="458.851" y1="481.949" x2="460.34" y2="499.115" gradientUnits="userSpaceOnUse">
<stop stop-color="#FDC6C6"/>
<stop offset="1" stop-color="#FAB2B2"/>
</linearGradient>
<linearGradient id="paint4_linear" x1="414.224" y1="480.219" x2="415.633" y2="498.586" gradientUnits="userSpaceOnUse">
<stop stop-color="#FDC6C6"/>
<stop offset="1" stop-color="#FAB2B2"/>
</linearGradient>
<linearGradient id="paint5_linear" x1="413.902" y1="183.38" x2="416.946" y2="224.789" gradientUnits="userSpaceOnUse">
<stop stop-color="#FDC6C6"/>
<stop offset="1" stop-color="#FFCCA1"/>
</linearGradient>
<linearGradient id="paint6_linear" x1="345.717" y1="183.899" x2="355.251" y2="262.21" gradientUnits="userSpaceOnUse">
<stop stop-color="#FDC6C6"/>
<stop offset="1" stop-color="#FFCCA1"/>
</linearGradient>
<clipPath id="clip0">
<rect width="582" height="515" fill="white"/>
</clipPath>
</defs>
</svg>
