<svg width="650" height="575" viewBox="0 0 650 575" fill="none" xmlns="http://www.w3.org/2000/svg">
<path opacity="0.0528274" fill-rule="evenodd" clip-rule="evenodd" d="M650 173.93C650 77.8709 571.829 0 475.402 0C378.974 0 300.804 77.8709 300.804 173.93C300.804 269.988 378.974 347.859 475.402 347.859C571.829 347.859 650 269.988 650 173.93ZM366.074 173.93C366.074 113.781 415.022 65.0204 475.402 65.0204C535.782 65.0204 584.729 113.781 584.729 173.93C584.729 234.078 535.782 282.839 475.402 282.839C415.022 282.839 366.074 234.078 366.074 173.93Z" fill="#7367F0"/>
<g opacity="0.14102" filter="url(#filter0_f)">
<path opacity="0.14102" fill-rule="evenodd" clip-rule="evenodd" d="M104.993 275.795C104.993 248.563 82.8328 226.488 55.4966 226.488C28.1604 226.488 6 248.563 6 275.795C6 303.027 28.1604 325.102 55.4966 325.102C82.8328 325.102 104.993 303.027 104.993 275.795ZM38.6351 275.795C38.6351 266.518 46.1843 258.998 55.4966 258.998C64.809 258.998 72.3581 266.518 72.3581 275.795C72.3581 285.072 64.809 292.592 55.4966 292.592C46.1843 292.592 38.6351 285.072 38.6351 275.795Z" fill="#8BF78F"/>
</g>
<path d="M208.338 531C262.41 531 306.243 487.334 306.243 433.469C306.243 379.604 262.41 335.938 208.338 335.938C154.266 335.938 110.433 379.604 110.433 433.469C110.433 487.334 154.266 531 208.338 531Z" fill="#7367F0" fill-opacity="0.0612161"/>
<path opacity="0.14102" d="M175.702 126.79C194.928 126.79 210.513 111.264 210.513 92.1122C210.513 72.9603 194.928 57.4346 175.702 57.4346C156.477 57.4346 140.892 72.9603 140.892 92.1122C140.892 111.264 156.477 126.79 175.702 126.79Z" fill="#CEF5FF"/>
<g filter="url(#filter1_f)">
<path d="M585.818 468.147C605.043 468.147 620.628 452.621 620.628 433.469C620.628 414.317 605.043 398.792 585.818 398.792C566.592 398.792 551.007 414.317 551.007 433.469C551.007 452.621 566.592 468.147 585.818 468.147Z" fill="#7367F0" fill-opacity="0.135927"/>
</g>
<path fill-rule="evenodd" clip-rule="evenodd" d="M208.539 144.137C208.539 130.254 219.793 119 233.676 119H403.481C417.364 119 428.618 130.254 428.618 144.137V547.336C428.618 561.218 417.364 572.473 403.481 572.473H233.676C219.793 572.473 208.539 561.218 208.539 547.336V144.137Z" fill="#C4E3E7"/>
<path fill-rule="evenodd" clip-rule="evenodd" d="M216.478 146.66C216.478 136.431 224.77 128.138 235 128.138H265.889C266.702 128.138 267.367 128.784 267.391 129.597C267.56 135.419 272.329 140.051 278.154 140.051H358.285C364.109 140.051 368.878 135.419 369.048 129.597C369.071 128.784 369.737 128.138 370.549 128.138H401.439C411.668 128.138 419.961 136.431 419.961 146.66V542.105C419.961 552.334 411.668 560.627 401.439 560.627H235C224.77 560.627 216.478 552.334 216.478 542.105V146.66Z" fill="#161D31"/>
<mask id="mask0" mask-type="alpha" maskUnits="userSpaceOnUse" x="216" y="128" width="204" height="433">
<path fill-rule="evenodd" clip-rule="evenodd" d="M216.478 146.66C216.478 136.431 224.77 128.138 235 128.138H265.889C266.702 128.138 267.367 128.784 267.391 129.597C267.56 135.419 272.329 140.051 278.154 140.051H358.285C364.109 140.051 368.878 135.419 369.048 129.597C369.071 128.784 369.737 128.138 370.549 128.138H401.439C411.668 128.138 419.961 136.431 419.961 146.66V542.105C419.961 552.334 411.668 560.627 401.439 560.627H235C224.77 560.627 216.478 552.334 216.478 542.105V146.66Z" fill="white"/>
</mask>
<g mask="url(#mask0)">
<path opacity="0.0987723" d="M293.624 408.695C303.263 408.695 311.077 400.938 311.077 391.368C311.077 381.798 303.263 374.04 293.624 374.04C283.985 374.04 276.171 381.798 276.171 391.368C276.171 400.938 283.985 408.695 293.624 408.695Z" fill="#7367F0"/>
<path opacity="0.14102" fill-rule="evenodd" clip-rule="evenodd" d="M398.069 374.04C444.607 374.04 482.334 411.496 482.334 457.7C482.334 503.904 444.607 541.359 398.069 541.359C351.531 541.359 313.804 503.904 313.804 457.7C313.804 411.496 351.531 374.04 398.069 374.04ZM398.069 410.59C371.863 410.59 350.619 431.682 350.619 457.7C350.619 483.717 371.863 504.809 398.069 504.809C424.275 504.809 445.519 483.717 445.519 457.7C445.519 431.682 424.275 410.59 398.069 410.59Z" fill="#C8F5D0"/>
<path fill-rule="evenodd" clip-rule="evenodd" d="M241.265 208.075C241.265 204.934 243.81 202.389 246.95 202.389H391.02C394.16 202.389 396.705 204.934 396.705 208.075C396.705 211.215 394.16 213.76 391.02 213.76H246.95C243.81 213.76 241.265 211.215 241.265 208.075Z" fill="#68DE9E" fill-opacity="0.642073"/>
</g>
<path d="M330.508 126.939C332.39 126.939 333.916 128.394 333.916 130.188C333.916 131.942 332.457 133.372 330.632 133.435L330.508 133.437H291.962C290.08 133.437 288.554 131.982 288.554 130.188C288.554 128.433 290.013 127.004 291.838 126.941L291.962 126.939H330.508Z" fill="#56CDD9"/>
<path d="M344.322 126.397C346.205 126.397 347.731 127.913 347.731 129.782C347.731 131.609 346.272 133.099 344.447 133.164L344.322 133.166H344.143C342.261 133.166 340.734 131.651 340.734 129.782C340.734 127.954 342.193 126.465 344.018 126.4L344.143 126.397H344.322Z" fill="#56CDD9"/>
<path fill-rule="evenodd" clip-rule="evenodd" d="M222.72 276.463C222.72 274.254 224.511 272.463 226.72 272.463H234.313C236.523 272.463 238.313 274.254 238.313 276.463V279.966C238.313 280.639 238.859 281.185 239.533 281.185H289.542C291.751 281.185 293.542 282.976 293.542 285.185V327.883C293.542 330.092 291.751 331.883 289.542 331.883H226.72C224.511 331.883 222.72 330.092 222.72 327.883V276.463Z" fill="url(#paint0_linear)"/>
<path fill-rule="evenodd" clip-rule="evenodd" d="M239.536 277.616C239.631 277.025 240.141 276.59 240.739 276.59H295.061C295.812 276.59 296.384 277.261 296.265 278.003L288.105 328.794C288.01 329.385 287.5 329.82 286.901 329.82H232.579C231.829 329.82 231.256 329.149 231.375 328.408L239.536 277.616Z" fill="url(#paint1_linear)"/>
<path fill-rule="evenodd" clip-rule="evenodd" d="M298.086 290.108C300.604 290.108 302.496 292.406 302.012 294.877L295.899 326.091C295.163 329.845 291.873 332.554 288.048 332.554H227.579C225.061 332.554 223.17 330.256 223.654 327.785L229.767 296.57C230.502 292.816 233.792 290.108 237.617 290.108H298.086Z" fill="#FFCC7B"/>
<path fill-rule="evenodd" clip-rule="evenodd" d="M142 222.468C142 219.154 144.686 216.468 148 216.468H181.667L194.359 229.463V272.197C194.359 275.511 191.673 278.197 188.359 278.197H148C144.686 278.197 142 275.511 142 272.197V222.468Z" fill="#B7B1FB"/>
<path fill-rule="evenodd" clip-rule="evenodd" d="M176.099 257.505V240.458C176.099 238.647 174.714 237.262 172.903 237.262H167.575C166.935 237.262 166.509 237.688 166.509 238.327C166.509 238.966 166.935 239.393 167.575 239.393H172.903C173.542 239.393 173.968 239.819 173.968 240.458V257.505C173.968 258.144 173.542 258.57 172.903 258.57H167.575C166.935 258.57 166.509 258.996 166.509 259.636C166.509 260.275 166.935 260.701 167.575 260.701H172.903C174.714 260.701 176.099 259.316 176.099 257.505ZM169.599 248.555C169.706 248.875 169.706 249.194 169.599 249.408C169.599 249.514 169.493 249.621 169.386 249.727L165.124 253.989C164.91 254.202 164.591 254.308 164.378 254.308C164.165 254.308 163.845 254.202 163.632 253.989C163.205 253.563 163.205 252.923 163.632 252.497L166.083 250.047H155.853C155.213 250.047 154.787 249.621 154.787 248.981C154.787 248.342 155.213 247.916 155.853 247.916H166.083L163.632 245.465C163.205 245.039 163.205 244.4 163.632 243.974C164.058 243.548 164.697 243.548 165.124 243.974L169.386 248.236C169.439 248.289 169.466 248.342 169.493 248.395C169.519 248.449 169.546 248.502 169.599 248.555Z" fill="black"/>
<mask id="mask1" mask-type="alpha" maskUnits="userSpaceOnUse" x="154" y="237" width="23" height="24">
<path fill-rule="evenodd" clip-rule="evenodd" d="M176.099 257.505V240.458C176.099 238.647 174.714 237.262 172.903 237.262H167.575C166.935 237.262 166.509 237.688 166.509 238.327C166.509 238.966 166.935 239.393 167.575 239.393H172.903C173.542 239.393 173.968 239.819 173.968 240.458V257.505C173.968 258.144 173.542 258.57 172.903 258.57H167.575C166.935 258.57 166.509 258.996 166.509 259.636C166.509 260.275 166.935 260.701 167.575 260.701H172.903C174.714 260.701 176.099 259.316 176.099 257.505ZM169.599 248.555C169.706 248.875 169.706 249.194 169.599 249.408C169.599 249.514 169.493 249.621 169.386 249.727L165.124 253.989C164.91 254.202 164.591 254.308 164.378 254.308C164.165 254.308 163.845 254.202 163.632 253.989C163.205 253.563 163.205 252.923 163.632 252.497L166.083 250.047H155.853C155.213 250.047 154.787 249.621 154.787 248.981C154.787 248.342 155.213 247.916 155.853 247.916H166.083L163.632 245.465C163.205 245.039 163.205 244.4 163.632 243.974C164.058 243.548 164.697 243.548 165.124 243.974L169.386 248.236C169.439 248.289 169.466 248.342 169.493 248.395C169.519 248.449 169.546 248.502 169.599 248.555Z" fill="white"/>
</mask>
<g mask="url(#mask1)">
<path d="M178.231 236.196H152.656V261.766H178.231V236.196Z" fill="white"/>
</g>
<path opacity="0.33996" d="M194.358 229.463H184.666C183.009 229.463 181.666 228.12 181.666 226.463V216.468L194.358 229.463Z" fill="#7367F0"/>
<path fill-rule="evenodd" clip-rule="evenodd" d="M164.907 382.748C164.907 379.434 167.594 376.748 170.907 376.748H233.082C236.396 376.748 239.082 379.434 239.082 382.748V432.477C239.082 435.791 236.396 438.477 233.082 438.477H170.907C167.594 438.477 164.907 435.791 164.907 432.477V382.748Z" fill="#6FD9E6"/>
<path fill-rule="evenodd" clip-rule="evenodd" d="M209.841 405.159H208.598V401.43C208.598 397.328 205.241 393.972 201.138 393.972C197.036 393.972 193.679 397.328 193.679 401.43V405.159H192.436C190.322 405.159 188.706 406.774 188.706 408.888V417.589C188.706 419.702 190.322 421.317 192.436 421.317H209.841C211.954 421.317 213.57 419.702 213.57 417.589V408.888C213.57 406.774 211.954 405.159 209.841 405.159ZM196.165 401.43C196.165 398.695 198.403 396.458 201.138 396.458C203.873 396.458 206.111 398.695 206.111 401.43V405.159H196.165V401.43ZM209.841 418.831C210.587 418.831 211.084 418.334 211.084 417.589V408.888C211.084 408.142 210.587 407.645 209.841 407.645H192.436C191.69 407.645 191.192 408.142 191.192 408.888V417.589C191.192 418.334 191.69 418.831 192.436 418.831H209.841Z" fill="black"/>
<mask id="mask2" mask-type="alpha" maskUnits="userSpaceOnUse" x="188" y="393" width="26" height="29">
<path fill-rule="evenodd" clip-rule="evenodd" d="M209.841 405.159H208.598V401.43C208.598 397.328 205.241 393.972 201.138 393.972C197.036 393.972 193.679 397.328 193.679 401.43V405.159H192.436C190.322 405.159 188.706 406.774 188.706 408.888V417.589C188.706 419.702 190.322 421.317 192.436 421.317H209.841C211.954 421.317 213.57 419.702 213.57 417.589V408.888C213.57 406.774 211.954 405.159 209.841 405.159ZM196.165 401.43C196.165 398.695 198.403 396.458 201.138 396.458C203.873 396.458 206.111 398.695 206.111 401.43V405.159H196.165V401.43ZM209.841 418.831C210.587 418.831 211.084 418.334 211.084 417.589V408.888C211.084 408.142 210.587 407.645 209.841 407.645H192.436C191.69 407.645 191.192 408.142 191.192 408.888V417.589C191.192 418.334 191.69 418.831 192.436 418.831H209.841Z" fill="white"/>
</mask>
<g mask="url(#mask2)">
<path d="M216.057 392.729H186.22V422.561H216.057V392.729Z" fill="white"/>
</g>
<path d="M229.265 185.646C229.265 182.333 231.951 179.646 235.265 179.646H297.44C300.754 179.646 303.44 182.333 303.44 185.646V235.376C303.44 238.69 300.754 241.376 297.44 241.376H235.265C231.951 241.376 229.265 238.69 229.265 235.376V185.646Z" fill="#BAF3C4"/>
<mask id="mask3" mask-type="alpha" maskUnits="userSpaceOnUse" x="229" y="179" width="75" height="63">
<path d="M229.265 185.646C229.265 182.333 231.951 179.646 235.265 179.646H297.44C300.754 179.646 303.44 182.333 303.44 185.646V235.376C303.44 238.69 300.754 241.376 297.44 241.376H235.265C231.951 241.376 229.265 238.69 229.265 235.376V185.646Z" fill="white"/>
</mask>
<g mask="url(#mask3)">
<path d="M261.988 212.136C267.41 212.136 271.805 207.772 271.805 202.389C271.805 197.006 267.41 192.642 261.988 192.642C256.566 192.642 252.171 197.006 252.171 202.389C252.171 207.772 256.566 212.136 261.988 212.136Z" fill="white"/>
<path d="M239.626 287.944C259.205 287.944 275.078 272.186 275.078 252.747C275.078 233.309 259.205 217.551 239.626 217.551C220.047 217.551 204.175 233.309 204.175 252.747C204.175 272.186 220.047 287.944 239.626 287.944Z" fill="#28C76F"/>
<path d="M303.985 285.778C327.179 285.778 345.982 267.353 345.982 244.625C345.982 221.897 327.179 203.472 303.985 203.472C280.792 203.472 261.989 221.897 261.989 244.625C261.989 267.353 280.792 285.778 303.985 285.778Z" fill="#69E09E"/>
</g>
<g filter="url(#filter2_d)">
<path fill-rule="evenodd" clip-rule="evenodd" d="M327.477 164.778C327.455 159.239 331.939 154.738 337.477 154.738H447.72C453.227 154.738 457.698 159.191 457.72 164.698L458.295 309.31C458.317 314.848 453.833 319.35 448.295 319.35H338.052C332.545 319.35 328.074 314.897 328.052 309.39L327.477 164.778Z" fill="#313A53"/>
</g>
<path opacity="0.33996" d="M368.889 259.786C368.889 257.992 370.343 256.537 372.138 256.537H413.635C415.43 256.537 416.884 257.992 416.884 259.786C416.884 261.581 415.43 263.035 413.635 263.035H372.138C370.343 263.035 368.889 261.581 368.889 259.786Z" fill="#7367F0"/>
<path opacity="0.33996" d="M357.979 277.114C357.979 275.32 359.434 273.865 361.228 273.865H424.542C426.337 273.865 427.791 275.32 427.791 277.114C427.791 278.908 426.337 280.363 424.542 280.363H361.228C359.434 280.363 357.979 278.908 357.979 277.114Z" fill="#7367F0"/>
<g filter="url(#filter3_dd)">
<path d="M392.967 232.902C406.868 232.902 418.138 221.465 418.138 207.357C418.138 193.249 406.868 181.812 392.967 181.812C379.066 181.812 367.797 193.249 367.797 207.357C367.797 221.465 379.066 232.902 392.967 232.902Z" fill="white"/>
</g>
<path fill-rule="evenodd" clip-rule="evenodd" d="M393.442 206.51C396.998 206.51 399.881 203.648 399.881 200.117C399.881 196.587 396.998 193.725 393.442 193.725C389.886 193.725 387.003 196.587 387.003 200.117C387.003 203.648 389.886 206.51 393.442 206.51ZM392.63 208.32C387.349 208.32 383.068 212.601 383.068 217.881C383.068 218.485 383.558 218.974 384.161 218.974H402.723C403.326 218.974 403.816 218.485 403.816 217.881C403.816 212.601 399.535 208.32 394.254 208.32H392.63Z" fill="#7367F0"/>
<path fill-rule="evenodd" clip-rule="evenodd" d="M517.546 340.072C517.546 340.072 505.348 352.052 506.096 353.223C506.844 354.403 512.991 351.663 512.991 351.663C512.991 351.663 505.322 364.247 506.9 365.214C508.477 366.181 516.546 364.223 519.02 361.629C521.495 359.035 525.313 345.945 525.313 345.945L543.866 311.45L530.411 306.827L517.546 340.072Z" fill="url(#paint2_linear)"/>
<path fill-rule="evenodd" clip-rule="evenodd" d="M505.088 276.306C510.211 284.208 527.455 306.729 527.455 306.729L526.198 311.222L542.045 322.008C542.045 322.008 546.547 309.66 546.938 307.923C548.226 302.193 522.192 265.626 516.362 260.342C507.184 252.022 497.26 264.229 505.088 276.306Z" fill="#FD8715"/>
<path fill-rule="evenodd" clip-rule="evenodd" d="M531.576 312.707C531.872 312.135 527.48 306.648 527.48 306.648L526.736 309.316C526.736 309.316 531.281 313.28 531.576 312.707Z" fill="black" fill-opacity="0.159856"/>
<path fill-rule="evenodd" clip-rule="evenodd" d="M526.1 309.714L542.936 322.479L539.184 330.734L524.464 314.478L526.1 309.714Z" fill="#FFEDC2"/>
<path fill-rule="evenodd" clip-rule="evenodd" d="M515.472 542.024L514.537 557.842L526.524 558.152L524.271 542.024H515.472Z" fill="url(#paint3_linear)"/>
<path fill-rule="evenodd" clip-rule="evenodd" d="M527.093 548.256C527.093 548.256 526.757 557.782 528.744 561.108C530.744 564.433 531.349 567.012 531.438 569.001C531.532 571.133 531.329 573.065 531.329 573.065H511.489C511.489 573.065 510.992 563.042 512.306 561.152C513.62 559.263 514.482 559.23 514.482 557.56C514.493 555.89 514.777 548.318 514.777 548.318L527.093 548.256Z" fill="#391B0B"/>
<path fill-rule="evenodd" clip-rule="evenodd" d="M473.239 330.841L504.336 327.485L504.793 327.906C507.009 330.003 516.641 339.739 519.408 353.048C524.633 378.173 517.64 424.578 517.795 434.753C517.943 444.929 522.786 451.069 524.799 465.456C526.811 479.843 527.001 544.143 527.001 544.143C521.665 547.283 516.97 547.507 510.607 543.955L473.239 330.841Z" fill="#4E3319"/>
<path fill-rule="evenodd" clip-rule="evenodd" d="M501.016 489.256L473.239 330.841L490.529 328.975C491.299 384.008 502.052 458.397 501.016 489.256Z" fill="white" fill-opacity="0.192499"/>
<path fill-rule="evenodd" clip-rule="evenodd" d="M479.609 540.361L469.387 540.526C469.387 540.526 470.059 551.06 466.128 554.628L465.913 554.815C461.168 558.764 479.476 557.339 479.476 557.339L479.609 540.361Z" fill="url(#paint4_linear)"/>
<path fill-rule="evenodd" clip-rule="evenodd" d="M480.151 548.573L479.857 573.056L472.578 573.061L472.515 567.028C472.515 567.028 470.219 572.653 466.71 572.978C463.191 573.303 447.509 573.104 447.509 573.104C447.509 573.104 446.206 567.456 454.012 564.891C460.505 562.759 467.684 548.573 467.684 548.573H480.151Z" fill="#391B0B"/>
<path fill-rule="evenodd" clip-rule="evenodd" d="M457.814 333.019L492.733 331.844L492.994 332.323C494.688 335.514 503.972 354.195 501.106 375.428C497.082 405.232 486.853 440.171 486.352 445.509C485.459 455.025 487.245 461.915 487.977 471.744C488.709 481.573 485.185 543.391 485.185 543.391C480.003 546.485 473.837 547.092 465.998 543.484C465.998 543.484 458.921 459.518 458.869 446.229C458.817 432.941 457.814 333.019 457.814 333.019Z" fill="#604021"/>
<path fill-rule="evenodd" clip-rule="evenodd" d="M465 365.255L464.768 367.463C462.441 390.748 462.458 440.198 463.36 447.824L463.483 448.807C464.483 457.412 464.515 479.26 463.58 514.35L462.364 499.208C460.058 470.072 458.893 452.412 458.869 446.229L458.827 439.83C458.626 413.956 457.814 333.018 457.814 333.018L465.179 332.771C465.966 345.547 465.906 356.375 465 365.255Z" fill="white" fill-opacity="0.192499"/>
<path fill-rule="evenodd" clip-rule="evenodd" d="M471.13 222.653C466.834 223.12 467.138 230.619 472.368 231.011C473.437 238.24 477.25 241.684 481.898 242.083L481.64 253.018L502.199 253.006C502.199 253.006 496.41 245.281 496.699 234.706C496.987 224.13 496.505 214.196 496.505 214.196L469.876 214.67L471.13 222.653Z" fill="url(#paint5_linear)"/>
<path fill-rule="evenodd" clip-rule="evenodd" d="M470.195 223.215C475.199 221.25 478.896 229.709 482.725 235.589C486.554 241.468 496.474 240.469 497.841 235.589C503.017 224.899 507.478 210.367 501.438 209.174C500.587 193.726 459.859 197.373 470.195 223.215Z" fill="#8B5030"/>
<path fill-rule="evenodd" clip-rule="evenodd" d="M498.141 203.079H489.281H489.169L489.095 203.162C481.246 211.86 479.5 224.681 483.191 236.235C483.447 236.556 483.724 236.853 484.017 237.126C479.932 225.481 481.513 212.381 489.392 203.579H498.734C498.544 203.406 498.346 203.24 498.141 203.079Z" fill="black" fill-opacity="0.199355"/>
<path d="M492.697 208.202C495.408 208.202 497.605 206.02 497.605 203.329C497.605 200.637 495.408 198.456 492.697 198.456C489.986 198.456 487.788 200.637 487.788 203.329C487.788 206.02 489.986 208.202 492.697 208.202Z" fill="#FB9934"/>
<path fill-rule="evenodd" clip-rule="evenodd" d="M465.737 255.135C461.15 261.825 453.506 284.53 453.072 289.637C452.584 295.529 458.946 304.915 459.05 313.444C459.143 321.974 454.305 347.658 455.759 350.058C457.201 352.457 498.555 363.079 501.253 363.022C503.94 362.964 520.902 348.507 518.774 343.511C516.634 338.515 506.701 326.099 507.713 319.292C508.713 312.485 514.522 287.36 517.406 278.809C520.279 270.257 519.321 261.279 513.96 257.6C511.306 255.779 504.227 250.606 491.62 250.63C479.013 250.654 466.093 254.617 465.737 255.135Z" fill="#FD8715"/>
<path fill-rule="evenodd" clip-rule="evenodd" d="M479.972 250.141C479.972 250.141 479.441 253.018 481.764 253.018C484.086 253.018 499.666 253.527 501.775 252.617C503.885 251.708 503.252 250.141 503.252 250.141H479.972Z" fill="#FFF6E1"/>
<path fill-rule="evenodd" clip-rule="evenodd" d="M459.079 269.604L459.22 269.533C467.715 265.323 472.818 265.137 474.528 268.975C476.739 273.937 471.005 285.858 457.328 304.74C455.449 299.013 452.747 293.553 453.072 289.637C453.323 286.681 455.989 277.832 459.079 269.604Z" fill="black" fill-opacity="0.159856"/>
<path fill-rule="evenodd" clip-rule="evenodd" d="M402.413 255.658C402.413 255.658 400.883 252.36 398.477 251.468C396.072 250.576 392.393 244.665 392.962 242.949C393.531 241.233 398.507 236.473 398.507 236.473C398.507 236.473 394.108 224.753 396.056 223.43C397.777 222.261 404.291 237.023 404.291 237.023C404.291 237.023 408.121 237.596 409.004 239.106C411.232 242.91 409.548 251.468 409.548 251.468L432.156 284.267L421.782 297.472L402.413 255.658Z" fill="url(#paint6_linear)"/>
<path fill-rule="evenodd" clip-rule="evenodd" d="M460.126 258.201C452.48 264.945 433.778 282.836 433.778 282.836L431 278.609L417.014 292.828C417.014 292.828 427.564 308.364 431 308.473C439.951 308.756 455.99 291.976 471.069 278.874C484.589 267.126 474.378 245.631 460.126 258.201Z" fill="#FD8715"/>
<path fill-rule="evenodd" clip-rule="evenodd" d="M433.832 282.857C433.832 282.857 428.586 288.881 428.153 288.224C427.72 287.567 432.11 280.244 432.11 280.244L433.832 282.857Z" fill="black" fill-opacity="0.159856"/>
<path fill-rule="evenodd" clip-rule="evenodd" d="M432.673 279.567L416.452 297.472L411.454 287.254L429.587 275.957L432.673 279.567Z" fill="#FFEDC2"/>
<path fill-rule="evenodd" clip-rule="evenodd" d="M491.835 199.45C491.835 199.45 496.429 193.51 501.733 195.069C507.037 196.627 511.834 206.18 509.556 215.159C507.29 224.14 509.159 229.262 511.909 235.315C519.295 251.595 493.721 261.933 493.721 261.933C493.721 261.933 495.717 249.869 491.835 242.584C487.838 235.082 485.568 225.461 485.568 219.574C485.568 209.336 491.835 199.45 491.835 199.45Z" fill="#8B5030"/>
<path fill-rule="evenodd" clip-rule="evenodd" d="M434.338 134.277C452.818 123.705 471.55 124.331 490.493 134.277L489.293 147.546C487.666 165.529 477.722 181.716 462.415 191.295C446.446 181.783 436.213 164.989 435.08 146.435L434.338 134.277Z" fill="#28C76F"/>
<path d="M462.416 170.928C470.874 170.928 477.731 164.121 477.731 155.723C477.731 147.326 470.874 140.518 462.416 140.518C453.957 140.518 447.101 147.326 447.101 155.723C447.101 164.121 453.957 170.928 462.416 170.928Z" fill="#1CA258"/>
<path fill-rule="evenodd" clip-rule="evenodd" d="M462.197 144.922C467.068 144.922 471.284 148.181 472.507 152.778C472.602 153.133 472.388 153.497 472.031 153.591C471.673 153.685 471.306 153.473 471.212 153.118C470.143 149.102 466.456 146.252 462.197 146.252C457.048 146.252 452.875 150.381 452.875 155.472C452.875 158.346 453.824 160.929 455.734 163.247C455.969 163.531 455.927 163.95 455.64 164.183C455.354 164.415 454.932 164.374 454.697 164.089C452.593 161.537 451.535 158.656 451.535 155.472C451.535 149.645 456.309 144.922 462.197 144.922Z" fill="white"/>
<path fill-rule="evenodd" clip-rule="evenodd" d="M459.827 148.663C463.619 147.367 467.713 149.243 469.112 152.912L469.188 153.122C469.907 155.195 470.885 156.133 472.136 156.117C472.506 156.112 472.81 156.406 472.814 156.774C472.819 157.141 472.523 157.443 472.153 157.447C470.288 157.471 468.903 156.203 468.011 153.807L467.921 153.555C466.843 150.448 463.432 148.838 460.263 149.921C457.41 150.896 455.885 154.344 456.556 157.383C456.686 157.975 456.851 158.506 457.064 159.018L457.255 159.46C457.891 160.856 458.718 161.903 462.454 166.36C462.69 166.643 462.652 167.062 462.367 167.297C462.083 167.532 461.66 167.493 461.423 167.211L459.42 164.808C457.016 161.896 456.473 161.066 455.867 159.626L455.825 159.525C455.582 158.939 455.393 158.334 455.246 157.668C454.441 154.017 456.272 149.879 459.827 148.663Z" fill="white"/>
<path fill-rule="evenodd" clip-rule="evenodd" d="M461.375 152.255C463.339 151.583 465.512 152.632 466.122 154.593C467.003 157.418 468.623 159.173 471.015 159.927C471.368 160.038 471.563 160.412 471.451 160.762C471.339 161.112 470.962 161.306 470.61 161.195C467.779 160.303 465.847 158.21 464.842 154.986C464.458 153.753 463.07 153.083 461.811 153.513C460.471 153.971 459.808 155.254 460.174 157.01C460.359 157.903 461.094 159.119 462.345 160.703L462.558 160.971C462.734 161.19 462.918 161.414 463.118 161.653L465.271 164.182C465.507 164.465 465.467 164.885 465.182 165.119C464.897 165.353 464.474 165.313 464.238 165.03L462.516 163.012L462.085 162.501C461.881 162.256 461.692 162.026 461.511 161.801L461.077 161.252C459.831 159.642 459.089 158.372 458.861 157.279C458.364 154.891 459.373 152.939 461.375 152.255Z" fill="white"/>
<path fill-rule="evenodd" clip-rule="evenodd" d="M462.568 155.878C462.922 155.77 463.296 155.968 463.405 156.319C464.127 158.66 465.541 160.321 468.201 162.304C468.497 162.524 468.557 162.941 468.335 163.235C468.113 163.529 467.693 163.588 467.397 163.368C464.531 161.231 462.944 159.368 462.123 156.709C462.015 156.358 462.214 155.986 462.568 155.878Z" fill="white"/>
<defs>
<filter id="filter0_f" x="0.56344" y="221.051" width="109.866" height="109.487" filterUnits="userSpaceOnUse" color-interpolation-filters="sRGB">
<feFlood flood-opacity="0" result="BackgroundImageFix"/>
<feBlend mode="normal" in="SourceGraphic" in2="BackgroundImageFix" result="shape"/>
<feGaussianBlur stdDeviation="2.71828" result="effect1_foregroundBlur"/>
</filter>
<filter id="filter1_f" x="542.852" y="390.637" width="85.9313" height="85.6649" filterUnits="userSpaceOnUse" color-interpolation-filters="sRGB">
<feFlood flood-opacity="0" result="BackgroundImageFix"/>
<feBlend mode="normal" in="SourceGraphic" in2="BackgroundImageFix" result="shape"/>
<feGaussianBlur stdDeviation="4.07742" result="effect1_foregroundBlur"/>
</filter>
<filter id="filter2_d" x="307.477" y="135.738" width="186.818" height="220.612" filterUnits="userSpaceOnUse" color-interpolation-filters="sRGB">
<feFlood flood-opacity="0" result="BackgroundImageFix"/>
<feColorMatrix in="SourceAlpha" type="matrix" values="0 0 0 0 0 0 0 0 0 0 0 0 0 0 0 0 0 0 127 0"/>
<feOffset dx="8" dy="9"/>
<feGaussianBlur stdDeviation="14"/>
<feColorMatrix type="matrix" values="0 0 0 0 0.0862745 0 0 0 0 0.113725 0 0 0 0 0.192157 0 0 0 0.7 0"/>
<feBlend mode="normal" in2="BackgroundImageFix" result="effect1_dropShadow"/>
<feBlend mode="normal" in="SourceGraphic" in2="effect1_dropShadow" result="shape"/>
</filter>
<filter id="filter3_dd" x="347.797" y="162.812" width="106.341" height="107.09" filterUnits="userSpaceOnUse" color-interpolation-filters="sRGB">
<feFlood flood-opacity="0" result="BackgroundImageFix"/>
<feColorMatrix in="SourceAlpha" type="matrix" values="0 0 0 0 0 0 0 0 0 0 0 0 0 0 0 0 0 0 127 0"/>
<feOffset dx="8" dy="9"/>
<feGaussianBlur stdDeviation="14"/>
<feColorMatrix type="matrix" values="0 0 0 0 0.0755213 0 0 0 0 0.582569 0 0 0 0 0.878793 0 0 0 0.229458 0"/>
<feBlend mode="normal" in2="BackgroundImageFix" result="effect1_dropShadow"/>
<feColorMatrix in="SourceAlpha" type="matrix" values="0 0 0 0 0 0 0 0 0 0 0 0 0 0 0 0 0 0 127 0"/>
<feOffset dy="2"/>
<feGaussianBlur stdDeviation="7.5"/>
<feColorMatrix type="matrix" values="0 0 0 0 0.503982 0 0 0 0 0.700178 0 0 0 0 1 0 0 0 0.233829 0"/>
<feBlend mode="normal" in2="effect1_dropShadow" result="effect2_dropShadow"/>
<feBlend mode="normal" in="SourceGraphic" in2="effect2_dropShadow" result="shape"/>
</filter>
<linearGradient id="paint0_linear" x1="299.098" y1="320.699" x2="299.098" y2="251.956" gradientUnits="userSpaceOnUse">
<stop stop-color="#FF8C19"/>
<stop offset="1" stop-color="#FFC967"/>
</linearGradient>
<linearGradient id="paint1_linear" x1="290.964" y1="293.294" x2="290.964" y2="261.963" gradientUnits="userSpaceOnUse">
<stop stop-color="#F8FDFF"/>
<stop offset="1" stop-color="#AAD4FF"/>
</linearGradient>
<linearGradient id="paint2_linear" x1="502.995" y1="290.908" x2="507.07" y2="361.835" gradientUnits="userSpaceOnUse">
<stop stop-color="#FDC6C6"/>
<stop offset="1" stop-color="#FFCCA1"/>
</linearGradient>
<linearGradient id="paint3_linear" x1="512.463" y1="538.098" x2="514.125" y2="557.265" gradientUnits="userSpaceOnUse">
<stop stop-color="#FDC6C6"/>
<stop offset="1" stop-color="#FAB2B2"/>
</linearGradient>
<linearGradient id="paint4_linear" x1="462.622" y1="536.167" x2="464.195" y2="556.674" gradientUnits="userSpaceOnUse">
<stop stop-color="#FDC6C6"/>
<stop offset="1" stop-color="#FAB2B2"/>
</linearGradient>
<linearGradient id="paint5_linear" x1="462.262" y1="204.745" x2="465.66" y2="250.978" gradientUnits="userSpaceOnUse">
<stop stop-color="#FDC6C6"/>
<stop offset="1" stop-color="#FFCCA1"/>
</linearGradient>
<linearGradient id="paint6_linear" x1="386.111" y1="205.324" x2="396.752" y2="292.76" gradientUnits="userSpaceOnUse">
<stop stop-color="#FDC6C6"/>
<stop offset="1" stop-color="#FFCCA1"/>
</linearGradient>
</defs>
</svg>
