<svg width="747" height="547" viewBox="0 0 747 547" fill="none" xmlns="http://www.w3.org/2000/svg">
<path opacity="0.0845424" d="M674.32 166.249C683.698 153.731 701.453 151.18 713.979 160.552C726.379 169.83 729.005 187.315 719.957 199.81L719.679 200.187L645.379 299.374C635.916 312.007 618.34 315.21 605.04 306.802L604.639 306.544L557.865 275.948L510.705 344.593C501.937 357.356 484.564 360.694 471.702 352.171L471.313 351.909C458.543 343.146 455.204 325.783 463.732 312.928L463.994 312.54L525.793 222.586C534.999 209.185 553.141 205.492 566.841 214.144L567.255 214.41L614.898 245.575L674.32 166.249Z" fill="#7367F0"/>
<path opacity="0.0845424" d="M431.118 5.29424C433.496 1.83984 438.232 0.961283 441.696 3.33194C445.115 5.67139 446.018 10.3009 443.756 13.7421L443.664 13.8791L425.148 40.779C422.433 44.5698 417.181 45.4829 413.345 42.8606L413.208 42.7654L402.574 35.1946L391.048 53.4538C388.839 56.9536 384.234 58.0368 380.696 55.9185L380.557 55.8332C377.047 53.6305 375.96 49.0392 378.085 45.5109L378.17 45.3722L393.455 21.158C395.973 17.169 401.257 15.9705 405.258 18.4812L405.467 18.6168L405.673 18.7584L416.53 26.4883L431.118 5.29424Z" fill="#7367F0"/>
<path opacity="0.070266" fill-rule="evenodd" clip-rule="evenodd" d="M633.404 131.308C634.784 131.308 635.904 130.189 635.904 128.808V110.831H653.893C655.273 110.831 656.393 109.712 656.393 108.331V99.6761C656.393 98.2954 655.273 97.1761 653.893 97.1761H635.904V79.0664C635.904 77.6857 634.784 76.5664 633.404 76.5664H624.608C623.227 76.5664 622.108 77.6857 622.108 79.0664V97.1761H604.119C602.738 97.1761 601.619 98.2954 601.619 99.6761V108.331C601.619 109.712 602.738 110.831 604.119 110.831H622.108V128.808C622.108 130.189 623.227 131.308 624.608 131.308H633.404Z" fill="#00CFE8"/>
<path opacity="0.0739397" fill-rule="evenodd" clip-rule="evenodd" d="M92.602 22C143.193 22 184.206 62.9886 184.206 113.551C184.206 164.113 143.193 205.101 92.602 205.101C42.0105 205.101 0.998047 164.113 0.998047 113.551C0.998047 62.9886 42.0105 22 92.602 22ZM92.602 67.3034C67.0455 67.3034 46.3278 88.0089 46.3278 113.551C46.3278 139.092 67.0455 159.798 92.602 159.798C118.159 159.798 138.876 139.092 138.876 113.551C138.876 88.0089 118.159 67.3034 92.602 67.3034Z" fill="#00CFE8"/>
<path fill-rule="evenodd" clip-rule="evenodd" d="M61.5957 103C61.5957 94.1634 68.7591 87 77.5957 87H547.724C556.561 87 563.724 94.1634 563.724 103V307.224C563.724 316.061 556.561 323.224 547.724 323.224H77.5957C68.7592 323.224 61.5957 316.061 61.5957 307.224V103Z" fill="#141A2B"/>
<path fill-rule="evenodd" clip-rule="evenodd" d="M69.1465 103C69.1465 94.1634 76.3099 87 85.1465 87H547.724C556.561 87 563.724 94.1634 563.724 103V307.224C563.724 316.061 556.561 323.224 547.724 323.224H85.1465C76.31 323.224 69.1465 316.061 69.1465 307.224V103Z" fill="#181F33"/>
<path fill-rule="evenodd" clip-rule="evenodd" d="M76.6973 104.559C76.6973 99.0362 81.1744 94.5591 86.6973 94.5591H546.173C551.696 94.5591 556.173 99.0362 556.173 104.559V305.665C556.173 311.188 551.696 315.665 546.173 315.665H86.6973C81.1744 315.665 76.6973 311.188 76.6973 305.665V104.559Z" fill="#283046"/>
<path fill-rule="evenodd" clip-rule="evenodd" d="M275.85 301.823C275.85 298.509 278.536 295.823 281.85 295.823H351.021C354.334 295.823 357.021 298.509 357.021 301.823V315.665H275.85V301.823Z" fill="#D4EFFF"/>
<path d="M283.4 301.823C283.4 298.509 286.087 295.823 289.4 295.823H358.572C361.885 295.823 364.572 298.509 364.572 301.823V323.225H283.4V301.823Z" fill="#91D6FF"/>
<g filter="url(#filter0_d)">
<path fill-rule="evenodd" clip-rule="evenodd" d="M90.8555 109.397C90.8555 106.421 93.2681 104.008 96.2442 104.008H221.268C224.244 104.008 226.657 106.421 226.657 109.397V150.047C226.657 153.023 224.244 155.436 221.268 155.436H96.2442C93.2681 155.436 90.8555 153.023 90.8555 150.047V109.397Z" fill="#313A53"/>
</g>
<path opacity="0.454078" fill-rule="evenodd" clip-rule="evenodd" d="M131.037 134.559C131.037 133.715 131.721 133.031 132.565 133.031H157.992C158.836 133.031 159.52 133.715 159.52 134.559C159.52 135.403 158.836 136.087 157.992 136.087H132.565C131.721 136.087 131.037 135.403 131.037 134.559Z" fill="#C7C1FF"/>
<path fill-rule="evenodd" clip-rule="evenodd" d="M131.037 125.903C131.037 125.059 131.721 124.375 132.565 124.375H147.82C148.663 124.375 149.347 125.059 149.347 125.903C149.347 126.747 148.663 127.431 147.82 127.431H132.565C131.721 127.431 131.037 126.747 131.037 125.903Z" fill="#8478FF"/>
<path fill-rule="evenodd" clip-rule="evenodd" d="M205.813 122.284C207.983 119.429 212.053 118.876 214.904 121.049C215.56 121.548 216.115 122.169 216.539 122.876C216.758 123.241 216.639 123.714 216.275 123.933C215.911 124.151 215.439 124.033 215.22 123.668C214.897 123.128 214.473 122.655 213.973 122.274C211.842 120.651 208.819 121.022 207.14 123.085L207.037 123.216L204.652 126.353C200.927 131.254 194.624 133.414 188.693 131.848L188.439 131.779L186.521 131.237C186.397 131.202 186.273 131.171 186.147 131.143C182.639 130.369 179.168 132.541 178.309 136.011L178.269 136.182L177.873 137.98C177.733 138.617 177.462 139.217 177.076 139.741C175.551 141.817 172.633 142.262 170.559 140.735C170.217 140.483 170.144 140.001 170.396 139.659C170.647 139.316 171.129 139.243 171.471 139.495C172.86 140.518 174.815 140.22 175.837 138.829C176.063 138.521 176.231 138.175 176.332 137.808L176.371 137.649L176.767 135.851C177.735 131.451 182.083 128.67 186.478 129.639L186.709 129.694L186.938 129.755L188.857 130.297C194.172 131.799 199.857 129.946 203.272 125.622L203.428 125.421L205.813 122.284Z" fill="#8478FF"/>
<path fill-rule="evenodd" clip-rule="evenodd" d="M198.882 121.353C200.452 117.857 204.557 116.296 208.049 117.869C208.751 118.184 209.395 118.615 209.956 119.142C211.275 120.384 212.497 122.347 213.642 125.035C213.808 125.426 213.627 125.878 213.236 126.045C212.845 126.212 212.394 126.03 212.227 125.639C211.158 123.13 210.043 121.338 208.902 120.264C208.466 119.854 207.965 119.519 207.419 119.273C204.75 118.072 201.623 119.22 200.353 121.838L200.285 121.984L199.79 123.086C199.675 123.343 199.542 123.591 199.394 123.83C197.566 126.766 193.707 127.663 190.774 125.834C190.425 125.616 190.042 125.458 189.641 125.366C187.689 124.919 185.745 126.102 185.23 128.022L185.197 128.157L184.341 131.899C184.083 133.026 183.535 134.067 182.753 134.917C180.312 137.571 176.214 137.785 173.513 135.434L173.369 135.305L169.883 132.092C169.57 131.804 169.55 131.317 169.838 131.004C170.107 130.712 170.548 130.675 170.86 130.905L170.925 130.959L174.411 134.173C176.484 136.083 179.713 135.95 181.621 133.874C182.176 133.271 182.577 132.543 182.792 131.754L182.841 131.555L183.697 127.813C184.344 124.985 187.159 123.217 189.984 123.865C190.481 123.979 190.958 124.165 191.4 124.416L191.588 124.527C193.8 125.907 196.71 125.23 198.088 123.016C198.163 122.896 198.232 122.772 198.296 122.646L198.387 122.455L198.882 121.353Z" fill="#C7C1FF"/>
<path d="M113.489 140.669C119.248 140.669 123.916 135.996 123.916 130.231C123.916 124.466 119.248 119.793 113.489 119.793C107.731 119.793 103.062 124.466 103.062 130.231C103.062 135.996 107.731 140.669 113.489 140.669Z" fill="#8478FF"/>
<g filter="url(#filter1_d)">
<path fill-rule="evenodd" clip-rule="evenodd" d="M90.8555 167.592C90.8555 164.83 93.094 162.592 95.8555 162.592H254.805C257.566 162.592 259.805 164.83 259.805 167.592V300.271C259.805 303.033 257.566 305.271 254.805 305.271H95.8555C93.094 305.271 90.8555 303.033 90.8555 300.271V167.592Z" fill="#313A53"/>
</g>
<mask id="mask0" mask-type="alpha" maskUnits="userSpaceOnUse" x="90" y="162" width="170" height="144">
<path fill-rule="evenodd" clip-rule="evenodd" d="M90.8555 167.592C90.8555 164.83 93.094 162.592 95.8555 162.592H254.805C257.566 162.592 259.805 164.83 259.805 167.592V300.271C259.805 303.033 257.566 305.271 254.805 305.271H95.8555C93.094 305.271 90.8555 303.033 90.8555 300.271V167.592Z" fill="white"/>
</mask>
<g mask="url(#mask0)">
<g filter="url(#filter2_d)">
<path d="M113.508 272.2C113.508 272.2 133.593 266.426 142.449 254.639C151.305 242.853 154.291 231.428 169.522 231.428C184.754 231.428 186.706 248.926 203.172 248.926C219.638 248.926 220.538 226.612 226.011 217.752C231.483 208.892 240.928 208.892 240.928 208.892" stroke="#8EEAF6" stroke-width="4.004" stroke-linecap="round"/>
</g>
<path opacity="0.414737" fill-rule="evenodd" clip-rule="evenodd" d="M113.508 270.982C113.508 270.982 133.593 265.232 142.449 253.497C151.305 241.761 154.291 230.386 169.522 230.386C184.754 230.386 186.706 247.808 203.172 247.808C219.638 247.808 220.538 225.59 226.011 216.769C231.483 207.947 240.928 207.947 240.928 207.947V282.348C240.928 284.049 239.549 285.428 237.848 285.428H116.588C114.887 285.428 113.508 284.049 113.508 282.348V270.982Z" fill="#CEF9FF"/>
<path d="M154.091 176.765H106.905C105.339 176.765 104.07 178.034 104.07 179.6V179.6C104.07 181.165 105.339 182.435 106.905 182.435H154.091C155.657 182.435 156.926 181.165 156.926 179.6C156.926 178.034 155.657 176.765 154.091 176.765Z" fill="#8EEAF6"/>
<path fill-rule="evenodd" clip-rule="evenodd" d="M104.07 193.773C104.07 192.208 105.339 190.939 106.905 190.939H125.776C127.341 190.939 128.61 192.208 128.61 193.773C128.61 195.339 127.341 196.608 125.776 196.608H106.905C105.339 196.608 104.07 195.339 104.07 193.773Z" fill="#8EEAF6" fill-opacity="0.401934"/>
<path d="M227.241 183.38C229.065 183.38 230.544 181.9 230.544 180.073C230.544 178.247 229.065 176.766 227.241 176.766C225.417 176.766 223.938 178.247 223.938 180.073C223.938 181.9 225.417 183.38 227.241 183.38Z" fill="#8EEAF6" fill-opacity="0.451705"/>
<path d="M236.68 183.38C238.505 183.38 239.984 181.9 239.984 180.073C239.984 178.247 238.505 176.766 236.68 176.766C234.856 176.766 233.377 178.247 233.377 180.073C233.377 181.9 234.856 183.38 236.68 183.38Z" fill="#8EEAF6" fill-opacity="0.451705"/>
<path d="M246.118 183.38C247.942 183.38 249.421 181.9 249.421 180.073C249.421 178.247 247.942 176.766 246.118 176.766C244.293 176.766 242.814 178.247 242.814 180.073C242.814 181.9 244.293 183.38 246.118 183.38Z" fill="#8EEAF6" fill-opacity="0.451705"/>
</g>
<g filter="url(#filter3_d)">
<path fill-rule="evenodd" clip-rule="evenodd" d="M286.232 124.721C286.232 120.588 289.583 117.237 293.717 117.237H518.929C523.063 117.237 526.414 120.588 526.414 124.721V275.237C526.414 279.371 523.063 282.721 518.929 282.721H293.717C289.583 282.721 286.232 279.371 286.232 275.237V124.721Z" fill="#313A53"/>
</g>
<path fill-rule="evenodd" clip-rule="evenodd" d="M326.852 202.101V261.287H318.021V202.101H326.852Z" fill="#E7E4FF"/>
<path fill-rule="evenodd" clip-rule="evenodd" d="M326.852 216.245V261.287H318.021V216.245H326.852Z" fill="#C7C1FF"/>
<path fill-rule="evenodd" clip-rule="evenodd" d="M326.852 244.533V261.287H318.021V244.533H326.852Z" fill="#8478FF"/>
<path fill-rule="evenodd" clip-rule="evenodd" d="M348.043 187.957V261.287H339.213V187.957H348.043Z" fill="#E7E4FF"/>
<path fill-rule="evenodd" clip-rule="evenodd" d="M348.043 209.173V261.287H339.213V209.173H348.043Z" fill="#C7C1FF"/>
<path fill-rule="evenodd" clip-rule="evenodd" d="M348.043 244.533V261.287H339.213V244.533H348.043Z" fill="#8478FF"/>
<path fill-rule="evenodd" clip-rule="evenodd" d="M369.236 198.565V261.287H360.406V198.565H369.236Z" fill="#E7E4FF"/>
<path fill-rule="evenodd" clip-rule="evenodd" d="M369.236 219.781V261.287H360.406V219.781H369.236Z" fill="#C7C1FF"/>
<path fill-rule="evenodd" clip-rule="evenodd" d="M369.236 248.069V261.287H360.406V248.069H369.236Z" fill="#8478FF"/>
<path fill-rule="evenodd" clip-rule="evenodd" d="M390.428 180.885V261.287H381.598V180.885H390.428Z" fill="#E7E4FF"/>
<path fill-rule="evenodd" clip-rule="evenodd" d="M390.428 202.101V261.287H381.598V202.101H390.428Z" fill="#C7C1FF"/>
<path fill-rule="evenodd" clip-rule="evenodd" d="M390.428 230.389V261.287H381.598V230.389H390.428Z" fill="#8478FF"/>
<path fill-rule="evenodd" clip-rule="evenodd" d="M411.621 166.741V261.287H402.791V166.741H411.621Z" fill="#E7E4FF"/>
<path fill-rule="evenodd" clip-rule="evenodd" d="M411.621 195.029V261.287H402.791V195.029H411.621Z" fill="#C7C1FF"/>
<path fill-rule="evenodd" clip-rule="evenodd" d="M411.621 237.461V261.287H402.791V237.461H411.621Z" fill="#8478FF"/>
<path fill-rule="evenodd" clip-rule="evenodd" d="M432.815 187.957V261.287H423.984V187.957H432.815Z" fill="#E7E4FF"/>
<path fill-rule="evenodd" clip-rule="evenodd" d="M432.815 209.173V261.287H423.984V209.173H432.815Z" fill="#C7C1FF"/>
<path fill-rule="evenodd" clip-rule="evenodd" d="M432.815 241.704V261.287H423.984V241.704H432.815Z" fill="#8478FF"/>
<path fill-rule="evenodd" clip-rule="evenodd" d="M454.006 195.029V261.287H445.176V195.029H454.006Z" fill="#E7E4FF"/>
<path fill-rule="evenodd" clip-rule="evenodd" d="M454.006 209.173V261.287H445.176V209.173H454.006Z" fill="#C7C1FF"/>
<path fill-rule="evenodd" clip-rule="evenodd" d="M454.006 236.754V261.287H445.176V236.754H454.006Z" fill="#8478FF"/>
<path fill-rule="evenodd" clip-rule="evenodd" d="M475.199 180.885V261.287H466.369V180.885H475.199Z" fill="#E7E4FF"/>
<path fill-rule="evenodd" clip-rule="evenodd" d="M475.199 209.173V261.287H466.369V209.173H475.199Z" fill="#C7C1FF"/>
<path fill-rule="evenodd" clip-rule="evenodd" d="M475.199 243.825V261.287H466.369V243.825H475.199Z" fill="#8478FF"/>
<path fill-rule="evenodd" clip-rule="evenodd" d="M496.391 195.029V261.287H487.561V195.029H496.391Z" fill="#E7E4FF"/>
<path fill-rule="evenodd" clip-rule="evenodd" d="M496.391 209.173V261.287H487.561V209.173H496.391Z" fill="#C7C1FF"/>
<path fill-rule="evenodd" clip-rule="evenodd" d="M496.391 243.826V261.287H487.561V243.826H496.391Z" fill="#8478FF"/>
<path opacity="0.57573" fill-rule="evenodd" clip-rule="evenodd" d="M315.195 147.647C315.195 146.475 316.145 145.525 317.317 145.525H387.954C389.125 145.525 390.075 146.475 390.075 147.647C390.075 148.818 389.125 149.768 387.954 149.768H317.317C316.145 149.768 315.195 148.818 315.195 147.647Z" fill="#8C81FF"/>
<path d="M352.633 133.502H317.317C316.145 133.502 315.195 134.452 315.195 135.624C315.195 136.795 316.145 137.745 317.317 137.745H352.633C353.805 137.745 354.755 136.795 354.755 135.624C354.755 134.452 353.805 133.502 352.633 133.502Z" fill="#8478FF"/>
<path fill-rule="evenodd" clip-rule="evenodd" d="M559.038 451.882L570.481 542.29L564.482 542.21L553.039 452.728L559.038 451.882Z" fill="#BFE7FF"/>
<path fill-rule="evenodd" clip-rule="evenodd" d="M481.617 466.093C476.401 466.093 472.172 461.864 472.172 456.648C472.172 451.431 476.401 447.203 481.617 447.203H519.379C525.101 447.203 529.883 442.849 530.419 437.153L536.457 372.96C536.992 367.263 541.774 362.91 547.496 362.91H571.196C577.654 362.91 582.746 368.408 582.251 374.848L576.027 455.854C575.583 461.632 570.766 466.093 564.972 466.093H481.617Z" fill="#91D6FF"/>
<path fill-rule="evenodd" clip-rule="evenodd" d="M472.174 456.567C472.226 456.568 472.278 456.568 472.33 456.568H555.46C561.253 456.568 566.07 452.108 566.515 446.332L572.735 365.614C572.802 364.734 572.766 363.872 572.636 363.038C572.084 362.954 571.519 362.91 570.942 362.91H547.353C541.633 362.91 536.852 367.262 536.314 372.957L530.281 436.916C529.744 442.611 524.963 446.963 519.242 446.963H481.593C476.39 446.963 472.172 451.181 472.172 456.384C472.172 456.445 472.172 456.506 472.174 456.567Z" fill="#BFE7FF"/>
<path fill-rule="evenodd" clip-rule="evenodd" d="M546.277 347.34C558.475 344.498 559.278 327.746 550.004 321.935C559.568 301.875 537.451 281.958 522.301 294.241C512.369 289.987 504.115 306.586 513.357 319.478C509.482 341.613 517.369 347.335 531.585 347.578L546.277 347.34Z" fill="#422851"/>
<path fill-rule="evenodd" clip-rule="evenodd" d="M546.123 343.339C546.123 343.339 540.189 341.946 539.983 332.217C539.778 322.489 539.922 319.169 539.922 319.169L526.852 318.933C526.852 318.933 526.709 329.774 526.707 333.696C526.702 344.229 519.367 343.339 519.367 343.339C519.367 343.339 520.891 351.88 532.735 352.546C541.982 353.067 546.123 343.339 546.123 343.339Z" fill="url(#paint0_linear)"/>
<path fill-rule="evenodd" clip-rule="evenodd" d="M542.97 314.311C548.801 314.085 547.85 322.626 541.793 322.614C541.793 322.614 538.275 334.746 526.061 334.746C516.141 334.746 515.496 320.606 515.406 317.785C515.309 314.777 515.297 304.897 515.297 304.897L543.197 304.884L542.97 314.311Z" fill="url(#paint1_linear)"/>
<path d="M528.416 326.596C528.416 326.596 525.507 329.06 522.137 326.752" stroke="#F77B7B" stroke-width="1.5" stroke-linecap="round"/>
<path d="M526.494 329.45C525.589 329.868 524.717 329.898 523.939 329.482" stroke="#F49494" stroke-linecap="round"/>
<path d="M542.375 318.904C542.315 317.534 542.732 316.446 544.129 316.227" stroke="#F77B7B" stroke-linecap="round"/>
<path fill-rule="evenodd" clip-rule="evenodd" d="M543.892 313.256C543.892 313.256 540.696 317.546 540.049 317.569C539.402 317.592 539.175 311.989 539.175 311.989C535.254 311.689 525.333 309.712 522.901 305.107C521.2 309.17 517.948 310.975 515.812 310.629L515.407 319.261L514.41 301.906H544.674L543.892 313.256Z" fill="#422851"/>
<path fill-rule="evenodd" clip-rule="evenodd" d="M486.405 514.891C486.405 514.891 491.636 525.462 487.348 528.793C483.053 532.125 471.709 538.368 471.709 538.368L501.763 536.478L495.082 513.424L486.405 514.891Z" fill="url(#paint2_linear)"/>
<path fill-rule="evenodd" clip-rule="evenodd" d="M498.854 524.951C497.371 525.125 498.955 530.121 495.744 530.501C492.539 530.88 490.981 526.147 487.345 527.647C483.708 529.148 470.444 536.906 469.922 540.078C469.393 543.249 474.335 544.182 481.112 543.466C487.889 542.75 489.138 540.337 494.226 541.309C499.307 542.28 503.113 540.732 502.946 537.017C502.778 533.303 500.337 524.778 498.854 524.951Z" fill="#222D4E"/>
<path fill-rule="evenodd" clip-rule="evenodd" d="M485.685 528.417L486.345 529.407C486.669 529.893 486.51 530.551 486.001 530.835L477.035 535.841C476.744 536.003 476.392 536.01 476.095 535.86L474.703 535.153C476.889 533.569 478.676 532.379 480.652 531.21C482.168 530.313 483.847 529.388 485.685 528.417Z" fill="white" fill-opacity="0.540975"/>
<path fill-rule="evenodd" clip-rule="evenodd" d="M531.675 421.725C522.576 422.131 471.937 433.338 462.736 435.242C453.536 437.146 445.757 447.448 452.773 459.377C460.653 472.768 480.984 510.799 485.921 519.373C488.364 523.616 500.69 521.237 497.794 514.115C492.397 500.838 489.891 467.485 476.13 455.324C476.13 455.324 522.407 463.382 542.396 454.152C556.924 447.442 553.638 420.742 531.675 421.725Z" fill="url(#paint3_linear)"/>
<path fill-rule="evenodd" clip-rule="evenodd" d="M467.209 367.893C467.209 367.893 467.312 360.486 464.723 356.615C462.133 352.744 462.03 348.632 460.07 348.766C458.11 348.901 460.051 358.458 460.051 358.458C460.051 358.458 457.564 357.508 455.778 356.306C453.991 355.103 448.574 349.176 447.309 350.226C445.162 352.016 448.619 362.111 450.502 364.129C452.391 366.148 462.711 372.787 462.711 372.787L467.209 367.893Z" fill="url(#paint4_linear)"/>
<path fill-rule="evenodd" clip-rule="evenodd" d="M523.123 363.454C518.89 373.276 511.141 391.32 507.946 396.703C503.942 403.444 497.629 406.414 490.237 401.413C482.469 396.157 461.082 375.657 460.455 371.014C459.833 366.37 465.068 360.799 469.805 363.683C474.541 366.568 494.223 382.956 494.223 382.956C494.223 382.956 502.166 362.583 508.556 350.782C514.089 340.572 529.565 348.523 523.123 363.454Z" fill="#6A5EE3"/>
<path fill-rule="evenodd" clip-rule="evenodd" d="M494.143 382.966C494.143 382.966 492.009 390.206 491.511 389.787C491.012 389.368 491.892 381.074 491.892 381.074L494.143 382.966Z" fill="black" fill-opacity="0.302803"/>
<path fill-rule="evenodd" clip-rule="evenodd" d="M565.421 351.62C565.421 351.62 555.222 385.791 554.919 392.259C554.617 398.728 563.261 417.74 561.79 422.545C558.396 433.65 515.073 438.431 513.418 423.493C512.646 416.526 514.252 410.273 512.401 402.064C510.557 393.855 503.143 381.657 507.348 370.188C511.553 358.719 510.426 348.109 513.434 346.103C516.442 344.098 523.473 341.968 523.473 341.968C526.892 347.002 538.435 346.929 543.942 341.613C543.942 341.613 557.625 344.269 565.421 351.62Z" fill="#7367F0"/>
<path fill-rule="evenodd" clip-rule="evenodd" d="M556.281 357.154C549.482 367.949 549.502 386.745 545.851 389.206C542.2 391.668 527.988 389.252 527.988 391.202C527.988 393.151 547.627 411.016 544.403 419.557C542.715 424.029 543.173 428.029 545.777 431.559L546.627 431.373C554.365 429.624 560.586 426.482 561.789 422.545C563.261 417.74 553.62 398.728 553.922 392.259C554.178 386.768 562.285 361.315 564.73 353.747C562.739 350.234 559.923 351.37 556.281 357.154Z" fill="black" fill-opacity="0.199355"/>
<path fill-rule="evenodd" clip-rule="evenodd" d="M544.69 385.794C544.69 385.794 536.099 378.187 533.469 377.304C530.839 376.421 515.436 375.36 515.534 377.355C515.644 379.493 523.917 379.37 524.774 380.421C525.631 381.472 525.826 388.659 529.066 389.465C532.3 390.272 541.995 391.663 541.995 391.663L544.69 385.794Z" fill="url(#paint5_linear)"/>
<path fill-rule="evenodd" clip-rule="evenodd" d="M567.543 353.583C576.594 366.364 584.321 385.833 587.288 393.423C590.254 401.013 587.262 412.462 574.219 410.214C561.199 407.973 540.483 395.792 538.191 392.239C535.899 388.686 539.381 382.221 543.766 383.067C547.829 383.85 567.979 392.423 567.979 392.423C567.979 392.423 555.016 369.432 551.85 363.269C546.562 352.976 559.57 342.322 567.543 353.583Z" fill="#6A5EE3"/>
<path fill-rule="evenodd" clip-rule="evenodd" d="M567.777 392.266C567.777 392.266 574.567 395.641 573.739 394.225C572.911 392.81 565.186 387.837 565.186 387.837L567.777 392.266Z" fill="black" fill-opacity="0.302803"/>
<path fill-rule="evenodd" clip-rule="evenodd" d="M235.062 511.194C235.062 511.194 234.926 519.906 240.272 523C245.618 526.095 253.901 531.844 253.901 531.844L222.393 532.913L223.291 511.116L235.062 511.194Z" fill="#F8CFCF"/>
<path fill-rule="evenodd" clip-rule="evenodd" d="M221.292 520.794L220.779 534.926H228.098L228.599 533.105C228.599 533.105 231.355 532.992 232.947 533.779C234.63 534.61 234.856 535.014 234.856 535.014L258.07 535.063C258.07 535.063 259.215 530.495 252.139 527.191C245.063 523.887 239.91 519.197 238.932 518.717C237.946 518.233 235.957 517.96 234.556 519.096C233.156 520.232 232.048 523.219 228.874 523.312C224.789 523.433 222.442 518.404 221.292 520.794Z" fill="#4B4B4B"/>
<path d="M241.131 520.25L238.725 522.577" stroke="white" stroke-width="2" stroke-linecap="round"/>
<path d="M244.639 522.014L242.232 524.342" stroke="white" stroke-width="2" stroke-linecap="round"/>
<path d="M248.149 523.779L245.742 526.107" stroke="white" stroke-width="2" stroke-linecap="round"/>
<path fill-rule="evenodd" clip-rule="evenodd" d="M212 323C212 323 220.753 419.38 221.026 426.079C221.298 432.779 218.214 444.342 218.274 456.874C218.334 469.406 219.4 513.575 219.4 513.575L238.71 513.984C238.71 513.984 246.825 434.167 246.913 422.198C247 410.229 247.744 324.152 247.744 324.152L212 323Z" fill="#383838"/>
<path opacity="0.283552" fill-rule="evenodd" clip-rule="evenodd" d="M225.919 429.079L225.94 429.318C226.231 433.404 223.693 446.846 218.327 469.645L218.274 456.874C218.215 444.565 221.189 433.192 221.037 426.443L221.026 426.079C220.934 423.822 219.879 411.379 218.521 395.872L219.155 398.143C222.878 411.595 225.132 421.908 225.919 429.079Z" fill="white" fill-opacity="0.192499"/>
<path fill-rule="evenodd" clip-rule="evenodd" d="M188.478 509.966L184.754 532.525L198.482 532.456L198.916 509.613L188.478 509.966Z" fill="#F8CFCF"/>
<path fill-rule="evenodd" clip-rule="evenodd" d="M187.002 519.724C185.658 520.015 184.684 521.182 184.639 522.556L184.528 525.91C182.586 528.064 181.669 534.287 181.572 534.977C181.566 535.02 181.562 535.061 181.567 535.105C181.852 538.154 201.821 538.116 203.696 535.249C203.781 535.118 203.787 534.963 203.762 534.809C203.552 533.538 202.436 527.385 200.291 525.707L200.278 522.384C200.273 521.031 199.363 519.849 198.056 519.498L195.993 518.944C193.986 516.017 191.251 516.121 188.908 519.31L187.002 519.724Z" fill="#4B4B4B"/>
<path d="M189.688 521.748H195.244" stroke="white" stroke-width="2" stroke-linecap="round"/>
<path d="M189.688 524.393H195.244" stroke="white" stroke-width="2" stroke-linecap="round"/>
<path d="M190.568 527.037H194.358" stroke="white" stroke-width="2" stroke-linecap="round"/>
<path fill-rule="evenodd" clip-rule="evenodd" d="M195.401 324.265C195.401 324.265 189.268 390.331 189.351 402.982C189.434 415.635 191.239 421.191 188.671 430.267C186.102 439.343 183.912 511.786 183.912 511.786L202.903 513.864C202.903 513.864 215.036 436.346 216.355 425.599C217.674 414.851 233.98 323.353 233.98 323.353L195.401 324.265Z" fill="#2E2E2E"/>
<path opacity="0.283552" fill-rule="evenodd" clip-rule="evenodd" d="M200.53 369.105L199.372 373.298C195.98 385.674 192.849 398.761 193.669 417.455L193.709 418.309C193.91 422.358 191.334 445.861 185.98 488.817L185.471 491.836C184.946 494.915 184.478 497.542 184.068 499.717L184.185 495.913C184.867 474.915 186.704 437.216 188.67 430.267C191.238 421.191 189.434 415.635 189.35 402.983C189.292 394.126 192.28 359.097 194.078 338.877L195.401 324.265L203.417 324.076L203.437 326.326C203.578 347.099 202.609 361.358 200.53 369.105Z" fill="white" fill-opacity="0.192499"/>
<path fill-rule="evenodd" clip-rule="evenodd" d="M288.834 242.566C288.834 242.566 287.249 233.828 287.819 232.058C288.306 230.529 292.908 228.324 292.908 228.324C292.908 228.324 300.912 215.818 302.664 217.091C304.089 218.123 298.496 227.343 298.496 227.343C298.496 227.343 303.596 232.636 303.525 235.002C303.454 237.368 295.2 244.774 295.2 244.774L288.834 242.566Z" fill="#F8CFCF"/>
<path fill-rule="evenodd" clip-rule="evenodd" d="M293.08 228.198C293.08 228.198 296.625 227.721 297.189 228.812C297.67 229.742 294.725 232.379 294.725 233.12C294.725 233.861 294.767 239.471 295.004 239.522C295.241 239.573 298.555 230.367 297.848 228.42C297.266 226.821 293.08 228.198 293.08 228.198Z" fill="#F28585"/>
<path fill-rule="evenodd" clip-rule="evenodd" d="M246.546 253.684C237.261 245.662 223.318 260.124 238.865 273.569C244.797 278.699 263.428 291.493 267.996 294.307C275.267 298.785 281.242 294.744 283.697 287.697C285.78 281.723 298.239 249.743 296.653 245.046C295.62 241.982 290.071 239.001 287.286 241.412C283.216 244.935 270.766 275.839 270.766 275.839C270.766 275.839 257.104 262.805 246.546 253.684Z" fill="#877BFF"/>
<path fill-rule="evenodd" clip-rule="evenodd" d="M270.766 275.839C270.766 275.839 274.843 280.786 275.138 280.03C275.432 279.275 271.904 272.918 271.904 272.918L270.766 275.839Z" fill="black" fill-opacity="0.159856"/>
<path d="M286.203 243.393C289.443 241.893 292.982 243.748 294.932 246.724" stroke="#5386BF" stroke-linecap="round"/>
<path fill-rule="evenodd" clip-rule="evenodd" d="M206.742 244.431C206.742 244.431 212.08 243.203 212.266 234.628C212.451 226.053 212.321 223.125 212.321 223.125L224.977 222.917C224.977 222.917 225.104 232.474 225.107 235.931C225.111 243.456 230.812 245.49 230.812 245.49C230.812 245.49 230.339 253.718 219.684 254.306C211.365 254.765 206.742 244.431 206.742 244.431Z" fill="#F8C5C5"/>
<path fill-rule="evenodd" clip-rule="evenodd" d="M236.249 213.882L235.967 221.986C238.358 219.23 239.974 215.814 240.452 211.433L236.249 213.882Z" fill="url(#paint6_linear)"/>
<path fill-rule="evenodd" clip-rule="evenodd" d="M211.157 218.791C205.912 218.592 206.768 226.12 212.217 226.11C212.217 226.11 218.073 237.654 227.267 237.684C231.696 237.698 233.141 233.831 234.469 231.116C235.797 228.401 236.771 224.34 236.852 221.854C236.939 219.202 236.95 210.493 236.95 210.493L210.953 210.481L211.157 218.791Z" fill="#F8CFCF"/>
<path fill-rule="evenodd" clip-rule="evenodd" d="M236.95 214.489H218.667C218.475 217.728 217.377 220.417 214.591 222.401C214.67 227.146 216.289 230.6 219.097 233.023C221.541 226.155 236.494 228.034 235.406 232.515C233.121 241.929 211.706 242.142 213.005 220.476C212.151 219.334 209.096 219.12 208.09 220.262C206.372 215.529 207.105 208.832 212.073 207.864C208.173 197.777 261.195 195.643 236.95 214.489Z" fill="#424242"/>
<path d="M225.234 232.099C225.234 232.099 227.617 233.815 230.752 231.939" stroke="#CC6969" stroke-linecap="round"/>
<path d="M211.975 223.089C212.029 221.881 211.653 220.922 210.396 220.729" stroke="#DE6767" stroke-linecap="round"/>
<path fill-rule="evenodd" clip-rule="evenodd" d="M209.089 243L224.192 252.796L231.002 244.887C231.002 244.887 245.348 249.327 248.01 254.518C251.85 262.008 246.79 322.022 248.996 325.643C253.697 333.36 247.447 338.658 226.757 340.604C206.067 342.55 187.712 340.957 191.042 330.658C194.374 320.359 181.519 253.147 192.852 249.445C196.393 248.288 209.089 243 209.089 243Z" fill="#7367F0"/>
<path fill-rule="evenodd" clip-rule="evenodd" d="M198.897 261.529C199.812 263.144 199.34 268.737 197.483 278.309C195.9 286.464 197.71 294.899 202.487 301.705L202.756 302.081C204.371 304.311 205.861 307.247 207.224 310.889C210.568 319.82 202.856 327.266 208.766 341.239L208.051 341.205C196.455 340.606 188.79 337.623 191.042 330.658C193.774 322.214 185.624 275.51 188.847 256.921C194.426 258.015 197.776 259.551 198.897 261.529Z" fill="black" fill-opacity="0.159856"/>
<path fill-rule="evenodd" clip-rule="evenodd" d="M209.089 243L222.598 251.795C220.618 254.093 219.556 256.766 219.155 259.709C213.963 255.656 208.567 249.992 206.895 243.902L209.089 243Z" fill="#5E54C7"/>
<path fill-rule="evenodd" clip-rule="evenodd" d="M225.26 251.566C227.544 253.108 229.366 255.839 230.85 258.944C232.628 255.376 233.309 250.664 233.309 245.639L231.078 244.759L225.26 251.566Z" fill="#5E54C7"/>
<path fill-rule="evenodd" clip-rule="evenodd" d="M222.598 251.794L222.774 251.893C223.584 252.344 224.594 252.211 225.259 251.566C230.352 270.207 233.934 290.724 235.017 311.576L229.702 320.39L223.485 312.141C224.295 290.47 224.289 269.339 222.598 251.794Z" fill="#CBC6FF"/>
<path d="M236.081 298.99C236.228 297.598 237.503 296.607 238.888 296.81L251.194 298.609C252.502 298.8 253.427 299.99 253.288 301.304L251.08 322.318C250.933 323.71 249.658 324.701 248.273 324.499L235.967 322.7C234.659 322.509 233.735 321.319 233.873 320.004L236.081 298.99Z" fill="#6182EC"/>
<path fill-rule="evenodd" clip-rule="evenodd" d="M237.549 298.567C237.7 297.128 239.053 296.128 240.473 296.407L253.34 298.93L262.145 298.783C263.624 298.758 264.792 300.033 264.637 301.504L262.432 322.486C262.302 323.724 261.268 324.671 260.023 324.692L250.616 324.849L237.318 322.241C236.066 321.995 235.208 320.834 235.342 319.565L237.549 298.567Z" fill="#96EFFA"/>
<path d="M239.871 303.487C239.969 302.56 240.834 301.913 241.75 302.08L247.656 303.161C248.479 303.312 249.047 304.07 248.959 304.902L248.707 307.296C248.61 308.223 247.745 308.871 246.828 308.703L240.923 307.622C240.1 307.472 239.532 306.713 239.62 305.881L239.871 303.487Z" fill="#74CFDB"/>
<path d="M252.355 299.631C252.401 299.192 252.795 298.873 253.234 298.919L253.751 298.974C254.19 299.02 254.509 299.413 254.463 299.853L251.915 324.097C251.869 324.536 251.475 324.855 251.036 324.809L250.519 324.754C250.079 324.708 249.761 324.315 249.807 323.875L252.355 299.631Z" fill="#EAEFFF"/>
<path d="M253.058 299.705C253.104 299.266 253.498 298.947 253.937 298.993L254.454 299.048C254.894 299.094 255.212 299.487 255.166 299.927L252.618 324.171C252.572 324.61 252.178 324.929 251.739 324.883L251.222 324.828C250.782 324.782 250.464 324.389 250.51 323.949L253.058 299.705Z" fill="#7AD2DD"/>
<path fill-rule="evenodd" clip-rule="evenodd" d="M222.89 308.414C222.89 308.414 227.476 307.498 229.353 306.033C231.23 304.569 236.915 303.534 236.915 303.534L235.096 307.34C235.096 307.34 249.028 306.04 249.358 307.406C249.689 308.771 245.659 310.256 245.659 310.256C245.659 310.256 243.672 313.944 241.748 316.082C239.928 318.105 230.884 317.864 227.714 316.602C224.975 315.511 221.996 316.056 221.996 316.056L222.89 308.414Z" fill="#F8CFCF"/>
<path fill-rule="evenodd" clip-rule="evenodd" d="M186.002 255.239C190.984 244.542 208.042 251.749 203.743 263.209C199.579 274.31 189.49 300.23 189.49 300.23C189.49 300.23 221.462 304.263 223.954 306.144C227.28 308.653 225.224 315.813 222.398 317.088C220.007 318.166 202.245 318.796 184.866 317.435C176.269 316.762 169.911 313.092 169.024 303.559C168.402 296.883 181.202 265.544 186.002 255.239Z" fill="#877BFF"/>
<path fill-rule="evenodd" clip-rule="evenodd" d="M189.501 300.224C189.501 300.224 186.844 305.243 187.603 305.345C188.363 305.448 192.224 300.591 192.224 300.591L189.501 300.224Z" fill="black" fill-opacity="0.159856"/>
<path d="M221.702 305.599C222.688 308.727 221.995 312.395 220.627 314.988" stroke="#5386BF" stroke-linecap="round"/>
<path fill-rule="evenodd" clip-rule="evenodd" d="M86.3633 445.346C94.6293 441.634 104.336 445.361 107.996 453.65L110.858 460.135C102.592 463.847 92.8852 460.12 89.226 451.831L86.3633 445.346Z" fill="#02D3AF"/>
<path fill-rule="evenodd" clip-rule="evenodd" d="M98.1752 449.302C106.425 455.172 111.774 461.714 114.239 468.926C116.716 476.173 117.731 488.321 117.27 505.347C117.263 505.61 117.469 505.83 117.73 505.837C117.992 505.844 118.21 505.637 118.217 505.373C118.681 488.241 117.658 475.996 115.134 468.614C112.599 461.197 107.122 454.5 98.7211 448.521C98.5074 448.369 98.212 448.421 98.0613 448.636C97.9105 448.852 97.9615 449.15 98.1752 449.302Z" fill="#02B596"/>
<path fill-rule="evenodd" clip-rule="evenodd" d="M156.489 441.32C148.355 437.494 138.66 441.022 134.887 449.182L131.674 456.133C139.808 459.959 149.503 456.431 153.276 448.271L156.489 441.32Z" fill="#02D3AF"/>
<path d="M91.4961 425.385C99.34 423.718 107.05 428.725 108.718 436.569L110.067 442.919C102.223 444.586 94.5131 439.579 92.8458 431.735L91.4961 425.385Z" fill="#02D3AF"/>
<path fill-rule="evenodd" clip-rule="evenodd" d="M97.2635 430.452C103.309 434.672 107.398 439.223 109.543 444.099L109.675 444.406L109.808 444.729C112.006 450.185 115.644 464.475 120.704 487.545C120.76 487.802 121.013 487.966 121.269 487.91C121.524 487.854 121.685 487.599 121.629 487.342L121.002 484.496L120.27 481.202C115.699 460.761 112.417 448.281 110.409 443.715C108.186 438.662 103.98 433.981 97.8011 429.667C97.5857 429.517 97.2908 429.571 97.1423 429.787C96.9939 430.004 97.0481 430.301 97.2635 430.452Z" fill="#02B596"/>
<path fill-rule="evenodd" clip-rule="evenodd" d="M144.623 420.56C135.978 420.408 128.847 427.294 128.698 435.94L128.564 443.653C137.209 443.805 144.34 436.919 144.49 428.273L144.623 420.56Z" fill="#02D3AF"/>
<path fill-rule="evenodd" clip-rule="evenodd" d="M138.951 423.662C133.39 431.822 129.326 439.699 126.763 447.293C124.203 454.874 121.65 466.581 119.1 482.424C119.058 482.684 119.233 482.93 119.491 482.972C119.75 483.014 119.993 482.837 120.035 482.577L120.348 480.651L120.563 479.353C122.93 465.186 125.296 454.6 127.659 447.601C130.193 440.095 134.217 432.295 139.731 424.203C139.879 423.985 139.825 423.688 139.609 423.539C139.394 423.389 139.099 423.444 138.951 423.662Z" fill="#02B596"/>
<path fill-rule="evenodd" clip-rule="evenodd" d="M126.906 418.316C126.906 418.316 122.396 431.164 120.402 450.089C118.409 469.013 119.572 487.938 119.572 487.938L121.773 488.138C121.773 488.138 120.591 466.05 122.01 450.172C123.43 434.294 128.006 418.416 128.006 418.416L126.906 418.316Z" fill="#02B596"/>
<path d="M126.507 422.758C130.399 423.729 134.761 419.678 136.249 413.709C137.737 407.741 135.788 402.116 131.896 401.146C128.003 400.175 123.641 404.227 122.153 410.195C120.665 416.163 122.614 421.788 126.507 422.758Z" fill="#C2FFF4"/>
<path d="M127.591 419.669C130.299 420.344 133.28 417.738 134.25 413.847C135.22 409.956 133.812 406.254 131.104 405.579C128.396 404.904 125.415 407.511 124.445 411.402C123.474 415.293 124.883 418.994 127.591 419.669Z" fill="#02D3AF"/>
<path fill-rule="evenodd" clip-rule="evenodd" d="M128.726 419.005L132.783 406.341C133.025 405.588 132.615 404.781 131.869 404.538C131.122 404.294 130.321 404.707 130.08 405.46L126.022 418.124C125.781 418.877 126.191 419.685 126.937 419.928C127.684 420.171 128.484 419.758 128.726 419.005Z" fill="url(#paint7_linear)"/>
<path fill-rule="evenodd" clip-rule="evenodd" d="M104.95 405.586C104.95 405.586 110.778 417.892 114.739 436.505C118.7 455.117 119.521 474.06 119.521 474.06L117.354 474.489C117.354 474.489 116.22 452.399 113.149 436.756C110.077 421.113 103.867 405.801 103.867 405.801L104.95 405.586Z" fill="#02B596"/>
<path d="M105.81 409.962C102.04 411.334 97.2791 407.76 95.1754 401.98C93.0717 396.2 94.4222 390.403 98.1919 389.03C101.962 387.658 106.723 391.232 108.827 397.012C110.93 402.792 109.58 408.59 105.81 409.962Z" fill="#C2FFF4"/>
<path d="M104.412 407.004C101.789 407.959 98.5518 405.678 97.1802 401.909C95.8087 398.141 96.8227 394.313 99.4451 393.358C102.067 392.404 105.305 394.685 106.677 398.453C108.048 402.221 107.034 406.05 104.412 407.004Z" fill="#02D3AF"/>
<path fill-rule="evenodd" clip-rule="evenodd" d="M103.215 406.462L97.8552 394.291C97.5366 393.568 97.8595 392.722 98.5765 392.402C99.2934 392.082 100.133 392.409 100.452 393.133L105.811 405.303C106.129 406.027 105.807 406.873 105.09 407.193C104.373 407.513 103.533 407.185 103.215 406.462Z" fill="url(#paint8_linear)"/>
<path fill-rule="evenodd" clip-rule="evenodd" d="M152.02 443.348C140.792 447.742 132.964 452.819 128.537 458.599C124.111 464.378 121.186 473.341 119.744 485.49C119.713 485.752 119.898 485.99 120.157 486.021C120.417 486.053 120.653 485.866 120.684 485.604C122.108 473.611 124.982 464.803 129.287 459.183C133.591 453.563 141.282 448.575 152.362 444.239C152.606 444.143 152.727 443.867 152.632 443.621C152.538 443.375 152.264 443.253 152.02 443.348Z" fill="#02B596"/>
<path fill-rule="evenodd" clip-rule="evenodd" d="M121.93 478.595C116.599 459.598 95.5469 465.157 95.5469 465.157C95.5469 465.157 111.308 470.308 119.346 478.595H121.93Z" fill="#02B596"/>
<path fill-rule="evenodd" clip-rule="evenodd" d="M121.875 475.677C127.206 456.679 144.975 459.457 144.975 459.457C144.975 459.457 134.183 468.328 124.458 475.677H121.875Z" fill="#02B596"/>
<path fill-rule="evenodd" clip-rule="evenodd" d="M121.834 479.453C117.068 462.599 128.185 448.092 128.185 448.092C128.185 448.092 127.622 468.052 123.758 478.222L121.834 479.453Z" fill="#02B596"/>
<path fill-rule="evenodd" clip-rule="evenodd" d="M117.172 475.677C115.065 469.587 112.969 461.082 111.398 452.837C119.161 455.959 121.655 468.397 119.161 475.677H117.172Z" fill="#02D3AF"/>
<path fill-rule="evenodd" clip-rule="evenodd" d="M102.023 471.762C101.92 470.584 102.848 469.571 104.031 469.571H134.683C135.865 469.571 136.794 470.584 136.691 471.762L130.784 539.355C130.693 540.396 129.821 541.195 128.776 541.195H109.938C108.892 541.195 108.02 540.396 107.929 539.355L102.023 471.762Z" fill="#7569EC"/>
<mask id="mask1" mask-type="alpha" maskUnits="userSpaceOnUse" x="102" y="469" width="35" height="73">
<path fill-rule="evenodd" clip-rule="evenodd" d="M102.023 471.762C101.92 470.584 102.848 469.571 104.031 469.571H134.683C135.865 469.571 136.794 470.584 136.691 471.762L130.784 539.355C130.693 540.396 129.821 541.195 128.776 541.195H109.938C108.892 541.195 108.02 540.396 107.929 539.355L102.023 471.762Z" fill="white"/>
</mask>
<g mask="url(#mask1)">
<path fill-rule="evenodd" clip-rule="evenodd" d="M97.4102 465.099H110.354C102.333 495.552 126.48 516.488 110.354 546.941H97.4102V465.099Z" fill="#8175FF"/>
</g>
<path fill-rule="evenodd" clip-rule="evenodd" d="M679.746 451.882L668.303 542.29L674.302 542.21L685.745 452.728L679.746 451.882Z" fill="#91D6FF"/>
<path fill-rule="evenodd" clip-rule="evenodd" d="M646.447 451.882L635.004 542.29L641.003 542.21L652.446 452.728L646.447 451.882Z" fill="#91D6FF"/>
<path fill-rule="evenodd" clip-rule="evenodd" d="M719.492 451.882L730.935 542.29L724.935 542.21L713.492 452.728L719.492 451.882Z" fill="#BFE7FF"/>
<path fill-rule="evenodd" clip-rule="evenodd" d="M642.07 466.093C636.854 466.093 632.625 461.864 632.625 456.648C632.625 451.431 636.854 447.203 642.07 447.203H679.833C685.554 447.203 690.336 442.849 690.872 437.153L696.91 372.96C697.445 367.263 702.227 362.91 707.949 362.91H731.649C738.108 362.91 743.199 368.408 742.705 374.848L736.48 455.854C736.036 461.632 731.219 466.093 725.425 466.093H642.07Z" fill="#91D6FF"/>
<path fill-rule="evenodd" clip-rule="evenodd" d="M632.627 456.567C632.679 456.568 632.731 456.568 632.783 456.568H715.913C721.706 456.568 726.523 452.108 726.968 446.332L733.188 365.614C733.256 364.734 733.219 363.872 733.089 363.038C732.537 362.954 731.972 362.91 731.395 362.91H707.807C702.086 362.91 697.305 367.262 696.768 372.957L690.735 436.916C690.197 442.611 685.416 446.963 679.696 446.963H642.046C636.843 446.963 632.625 451.181 632.625 456.384C632.625 456.445 632.626 456.506 632.627 456.567Z" fill="#BFE7FF"/>
<path fill-rule="evenodd" clip-rule="evenodd" d="M644.109 513.415C644.109 513.415 649.355 524.01 645.054 527.349C640.747 530.688 629.371 536.946 629.371 536.946L659.511 535.052L652.811 511.944L644.109 513.415Z" fill="url(#paint9_linear)"/>
<path fill-rule="evenodd" clip-rule="evenodd" d="M656.524 523.003C655.575 523.455 657.135 527.712 653.798 527.413C650.462 527.115 648.367 522.714 645.907 523C643.446 523.285 641.884 527.717 637.199 530.803C632.516 533.89 625.571 537.572 626.036 540.675C626.501 543.779 637.43 544.61 642.967 543.582C648.504 542.556 651.088 540.33 654.68 540.507C658.272 540.685 660.53 540.245 661.656 537.939C662.781 535.632 657.618 522.48 656.524 523.003Z" fill="#EEDFE8"/>
<path fill-rule="evenodd" clip-rule="evenodd" d="M656.257 537.167L655.95 537.149C651.498 536.774 648.444 539.574 644.207 540.363C639.969 541.153 628.794 541.426 627.009 538.775C626.924 538.65 626.846 538.521 626.773 538.391C626.173 539.128 625.891 539.917 626.036 540.836C626.501 543.789 637.431 544.58 642.968 543.603C648.505 542.626 651.09 540.507 654.682 540.676L655.321 540.7C658.544 540.788 660.6 540.294 661.659 538.232C661.916 537.729 661.858 536.649 661.6 535.283C660.097 536.311 658.201 537.226 656.257 537.167Z" fill="#EC7AA5"/>
<path fill-rule="evenodd" clip-rule="evenodd" d="M689.51 420.032C680.386 420.439 629.6 431.672 620.374 433.58C611.147 435.488 603.346 445.814 610.382 457.772C618.284 471.194 638.674 509.314 643.625 517.907C646.075 522.16 658.436 519.775 655.533 512.636C650.12 499.329 647.606 465.898 633.806 453.709C633.806 453.709 680.216 461.786 700.263 452.534C714.832 445.808 711.536 419.047 689.51 420.032Z" fill="#413C75"/>
<path fill-rule="evenodd" clip-rule="evenodd" d="M625.86 363.074C625.86 363.074 625.964 357.65 623.366 353.77C620.769 349.89 620.666 345.768 618.701 345.903C616.735 346.038 618.681 355.618 618.681 355.618C618.681 355.618 616.188 354.665 614.396 353.46C612.605 352.255 607.172 346.314 605.902 347.367C603.75 349.161 607.217 359.279 609.105 361.302C611 363.326 620.349 368.98 620.349 368.98L647.884 396.719L652.001 381.994L625.86 363.074Z" fill="url(#paint10_linear)"/>
<path fill-rule="evenodd" clip-rule="evenodd" d="M680.935 360.625C676.69 370.47 668.918 388.556 665.714 393.951C661.699 400.708 655.367 403.686 647.954 398.672C646.403 397.623 641.949 393.954 641.949 393.954C642.608 387.532 645.007 382.164 649.143 377.849L651.952 380.172C651.952 380.172 659.918 359.752 666.326 347.924C671.875 337.69 687.396 345.659 680.935 360.625Z" fill="#EA5455"/>
<path fill-rule="evenodd" clip-rule="evenodd" d="M651.869 380.183C651.869 380.183 649.73 387.44 649.23 387.019C648.729 386.599 649.612 378.286 649.612 378.286L651.869 380.183Z" fill="black" fill-opacity="0.159856"/>
<path fill-rule="evenodd" clip-rule="evenodd" d="M699.279 322.411V331.123L705.676 325.972C705.676 325.972 707.643 317.626 709.242 311.427C710.245 307.539 712.688 294.384 702.852 295C694.794 280.796 671.328 289.587 671.141 306.94C670.917 327.811 671.1 335.937 671.1 335.937C684.37 336.698 691.838 334.78 699.279 322.411Z" fill="#422851"/>
<path fill-rule="evenodd" clip-rule="evenodd" d="M705.814 338.997C705.814 338.997 699.864 337.6 699.657 327.85C699.451 318.099 699.596 314.77 699.596 314.77L686.488 314.534C686.488 314.534 686.345 325.401 686.343 329.332C686.337 338.889 679.309 339.672 679.309 339.672C679.309 339.672 680.51 347.558 692.388 348.226C701.661 348.748 705.814 338.997 705.814 338.997Z" fill="url(#paint11_linear)"/>
<path fill-rule="evenodd" clip-rule="evenodd" d="M702.65 309.901C708.498 309.675 707.544 318.235 701.47 318.224C701.47 318.224 697.942 330.384 685.692 330.384C675.744 330.384 675.097 316.211 675.007 313.383C674.91 310.369 674.898 300.465 674.898 300.465L702.878 300.452L702.65 309.901Z" fill="url(#paint12_linear)"/>
<path fill-rule="evenodd" clip-rule="evenodd" d="M703.104 309.845C700.681 310.245 700.975 311.849 700.316 311.709C696.97 310.997 683.426 311.936 681.682 304.488C679.512 309.141 678.981 310.285 674.203 311.534V297.899L704.425 295C704.425 295 703.956 309.704 703.104 309.845Z" fill="#422851"/>
<path d="M688.055 322.215C688.055 322.215 685.137 324.685 681.758 322.372" stroke="#F77B7B" stroke-width="1.5" stroke-linecap="round"/>
<path d="M686.13 325.075C685.222 325.494 684.348 325.525 683.568 325.107" stroke="#F49494" stroke-linecap="round"/>
<path d="M702.054 314.505C701.994 313.132 702.413 312.041 703.813 311.822" stroke="#F77B7B" stroke-linecap="round"/>
<path fill-rule="evenodd" clip-rule="evenodd" d="M704.484 338C697.016 342.574 688.382 344.251 680.345 339.284C667.23 365.145 663.961 396.002 667.116 430.106C686.241 437.678 702.315 436.189 716 427.534L704.484 338Z" fill="#FFE4F4"/>
<path fill-rule="evenodd" clip-rule="evenodd" d="M611.414 513.84C611.414 513.84 611.572 526.311 601.296 530.973C591.027 535.635 583.71 535.355 584.642 538.959C585.573 542.563 612.303 542.418 614.799 539.599C616.927 537.201 621.553 514.872 622.827 516.579L611.414 513.84Z" fill="url(#paint13_linear)"/>
<path fill-rule="evenodd" clip-rule="evenodd" d="M618.878 531.452C617.303 530.319 615.979 536.853 611.702 535.036C607.424 533.219 610.797 527.213 608.105 526.105C605.413 524.998 600.215 530.953 593.311 532.401C586.407 533.847 580.802 535.114 579.209 537.801C577.837 540.111 579.209 540.849 579.209 540.849C579.209 540.849 585.855 544.168 589.985 544.899C595.985 545.96 613.324 546.667 615.224 544.732C616.391 543.545 619.666 532.019 618.878 531.452Z" fill="#EEDFE8"/>
<path fill-rule="evenodd" clip-rule="evenodd" d="M578.835 538.073C577.533 540.196 579.587 541.3 579.833 541.422L580.824 541.844C582.704 542.626 586.946 544.302 590.081 544.901C595.829 546 613.628 546.651 615.543 544.762C615.879 544.43 616.295 543.217 616.697 541.641L615.476 541.774C609.598 542.397 596.477 543.523 590.002 541.998C584.254 540.644 581.108 538.417 579.673 537.116C579.324 537.416 579.042 537.734 578.835 538.073Z" fill="#EC7AA5"/>
<path fill-rule="evenodd" clip-rule="evenodd" d="M718.101 416.177C718.101 416.177 731.367 444.192 712.724 453.812C694.695 463.115 640.723 452.112 640.723 452.112C640.723 452.112 641.688 459.877 640.723 466.802C638.205 484.889 626.225 515.023 623.691 518.809C620.186 524.046 609.509 520.097 609.308 515.737C609.106 511.377 617.356 455.693 618.611 445.075C619.859 434.456 623.799 432.913 635.308 430.01C637.952 429.343 669.219 421.573 672.083 421.8C696.694 423.746 718.101 416.177 718.101 416.177Z" fill="#524D87"/>
<path fill-rule="evenodd" clip-rule="evenodd" d="M703.56 450.921C685.711 452.921 638.456 448.798 636.558 450.671C634.746 452.46 635.049 483.575 630.984 501.585L631.602 499.884C635.425 489.267 639.394 476.354 640.724 466.802C641.689 459.877 640.724 452.112 640.724 452.112L642.901 452.533C653.16 454.46 696.86 461.999 712.725 453.812C721.322 449.376 724.83 442.006 723.249 431.703C720.527 443.349 713.964 449.755 703.56 450.921Z" fill="white" fill-opacity="0.056108"/>
<path fill-rule="evenodd" clip-rule="evenodd" d="M704.158 338.021C691.789 378.538 684.372 435.979 723 425.986C702.481 388.206 730.376 371.202 724.053 351.676C721.891 345 704.319 337.497 704.158 338.021Z" fill="#EA5455"/>
<path fill-rule="evenodd" clip-rule="evenodd" d="M718.106 354.845C704.127 356.955 715.651 381.362 711.036 385.039C706.422 388.716 698.39 389.113 697.524 391.359C695.784 395.874 704.198 407.271 722.766 425.551L722.999 425.986C705.124 393.076 723.987 375.931 724.968 359.151C722.897 355.903 720.609 354.468 718.106 354.845Z" fill="black" fill-opacity="0.159856"/>
<path fill-rule="evenodd" clip-rule="evenodd" d="M681 339C676.28 350.838 674.011 360.127 671.894 377.503C670.129 391.975 671.013 421.84 671.013 421.84L665.18 422.987C665.18 422.987 661.01 376.848 662.404 370.907C664.744 360.938 666.329 355.113 669.418 346C671.12 340.998 681 339 681 339Z" fill="#EA5455"/>
<path fill-rule="evenodd" clip-rule="evenodd" d="M701.561 384.017C701.561 384.017 693.945 376.392 691.308 375.507C688.67 374.622 674.223 373.559 674.321 375.559C674.432 377.701 683.728 377.578 684.588 378.632C685.447 379.685 686.643 387.888 689.892 388.697C693.135 389.506 699.858 391.9 699.858 391.9L729.782 407.361L726.594 391.901L701.561 384.017Z" fill="url(#paint14_linear)"/>
<path fill-rule="evenodd" clip-rule="evenodd" d="M724.481 351.731C733.558 364.542 741.308 384.056 744.283 391.664C747.257 399.272 744.257 410.747 731.176 408.494C729.619 408.226 727.085 407.24 727.085 407.24C722.276 400.647 721.433 394.987 723.228 389.947L724.92 390.661C724.92 390.661 711.919 367.617 708.744 361.439C703.442 351.122 716.486 340.444 724.481 351.731Z" fill="#EA5455"/>
<path fill-rule="evenodd" clip-rule="evenodd" d="M724.919 390.661C724.919 390.661 731.523 393.886 730.692 392.468C729.862 391.049 722.404 386.182 722.404 386.182L724.919 390.661Z" fill="black" fill-opacity="0.159856"/>
<path fill-rule="evenodd" clip-rule="evenodd" d="M586.966 348.045C586.637 346.724 587.44 345.387 588.761 345.058L612.23 339.206C613.551 338.877 614.888 339.68 615.217 341.001L623.739 375.181C624.068 376.501 623.265 377.839 621.945 378.168L598.475 384.019C597.155 384.349 595.817 383.545 595.488 382.225L586.966 348.045Z" fill="url(#paint15_linear)"/>
<path fill-rule="evenodd" clip-rule="evenodd" d="M587.882 348.595C587.553 347.275 588.357 345.938 589.677 345.608L613.146 339.757C614.467 339.428 615.804 340.231 616.133 341.552L624.655 375.732C624.984 377.052 624.181 378.389 622.861 378.719L599.391 384.57C598.071 384.899 596.733 384.096 596.404 382.775L587.882 348.595Z" fill="#518DF8"/>
<path d="M588.883 348.896C588.587 347.708 589.31 346.504 590.498 346.208L612.57 340.705C613.759 340.408 614.962 341.132 615.259 342.32L622.964 373.223C623.26 374.411 622.537 375.615 621.348 375.911L599.276 381.414C598.088 381.71 596.884 380.987 596.588 379.799L588.883 348.896Z" fill="white"/>
<path fill-rule="evenodd" clip-rule="evenodd" d="M384.205 397.871H395.622V542.751H384.205V397.871Z" fill="#E9E9E9"/>
<path fill-rule="evenodd" clip-rule="evenodd" d="M272.375 402.634H362.564V429.542H287.403V542.751H272.375V402.634Z" fill="#D3D3D3"/>
<path fill-rule="evenodd" clip-rule="evenodd" d="M271.791 402.634H279.791V542.751H271.791V402.634Z" fill="#DBDBDB"/>
<path fill-rule="evenodd" clip-rule="evenodd" d="M664.43 402.634H680.43V542.751H664.43V402.634Z" fill="#E9E9E9"/>
<path fill-rule="evenodd" clip-rule="evenodd" d="M664.43 397.871H674.43V542.751H664.43V397.871Z" fill="#DBDBDB"/>
<path fill-rule="evenodd" clip-rule="evenodd" d="M532.006 402.634H671.006V429.19H550.713V542.751H532.006V402.634Z" fill="#D3D3D3"/>
<path fill-rule="evenodd" clip-rule="evenodd" d="M283.59 397.871H532.479V438.101H283.59V397.871Z" fill="#DBDBDB"/>
<path fill-rule="evenodd" clip-rule="evenodd" d="M526.771 402.634H538.188V438.101H526.771V402.634Z" fill="#E9E9E9"/>
<path fill-rule="evenodd" clip-rule="evenodd" d="M532.041 402.634H541.041V542.751H532.041V402.634Z" fill="#DBDBDB"/>
<path fill-rule="evenodd" clip-rule="evenodd" d="M533.477 405.015C533.477 401.07 536.675 397.871 540.62 397.871H685.746C689.691 397.871 692.889 401.07 692.889 405.015C692.889 408.96 689.691 412.158 685.746 412.158H540.62C536.675 412.158 533.477 408.96 533.477 405.015Z" fill="#E9E9E9"/>
<path fill-rule="evenodd" clip-rule="evenodd" d="M280.736 400.729H529.626V415.016H280.736V400.729Z" fill="#E9E9E9"/>
<path fill-rule="evenodd" clip-rule="evenodd" d="M259.805 405.015C259.805 401.07 263.003 397.871 266.948 397.871H543.412C547.358 397.871 550.556 401.07 550.556 405.015C550.556 408.96 547.358 412.158 543.412 412.158H266.948C263.003 412.158 259.805 408.96 259.805 405.015Z" fill="#DBDBDB"/>
<path fill-rule="evenodd" clip-rule="evenodd" d="M304.388 507.181L296.49 532.824L313.057 533.425C313.057 533.425 311.186 524.653 313.857 516.43C316 509.829 317.748 506.535 317.748 506.535L304.388 507.181Z" fill="#92691F"/>
<path fill-rule="evenodd" clip-rule="evenodd" d="M312.622 526.378C312.622 526.378 318.945 532.238 325.026 534.409C331.107 536.58 333.435 536.604 333.868 537.421L333.947 537.577C335.198 540.159 334.439 543.589 320.578 543.779C317.209 543.825 313.706 541.868 304.408 539.797L303.736 543.417C298.532 543.348 295.496 542.528 294.627 540.956C293.317 538.605 295.543 527.011 297.079 526.791C298.614 526.571 298.918 531.287 303.041 531.39C307.17 531.493 312.622 526.378 312.622 526.378Z" fill="#391B0B"/>
<path fill-rule="evenodd" clip-rule="evenodd" d="M324.88 534.356C324.692 534.519 324.465 534.691 324.199 534.854C323.275 535.421 321.882 535.872 320.01 535.445C319.058 535.227 317.998 534.619 316.956 533.852C315.909 533.082 314.86 532.137 313.927 531.221C312.994 530.305 312.174 529.416 311.589 528.755C311.295 528.425 311.061 528.152 310.899 527.961C310.873 527.931 310.849 527.903 310.828 527.877C310.965 527.771 311.097 527.668 311.222 527.568C311.24 527.59 311.259 527.613 311.28 527.638C311.44 527.826 311.672 528.096 311.963 528.424C312.543 529.078 313.355 529.959 314.277 530.865C315.201 531.771 316.232 532.699 317.252 533.449C318.278 534.204 319.272 534.763 320.121 534.957C321.852 535.352 323.111 534.935 323.938 534.428C324.086 534.337 324.221 534.243 324.342 534.15C324.521 534.222 324.7 534.291 324.88 534.356Z" fill="#81411E"/>
<path fill-rule="evenodd" clip-rule="evenodd" d="M266.629 426.913C266.629 426.913 332.422 432.174 341.487 432.455C350.552 432.735 357.478 445.674 350.458 457.617C342.574 471.024 321.153 509.621 316.965 518.545C313.423 526.09 297.325 522.998 300.222 511.473C303.681 497.679 310.126 466.733 323.895 454.558C323.895 454.558 290.408 466.699 271.546 454.924C260.785 448.207 266.629 426.913 266.629 426.913Z" fill="#7A3636"/>
<path fill-rule="evenodd" clip-rule="evenodd" d="M350.46 457.617L349.434 459.376C345.444 466.272 339.001 477.923 332.85 489.27L333.173 488.231C337.931 473.092 345.322 455.258 348.482 449.817C349.59 447.91 351.098 445.966 353.006 443.985C353.816 448.14 353.201 452.954 350.46 457.617Z" fill="white" fill-opacity="0.192499"/>
<path fill-rule="evenodd" clip-rule="evenodd" d="M375.989 507.48C375.989 507.48 380.387 527.038 386.112 529.131C388.316 529.937 369.22 532.238 369.22 532.238L364.426 513.474L375.989 507.48Z" fill="#92691F"/>
<path fill-rule="evenodd" clip-rule="evenodd" d="M366.462 525.631L366.143 542.142L372.725 542.192L372.792 538.48C372.792 538.48 377.922 541.556 381.396 542.638C386.068 544.097 404.527 543.333 406.612 541.11C408.698 538.877 408.743 535.324 404.461 534.887C400.18 534.451 393.1 533.151 390.052 530.818C386.365 528.007 384.962 523.547 383.891 523.543C382.252 523.537 382.125 528.784 373.806 528.858C370.639 528.886 366.462 525.631 366.462 525.631Z" fill="#391B0B"/>
<path fill-rule="evenodd" clip-rule="evenodd" d="M382.188 525.015C382.188 525.015 386.433 531.639 388.956 532.598C391.48 533.547 393.513 532.482 393.513 532.482C393.513 532.482 389.161 530.748 387.48 527.722C383.673 520.867 382.911 524.354 382.188 525.015Z" fill="#81411E"/>
<path fill-rule="evenodd" clip-rule="evenodd" d="M272.076 432.228C272.076 432.228 271.984 453.248 286.107 458.532C300.231 463.815 346.221 461.827 346.221 461.827C346.221 461.827 360.815 515.525 364.312 520.755C367.809 525.986 384.391 526.527 383.494 514.481C382.591 502.435 376.12 457.713 374.868 447.107C373.623 436.5 369.691 433.96 358.209 432.06C354.173 431.392 355.886 430.322 329.942 429.107C324.37 428.846 315.021 430.932 306.43 431.877C297.838 432.822 272.076 432.228 272.076 432.228Z" fill="#7A3636"/>
<path fill-rule="evenodd" clip-rule="evenodd" d="M317.979 432.681V430.24L319.129 430.068C323.311 429.447 327.113 428.975 329.942 429.107L332.925 429.252C355.758 430.407 354.335 431.419 358.209 432.06L358.955 432.186C369.618 434.033 373.476 436.614 374.782 446.419L375.148 449.37C376.876 462.962 382.646 503.158 383.495 514.481C383.562 515.387 383.531 516.222 383.413 516.99L380.052 500.062C375.098 474.966 372.322 460.096 371.724 455.452L371.599 454.487C370.48 446.244 367.552 436.016 358.103 436.683L357.287 436.752C350.634 437.258 338.018 435.982 319.438 432.923L317.979 432.681Z" fill="white" fill-opacity="0.192499"/>
<path d="M383.834 455.356C385.866 455.825 388.179 453.32 389.001 449.761C389.822 446.202 388.841 442.937 386.81 442.468C384.778 441.999 382.465 444.504 381.643 448.063C380.821 451.622 381.802 454.887 383.834 455.356Z" fill="white" fill-opacity="0.192499"/>
<path fill-rule="evenodd" clip-rule="evenodd" d="M282.263 404.315C282.263 404.315 297.654 407.878 297.498 409.276C297.345 410.682 290.569 410.898 290.569 410.898C290.569 410.898 303.095 418.987 302.098 420.565C301.101 422.143 292.934 423.921 289.545 422.648C286.154 421.375 277.367 412.112 277.367 412.112L282.263 404.315Z" fill="url(#paint16_linear)"/>
<path fill-rule="evenodd" clip-rule="evenodd" d="M282.402 358.716C277.247 365.078 259.669 384.513 259.669 384.513C259.669 384.513 277.247 397.032 281.673 399.681C288.931 404.021 281.55 415.536 276.227 414.257C269.014 412.52 250.806 399.959 242.25 394.875C233.695 389.792 236.968 381.584 243.298 374.095C248.161 368.342 258.731 356.557 266.168 346.211C273.568 335.917 292.406 346.37 282.402 358.716Z" fill="#EA5455"/>
<path fill-rule="evenodd" clip-rule="evenodd" d="M259.67 384.513C259.67 384.513 254.721 389.281 255.235 389.65C255.75 390.019 261.713 385.979 261.713 385.979L259.67 384.513Z" fill="black" fill-opacity="0.159856"/>
<path fill-rule="evenodd" clip-rule="evenodd" d="M313.094 312.007C317.417 312.48 317.11 320.089 311.848 320.486C310.772 327.821 306.937 331.315 302.26 331.719L302.519 342.813L281.834 342.801C281.834 342.801 287.659 334.964 287.369 324.235C287.078 313.506 287.563 303.427 287.563 303.427L314.356 303.908L313.094 312.007Z" fill="url(#paint17_linear)"/>
<path fill-rule="evenodd" clip-rule="evenodd" d="M304.63 291.313C320.567 295.336 313.992 312.328 313.992 312.328C309.177 311.671 304.543 317.514 302.786 323.244C297.705 328.467 291.124 328.458 286.748 325.416C286.748 325.416 280.727 306.793 282.696 300.592C284.666 294.391 290.104 287.647 304.63 291.313Z" fill="#2C272E"/>
<path fill-rule="evenodd" clip-rule="evenodd" d="M266.957 345.288C265.526 347.724 264.501 357.536 266.957 396.408C268.229 416.537 262.819 436.376 264.217 445.109C265.615 453.843 275.223 454.886 275.223 454.886L280.826 436.657L283.462 454.886C283.462 454.886 323.196 451.171 326.678 442.125C330.167 433.06 325.785 411.75 324.743 391.683C323.697 371.537 324.482 350.858 322.556 347.724C318.713 341.468 308.821 338.546 302.682 337.61C294.891 336.423 284.833 336.377 278.854 338.273C272.875 340.168 268.388 342.852 266.957 345.288Z" fill="#EA5455"/>
<path fill-rule="evenodd" clip-rule="evenodd" d="M307.385 359.131C310.521 382.265 314.714 398.498 319.964 407.83C322.135 411.688 324.34 413.279 326.58 412.602L326.048 407.475C325.518 402.287 325.015 396.942 324.742 391.683C324.551 388.016 324.422 384.331 324.325 380.737L307.385 359.131Z" fill="black" fill-opacity="0.159856"/>
<path fill-rule="evenodd" clip-rule="evenodd" d="M278.855 338.273C278.493 338.388 278.142 338.507 277.803 338.631C286.388 342.374 300.563 341.874 308.269 338.825C306.261 338.258 304.336 337.862 302.683 337.61C294.892 336.423 284.835 336.377 278.855 338.273Z" fill="#E5AA41"/>
<path fill-rule="evenodd" clip-rule="evenodd" d="M384.154 379.168C384.154 379.168 396.939 370.633 399.198 368.919C401.45 367.212 404.277 354.268 402.525 352.452C401.679 351.574 395.283 357.486 394.142 358.278C393.008 359.062 387.209 362.556 387.209 362.556C387.209 362.556 388.85 352.649 387.437 351.85C386.392 351.268 384.301 353.818 384.022 356.513C383.742 359.208 380.835 362.723 380.46 366.813C380.29 368.6 378.531 372.013 378.531 372.013L384.154 379.168Z" fill="url(#paint18_linear)"/>
<path fill-rule="evenodd" clip-rule="evenodd" d="M308.013 362.801C312.912 372.98 321.232 387.863 325.802 396.589C331.21 406.915 337.654 411.29 350.651 403.628C361.536 397.211 377.232 386.89 385.342 381.281C392.889 376.061 383.968 363.175 376.838 367.529C367.38 373.297 343.192 384.728 343.192 384.728C343.192 384.728 330.745 361.991 325.577 351.075C319.003 337.201 298.532 343.101 308.013 362.801Z" fill="#EA5455"/>
<path fill-rule="evenodd" clip-rule="evenodd" d="M343.193 384.728C343.193 384.728 345.469 392.744 346.006 392.428C346.543 392.111 345.629 383.579 345.629 383.579L343.193 384.728Z" fill="black" fill-opacity="0.159856"/>
<path fill-rule="evenodd" clip-rule="evenodd" d="M292.769 463.221L281.326 544.179L287.326 544.1L298.769 464.067L292.769 463.221Z" fill="#BFE7FF"/>
<path fill-rule="evenodd" clip-rule="evenodd" d="M330.931 463.221L342.374 544.179L336.375 544.1L324.932 464.067L330.931 463.221Z" fill="#91D6FF"/>
<path fill-rule="evenodd" clip-rule="evenodd" d="M257.884 463.221L246.441 544.179L252.441 544.1L263.884 464.067L257.884 463.221Z" fill="#BFE7FF"/>
<path fill-rule="evenodd" clip-rule="evenodd" d="M335.307 467.983C340.523 467.983 344.752 463.754 344.752 458.538C344.752 453.321 340.523 449.093 335.307 449.093H297.544C291.823 449.093 287.041 444.739 286.505 439.043L280.467 374.85C279.931 369.153 275.149 364.8 269.428 364.8H245.728C239.269 364.8 234.178 370.298 234.672 376.738L240.897 457.744C241.341 463.522 246.158 467.983 251.952 467.983H335.307Z" fill="#BFE7FF"/>
<path fill-rule="evenodd" clip-rule="evenodd" d="M344.75 458.457C344.698 458.458 344.646 458.458 344.594 458.458H292.611C286.818 458.458 282.001 453.998 281.556 448.222L275.248 366.363C278.192 368.121 280.266 371.21 280.609 374.847L286.642 438.806C287.18 444.501 291.961 448.853 297.681 448.853H335.331C340.534 448.853 344.752 453.071 344.752 458.274C344.752 458.335 344.751 458.396 344.75 458.457Z" fill="#91D6FF"/>
<path fill-rule="evenodd" clip-rule="evenodd" d="M558.983 396.543C558.983 396.13 558.649 395.796 558.237 395.796H474.101C473.688 395.796 473.354 396.13 473.354 396.543V397.639C473.354 398.052 473.688 398.386 474.101 398.386H558.237C558.649 398.386 558.983 398.052 558.983 397.639V396.543Z" fill="url(#paint19_linear)"/>
<path fill-rule="evenodd" clip-rule="evenodd" d="M558.99 396.543C558.99 396.13 558.656 395.796 558.244 395.796H525.917C525.505 395.796 525.17 396.13 525.17 396.543V397.639C525.17 398.052 525.505 398.386 525.917 398.386H558.244C558.656 398.386 558.99 398.052 558.99 397.639V396.543Z" fill="#518DF8"/>
<path fill-rule="evenodd" clip-rule="evenodd" d="M565.095 360.353C565.37 358.201 563.694 356.296 561.524 356.296H505.713C503.901 356.296 502.372 357.642 502.142 359.439L497.991 391.852C497.715 394.004 499.392 395.909 501.562 395.909H557.373C559.184 395.909 560.714 394.563 560.944 392.766L565.095 360.353Z" fill="#518DF8"/>
<path fill-rule="evenodd" clip-rule="evenodd" d="M563.395 360.353C563.671 358.201 561.994 356.296 559.825 356.296H505.193C503.382 356.296 501.852 357.642 501.622 359.439L497.471 391.852C497.196 394.004 498.872 395.909 501.042 395.909H555.674C557.485 395.909 559.014 394.563 559.245 392.766L563.395 360.353Z" fill="url(#paint20_linear)"/>
<path d="M561.445 361.821C561.693 359.884 560.184 358.17 558.231 358.17H506.473C504.842 358.17 503.466 359.381 503.259 360.999L499.519 390.236C499.271 392.173 500.78 393.887 502.733 393.887H554.491C556.122 393.887 557.498 392.675 557.705 391.058L561.445 361.821Z" fill="white"/>
<path fill-rule="evenodd" clip-rule="evenodd" d="M424.643 406.22C424.643 406.22 438.244 409.393 438.106 410.638C437.971 411.89 431.983 412.082 431.983 412.082C431.983 412.082 443.052 419.285 442.171 420.69C441.29 422.095 434.073 423.678 431.078 422.545C428.081 421.412 420.316 413.164 420.316 413.164L398.529 401.463L405.811 391.859L424.643 406.22Z" fill="url(#paint21_linear)"/>
<path fill-rule="evenodd" clip-rule="evenodd" d="M424.768 365.617C420.212 371.282 404.679 388.587 404.679 388.587L407.745 390.888L397.773 402.985C397.773 402.985 391.405 399.083 389.286 397.815C381.725 393.288 384.618 385.98 390.212 379.311C394.509 374.189 403.85 363.695 410.422 354.482C416.962 345.316 433.609 354.623 424.768 365.617Z" fill="#FFB66F"/>
<path fill-rule="evenodd" clip-rule="evenodd" d="M404.679 388.587C404.679 388.587 400.305 392.833 400.76 393.162C401.215 393.491 406.484 389.893 406.484 389.893L404.679 388.587Z" fill="black" fill-opacity="0.159856"/>
<path fill-rule="evenodd" clip-rule="evenodd" d="M407.127 389.623L394.129 402.491L400.628 406.744L409.557 391.459L407.127 389.623Z" fill="#FFEDC2"/>
<path fill-rule="evenodd" clip-rule="evenodd" d="M448.635 505.233L441.604 527.882L453.422 528.413C453.422 528.413 451.756 520.665 454.134 513.403C456.041 507.572 457.598 504.663 457.598 504.663L448.635 505.233Z" fill="url(#paint22_linear)"/>
<path fill-rule="evenodd" clip-rule="evenodd" d="M453.518 521.78C453.518 521.78 453.271 527.546 455.285 529.369C457.298 531.19 467.978 537.917 468.873 539.272C469.768 540.628 468.455 542.283 468.455 542.283C468.455 542.283 457.551 543.993 452.407 541.354C448.694 539.448 446.041 537.891 446.041 537.891L444.901 540.82L438.947 539.965C438.947 539.965 437.112 535.316 437.9 533.004C438.689 530.692 442.758 519.889 442.758 519.889L453.518 521.78Z" fill="#391B0B"/>
<path fill-rule="evenodd" clip-rule="evenodd" d="M414.247 428.031C423.136 428.898 466.92 439.326 475.935 441.178C484.95 443.03 492.572 453.051 485.698 464.654C477.976 477.679 456.149 518.158 456.149 518.158C456.014 518.191 455.882 518.249 455.746 518.249C451.306 518.249 447.348 517.641 443.537 514.985C443.537 514.985 449.328 472.54 462.811 460.712C462.811 460.712 427.993 473.231 410.581 459.571C400.309 451.513 404.451 427.075 414.247 428.031Z" fill="#33373E"/>
<path fill-rule="evenodd" clip-rule="evenodd" d="M482.573 444.255L480.182 474.278C480.379 473.928 480.574 473.582 480.766 473.24L483.044 444.637C482.89 444.506 482.733 444.379 482.573 444.255Z" fill="white" fill-opacity="0.192499"/>
<path fill-rule="evenodd" clip-rule="evenodd" d="M514.094 503.444C514.094 503.444 517.971 520.714 523.016 522.562C524.959 523.273 511.03 525.305 511.03 525.305L506.805 508.737L514.094 503.444Z" fill="url(#paint23_linear)"/>
<path fill-rule="evenodd" clip-rule="evenodd" d="M509.256 520.544L512.934 542.165L519.31 541.157L518.523 535.811C518.523 535.811 521.319 540.468 524.438 540.267C527.566 540.065 543.208 537.707 543.208 537.707C543.208 537.707 543.56 532.529 536.365 531.346C530.38 530.363 520.175 518.809 520.175 518.809L509.256 520.544Z" fill="#391B0B"/>
<path fill-rule="evenodd" clip-rule="evenodd" d="M421.706 425.171C421.706 425.171 408.874 452.35 426.907 461.682C444.346 470.707 490.75 459.063 490.75 459.063C490.75 459.063 489.817 466.596 490.75 473.314C493.186 490.861 505.168 512.449 506.258 516.007C506.807 517.798 520.171 515.151 520.171 513.026C520.171 510.901 513.353 462.537 512.139 452.236C510.932 441.934 507.12 440.438 495.988 437.622C493.43 436.975 460.284 429.436 457.513 429.656C433.707 431.544 421.706 425.171 421.706 425.171Z" fill="#42474F"/>
<path fill-rule="evenodd" clip-rule="evenodd" d="M457.513 429.656C460.284 429.436 493.43 436.975 495.988 437.622L497.815 438.091C507.311 440.575 510.83 442.428 512.053 451.547L512.382 454.165C513.384 461.804 516.092 479.769 518.235 494.725C515.817 489.228 513.816 483.129 512.232 476.427C508.54 460.808 509.33 447.982 508.339 445.736C507.347 443.49 458.859 436.32 450.528 434.84C446.901 434.196 444.856 432.599 444.391 430.048C448.417 430.161 452.791 430.031 457.513 429.656Z" fill="white" fill-opacity="0.192499"/>
<path fill-rule="evenodd" clip-rule="evenodd" d="M451.203 320.877C455.055 321.299 454.782 328.08 450.093 328.434C449.135 334.97 445.717 338.084 441.55 338.444L441.781 348.331L423.348 348.32C423.348 348.32 428.539 341.336 428.28 331.775C428.021 322.213 428.454 313.231 428.454 313.231L452.328 313.66L451.203 320.877Z" fill="url(#paint24_linear)"/>
<path fill-rule="evenodd" clip-rule="evenodd" d="M452.042 321.385C447.555 319.609 444.241 327.257 440.808 332.573C437.375 337.888 428.482 336.985 427.256 332.573C422.615 322.908 418.616 309.769 424.031 308.691C424.794 294.723 461.308 298.021 452.042 321.385Z" fill="#9E5229"/>
<path fill-rule="evenodd" clip-rule="evenodd" d="M427.018 303.156H434.931H435.042L435.117 303.239C442.146 311.095 443.72 322.664 440.435 333.099C440.181 333.427 439.905 333.727 439.609 334.001C443.288 323.471 441.879 311.618 434.818 303.656H426.43C426.617 303.483 426.813 303.316 427.018 303.156Z" fill="black" fill-opacity="0.199355"/>
<path d="M431.867 307.812C429.436 307.812 427.466 305.839 427.466 303.406C427.466 300.972 429.436 299 431.867 299C434.297 299 436.268 300.972 436.268 303.406C436.268 305.839 434.297 307.812 431.867 307.812Z" fill="#FB9934"/>
<path fill-rule="evenodd" clip-rule="evenodd" d="M455.71 350.001C459.79 355.987 466.591 376.303 466.977 380.873C467.411 386.145 461.751 394.544 461.658 402.176C461.576 409.809 465.88 428.915 464.587 431.062C463.303 433.209 420.69 445.621 418.29 444.601C415.889 443.581 407.602 432.581 409.496 428.111C411.4 423.64 419.266 413.5 418.365 407.408C417.476 401.318 412.308 378.836 409.742 371.184C407.186 363.532 408.038 355.499 412.808 352.206C415.169 350.577 421.467 345.948 432.683 345.97C443.899 345.991 455.393 349.537 455.71 350.001Z" fill="#FF9F43"/>
<path fill-rule="evenodd" clip-rule="evenodd" d="M464.858 375.966L445.303 361.916L445.309 364.483C445.381 380.33 446.379 388.725 462.976 414.695L462.592 412.048C462.051 408.206 461.632 404.608 461.659 402.176C461.717 397.361 463.992 392.241 465.554 387.793L464.858 375.966Z" fill="black" fill-opacity="0.159856"/>
<path fill-rule="evenodd" clip-rule="evenodd" d="M443.044 345.532C443.044 345.532 443.516 348.106 441.45 348.106C439.383 348.106 425.523 348.562 423.646 347.748C421.77 346.934 422.333 345.532 422.333 345.532H443.044Z" fill="#FFF6E1"/>
<path fill-rule="evenodd" clip-rule="evenodd" d="M512.124 380.861C512.124 380.861 523.41 373.328 525.405 371.815C527.393 370.309 529.887 358.885 528.341 357.283C527.594 356.507 521.947 361.725 520.94 362.424C519.94 363.116 514.82 366.2 514.82 366.2C514.82 366.2 516.268 357.456 515.021 356.751C514.098 356.238 512.254 358.488 512.007 360.866C511.76 363.245 509.194 366.347 508.862 369.956C508.713 371.533 508.129 373.577 508.129 373.577L476.812 387.025L480.09 401.648L512.124 380.861Z" fill="url(#paint25_linear)"/>
<path fill-rule="evenodd" clip-rule="evenodd" d="M444.908 366.415C449.232 375.4 456.578 388.534 460.612 396.235C465.386 405.349 471.075 409.21 482.549 402.447C483.892 401.656 486.797 399.892 486.797 399.892L479.693 384.12L475.965 385.767C475.965 385.767 464.976 365.701 460.414 356.067C454.61 343.822 436.538 349.029 444.908 366.415Z" fill="#FFB66F"/>
<path fill-rule="evenodd" clip-rule="evenodd" d="M475.965 385.768C475.965 385.768 477.974 392.842 478.449 392.563C478.923 392.283 478.116 384.753 478.116 384.753L475.965 385.768Z" fill="black" fill-opacity="0.159856"/>
<path fill-rule="evenodd" clip-rule="evenodd" d="M479.592 383.423L484.54 403.058L491.901 399.077L482.241 381.894L479.592 383.423Z" fill="#FFEDC2"/>
<path fill-rule="evenodd" clip-rule="evenodd" d="M432.339 300.15C432.339 300.15 428.191 294.84 423.401 296.233C418.61 297.626 414.277 306.165 416.334 314.191C418.381 322.219 416.693 326.797 414.21 332.207C407.538 346.76 430.636 356 430.636 356C430.636 356 428.834 345.217 432.339 338.705C435.95 331.999 438 323.399 438 318.137C438 308.986 432.339 300.15 432.339 300.15Z" fill="#9E5229"/>
<path fill-rule="evenodd" clip-rule="evenodd" d="M431.656 463.221L443.099 544.179L437.099 544.1L425.656 464.067L431.656 463.221Z" fill="#91D6FF"/>
<path fill-rule="evenodd" clip-rule="evenodd" d="M464.954 463.221L476.397 544.179L470.398 544.1L458.955 464.067L464.954 463.221Z" fill="#91D6FF"/>
<path fill-rule="evenodd" clip-rule="evenodd" d="M391.91 463.221L380.467 544.179L386.466 544.1L397.909 464.067L391.91 463.221Z" fill="#BFE7FF"/>
<path fill-rule="evenodd" clip-rule="evenodd" d="M469.331 467.983C474.548 467.983 478.776 463.754 478.776 458.538C478.776 453.321 474.548 449.093 469.331 449.093H431.569C425.847 449.093 421.065 444.739 420.53 439.043L414.492 374.85C413.956 369.153 409.174 364.8 403.452 364.8H379.752C373.294 364.8 368.202 370.298 368.697 376.738L374.921 457.744C375.365 463.522 380.182 467.983 385.977 467.983H469.331Z" fill="#BFE7FF"/>
<path fill-rule="evenodd" clip-rule="evenodd" d="M478.775 458.457C478.723 458.458 478.671 458.458 478.618 458.458H426.635C420.842 458.458 416.025 453.998 415.58 448.222L409.273 366.363C412.217 368.121 414.291 371.21 414.634 374.847L420.667 438.806C421.204 444.501 425.985 448.853 431.706 448.853H469.356C474.559 448.853 478.776 453.071 478.776 458.274C478.776 458.335 478.776 458.396 478.775 458.457Z" fill="#91D6FF"/>
<defs>
<filter id="filter0_d" x="70.8555" y="85.0081" width="191.801" height="107.428" filterUnits="userSpaceOnUse" color-interpolation-filters="sRGB">
<feFlood flood-opacity="0" result="BackgroundImageFix"/>
<feColorMatrix in="SourceAlpha" type="matrix" values="0 0 0 0 0 0 0 0 0 0 0 0 0 0 0 0 0 0 127 0"/>
<feOffset dx="8" dy="9"/>
<feGaussianBlur stdDeviation="14"/>
<feColorMatrix type="matrix" values="0 0 0 0 0.0862745 0 0 0 0 0.113725 0 0 0 0 0.192157 0 0 0 0.7 0"/>
<feBlend mode="normal" in2="BackgroundImageFix" result="effect1_dropShadow"/>
<feBlend mode="normal" in="SourceGraphic" in2="effect1_dropShadow" result="shape"/>
</filter>
<filter id="filter1_d" x="70.8555" y="143.592" width="224.949" height="198.679" filterUnits="userSpaceOnUse" color-interpolation-filters="sRGB">
<feFlood flood-opacity="0" result="BackgroundImageFix"/>
<feColorMatrix in="SourceAlpha" type="matrix" values="0 0 0 0 0 0 0 0 0 0 0 0 0 0 0 0 0 0 127 0"/>
<feOffset dx="8" dy="9"/>
<feGaussianBlur stdDeviation="14"/>
<feColorMatrix type="matrix" values="0 0 0 0 0.0862745 0 0 0 0 0.113725 0 0 0 0 0.192157 0 0 0 0.7 0"/>
<feBlend mode="normal" in2="BackgroundImageFix" result="effect1_dropShadow"/>
<feBlend mode="normal" in="SourceGraphic" in2="effect1_dropShadow" result="shape"/>
</filter>
<filter id="filter2_d" x="96.5059" y="204.89" width="161.425" height="97.3125" filterUnits="userSpaceOnUse" color-interpolation-filters="sRGB">
<feFlood flood-opacity="0" result="BackgroundImageFix"/>
<feColorMatrix in="SourceAlpha" type="matrix" values="0 0 0 0 0 0 0 0 0 0 0 0 0 0 0 0 0 0 127 0"/>
<feOffset dy="13"/>
<feGaussianBlur stdDeviation="7.5"/>
<feColorMatrix type="matrix" values="0 0 0 0 0 0 0 0 0 0 0 0 0 0 0 0 0 0 0.144395 0"/>
<feBlend mode="normal" in2="BackgroundImageFix" result="effect1_dropShadow"/>
<feBlend mode="normal" in="SourceGraphic" in2="effect1_dropShadow" result="shape"/>
</filter>
<filter id="filter3_d" x="276.232" y="107.237" width="272.182" height="197.484" filterUnits="userSpaceOnUse" color-interpolation-filters="sRGB">
<feFlood flood-opacity="0" result="BackgroundImageFix"/>
<feColorMatrix in="SourceAlpha" type="matrix" values="0 0 0 0 0 0 0 0 0 0 0 0 0 0 0 0 0 0 127 0"/>
<feOffset dx="6" dy="6"/>
<feGaussianBlur stdDeviation="8"/>
<feColorMatrix type="matrix" values="0 0 0 0 0.0862745 0 0 0 0 0.113725 0 0 0 0 0.192157 0 0 0 0.7 0"/>
<feBlend mode="normal" in2="BackgroundImageFix" result="effect1_dropShadow"/>
<feBlend mode="normal" in="SourceGraphic" in2="effect1_dropShadow" result="shape"/>
</filter>
<linearGradient id="paint0_linear" x1="554.833" y1="313.939" x2="543.753" y2="363.416" gradientUnits="userSpaceOnUse">
<stop stop-color="#FFAFAF"/>
<stop offset="1" stop-color="#F07777"/>
</linearGradient>
<linearGradient id="paint1_linear" x1="553.973" y1="304.545" x2="547.325" y2="337.064" gradientUnits="userSpaceOnUse">
<stop stop-color="#FDC6C6"/>
<stop offset="1" stop-color="#FAB2B2"/>
</linearGradient>
<linearGradient id="paint2_linear" x1="506.963" y1="507.352" x2="505.37" y2="537.133" gradientUnits="userSpaceOnUse">
<stop stop-color="#FDC6C6"/>
<stop offset="1" stop-color="#FAB2B2"/>
</linearGradient>
<linearGradient id="paint3_linear" x1="475.89" y1="545.704" x2="427.815" y2="453.427" gradientUnits="userSpaceOnUse">
<stop stop-color="#28324F"/>
<stop offset="1" stop-color="#222735"/>
</linearGradient>
<linearGradient id="paint4_linear" x1="470.771" y1="342.915" x2="468.619" y2="371.518" gradientUnits="userSpaceOnUse">
<stop stop-color="#FDC6C6"/>
<stop offset="1" stop-color="#FAB2B2"/>
</linearGradient>
<linearGradient id="paint5_linear" x1="549.735" y1="372.46" x2="549.104" y2="390.93" gradientUnits="userSpaceOnUse">
<stop stop-color="#FDC6C6"/>
<stop offset="1" stop-color="#FAB2B2"/>
</linearGradient>
<linearGradient id="paint6_linear" x1="242.334" y1="204.269" x2="232.445" y2="205.194" gradientUnits="userSpaceOnUse">
<stop stop-color="#4D63A0"/>
<stop offset="1" stop-color="#222735"/>
</linearGradient>
<linearGradient id="paint7_linear" x1="127.011" y1="403.433" x2="127.011" y2="419.998" gradientUnits="userSpaceOnUse">
<stop stop-color="#FE62BE"/>
<stop offset="1" stop-color="#FDB3A8"/>
</linearGradient>
<linearGradient id="paint8_linear" x1="103.292" y1="390.795" x2="105.023" y2="407.27" gradientUnits="userSpaceOnUse">
<stop stop-color="#FE62BE"/>
<stop offset="1" stop-color="#FDB3A8"/>
</linearGradient>
<linearGradient id="paint9_linear" x1="664.726" y1="505.858" x2="663.13" y2="535.708" gradientUnits="userSpaceOnUse">
<stop stop-color="#FDC6C6"/>
<stop offset="1" stop-color="#FAB2B2"/>
</linearGradient>
<linearGradient id="paint10_linear" x1="660.096" y1="333.529" x2="655.856" y2="394.079" gradientUnits="userSpaceOnUse">
<stop stop-color="#FDC6C6"/>
<stop offset="1" stop-color="#FAB2B2"/>
</linearGradient>
<linearGradient id="paint11_linear" x1="714.443" y1="309.528" x2="703.218" y2="359.065" gradientUnits="userSpaceOnUse">
<stop stop-color="#FFAFAF"/>
<stop offset="1" stop-color="#F07777"/>
</linearGradient>
<linearGradient id="paint12_linear" x1="713.685" y1="300.112" x2="707.025" y2="332.709" gradientUnits="userSpaceOnUse">
<stop stop-color="#FDC6C6"/>
<stop offset="1" stop-color="#FAB2B2"/>
</linearGradient>
<linearGradient id="paint13_linear" x1="629.449" y1="507.061" x2="627.888" y2="540.334" gradientUnits="userSpaceOnUse">
<stop stop-color="#FDC6C6"/>
<stop offset="1" stop-color="#FAB2B2"/>
</linearGradient>
<linearGradient id="paint14_linear" x1="739.379" y1="366.401" x2="737.872" y2="405.785" gradientUnits="userSpaceOnUse">
<stop stop-color="#FDC6C6"/>
<stop offset="1" stop-color="#FAB2B2"/>
</linearGradient>
<linearGradient id="paint15_linear" x1="586.22" y1="336.275" x2="598.145" y2="384.102" gradientUnits="userSpaceOnUse">
<stop stop-color="#9FF6EC"/>
<stop offset="1" stop-color="#7D9DFF"/>
</linearGradient>
<linearGradient id="paint16_linear" x1="291.949" y1="392.304" x2="303.7" y2="418.424" gradientUnits="userSpaceOnUse">
<stop stop-color="#FDC6C6"/>
<stop offset="1" stop-color="#A47070"/>
</linearGradient>
<linearGradient id="paint17_linear" x1="322.016" y1="293.839" x2="318.54" y2="340.739" gradientUnits="userSpaceOnUse">
<stop stop-color="#FDC6C6"/>
<stop offset="1" stop-color="#A47070"/>
</linearGradient>
<linearGradient id="paint18_linear" x1="407.318" y1="345.096" x2="404.968" y2="377.735" gradientUnits="userSpaceOnUse">
<stop stop-color="#FDC6C6"/>
<stop offset="1" stop-color="#A47070"/>
</linearGradient>
<linearGradient id="paint19_linear" x1="552.739" y1="395.207" x2="552.739" y2="398.386" gradientUnits="userSpaceOnUse">
<stop stop-color="#9FF6EC"/>
<stop offset="1" stop-color="#7D9DFF"/>
</linearGradient>
<linearGradient id="paint20_linear" x1="559.032" y1="347.282" x2="559.032" y2="395.909" gradientUnits="userSpaceOnUse">
<stop stop-color="#9FF6EC"/>
<stop offset="1" stop-color="#7D9DFF"/>
</linearGradient>
<linearGradient id="paint21_linear" x1="422.207" y1="370.874" x2="442.752" y2="417.819" gradientUnits="userSpaceOnUse">
<stop stop-color="#FDC6C6"/>
<stop offset="1" stop-color="#FFCCA1"/>
</linearGradient>
<linearGradient id="paint22_linear" x1="460.365" y1="498.881" x2="457.667" y2="527.059" gradientUnits="userSpaceOnUse">
<stop stop-color="#FDC6C6"/>
<stop offset="1" stop-color="#FAB2B2"/>
</linearGradient>
<linearGradient id="paint23_linear" x1="526.039" y1="498.123" x2="523.807" y2="524.105" gradientUnits="userSpaceOnUse">
<stop stop-color="#FDC6C6"/>
<stop offset="1" stop-color="#FAB2B2"/>
</linearGradient>
<linearGradient id="paint24_linear" x1="459.154" y1="304.686" x2="456.056" y2="346.483" gradientUnits="userSpaceOnUse">
<stop stop-color="#FDC6C6"/>
<stop offset="1" stop-color="#FFCCA1"/>
</linearGradient>
<linearGradient id="paint25_linear" x1="537.824" y1="345.73" x2="534.832" y2="399.408" gradientUnits="userSpaceOnUse">
<stop stop-color="#FDC6C6"/>
<stop offset="1" stop-color="#FFCCA1"/>
</linearGradient>
</defs>
</svg>
