<svg width="1280" height="768" viewBox="0 0 1280 768" fill="none" xmlns="http://www.w3.org/2000/svg">
<rect width="1280" height="768" fill="white"/>
<rect x="34" y="33" width="44" height="30" fill="#939393"/>
<path d="M40.4746 51.9268H45.1914V53H39.1553V43.0469H40.4746V51.9268ZM53.8936 48.3447C53.8936 49.32 53.7295 50.1722 53.4014 50.9014C53.0732 51.626 52.6084 52.1797 52.0068 52.5625C51.4053 52.9453 50.7035 53.1367 49.9014 53.1367C49.1175 53.1367 48.4225 52.9453 47.8164 52.5625C47.2103 52.1751 46.7386 51.626 46.4014 50.915C46.0687 50.1995 45.8978 49.3724 45.8887 48.4336V47.7158C45.8887 46.7588 46.055 45.9134 46.3877 45.1797C46.7204 44.446 47.1898 43.8854 47.7959 43.498C48.4066 43.1061 49.1038 42.9102 49.8877 42.9102C50.6852 42.9102 51.387 43.1038 51.9932 43.4912C52.6038 43.874 53.0732 44.4323 53.4014 45.166C53.7295 45.8952 53.8936 46.7451 53.8936 47.7158V48.3447ZM52.5879 47.7021C52.5879 46.5218 52.3509 45.6172 51.877 44.9883C51.403 44.3548 50.7399 44.0381 49.8877 44.0381C49.0583 44.0381 48.4043 44.3548 47.9258 44.9883C47.4518 45.6172 47.208 46.4922 47.1943 47.6133V48.3447C47.1943 49.4886 47.4336 50.3887 47.9121 51.0449C48.3952 51.6966 49.0583 52.0225 49.9014 52.0225C50.749 52.0225 51.4053 51.7148 51.8701 51.0996C52.335 50.4798 52.5742 49.5934 52.5879 48.4404V47.7021ZM63.2109 51.6943C62.8737 52.1774 62.402 52.5397 61.7959 52.7812C61.1943 53.0182 60.4925 53.1367 59.6904 53.1367C58.8792 53.1367 58.1592 52.9476 57.5303 52.5693C56.9014 52.1865 56.4137 51.6442 56.0674 50.9424C55.7256 50.2406 55.5501 49.4271 55.541 48.502V47.6338C55.541 46.1344 55.8896 44.9723 56.5869 44.1475C57.2887 43.3226 58.2731 42.9102 59.54 42.9102C60.5791 42.9102 61.4154 43.1768 62.0488 43.71C62.6823 44.2386 63.0697 44.9906 63.2109 45.9658H61.8984C61.6523 44.6488 60.8685 43.9902 59.5469 43.9902C58.6673 43.9902 57.9997 44.3001 57.5439 44.9199C57.0928 45.5352 56.8649 46.4284 56.8604 47.5996V48.4131C56.8604 49.5296 57.1156 50.4183 57.626 51.0791C58.1364 51.7354 58.8268 52.0635 59.6973 52.0635C60.1895 52.0635 60.6201 52.0088 60.9893 51.8994C61.3584 51.79 61.6637 51.6055 61.9053 51.3457V49.1104H59.6016V48.0439H63.2109V51.6943ZM73.0615 48.3447C73.0615 49.32 72.8975 50.1722 72.5693 50.9014C72.2412 51.626 71.7764 52.1797 71.1748 52.5625C70.5732 52.9453 69.8714 53.1367 69.0693 53.1367C68.2855 53.1367 67.5905 52.9453 66.9844 52.5625C66.3783 52.1751 65.9066 51.626 65.5693 50.915C65.2367 50.1995 65.0658 49.3724 65.0566 48.4336V47.7158C65.0566 46.7588 65.223 45.9134 65.5557 45.1797C65.8883 44.446 66.3577 43.8854 66.9639 43.498C67.5745 43.1061 68.2718 42.9102 69.0557 42.9102C69.8532 42.9102 70.555 43.1038 71.1611 43.4912C71.7718 43.874 72.2412 44.4323 72.5693 45.166C72.8975 45.8952 73.0615 46.7451 73.0615 47.7158V48.3447ZM71.7559 47.7021C71.7559 46.5218 71.5189 45.6172 71.0449 44.9883C70.571 44.3548 69.9079 44.0381 69.0557 44.0381C68.2262 44.0381 67.5723 44.3548 67.0938 44.9883C66.6198 45.6172 66.376 46.4922 66.3623 47.6133V48.3447C66.3623 49.4886 66.6016 50.3887 67.0801 51.0449C67.5632 51.6966 68.2262 52.0225 69.0693 52.0225C69.917 52.0225 70.5732 51.7148 71.0381 51.0996C71.5029 50.4798 71.7422 49.5934 71.7559 48.4404V47.7021Z" fill="black"/>
<path d="M106.327 42.5918H102.214V54H100.535V42.5918H96.4307V41.2031H106.327V42.5918ZM109.737 54H108.111V44.4902H109.737V54ZM107.979 41.9678C107.979 41.7041 108.059 41.4814 108.217 41.2998C108.381 41.1182 108.621 41.0273 108.938 41.0273C109.254 41.0273 109.494 41.1182 109.658 41.2998C109.822 41.4814 109.904 41.7041 109.904 41.9678C109.904 42.2314 109.822 42.4512 109.658 42.627C109.494 42.8027 109.254 42.8906 108.938 42.8906C108.621 42.8906 108.381 42.8027 108.217 42.627C108.059 42.4512 107.979 42.2314 107.979 41.9678ZM113.877 44.4902L113.921 45.5449C114.618 44.7246 115.559 44.3145 116.742 44.3145C118.072 44.3145 118.978 44.8242 119.458 45.8438C119.774 45.3867 120.185 45.0176 120.688 44.7363C121.198 44.4551 121.799 44.3145 122.49 44.3145C124.576 44.3145 125.637 45.4189 125.672 47.6279V54H124.046V47.7246C124.046 47.0449 123.891 46.5381 123.58 46.2041C123.27 45.8643 122.748 45.6943 122.016 45.6943C121.412 45.6943 120.911 45.876 120.513 46.2393C120.114 46.5967 119.883 47.0801 119.818 47.6895V54H118.184V47.7686C118.184 46.3857 117.507 45.6943 116.153 45.6943C115.087 45.6943 114.357 46.1484 113.965 47.0566V54H112.339V44.4902H113.877ZM132.079 54.1758C130.79 54.1758 129.741 53.7539 128.933 52.9102C128.124 52.0605 127.72 50.9268 127.72 49.5088V49.21C127.72 48.2666 127.898 47.4258 128.256 46.6875C128.619 45.9434 129.123 45.3633 129.768 44.9473C130.418 44.5254 131.121 44.3145 131.877 44.3145C133.113 44.3145 134.074 44.7217 134.76 45.5361C135.445 46.3506 135.788 47.5166 135.788 49.0342V49.7109H129.346C129.369 50.6484 129.642 51.4072 130.163 51.9873C130.69 52.5615 131.358 52.8486 132.167 52.8486C132.741 52.8486 133.228 52.7314 133.626 52.4971C134.024 52.2627 134.373 51.9521 134.672 51.5654L135.665 52.3389C134.868 53.5635 133.673 54.1758 132.079 54.1758ZM131.877 45.6504C131.221 45.6504 130.67 45.8906 130.225 46.3711C129.779 46.8457 129.504 47.5137 129.398 48.375H134.162V48.252C134.115 47.4258 133.893 46.7871 133.494 46.3359C133.096 45.8789 132.557 45.6504 131.877 45.6504ZM141.703 48.2959C140.256 47.8799 139.201 47.3701 138.539 46.7666C137.883 46.1572 137.555 45.4072 137.555 44.5166C137.555 43.5088 137.956 42.6768 138.759 42.0205C139.567 41.3584 140.616 41.0273 141.905 41.0273C142.784 41.0273 143.566 41.1973 144.252 41.5371C144.943 41.877 145.477 42.3457 145.852 42.9434C146.232 43.541 146.423 44.1943 146.423 44.9033H144.727C144.727 44.1299 144.48 43.5234 143.988 43.084C143.496 42.6387 142.802 42.416 141.905 42.416C141.073 42.416 140.423 42.6006 139.954 42.9697C139.491 43.333 139.26 43.8398 139.26 44.4902C139.26 45.0117 139.479 45.4541 139.919 45.8174C140.364 46.1748 141.117 46.5029 142.178 46.8018C143.244 47.1006 144.076 47.4316 144.674 47.7949C145.277 48.1523 145.723 48.5713 146.01 49.0518C146.303 49.5322 146.449 50.0977 146.449 50.748C146.449 51.7852 146.045 52.6172 145.236 53.2441C144.428 53.8652 143.347 54.1758 141.993 54.1758C141.114 54.1758 140.294 54.0088 139.532 53.6748C138.771 53.335 138.182 52.8721 137.766 52.2861C137.355 51.7002 137.15 51.0352 137.15 50.291H138.847C138.847 51.0645 139.131 51.6768 139.699 52.1279C140.273 52.5732 141.038 52.7959 141.993 52.7959C142.884 52.7959 143.566 52.6143 144.041 52.251C144.516 51.8877 144.753 51.3926 144.753 50.7656C144.753 50.1387 144.533 49.6553 144.094 49.3154C143.654 48.9697 142.857 48.6299 141.703 48.2959ZM147.935 49.1572C147.935 48.2256 148.116 47.3877 148.479 46.6436C148.849 45.8994 149.358 45.3252 150.009 44.9209C150.665 44.5166 151.412 44.3145 152.25 44.3145C153.545 44.3145 154.591 44.7627 155.388 45.6592C156.19 46.5557 156.592 47.748 156.592 49.2363V49.3506C156.592 50.2764 156.413 51.1084 156.056 51.8467C155.704 52.5791 155.197 53.1504 154.535 53.5605C153.879 53.9707 153.123 54.1758 152.268 54.1758C150.979 54.1758 149.933 53.7275 149.13 52.8311C148.333 51.9346 147.935 50.748 147.935 49.2715V49.1572ZM149.569 49.3506C149.569 50.4053 149.812 51.252 150.299 51.8906C150.791 52.5293 151.447 52.8486 152.268 52.8486C153.094 52.8486 153.75 52.5264 154.236 51.8818C154.723 51.2314 154.966 50.3232 154.966 49.1572C154.966 48.1143 154.717 47.2705 154.219 46.626C153.727 45.9756 153.07 45.6504 152.25 45.6504C151.447 45.6504 150.8 45.9697 150.308 46.6084C149.815 47.2471 149.569 48.1611 149.569 49.3506ZM159.431 54V45.7471H157.928V44.4902H159.431V43.5146C159.431 42.4951 159.703 41.707 160.248 41.1504C160.793 40.5938 161.563 40.3154 162.56 40.3154C162.935 40.3154 163.307 40.3652 163.676 40.4648L163.588 41.7832C163.312 41.7305 163.02 41.7041 162.709 41.7041C162.182 41.7041 161.774 41.8594 161.487 42.1699C161.2 42.4746 161.057 42.9141 161.057 43.4883V44.4902H163.087V45.7471H161.057V54H159.431ZM167.095 42.1875V44.4902H168.87V45.7471H167.095V51.6445C167.095 52.0254 167.174 52.3125 167.332 52.5059C167.49 52.6934 167.76 52.7871 168.141 52.7871C168.328 52.7871 168.586 52.752 168.914 52.6816V54C168.486 54.1172 168.07 54.1758 167.666 54.1758C166.939 54.1758 166.392 53.9561 166.022 53.5166C165.653 53.0771 165.469 52.4531 165.469 51.6445V45.7471H163.737V44.4902H165.469V42.1875H167.095Z" fill="black"/>
<rect x="796" width="484" height="768" fill="#C4C4C4"/>
<path d="M942.805 565H941.485V560.399H936.468V565H935.155V555.047H936.468V559.326H941.485V555.047H942.805V565ZM944.603 561.233C944.603 560.509 944.744 559.857 945.026 559.278C945.313 558.7 945.71 558.253 946.216 557.938C946.726 557.624 947.307 557.467 947.959 557.467C948.966 557.467 949.78 557.815 950.399 558.513C951.024 559.21 951.336 560.137 951.336 561.295V561.384C951.336 562.104 951.197 562.751 950.919 563.325C950.646 563.895 950.251 564.339 949.736 564.658C949.226 564.977 948.638 565.137 947.973 565.137C946.97 565.137 946.157 564.788 945.532 564.091C944.912 563.394 944.603 562.471 944.603 561.322V561.233ZM945.874 561.384C945.874 562.204 946.063 562.863 946.441 563.359C946.824 563.856 947.335 564.104 947.973 564.104C948.615 564.104 949.126 563.854 949.504 563.353C949.882 562.847 950.071 562.14 950.071 561.233C950.071 560.422 949.878 559.766 949.49 559.265C949.107 558.759 948.597 558.506 947.959 558.506C947.335 558.506 946.831 558.754 946.448 559.251C946.065 559.748 945.874 560.459 945.874 561.384ZM953.038 565V557.604H955.923C956.907 557.604 957.661 557.777 958.186 558.123C958.714 558.465 958.979 558.968 958.979 559.634C958.979 559.976 958.876 560.285 958.671 560.563C958.466 560.837 958.163 561.047 957.762 561.192C958.208 561.297 958.566 561.502 958.835 561.808C959.108 562.113 959.245 562.478 959.245 562.901C959.245 563.58 958.994 564.1 958.493 564.46C957.996 564.82 957.292 565 956.381 565H953.038ZM954.303 561.753V563.981H956.395C956.923 563.981 957.317 563.883 957.577 563.688C957.841 563.492 957.974 563.216 957.974 562.86C957.974 562.122 957.431 561.753 956.347 561.753H954.303ZM954.303 560.741H955.937C957.121 560.741 957.714 560.395 957.714 559.702C957.714 559.009 957.153 558.652 956.032 558.629H954.303V560.741ZM965.705 557.604H966.97V565H965.705V559.606L962.294 565H961.029V557.604H962.294V563.004L965.705 557.604ZM974.585 565H973.313V562.32C972.757 562.466 972.188 562.539 971.604 562.539C970.679 562.539 969.973 562.302 969.485 561.828C969.002 561.354 968.756 560.68 968.747 559.805V557.597H970.012V559.846C970.035 560.949 970.565 561.5 971.604 561.5C972.188 561.5 972.757 561.427 973.313 561.281V557.604H974.585V565ZM976.28 561.233C976.28 560.509 976.422 559.857 976.704 559.278C976.991 558.7 977.388 558.253 977.894 557.938C978.404 557.624 978.985 557.467 979.637 557.467C980.644 557.467 981.457 557.815 982.077 558.513C982.701 559.21 983.014 560.137 983.014 561.295V561.384C983.014 562.104 982.875 562.751 982.597 563.325C982.323 563.895 981.929 564.339 981.414 564.658C980.904 564.977 980.316 565.137 979.65 565.137C978.648 565.137 977.834 564.788 977.21 564.091C976.59 563.394 976.28 562.471 976.28 561.322V561.233ZM977.552 561.384C977.552 562.204 977.741 562.863 978.119 563.359C978.502 563.856 979.012 564.104 979.65 564.104C980.293 564.104 980.803 563.854 981.182 563.353C981.56 562.847 981.749 562.14 981.749 561.233C981.749 560.422 981.555 559.766 981.168 559.265C980.785 558.759 980.275 558.506 979.637 558.506C979.012 558.506 978.509 558.754 978.126 559.251C977.743 559.748 977.552 560.459 977.552 561.384ZM986.903 561.849H985.98V565H984.709V557.604H985.98V560.734H986.808L989.296 557.604H990.827L987.901 561.158L991.073 565H989.467L986.903 561.849ZM1001.68 565H1000.41V561.842H997.014V565H995.742V557.604H997.014V560.81H1000.41V557.604H1001.68V565ZM1008.28 565C1008.21 564.854 1008.15 564.594 1008.1 564.221C1007.51 564.831 1006.81 565.137 1006 565.137C1005.27 565.137 1004.67 564.932 1004.2 564.521C1003.73 564.107 1003.5 563.583 1003.5 562.949C1003.5 562.179 1003.79 561.582 1004.38 561.158C1004.96 560.73 1005.79 560.516 1006.85 560.516H1008.08V559.935C1008.08 559.493 1007.95 559.142 1007.68 558.882C1007.42 558.618 1007.03 558.485 1006.52 558.485C1006.06 558.485 1005.69 558.599 1005.38 558.827C1005.08 559.055 1004.92 559.331 1004.92 559.654H1003.65C1003.65 559.285 1003.78 558.93 1004.04 558.588C1004.31 558.242 1004.66 557.968 1005.11 557.768C1005.56 557.567 1006.05 557.467 1006.59 557.467C1007.44 557.467 1008.11 557.681 1008.59 558.109C1009.08 558.533 1009.33 559.119 1009.35 559.866V563.271C1009.35 563.95 1009.43 564.49 1009.61 564.891V565H1008.28ZM1006.18 564.036C1006.58 564.036 1006.95 563.934 1007.31 563.729C1007.66 563.523 1007.92 563.257 1008.08 562.929V561.411H1007.09C1005.54 561.411 1004.77 561.865 1004.77 562.771C1004.77 563.168 1004.9 563.478 1005.16 563.701C1005.43 563.924 1005.77 564.036 1006.18 564.036ZM1020.84 565H1019.58V561.842H1016.18V565H1014.91V557.604H1016.18V560.81H1019.58V557.604H1020.84V565ZM1027.45 565C1027.37 564.854 1027.32 564.594 1027.27 564.221C1026.68 564.831 1025.98 565.137 1025.16 565.137C1024.43 565.137 1023.84 564.932 1023.37 564.521C1022.9 564.107 1022.67 563.583 1022.67 562.949C1022.67 562.179 1022.96 561.582 1023.54 561.158C1024.13 560.73 1024.96 560.516 1026.02 560.516H1027.25V559.935C1027.25 559.493 1027.12 559.142 1026.85 558.882C1026.59 558.618 1026.2 558.485 1025.68 558.485C1025.23 558.485 1024.85 558.599 1024.55 558.827C1024.24 559.055 1024.09 559.331 1024.09 559.654H1022.82C1022.82 559.285 1022.95 558.93 1023.21 558.588C1023.47 558.242 1023.83 557.968 1024.28 557.768C1024.73 557.567 1025.22 557.467 1025.76 557.467C1026.61 557.467 1027.28 557.681 1027.76 558.109C1028.24 558.533 1028.5 559.119 1028.51 559.866V563.271C1028.51 563.95 1028.6 564.49 1028.77 564.891V565H1027.45ZM1025.35 564.036C1025.75 564.036 1026.12 563.934 1026.48 563.729C1026.83 563.523 1027.09 563.257 1027.25 562.929V561.411H1026.26C1024.71 561.411 1023.93 561.865 1023.93 562.771C1023.93 563.168 1024.07 563.478 1024.33 563.701C1024.59 563.924 1024.93 564.036 1025.35 564.036ZM1031.88 557.604V563.968H1034.58V557.604H1035.85V563.968H1038.55V557.604H1039.82V565H1030.61V557.604H1031.88ZM1044.89 565.137C1043.88 565.137 1043.07 564.809 1042.44 564.152C1041.81 563.492 1041.5 562.61 1041.5 561.507V561.274C1041.5 560.541 1041.63 559.887 1041.91 559.312C1042.19 558.734 1042.59 558.283 1043.09 557.959C1043.59 557.631 1044.14 557.467 1044.73 557.467C1045.69 557.467 1046.44 557.784 1046.97 558.417C1047.5 559.05 1047.77 559.957 1047.77 561.138V561.664H1042.76C1042.78 562.393 1042.99 562.983 1043.4 563.435C1043.81 563.881 1044.33 564.104 1044.95 564.104C1045.4 564.104 1045.78 564.013 1046.09 563.831C1046.4 563.649 1046.67 563.407 1046.9 563.106L1047.67 563.708C1047.06 564.66 1046.13 565.137 1044.89 565.137ZM1044.73 558.506C1044.22 558.506 1043.79 558.693 1043.44 559.066C1043.1 559.436 1042.88 559.955 1042.8 560.625H1046.51V560.529C1046.47 559.887 1046.3 559.39 1045.99 559.039C1045.68 558.684 1045.26 558.506 1044.73 558.506ZM1054.03 557.604H1055.29V565H1054.03V559.606L1050.61 565H1049.35V557.604H1050.61V563.004L1054.03 557.604ZM1054.37 554.91C1054.37 555.462 1054.18 555.906 1053.8 556.243C1053.43 556.576 1052.93 556.742 1052.32 556.742C1051.71 556.742 1051.22 556.574 1050.84 556.236C1050.46 555.899 1050.27 555.457 1050.27 554.91H1051.3C1051.3 555.229 1051.39 555.48 1051.56 555.662C1051.74 555.84 1051.99 555.929 1052.32 555.929C1052.64 555.929 1052.89 555.84 1053.07 555.662C1053.25 555.484 1053.34 555.234 1053.34 554.91H1054.37ZM1066.84 565H1065.58V558.649H1062.17V565H1060.9V557.604H1066.84V565ZM1074.94 557.604V565H1073.67V558.649H1071.15L1071 561.418C1070.92 562.689 1070.7 563.599 1070.36 564.146C1070.01 564.692 1069.47 564.977 1068.72 565H1068.22V563.886L1068.58 563.858C1068.99 563.813 1069.28 563.576 1069.46 563.147C1069.64 562.719 1069.75 561.926 1069.8 560.769L1069.94 557.604H1074.94ZM1081.53 565C1081.46 564.854 1081.4 564.594 1081.36 564.221C1080.77 564.831 1080.07 565.137 1079.25 565.137C1078.52 565.137 1077.92 564.932 1077.45 564.521C1076.99 564.107 1076.75 563.583 1076.75 562.949C1076.75 562.179 1077.05 561.582 1077.63 561.158C1078.22 560.73 1079.04 560.516 1080.1 560.516H1081.33V559.935C1081.33 559.493 1081.2 559.142 1080.94 558.882C1080.67 558.618 1080.28 558.485 1079.77 558.485C1079.32 558.485 1078.94 558.599 1078.63 558.827C1078.33 559.055 1078.18 559.331 1078.18 559.654H1076.91C1076.91 559.285 1077.04 558.93 1077.29 558.588C1077.56 558.242 1077.91 557.968 1078.36 557.768C1078.81 557.567 1079.31 557.467 1079.84 557.467C1080.7 557.467 1081.36 557.681 1081.85 558.109C1082.33 558.533 1082.58 559.119 1082.6 559.866V563.271C1082.6 563.95 1082.69 564.49 1082.86 564.891V565H1081.53ZM1079.43 564.036C1079.83 564.036 1080.21 563.934 1080.56 563.729C1080.92 563.523 1081.18 563.257 1081.33 562.929V561.411H1080.34C1078.79 561.411 1078.02 561.865 1078.02 562.771C1078.02 563.168 1078.15 563.478 1078.42 563.701C1078.68 563.924 1079.02 564.036 1079.43 564.036ZM1089.97 558.629H1087.49V565H1086.22V558.629H1083.79V557.604H1089.97V558.629ZM1090.38 561.438C1090.38 560.203 1090.62 559.233 1091.1 558.526C1091.58 557.82 1092.23 557.467 1093.07 557.467C1093.45 557.467 1093.79 557.533 1094.08 557.665V554.5H1095.35V557.706C1095.67 557.547 1096.04 557.467 1096.47 557.467C1097.31 557.467 1097.97 557.82 1098.45 558.526C1098.92 559.233 1099.16 560.251 1099.16 561.582C1099.16 562.671 1098.92 563.537 1098.45 564.18C1097.97 564.822 1097.32 565.144 1096.48 565.144C1096.04 565.144 1095.66 565.071 1095.35 564.925V567.844H1094.08V564.945C1093.78 565.077 1093.44 565.144 1093.05 565.144C1092.22 565.144 1091.57 564.822 1091.09 564.18C1090.62 563.537 1090.38 562.658 1090.38 561.541V561.438ZM1097.9 561.438C1097.9 560.509 1097.74 559.789 1097.42 559.278C1097.1 558.763 1096.66 558.506 1096.1 558.506C1095.81 558.506 1095.56 558.551 1095.35 558.643V563.995C1095.55 564.073 1095.81 564.111 1096.11 564.111C1096.68 564.111 1097.12 563.893 1097.43 563.455C1097.74 563.018 1097.9 562.345 1097.9 561.438ZM1091.64 561.582C1091.64 562.411 1091.79 563.04 1092.09 563.469C1092.38 563.897 1092.81 564.111 1093.37 564.111C1093.63 564.111 1093.87 564.07 1094.08 563.988V558.622C1093.89 558.545 1093.66 558.506 1093.38 558.506C1092.82 558.506 1092.4 558.754 1092.09 559.251C1091.79 559.748 1091.64 560.525 1091.64 561.582ZM1100.48 561.233C1100.48 560.509 1100.62 559.857 1100.9 559.278C1101.19 558.7 1101.58 558.253 1102.09 557.938C1102.6 557.624 1103.18 557.467 1103.83 557.467C1104.84 557.467 1105.65 557.815 1106.27 558.513C1106.9 559.21 1107.21 560.137 1107.21 561.295V561.384C1107.21 562.104 1107.07 562.751 1106.79 563.325C1106.52 563.895 1106.12 564.339 1105.61 564.658C1105.1 564.977 1104.51 565.137 1103.85 565.137C1102.84 565.137 1102.03 564.788 1101.41 564.091C1100.79 563.394 1100.48 562.471 1100.48 561.322V561.233ZM1101.75 561.384C1101.75 562.204 1101.94 562.863 1102.31 563.359C1102.7 563.856 1103.21 564.104 1103.85 564.104C1104.49 564.104 1105 563.854 1105.38 563.353C1105.76 562.847 1105.94 562.14 1105.94 561.233C1105.94 560.422 1105.75 559.766 1105.36 559.265C1104.98 558.759 1104.47 558.506 1103.83 558.506C1103.21 558.506 1102.7 558.754 1102.32 559.251C1101.94 559.748 1101.75 560.459 1101.75 561.384ZM1115.04 561.384C1115.04 562.509 1114.79 563.416 1114.27 564.104C1113.76 564.793 1113.06 565.137 1112.18 565.137C1111.28 565.137 1110.57 564.852 1110.06 564.282V567.844H1108.79V557.604H1109.95L1110.01 558.424C1110.53 557.786 1111.24 557.467 1112.16 557.467C1113.05 557.467 1113.75 557.802 1114.26 558.472C1114.78 559.142 1115.04 560.074 1115.04 561.268V561.384ZM1113.78 561.24C1113.78 560.406 1113.6 559.748 1113.25 559.265C1112.89 558.782 1112.4 558.54 1111.78 558.54C1111.02 558.54 1110.44 558.88 1110.06 559.559V563.093C1110.44 563.767 1111.02 564.104 1111.8 564.104C1112.4 564.104 1112.88 563.865 1113.24 563.387C1113.6 562.904 1113.78 562.188 1113.78 561.24ZM1120.92 563.325L1123.43 557.604H1125.01V565H1123.75V559.62L1121.35 565H1120.48L1118.04 559.504V565H1116.77V557.604H1118.41L1120.92 563.325ZM1130.12 565.137C1129.11 565.137 1128.3 564.809 1127.67 564.152C1127.04 563.492 1126.73 562.61 1126.73 561.507V561.274C1126.73 560.541 1126.86 559.887 1127.14 559.312C1127.43 558.734 1127.82 558.283 1128.32 557.959C1128.82 557.631 1129.37 557.467 1129.96 557.467C1130.92 557.467 1131.67 557.784 1132.2 558.417C1132.73 559.05 1133 559.957 1133 561.138V561.664H1127.99C1128.01 562.393 1128.22 562.983 1128.63 563.435C1129.04 563.881 1129.56 564.104 1130.18 564.104C1130.63 564.104 1131.01 564.013 1131.32 563.831C1131.63 563.649 1131.9 563.407 1132.13 563.106L1132.91 563.708C1132.29 564.66 1131.36 565.137 1130.12 565.137ZM1129.96 558.506C1129.45 558.506 1129.02 558.693 1128.67 559.066C1128.33 559.436 1128.11 559.955 1128.03 560.625H1131.74V560.529C1131.7 559.887 1131.53 559.39 1131.22 559.039C1130.91 558.684 1130.49 558.506 1129.96 558.506ZM1135.95 562.197C1135.96 561.655 1136.02 561.227 1136.14 560.912C1136.25 560.598 1136.49 560.249 1136.84 559.866L1137.73 558.943C1138.11 558.51 1138.31 558.046 1138.31 557.549C1138.31 557.07 1138.18 556.697 1137.93 556.428C1137.68 556.154 1137.31 556.018 1136.84 556.018C1136.37 556.018 1136 556.141 1135.71 556.387C1135.43 556.633 1135.29 556.963 1135.29 557.378H1134.03C1134.04 556.64 1134.3 556.045 1134.81 555.594C1135.33 555.138 1136.01 554.91 1136.84 554.91C1137.7 554.91 1138.37 555.143 1138.85 555.607C1139.33 556.068 1139.57 556.701 1139.57 557.508C1139.57 558.305 1139.2 559.091 1138.46 559.866L1137.72 560.604C1137.39 560.974 1137.22 561.505 1137.22 562.197H1135.95ZM1135.9 564.364C1135.9 564.159 1135.96 563.988 1136.08 563.852C1136.21 563.71 1136.4 563.64 1136.64 563.64C1136.89 563.64 1137.08 563.71 1137.21 563.852C1137.33 563.988 1137.4 564.159 1137.4 564.364C1137.4 564.569 1137.33 564.74 1137.21 564.877C1137.08 565.009 1136.89 565.075 1136.64 565.075C1136.4 565.075 1136.21 565.009 1136.08 564.877C1135.96 564.74 1135.9 564.569 1135.9 564.364Z" fill="black"/>
<path d="M989.262 585.72C989.262 585.191 989.068 584.772 988.681 584.462C988.298 584.147 987.758 583.99 987.061 583.99C986.477 583.99 985.987 584.152 985.591 584.476C985.199 584.795 985.003 585.191 985.003 585.665H983.69C983.69 585.136 983.834 584.662 984.121 584.243C984.413 583.824 984.818 583.498 985.338 583.266C985.857 583.029 986.432 582.91 987.061 582.91C988.173 582.91 989.036 583.161 989.651 583.662C990.267 584.159 990.574 584.852 990.574 585.74C990.574 586.201 990.433 586.62 990.15 586.998C989.868 587.376 989.474 587.675 988.968 587.894C990.139 588.285 990.725 589.062 990.725 590.225C990.725 591.118 990.392 591.826 989.727 592.351C989.061 592.875 988.173 593.137 987.061 593.137C986.4 593.137 985.798 593.021 985.256 592.788C984.718 592.551 984.299 592.216 983.998 591.783C983.697 591.35 983.547 590.835 983.547 590.238H984.859C984.859 590.762 985.067 591.2 985.481 591.551C985.896 591.897 986.423 592.07 987.061 592.07C987.776 592.07 988.346 591.904 988.77 591.571C989.198 591.239 989.412 590.799 989.412 590.252C989.412 589.085 988.69 588.491 987.245 588.468H986.015V587.388H987.238C987.904 587.374 988.407 587.224 988.749 586.937C989.091 586.649 989.262 586.244 989.262 585.72ZM996.836 593C996.763 592.854 996.704 592.594 996.658 592.221C996.07 592.831 995.368 593.137 994.553 593.137C993.824 593.137 993.224 592.932 992.755 592.521C992.29 592.107 992.058 591.583 992.058 590.949C992.058 590.179 992.349 589.582 992.933 589.158C993.521 588.73 994.345 588.516 995.407 588.516H996.638V587.935C996.638 587.493 996.506 587.142 996.241 586.882C995.977 586.618 995.587 586.485 995.072 586.485C994.621 586.485 994.243 586.599 993.938 586.827C993.632 587.055 993.479 587.331 993.479 587.654H992.208C992.208 587.285 992.338 586.93 992.598 586.588C992.862 586.242 993.217 585.968 993.664 585.768C994.115 585.567 994.61 585.467 995.147 585.467C996 585.467 996.667 585.681 997.15 586.109C997.633 586.533 997.884 587.119 997.902 587.866V591.271C997.902 591.95 997.989 592.49 998.162 592.891V593H996.836ZM994.737 592.036C995.134 592.036 995.51 591.934 995.865 591.729C996.221 591.523 996.478 591.257 996.638 590.929V589.411H995.646C994.097 589.411 993.322 589.865 993.322 590.771C993.322 591.168 993.454 591.478 993.719 591.701C993.983 591.924 994.323 592.036 994.737 592.036ZM1000 593V585.604H1002.89C1003.87 585.604 1004.62 585.777 1005.15 586.123C1005.68 586.465 1005.94 586.968 1005.94 587.634C1005.94 587.976 1005.84 588.285 1005.63 588.563C1005.43 588.837 1005.13 589.047 1004.72 589.192C1005.17 589.297 1005.53 589.502 1005.8 589.808C1006.07 590.113 1006.21 590.478 1006.21 590.901C1006.21 591.58 1005.96 592.1 1005.46 592.46C1004.96 592.82 1004.26 593 1003.34 593H1000ZM1001.27 589.753V591.981H1003.36C1003.89 591.981 1004.28 591.883 1004.54 591.688C1004.8 591.492 1004.94 591.216 1004.94 590.86C1004.94 590.122 1004.39 589.753 1003.31 589.753H1001.27ZM1001.27 588.741H1002.9C1004.08 588.741 1004.68 588.395 1004.68 587.702C1004.68 587.009 1004.12 586.652 1003 586.629H1001.27V588.741ZM1010.95 593.137C1009.95 593.137 1009.13 592.809 1008.5 592.152C1007.88 591.492 1007.56 590.61 1007.56 589.507V589.274C1007.56 588.541 1007.7 587.887 1007.98 587.312C1008.26 586.734 1008.65 586.283 1009.15 585.959C1009.66 585.631 1010.21 585.467 1010.79 585.467C1011.76 585.467 1012.5 585.784 1013.04 586.417C1013.57 587.05 1013.84 587.957 1013.84 589.138V589.664H1008.83C1008.84 590.393 1009.06 590.983 1009.46 591.435C1009.87 591.881 1010.39 592.104 1011.02 592.104C1011.47 592.104 1011.85 592.013 1012.16 591.831C1012.47 591.649 1012.74 591.407 1012.97 591.106L1013.74 591.708C1013.12 592.66 1012.19 593.137 1010.95 593.137ZM1010.79 586.506C1010.28 586.506 1009.86 586.693 1009.51 587.066C1009.16 587.436 1008.95 587.955 1008.87 588.625H1012.57V588.529C1012.54 587.887 1012.36 587.39 1012.05 587.039C1011.74 586.684 1011.32 586.506 1010.79 586.506ZM1018.27 592.104C1018.72 592.104 1019.12 591.968 1019.46 591.694C1019.79 591.421 1019.98 591.079 1020.02 590.669H1021.21C1021.19 591.093 1021.04 591.496 1020.78 591.879C1020.51 592.262 1020.15 592.567 1019.7 592.795C1019.25 593.023 1018.77 593.137 1018.27 593.137C1017.27 593.137 1016.46 592.802 1015.87 592.132C1015.27 591.457 1014.98 590.537 1014.98 589.37V589.158C1014.98 588.438 1015.11 587.798 1015.38 587.237C1015.64 586.677 1016.02 586.242 1016.51 585.932C1017.01 585.622 1017.59 585.467 1018.27 585.467C1019.1 585.467 1019.78 585.715 1020.33 586.212C1020.88 586.709 1021.18 587.354 1021.21 588.146H1020.02C1019.98 587.668 1019.8 587.276 1019.47 586.971C1019.15 586.661 1018.75 586.506 1018.27 586.506C1017.62 586.506 1017.12 586.738 1016.77 587.203C1016.42 587.663 1016.24 588.331 1016.24 589.206V589.445C1016.24 590.298 1016.42 590.954 1016.77 591.414C1017.12 591.874 1017.62 592.104 1018.27 592.104ZM1028.13 586.629H1025.65V593H1024.38V586.629H1021.95V585.604H1028.13V586.629ZM1034.15 585.604H1035.41V593H1034.15V587.606L1030.74 593H1029.47V585.604H1030.74V591.004L1034.15 585.604ZM1045.48 593C1045.41 592.854 1045.35 592.594 1045.3 592.221C1044.71 592.831 1044.01 593.137 1043.2 593.137C1042.47 593.137 1041.87 592.932 1041.4 592.521C1040.93 592.107 1040.7 591.583 1040.7 590.949C1040.7 590.179 1040.99 589.582 1041.58 589.158C1042.17 588.73 1042.99 588.516 1044.05 588.516H1045.28V587.935C1045.28 587.493 1045.15 587.142 1044.89 586.882C1044.62 586.618 1044.23 586.485 1043.72 586.485C1043.27 586.485 1042.89 586.599 1042.58 586.827C1042.28 587.055 1042.12 587.331 1042.12 587.654H1040.85C1040.85 587.285 1040.98 586.93 1041.24 586.588C1041.51 586.242 1041.86 585.968 1042.31 585.768C1042.76 585.567 1043.25 585.467 1043.79 585.467C1044.64 585.467 1045.31 585.681 1045.79 586.109C1046.28 586.533 1046.53 587.119 1046.55 587.866V591.271C1046.55 591.95 1046.63 592.49 1046.81 592.891V593H1045.48ZM1043.38 592.036C1043.78 592.036 1044.15 591.934 1044.51 591.729C1044.87 591.523 1045.12 591.257 1045.28 590.929V589.411H1044.29C1042.74 589.411 1041.97 589.865 1041.97 590.771C1041.97 591.168 1042.1 591.478 1042.36 591.701C1042.63 591.924 1042.97 592.036 1043.38 592.036ZM1050.83 589.849H1049.91V593H1048.64V585.604H1049.91V588.734H1050.74L1053.23 585.604H1054.76L1051.83 589.158L1055 593H1053.4L1050.83 589.849ZM1058.39 589.849H1057.47V593H1056.2V585.604H1057.47V588.734H1058.3L1060.79 585.604H1062.32L1059.39 589.158L1062.56 593H1060.96L1058.39 589.849ZM1068.22 593C1068.14 592.854 1068.08 592.594 1068.04 592.221C1067.45 592.831 1066.75 593.137 1065.93 593.137C1065.2 593.137 1064.61 592.932 1064.14 592.521C1063.67 592.107 1063.44 591.583 1063.44 590.949C1063.44 590.179 1063.73 589.582 1064.31 589.158C1064.9 588.73 1065.73 588.516 1066.79 588.516H1068.02V587.935C1068.02 587.493 1067.89 587.142 1067.62 586.882C1067.36 586.618 1066.97 586.485 1066.45 586.485C1066 586.485 1065.62 586.599 1065.32 586.827C1065.01 587.055 1064.86 587.331 1064.86 587.654H1063.59C1063.59 587.285 1063.72 586.93 1063.98 586.588C1064.24 586.242 1064.6 585.968 1065.04 585.768C1065.5 585.567 1065.99 585.467 1066.53 585.467C1067.38 585.467 1068.05 585.681 1068.53 586.109C1069.01 586.533 1069.26 587.119 1069.28 587.866V591.271C1069.28 591.95 1069.37 592.49 1069.54 592.891V593H1068.22ZM1066.12 592.036C1066.51 592.036 1066.89 591.934 1067.25 591.729C1067.6 591.523 1067.86 591.257 1068.02 590.929V589.411H1067.03C1065.48 589.411 1064.7 589.865 1064.7 590.771C1064.7 591.168 1064.84 591.478 1065.1 591.701C1065.36 591.924 1065.7 592.036 1066.12 592.036ZM1073.58 591.147L1075.3 585.604H1076.65L1073.68 594.142C1073.22 595.372 1072.49 595.987 1071.48 595.987L1071.25 595.967L1070.77 595.878V594.853L1071.12 594.88C1071.54 594.88 1071.88 594.793 1072.11 594.62C1072.35 594.447 1072.55 594.13 1072.71 593.67L1072.99 592.918L1070.35 585.604H1071.73L1073.58 591.147ZM1083.83 593H1082.57V589.842H1079.17V593H1077.9V585.604H1079.17V588.81H1082.57V585.604H1083.83V593ZM1091.36 586.629H1088.88V593H1087.62V586.629H1085.18V585.604H1091.36V586.629Z" fill="black"/>
<path d="M875.682 322.047V332H874.369V323.127H870.801L870.623 327.071C870.555 328.393 870.418 329.386 870.213 330.052C870.012 330.717 869.716 331.207 869.324 331.521C868.932 331.831 868.408 331.991 867.752 332H867.321V330.927L867.595 330.913C868.019 330.881 868.344 330.744 868.572 330.503C868.8 330.257 868.973 329.867 869.092 329.334C869.21 328.801 869.295 327.98 869.345 326.873L869.55 322.047H875.682ZM877.534 328.233C877.534 327.509 877.675 326.857 877.958 326.278C878.245 325.7 878.642 325.253 879.147 324.938C879.658 324.624 880.239 324.467 880.891 324.467C881.898 324.467 882.711 324.815 883.331 325.513C883.955 326.21 884.268 327.137 884.268 328.295V328.384C884.268 329.104 884.129 329.751 883.851 330.325C883.577 330.895 883.183 331.339 882.668 331.658C882.158 331.977 881.57 332.137 880.904 332.137C879.902 332.137 879.088 331.788 878.464 331.091C877.844 330.394 877.534 329.471 877.534 328.322V328.233ZM878.806 328.384C878.806 329.204 878.995 329.863 879.373 330.359C879.756 330.856 880.266 331.104 880.904 331.104C881.547 331.104 882.057 330.854 882.436 330.353C882.814 329.847 883.003 329.14 883.003 328.233C883.003 327.422 882.809 326.766 882.422 326.265C882.039 325.759 881.529 325.506 880.891 325.506C880.266 325.506 879.763 325.754 879.38 326.251C878.997 326.748 878.806 327.459 878.806 328.384ZM890.632 325.649H887.221V332H885.949V324.604H890.632V325.649ZM896.518 324.604H897.782V332H896.518V326.606L893.106 332H891.842V324.604H893.106V330.004L896.518 324.604ZM905.855 332H904.591V328.842H901.193V332H899.922V324.604H901.193V327.81H904.591V324.604H905.855V332Z" fill="black"/>
<rect x="867" y="340" width="342" height="38" rx="5" fill="#939393"/>
<path d="M881.781 359.399H877.468V362.927H882.479V364H876.155V354.047H882.41V355.127H877.468V358.326H881.781V359.399ZM884.03 364V356.604H886.915C887.899 356.604 888.654 356.777 889.178 357.123C889.706 357.465 889.971 357.968 889.971 358.634C889.971 358.976 889.868 359.285 889.663 359.563C889.458 359.837 889.155 360.047 888.754 360.192C889.201 360.297 889.558 360.502 889.827 360.808C890.101 361.113 890.237 361.478 890.237 361.901C890.237 362.58 889.987 363.1 889.485 363.46C888.989 363.82 888.285 364 887.373 364H884.03ZM885.295 360.753V362.981H887.387C887.915 362.981 888.31 362.883 888.569 362.688C888.834 362.492 888.966 362.216 888.966 361.86C888.966 361.122 888.424 360.753 887.339 360.753H885.295ZM885.295 359.741H886.929C888.114 359.741 888.706 359.395 888.706 358.702C888.706 358.009 888.146 357.652 887.024 357.629H885.295V359.741ZM896.479 364C896.406 363.854 896.346 363.594 896.301 363.221C895.713 363.831 895.011 364.137 894.195 364.137C893.466 364.137 892.867 363.932 892.397 363.521C891.933 363.107 891.7 362.583 891.7 361.949C891.7 361.179 891.992 360.582 892.575 360.158C893.163 359.73 893.988 359.516 895.05 359.516H896.28V358.935C896.28 358.493 896.148 358.142 895.884 357.882C895.619 357.618 895.23 357.485 894.715 357.485C894.264 357.485 893.885 357.599 893.58 357.827C893.275 358.055 893.122 358.331 893.122 358.654H891.851C891.851 358.285 891.98 357.93 892.24 357.588C892.505 357.242 892.86 356.968 893.307 356.768C893.758 356.567 894.252 356.467 894.79 356.467C895.642 356.467 896.31 356.681 896.793 357.109C897.276 357.533 897.527 358.119 897.545 358.866V362.271C897.545 362.95 897.632 363.49 897.805 363.891V364H896.479ZM894.38 363.036C894.776 363.036 895.152 362.934 895.508 362.729C895.863 362.523 896.121 362.257 896.28 361.929V360.411H895.289C893.74 360.411 892.965 360.865 892.965 361.771C892.965 362.168 893.097 362.478 893.361 362.701C893.626 362.924 893.965 363.036 894.38 363.036Z" fill="black"/>
<path d="M875.757 406H874.438V397.127H869.529V406H868.217V396.047H875.757V406ZM882.518 406C882.445 405.854 882.385 405.594 882.34 405.221C881.752 405.831 881.05 406.137 880.234 406.137C879.505 406.137 878.906 405.932 878.437 405.521C877.972 405.107 877.739 404.583 877.739 403.949C877.739 403.179 878.031 402.582 878.614 402.158C879.202 401.73 880.027 401.516 881.089 401.516H882.319V400.935C882.319 400.493 882.187 400.142 881.923 399.882C881.659 399.618 881.269 399.485 880.754 399.485C880.303 399.485 879.924 399.599 879.619 399.827C879.314 400.055 879.161 400.331 879.161 400.654H877.89C877.89 400.285 878.02 399.93 878.279 399.588C878.544 399.242 878.899 398.968 879.346 398.768C879.797 398.567 880.291 398.467 880.829 398.467C881.681 398.467 882.349 398.681 882.832 399.109C883.315 399.533 883.566 400.119 883.584 400.866V404.271C883.584 404.95 883.671 405.49 883.844 405.891V406H882.518ZM880.419 405.036C880.815 405.036 881.191 404.934 881.547 404.729C881.902 404.523 882.16 404.257 882.319 403.929V402.411H881.328C879.779 402.411 879.004 402.865 879.004 403.771C879.004 404.168 879.136 404.478 879.4 404.701C879.665 404.924 880.004 405.036 880.419 405.036ZM891.814 402.384C891.814 403.509 891.557 404.416 891.042 405.104C890.527 405.793 889.83 406.137 888.95 406.137C888.052 406.137 887.346 405.852 886.831 405.282V408.844H885.566V398.604H886.722L886.783 399.424C887.298 398.786 888.014 398.467 888.93 398.467C889.818 398.467 890.52 398.802 891.035 399.472C891.555 400.142 891.814 401.074 891.814 402.268V402.384ZM890.55 402.24C890.55 401.406 890.372 400.748 890.017 400.265C889.661 399.782 889.174 399.54 888.554 399.54C887.788 399.54 887.214 399.88 886.831 400.559V404.093C887.209 404.767 887.788 405.104 888.567 405.104C889.174 405.104 889.654 404.865 890.01 404.387C890.37 403.904 890.55 403.188 890.55 402.24ZM893.093 402.233C893.093 401.509 893.234 400.857 893.517 400.278C893.804 399.7 894.2 399.253 894.706 398.938C895.216 398.624 895.798 398.467 896.449 398.467C897.456 398.467 898.27 398.815 898.89 399.513C899.514 400.21 899.826 401.137 899.826 402.295V402.384C899.826 403.104 899.687 403.751 899.409 404.325C899.136 404.895 898.742 405.339 898.227 405.658C897.716 405.977 897.128 406.137 896.463 406.137C895.46 406.137 894.647 405.788 894.022 405.091C893.403 404.394 893.093 403.471 893.093 402.322V402.233ZM894.364 402.384C894.364 403.204 894.553 403.863 894.932 404.359C895.314 404.856 895.825 405.104 896.463 405.104C897.105 405.104 897.616 404.854 897.994 404.353C898.372 403.847 898.562 403.14 898.562 402.233C898.562 401.422 898.368 400.766 897.98 400.265C897.598 399.759 897.087 399.506 896.449 399.506C895.825 399.506 895.321 399.754 894.938 400.251C894.556 400.748 894.364 401.459 894.364 402.384ZM907.366 398.604V406H906.095V399.649H903.579L903.429 402.418C903.347 403.689 903.132 404.599 902.786 405.146C902.444 405.692 901.9 405.977 901.152 406H900.646V404.886L901.009 404.858C901.419 404.813 901.713 404.576 901.891 404.147C902.068 403.719 902.182 402.926 902.232 401.769L902.369 398.604H907.366ZM910.777 401.153H912.698C913.537 401.162 914.2 401.381 914.688 401.81C915.175 402.238 915.419 402.819 915.419 403.553C915.419 404.291 915.168 404.883 914.667 405.33C914.166 405.777 913.491 406 912.644 406H909.513V398.604H910.777V401.153ZM910.777 402.186V404.968H912.657C913.131 404.968 913.498 404.847 913.758 404.605C914.018 404.359 914.147 404.024 914.147 403.601C914.147 403.19 914.02 402.855 913.765 402.596C913.514 402.331 913.161 402.195 912.705 402.186H910.777Z" fill="black"/>
<rect x="867" y="414" width="342" height="38" rx="5" fill="#939393"/>
<path d="M880.572 437.916C879.9 437.916 879.27 437.79 878.682 437.538C878.103 437.286 877.59 436.941 877.142 436.502C876.694 436.054 876.344 435.536 876.092 434.948C875.84 434.36 875.714 433.73 875.714 433.058C875.714 432.386 875.84 431.761 876.092 431.182C876.344 430.594 876.689 430.076 877.128 429.628C877.576 429.18 878.094 428.83 878.682 428.578C879.27 428.326 879.9 428.2 880.572 428.2C881.244 428.2 881.874 428.326 882.462 428.578C883.05 428.83 883.563 429.18 884.002 429.628C884.45 430.067 884.8 430.58 885.052 431.168C885.304 431.756 885.43 432.386 885.43 433.058C885.43 433.73 885.304 434.36 885.052 434.948C884.809 435.536 884.464 436.054 884.016 436.502C883.577 436.941 883.064 437.286 882.476 437.538C881.888 437.79 881.253 437.916 880.572 437.916ZM878.752 434.136C879.051 434.136 879.303 434.029 879.508 433.814C879.723 433.599 879.83 433.347 879.83 433.058C879.83 432.759 879.723 432.507 879.508 432.302C879.303 432.087 879.051 431.98 878.752 431.98C878.463 431.98 878.211 432.087 877.996 432.302C877.781 432.507 877.674 432.759 877.674 433.058C877.674 433.347 877.781 433.599 877.996 433.814C878.211 434.029 878.463 434.136 878.752 434.136ZM882.392 434.136C882.691 434.136 882.943 434.029 883.148 433.814C883.363 433.599 883.47 433.347 883.47 433.058C883.47 432.759 883.363 432.507 883.148 432.302C882.943 432.087 882.691 431.98 882.392 431.98C882.103 431.98 881.851 432.087 881.636 432.302C881.421 432.507 881.314 432.759 881.314 433.058C881.314 433.347 881.421 433.599 881.636 433.814C881.851 434.029 882.103 434.136 882.392 434.136ZM891.715 437.916C891.043 437.916 890.413 437.79 889.825 437.538C889.246 437.286 888.733 436.941 888.285 436.502C887.837 436.054 887.487 435.536 887.235 434.948C886.983 434.36 886.857 433.73 886.857 433.058C886.857 432.386 886.983 431.761 887.235 431.182C887.487 430.594 887.832 430.076 888.271 429.628C888.719 429.18 889.237 428.83 889.825 428.578C890.413 428.326 891.043 428.2 891.715 428.2C892.387 428.2 893.017 428.326 893.605 428.578C894.193 428.83 894.706 429.18 895.145 429.628C895.593 430.067 895.943 430.58 896.195 431.168C896.447 431.756 896.573 432.386 896.573 433.058C896.573 433.73 896.447 434.36 896.195 434.948C895.952 435.536 895.607 436.054 895.159 436.502C894.72 436.941 894.207 437.286 893.619 437.538C893.031 437.79 892.396 437.916 891.715 437.916ZM889.895 434.136C890.193 434.136 890.445 434.029 890.651 433.814C890.865 433.599 890.973 433.347 890.973 433.058C890.973 432.759 890.865 432.507 890.651 432.302C890.445 432.087 890.193 431.98 889.895 431.98C889.605 431.98 889.353 432.087 889.139 432.302C888.924 432.507 888.817 432.759 888.817 433.058C888.817 433.347 888.924 433.599 889.139 433.814C889.353 434.029 889.605 434.136 889.895 434.136ZM893.535 434.136C893.833 434.136 894.085 434.029 894.291 433.814C894.505 433.599 894.613 433.347 894.613 433.058C894.613 432.759 894.505 432.507 894.291 432.302C894.085 432.087 893.833 431.98 893.535 431.98C893.245 431.98 892.993 432.087 892.779 432.302C892.564 432.507 892.457 432.759 892.457 433.058C892.457 433.347 892.564 433.599 892.779 433.814C892.993 434.029 893.245 434.136 893.535 434.136ZM902.857 437.916C902.185 437.916 901.555 437.79 900.967 437.538C900.388 437.286 899.875 436.941 899.427 436.502C898.979 436.054 898.629 435.536 898.377 434.948C898.125 434.36 897.999 433.73 897.999 433.058C897.999 432.386 898.125 431.761 898.377 431.182C898.629 430.594 898.974 430.076 899.413 429.628C899.861 429.18 900.379 428.83 900.967 428.578C901.555 428.326 902.185 428.2 902.857 428.2C903.529 428.2 904.159 428.326 904.747 428.578C905.335 428.83 905.848 429.18 906.287 429.628C906.735 430.067 907.085 430.58 907.337 431.168C907.589 431.756 907.715 432.386 907.715 433.058C907.715 433.73 907.589 434.36 907.337 434.948C907.094 435.536 906.749 436.054 906.301 436.502C905.862 436.941 905.349 437.286 904.761 437.538C904.173 437.79 903.538 437.916 902.857 437.916ZM901.037 434.136C901.336 434.136 901.588 434.029 901.793 433.814C902.008 433.599 902.115 433.347 902.115 433.058C902.115 432.759 902.008 432.507 901.793 432.302C901.588 432.087 901.336 431.98 901.037 431.98C900.748 431.98 900.496 432.087 900.281 432.302C900.066 432.507 899.959 432.759 899.959 433.058C899.959 433.347 900.066 433.599 900.281 433.814C900.496 434.029 900.748 434.136 901.037 434.136ZM904.677 434.136C904.976 434.136 905.228 434.029 905.433 433.814C905.648 433.599 905.755 433.347 905.755 433.058C905.755 432.759 905.648 432.507 905.433 432.302C905.228 432.087 904.976 431.98 904.677 431.98C904.388 431.98 904.136 432.087 903.921 432.302C903.706 432.507 903.599 432.759 903.599 433.058C903.599 433.347 903.706 433.599 903.921 433.814C904.136 434.029 904.388 434.136 904.677 434.136ZM914 437.916C913.328 437.916 912.698 437.79 912.11 437.538C911.531 437.286 911.018 436.941 910.57 436.502C910.122 436.054 909.772 435.536 909.52 434.948C909.268 434.36 909.142 433.73 909.142 433.058C909.142 432.386 909.268 431.761 909.52 431.182C909.772 430.594 910.117 430.076 910.556 429.628C911.004 429.18 911.522 428.83 912.11 428.578C912.698 428.326 913.328 428.2 914 428.2C914.672 428.2 915.302 428.326 915.89 428.578C916.478 428.83 916.991 429.18 917.43 429.628C917.878 430.067 918.228 430.58 918.48 431.168C918.732 431.756 918.858 432.386 918.858 433.058C918.858 433.73 918.732 434.36 918.48 434.948C918.237 435.536 917.892 436.054 917.444 436.502C917.005 436.941 916.492 437.286 915.904 437.538C915.316 437.79 914.681 437.916 914 437.916ZM912.18 434.136C912.478 434.136 912.73 434.029 912.936 433.814C913.15 433.599 913.258 433.347 913.258 433.058C913.258 432.759 913.15 432.507 912.936 432.302C912.73 432.087 912.478 431.98 912.18 431.98C911.89 431.98 911.638 432.087 911.424 432.302C911.209 432.507 911.102 432.759 911.102 433.058C911.102 433.347 911.209 433.599 911.424 433.814C911.638 434.029 911.89 434.136 912.18 434.136ZM915.82 434.136C916.118 434.136 916.37 434.029 916.576 433.814C916.79 433.599 916.898 433.347 916.898 433.058C916.898 432.759 916.79 432.507 916.576 432.302C916.37 432.087 916.118 431.98 915.82 431.98C915.53 431.98 915.278 432.087 915.064 432.302C914.849 432.507 914.742 432.759 914.742 433.058C914.742 433.347 914.849 433.599 915.064 433.814C915.278 434.029 915.53 434.136 915.82 434.136ZM925.142 437.916C924.47 437.916 923.84 437.79 923.252 437.538C922.674 437.286 922.16 436.941 921.712 436.502C921.264 436.054 920.914 435.536 920.662 434.948C920.41 434.36 920.284 433.73 920.284 433.058C920.284 432.386 920.41 431.761 920.662 431.182C920.914 430.594 921.26 430.076 921.698 429.628C922.146 429.18 922.664 428.83 923.252 428.578C923.84 428.326 924.47 428.2 925.142 428.2C925.814 428.2 926.444 428.326 927.032 428.578C927.62 428.83 928.134 429.18 928.572 429.628C929.02 430.067 929.37 430.58 929.622 431.168C929.874 431.756 930 432.386 930 433.058C930 433.73 929.874 434.36 929.622 434.948C929.38 435.536 929.034 436.054 928.586 436.502C928.148 436.941 927.634 437.286 927.046 437.538C926.458 437.79 925.824 437.916 925.142 437.916ZM923.322 434.136C923.621 434.136 923.873 434.029 924.078 433.814C924.293 433.599 924.4 433.347 924.4 433.058C924.4 432.759 924.293 432.507 924.078 432.302C923.873 432.087 923.621 431.98 923.322 431.98C923.033 431.98 922.781 432.087 922.566 432.302C922.352 432.507 922.244 432.759 922.244 433.058C922.244 433.347 922.352 433.599 922.566 433.814C922.781 434.029 923.033 434.136 923.322 434.136ZM926.962 434.136C927.261 434.136 927.513 434.029 927.718 433.814C927.933 433.599 928.04 433.347 928.04 433.058C928.04 432.759 927.933 432.507 927.718 432.302C927.513 432.087 927.261 431.98 926.962 431.98C926.673 431.98 926.421 432.087 926.206 432.302C925.992 432.507 925.884 432.759 925.884 433.058C925.884 433.347 925.992 433.599 926.206 433.814C926.421 434.029 926.673 434.136 926.962 434.136ZM936.285 437.916C935.613 437.916 934.983 437.79 934.395 437.538C933.816 437.286 933.303 436.941 932.855 436.502C932.407 436.054 932.057 435.536 931.805 434.948C931.553 434.36 931.427 433.73 931.427 433.058C931.427 432.386 931.553 431.761 931.805 431.182C932.057 430.594 932.402 430.076 932.841 429.628C933.289 429.18 933.807 428.83 934.395 428.578C934.983 428.326 935.613 428.2 936.285 428.2C936.957 428.2 937.587 428.326 938.175 428.578C938.763 428.83 939.276 429.18 939.715 429.628C940.163 430.067 940.513 430.58 940.765 431.168C941.017 431.756 941.143 432.386 941.143 433.058C941.143 433.73 941.017 434.36 940.765 434.948C940.522 435.536 940.177 436.054 939.729 436.502C939.29 436.941 938.777 437.286 938.189 437.538C937.601 437.79 936.966 437.916 936.285 437.916ZM934.465 434.136C934.764 434.136 935.016 434.029 935.221 433.814C935.436 433.599 935.543 433.347 935.543 433.058C935.543 432.759 935.436 432.507 935.221 432.302C935.016 432.087 934.764 431.98 934.465 431.98C934.176 431.98 933.924 432.087 933.709 432.302C933.494 432.507 933.387 432.759 933.387 433.058C933.387 433.347 933.494 433.599 933.709 433.814C933.924 434.029 934.176 434.136 934.465 434.136ZM938.105 434.136C938.404 434.136 938.656 434.029 938.861 433.814C939.076 433.599 939.183 433.347 939.183 433.058C939.183 432.759 939.076 432.507 938.861 432.302C938.656 432.087 938.404 431.98 938.105 431.98C937.816 431.98 937.564 432.087 937.349 432.302C937.134 432.507 937.027 432.759 937.027 433.058C937.027 433.347 937.134 433.599 937.349 433.814C937.564 434.029 937.816 434.136 938.105 434.136ZM947.427 437.916C946.755 437.916 946.125 437.79 945.537 437.538C944.959 437.286 944.445 436.941 943.997 436.502C943.549 436.054 943.199 435.536 942.947 434.948C942.695 434.36 942.569 433.73 942.569 433.058C942.569 432.386 942.695 431.761 942.947 431.182C943.199 430.594 943.545 430.076 943.983 429.628C944.431 429.18 944.949 428.83 945.537 428.578C946.125 428.326 946.755 428.2 947.427 428.2C948.099 428.2 948.729 428.326 949.317 428.578C949.905 428.83 950.419 429.18 950.857 429.628C951.305 430.067 951.655 430.58 951.907 431.168C952.159 431.756 952.285 432.386 952.285 433.058C952.285 433.73 952.159 434.36 951.907 434.948C951.665 435.536 951.319 436.054 950.871 436.502C950.433 436.941 949.919 437.286 949.331 437.538C948.743 437.79 948.109 437.916 947.427 437.916ZM945.607 434.136C945.906 434.136 946.158 434.029 946.363 433.814C946.578 433.599 946.685 433.347 946.685 433.058C946.685 432.759 946.578 432.507 946.363 432.302C946.158 432.087 945.906 431.98 945.607 431.98C945.318 431.98 945.066 432.087 944.851 432.302C944.637 432.507 944.529 432.759 944.529 433.058C944.529 433.347 944.637 433.599 944.851 433.814C945.066 434.029 945.318 434.136 945.607 434.136ZM949.247 434.136C949.546 434.136 949.798 434.029 950.003 433.814C950.218 433.599 950.325 433.347 950.325 433.058C950.325 432.759 950.218 432.507 950.003 432.302C949.798 432.087 949.546 431.98 949.247 431.98C948.958 431.98 948.706 432.087 948.491 432.302C948.277 432.507 948.169 432.759 948.169 433.058C948.169 433.347 948.277 433.599 948.491 433.814C948.706 434.029 948.958 434.136 949.247 434.136ZM958.57 437.916C957.898 437.916 957.268 437.79 956.68 437.538C956.101 437.286 955.588 436.941 955.14 436.502C954.692 436.054 954.342 435.536 954.09 434.948C953.838 434.36 953.712 433.73 953.712 433.058C953.712 432.386 953.838 431.761 954.09 431.182C954.342 430.594 954.687 430.076 955.126 429.628C955.574 429.18 956.092 428.83 956.68 428.578C957.268 428.326 957.898 428.2 958.57 428.2C959.242 428.2 959.872 428.326 960.46 428.578C961.048 428.83 961.561 429.18 962 429.628C962.448 430.067 962.798 430.58 963.05 431.168C963.302 431.756 963.428 432.386 963.428 433.058C963.428 433.73 963.302 434.36 963.05 434.948C962.807 435.536 962.462 436.054 962.014 436.502C961.575 436.941 961.062 437.286 960.474 437.538C959.886 437.79 959.251 437.916 958.57 437.916ZM956.75 434.136C957.049 434.136 957.301 434.029 957.506 433.814C957.721 433.599 957.828 433.347 957.828 433.058C957.828 432.759 957.721 432.507 957.506 432.302C957.301 432.087 957.049 431.98 956.75 431.98C956.461 431.98 956.209 432.087 955.994 432.302C955.779 432.507 955.672 432.759 955.672 433.058C955.672 433.347 955.779 433.599 955.994 433.814C956.209 434.029 956.461 434.136 956.75 434.136ZM960.39 434.136C960.689 434.136 960.941 434.029 961.146 433.814C961.361 433.599 961.468 433.347 961.468 433.058C961.468 432.759 961.361 432.507 961.146 432.302C960.941 432.087 960.689 431.98 960.39 431.98C960.101 431.98 959.849 432.087 959.634 432.302C959.419 432.507 959.312 432.759 959.312 433.058C959.312 433.347 959.419 433.599 959.634 433.814C959.849 434.029 960.101 434.136 960.39 434.136Z" fill="black"/>
<rect x="867" y="500" width="342" height="38" rx="5" fill="#939393"/>
<path d="M1019.16 524V514.047H1022.41C1023.49 514.047 1024.3 514.27 1024.84 514.717C1025.39 515.163 1025.66 515.824 1025.66 516.699C1025.66 517.164 1025.53 517.576 1025.27 517.937C1025 518.292 1024.64 518.568 1024.19 518.764C1024.72 518.914 1025.15 519.201 1025.46 519.625C1025.77 520.044 1025.93 520.546 1025.93 521.129C1025.93 522.022 1025.64 522.724 1025.06 523.234C1024.48 523.745 1023.66 524 1022.61 524H1019.16ZM1020.47 519.345V522.927H1022.63C1023.25 522.927 1023.73 522.77 1024.08 522.455C1024.43 522.136 1024.61 521.699 1024.61 521.143C1024.61 519.944 1023.96 519.345 1022.66 519.345H1020.47ZM1020.47 518.292H1022.45C1023.02 518.292 1023.48 518.148 1023.82 517.861C1024.17 517.574 1024.34 517.185 1024.34 516.692C1024.34 516.146 1024.18 515.749 1023.87 515.503C1023.55 515.252 1023.06 515.127 1022.41 515.127H1020.47V518.292ZM1027.34 520.233C1027.34 519.509 1027.49 518.857 1027.77 518.278C1028.06 517.7 1028.45 517.253 1028.96 516.938C1029.47 516.624 1030.05 516.467 1030.7 516.467C1031.71 516.467 1032.52 516.815 1033.14 517.513C1033.77 518.21 1034.08 519.137 1034.08 520.295V520.384C1034.08 521.104 1033.94 521.751 1033.66 522.325C1033.39 522.895 1032.99 523.339 1032.48 523.658C1031.97 523.977 1031.38 524.137 1030.71 524.137C1029.71 524.137 1028.9 523.788 1028.27 523.091C1027.65 522.394 1027.34 521.471 1027.34 520.322V520.233ZM1028.62 520.384C1028.62 521.204 1028.81 521.863 1029.18 522.359C1029.57 522.856 1030.08 523.104 1030.71 523.104C1031.36 523.104 1031.87 522.854 1032.25 522.353C1032.62 521.847 1032.81 521.14 1032.81 520.233C1032.81 519.422 1032.62 518.766 1032.23 518.265C1031.85 517.759 1031.34 517.506 1030.7 517.506C1030.08 517.506 1029.57 517.754 1029.19 518.251C1028.81 518.748 1028.62 519.459 1028.62 520.384ZM1040.45 516.604H1041.71V524H1040.45V518.606L1037.04 524H1035.77V516.604H1037.04V522.004L1040.45 516.604ZM1040.79 513.91C1040.79 514.462 1040.6 514.906 1040.22 515.243C1039.85 515.576 1039.36 515.742 1038.75 515.742C1038.14 515.742 1037.64 515.574 1037.26 515.236C1036.89 514.899 1036.7 514.457 1036.7 513.91H1037.73C1037.73 514.229 1037.82 514.48 1037.99 514.662C1038.16 514.84 1038.41 514.929 1038.75 514.929C1039.07 514.929 1039.31 514.84 1039.49 514.662C1039.67 514.484 1039.77 514.234 1039.77 513.91H1040.79ZM1049.24 517.629H1046.76V524H1045.49V517.629H1043.06V516.604H1049.24V517.629ZM1055.26 516.604H1056.52V524H1055.26V518.606L1051.84 524H1050.58V516.604H1051.84V522.004L1055.26 516.604Z" fill="black"/>
<rect x="70" y="170" width="620" height="453" fill="#8C8C8C"/>
<line x1="90.2885" y1="192.592" x2="659.289" y2="594.592" stroke="black"/>
<line x1="661.068" y1="193.403" x2="99.2958" y2="605.443" stroke="black"/>
<path d="M879.999 220.138H878.32V217H869.136V220.146H867.448L867.439 215.62H868.485C869.036 214.999 869.473 214.167 869.795 213.124C870.123 212.075 870.328 210.927 870.41 209.679L870.691 204.203H878.347V215.62H880.017L879.999 220.138ZM870.41 215.62H876.65V205.592H872.317L872.133 209.354C872.057 210.824 871.86 212.078 871.544 213.115C871.233 214.152 870.855 214.987 870.41 215.62ZM881.335 212.157C881.335 211.226 881.517 210.388 881.88 209.644C882.249 208.899 882.759 208.325 883.409 207.921C884.065 207.517 884.812 207.314 885.65 207.314C886.945 207.314 887.991 207.763 888.788 208.659C889.591 209.556 889.992 210.748 889.992 212.236V212.351C889.992 213.276 889.813 214.108 889.456 214.847C889.104 215.579 888.598 216.15 887.936 216.561C887.279 216.971 886.523 217.176 885.668 217.176C884.379 217.176 883.333 216.728 882.53 215.831C881.733 214.935 881.335 213.748 881.335 212.271V212.157ZM882.97 212.351C882.97 213.405 883.213 214.252 883.699 214.891C884.191 215.529 884.848 215.849 885.668 215.849C886.494 215.849 887.15 215.526 887.637 214.882C888.123 214.231 888.366 213.323 888.366 212.157C888.366 211.114 888.117 210.271 887.619 209.626C887.127 208.976 886.471 208.65 885.65 208.65C884.848 208.65 884.2 208.97 883.708 209.608C883.216 210.247 882.97 211.161 882.97 212.351ZM896.206 208.035C897.401 208.035 898.356 208.437 899.071 209.239C899.792 210.036 900.152 211.088 900.152 212.395V212.544C900.152 213.44 899.979 214.243 899.634 214.952C899.288 215.655 898.79 216.203 898.14 216.596C897.495 216.982 896.751 217.176 895.907 217.176C894.63 217.176 893.602 216.751 892.822 215.901C892.043 215.046 891.653 213.9 891.653 212.465V211.674C891.653 209.676 892.022 208.088 892.761 206.91C893.505 205.732 894.601 205.015 896.048 204.757C896.868 204.61 897.422 204.432 897.709 204.221C897.996 204.01 898.14 203.72 898.14 203.351H899.476C899.476 204.083 899.309 204.654 898.975 205.064C898.646 205.475 898.119 205.765 897.393 205.935L896.18 206.207C895.213 206.436 894.486 206.822 894 207.367C893.52 207.906 893.206 208.627 893.06 209.529C893.921 208.533 894.97 208.035 896.206 208.035ZM895.89 209.371C895.093 209.371 894.46 209.641 893.991 210.18C893.522 210.713 893.288 211.454 893.288 212.403V212.544C893.288 213.563 893.522 214.372 893.991 214.97C894.466 215.562 895.104 215.857 895.907 215.857C896.716 215.857 897.354 215.559 897.823 214.961C898.292 214.363 898.526 213.49 898.526 212.342C898.526 211.445 898.289 210.728 897.814 210.188C897.346 209.644 896.704 209.371 895.89 209.371ZM909.855 212.351C909.855 213.798 909.524 214.964 908.862 215.849C908.2 216.733 907.304 217.176 906.173 217.176C905.019 217.176 904.11 216.81 903.448 216.077V220.656H901.822V207.49H903.308L903.387 208.545C904.049 207.725 904.969 207.314 906.146 207.314C907.289 207.314 908.191 207.745 908.854 208.606C909.521 209.468 909.855 210.666 909.855 212.201V212.351ZM908.229 212.166C908.229 211.094 908.001 210.247 907.544 209.626C907.087 209.005 906.46 208.694 905.663 208.694C904.679 208.694 903.94 209.131 903.448 210.004V214.548C903.935 215.415 904.679 215.849 905.681 215.849C906.46 215.849 907.078 215.541 907.535 214.926C907.998 214.305 908.229 213.385 908.229 212.166ZM911.499 212.157C911.499 211.226 911.681 210.388 912.044 209.644C912.413 208.899 912.923 208.325 913.573 207.921C914.229 207.517 914.977 207.314 915.814 207.314C917.109 207.314 918.155 207.763 918.952 208.659C919.755 209.556 920.156 210.748 920.156 212.236V212.351C920.156 213.276 919.978 214.108 919.62 214.847C919.269 215.579 918.762 216.15 918.1 216.561C917.443 216.971 916.688 217.176 915.832 217.176C914.543 217.176 913.497 216.728 912.694 215.831C911.897 214.935 911.499 213.748 911.499 212.271V212.157ZM913.134 212.351C913.134 213.405 913.377 214.252 913.863 214.891C914.355 215.529 915.012 215.849 915.832 215.849C916.658 215.849 917.314 215.526 917.801 214.882C918.287 214.231 918.53 213.323 918.53 212.157C918.53 211.114 918.281 210.271 917.783 209.626C917.291 208.976 916.635 208.65 915.814 208.65C915.012 208.65 914.364 208.97 913.872 209.608C913.38 210.247 913.134 211.161 913.134 212.351ZM934.438 217H932.812V208.835H928.436V217H926.801V207.49H934.438V217ZM936.618 212.157C936.618 211.226 936.8 210.388 937.163 209.644C937.532 208.899 938.042 208.325 938.692 207.921C939.349 207.517 940.096 207.314 940.934 207.314C942.229 207.314 943.274 207.763 944.071 208.659C944.874 209.556 945.275 210.748 945.275 212.236V212.351C945.275 213.276 945.097 214.108 944.739 214.847C944.388 215.579 943.881 216.15 943.219 216.561C942.562 216.971 941.807 217.176 940.951 217.176C939.662 217.176 938.616 216.728 937.813 215.831C937.017 214.935 936.618 213.748 936.618 212.271V212.157ZM938.253 212.351C938.253 213.405 938.496 214.252 938.982 214.891C939.475 215.529 940.131 215.849 940.951 215.849C941.777 215.849 942.434 215.526 942.92 214.882C943.406 214.231 943.649 213.323 943.649 212.157C943.649 211.114 943.4 210.271 942.902 209.626C942.41 208.976 941.754 208.65 940.934 208.65C940.131 208.65 939.483 208.97 938.991 209.608C938.499 210.247 938.253 211.161 938.253 212.351ZM954.706 212.869H953.563V217H951.938V212.869H950.795L948.132 217H946.075L949.477 212.078L946.4 207.49H948.369L950.821 211.428H951.938V207.49H953.563V211.428H954.671L957.141 207.49H959.109L956.024 212.087L959.426 217H957.369L954.706 212.869ZM966.773 217C966.68 216.812 966.604 216.479 966.545 215.998C965.789 216.783 964.887 217.176 963.838 217.176C962.9 217.176 962.13 216.912 961.526 216.385C960.929 215.852 960.63 215.178 960.63 214.363C960.63 213.373 961.005 212.605 961.755 212.061C962.511 211.51 963.571 211.234 964.937 211.234H966.519V210.487C966.519 209.919 966.349 209.468 966.009 209.134C965.669 208.794 965.168 208.624 964.506 208.624C963.926 208.624 963.439 208.771 963.047 209.063C962.654 209.356 962.458 209.711 962.458 210.127H960.823C960.823 209.652 960.99 209.195 961.324 208.756C961.664 208.311 962.121 207.959 962.695 207.701C963.275 207.443 963.911 207.314 964.603 207.314C965.698 207.314 966.557 207.59 967.178 208.141C967.799 208.686 968.121 209.438 968.145 210.399V214.776C968.145 215.649 968.256 216.344 968.479 216.859V217H966.773ZM964.075 215.761C964.585 215.761 965.068 215.629 965.525 215.365C965.982 215.102 966.313 214.759 966.519 214.337V212.386H965.244C963.252 212.386 962.256 212.969 962.256 214.135C962.256 214.645 962.426 215.043 962.766 215.33C963.105 215.617 963.542 215.761 964.075 215.761ZM978.489 207.49V217H976.854V208.835H973.62L973.427 212.395C973.321 214.029 973.046 215.198 972.601 215.901C972.161 216.604 971.461 216.971 970.5 217H969.85V215.567L970.315 215.532C970.843 215.474 971.221 215.169 971.449 214.618C971.678 214.067 971.824 213.048 971.889 211.56L972.064 207.49H978.489ZM980.669 212.157C980.669 211.226 980.851 210.388 981.214 209.644C981.583 208.899 982.093 208.325 982.743 207.921C983.399 207.517 984.146 207.314 984.984 207.314C986.279 207.314 987.325 207.763 988.122 208.659C988.925 209.556 989.326 210.748 989.326 212.236V212.351C989.326 213.276 989.147 214.108 988.79 214.847C988.438 215.579 987.932 216.15 987.27 216.561C986.613 216.971 985.857 217.176 985.002 217.176C983.713 217.176 982.667 216.728 981.864 215.831C981.067 214.935 980.669 213.748 980.669 212.271V212.157ZM982.304 212.351C982.304 213.405 982.547 214.252 983.033 214.891C983.525 215.529 984.182 215.849 985.002 215.849C985.828 215.849 986.484 215.526 986.971 214.882C987.457 214.231 987.7 213.323 987.7 212.157C987.7 211.114 987.451 210.271 986.953 209.626C986.461 208.976 985.805 208.65 984.984 208.65C984.182 208.65 983.534 208.97 983.042 209.608C982.55 210.247 982.304 211.161 982.304 212.351ZM991.515 217V207.49H995.224C996.489 207.49 997.459 207.713 998.133 208.158C998.812 208.598 999.152 209.245 999.152 210.101C999.152 210.54 999.021 210.938 998.757 211.296C998.493 211.647 998.104 211.917 997.588 212.104C998.162 212.239 998.622 212.503 998.968 212.896C999.319 213.288 999.495 213.757 999.495 214.302C999.495 215.175 999.173 215.843 998.528 216.306C997.89 216.769 996.984 217 995.812 217H991.515ZM993.141 212.825V215.69H995.83C996.51 215.69 997.017 215.564 997.351 215.312C997.69 215.061 997.86 214.706 997.86 214.249C997.86 213.3 997.163 212.825 995.769 212.825H993.141ZM993.141 211.524H995.241C996.765 211.524 997.526 211.079 997.526 210.188C997.526 209.298 996.806 208.838 995.364 208.809H993.141V211.524ZM1007.52 217C1007.43 216.812 1007.35 216.479 1007.29 215.998C1006.54 216.783 1005.63 217.176 1004.58 217.176C1003.65 217.176 1002.88 216.912 1002.27 216.385C1001.67 215.852 1001.38 215.178 1001.38 214.363C1001.38 213.373 1001.75 212.605 1002.5 212.061C1003.26 211.51 1004.32 211.234 1005.68 211.234H1007.26V210.487C1007.26 209.919 1007.09 209.468 1006.75 209.134C1006.42 208.794 1005.91 208.624 1005.25 208.624C1004.67 208.624 1004.19 208.771 1003.79 209.063C1003.4 209.356 1003.2 209.711 1003.2 210.127H1001.57C1001.57 209.652 1001.74 209.195 1002.07 208.756C1002.41 208.311 1002.87 207.959 1003.44 207.701C1004.02 207.443 1004.66 207.314 1005.35 207.314C1006.44 207.314 1007.3 207.59 1007.92 208.141C1008.54 208.686 1008.87 209.438 1008.89 210.399V214.776C1008.89 215.649 1009 216.344 1009.22 216.859V217H1007.52ZM1004.82 215.761C1005.33 215.761 1005.81 215.629 1006.27 215.365C1006.73 215.102 1007.06 214.759 1007.26 214.337V212.386H1005.99C1004 212.386 1003 212.969 1003 214.135C1003 214.645 1003.17 215.043 1003.51 215.33C1003.85 215.617 1004.29 215.761 1004.82 215.761ZM1018.37 208.809H1015.17V217H1013.55V208.809H1010.42V207.49H1018.37V208.809ZM1021.72 210.769H1024.19C1025.27 210.78 1026.12 211.062 1026.75 211.612C1027.38 212.163 1027.69 212.91 1027.69 213.854C1027.69 214.803 1027.37 215.564 1026.72 216.139C1026.08 216.713 1025.21 217 1024.12 217H1020.1V207.49H1021.72V210.769ZM1021.72 212.096V215.673H1024.14C1024.75 215.673 1025.22 215.518 1025.55 215.207C1025.89 214.891 1026.06 214.46 1026.06 213.915C1026.06 213.388 1025.89 212.957 1025.56 212.623C1025.24 212.283 1024.79 212.107 1024.2 212.096H1021.72ZM1034.33 217V207.49H1038.04C1039.31 207.49 1040.28 207.713 1040.95 208.158C1041.63 208.598 1041.97 209.245 1041.97 210.101C1041.97 210.54 1041.84 210.938 1041.58 211.296C1041.31 211.647 1040.92 211.917 1040.41 212.104C1040.98 212.239 1041.44 212.503 1041.79 212.896C1042.14 213.288 1042.32 213.757 1042.32 214.302C1042.32 215.175 1041.99 215.843 1041.35 216.306C1040.71 216.769 1039.8 217 1038.63 217H1034.33ZM1035.96 212.825V215.69H1038.65C1039.33 215.69 1039.84 215.564 1040.17 215.312C1040.51 215.061 1040.68 214.706 1040.68 214.249C1040.68 213.3 1039.98 212.825 1038.59 212.825H1035.96ZM1035.96 211.524H1038.06C1039.58 211.524 1040.35 211.079 1040.35 210.188C1040.35 209.298 1039.63 208.838 1038.18 208.809H1035.96V211.524ZM1057.68 205.592H1053.57V217H1051.89V205.592H1047.78V204.203H1057.68V205.592ZM1061.09 217H1059.46V207.49H1061.09V217ZM1059.33 204.968C1059.33 204.704 1059.41 204.481 1059.57 204.3C1059.73 204.118 1059.97 204.027 1060.29 204.027C1060.61 204.027 1060.85 204.118 1061.01 204.3C1061.17 204.481 1061.26 204.704 1061.26 204.968C1061.26 205.231 1061.17 205.451 1061.01 205.627C1060.85 205.803 1060.61 205.891 1060.29 205.891C1059.97 205.891 1059.73 205.803 1059.57 205.627C1059.41 205.451 1059.33 205.231 1059.33 204.968ZM1065.23 207.49L1065.27 208.545C1065.97 207.725 1066.91 207.314 1068.09 207.314C1069.42 207.314 1070.33 207.824 1070.81 208.844C1071.13 208.387 1071.54 208.018 1072.04 207.736C1072.55 207.455 1073.15 207.314 1073.84 207.314C1075.93 207.314 1076.99 208.419 1077.02 210.628V217H1075.4V210.725C1075.4 210.045 1075.24 209.538 1074.93 209.204C1074.62 208.864 1074.1 208.694 1073.37 208.694C1072.76 208.694 1072.26 208.876 1071.86 209.239C1071.47 209.597 1071.23 210.08 1071.17 210.689V217H1069.54V210.769C1069.54 209.386 1068.86 208.694 1067.5 208.694C1066.44 208.694 1065.71 209.148 1065.32 210.057V217H1063.69V207.49H1065.23ZM1083.43 217.176C1082.14 217.176 1081.09 216.754 1080.28 215.91C1079.48 215.061 1079.07 213.927 1079.07 212.509V212.21C1079.07 211.267 1079.25 210.426 1079.61 209.688C1079.97 208.943 1080.47 208.363 1081.12 207.947C1081.77 207.525 1082.47 207.314 1083.23 207.314C1084.46 207.314 1085.43 207.722 1086.11 208.536C1086.8 209.351 1087.14 210.517 1087.14 212.034V212.711H1080.7C1080.72 213.648 1080.99 214.407 1081.51 214.987C1082.04 215.562 1082.71 215.849 1083.52 215.849C1084.09 215.849 1084.58 215.731 1084.98 215.497C1085.38 215.263 1085.72 214.952 1086.02 214.565L1087.02 215.339C1086.22 216.563 1085.02 217.176 1083.43 217.176ZM1083.23 208.65C1082.57 208.65 1082.02 208.891 1081.58 209.371C1081.13 209.846 1080.86 210.514 1080.75 211.375H1085.51V211.252C1085.47 210.426 1085.24 209.787 1084.85 209.336C1084.45 208.879 1083.91 208.65 1083.23 208.65ZM1093.05 211.296C1091.61 210.88 1090.55 210.37 1089.89 209.767C1089.23 209.157 1088.91 208.407 1088.91 207.517C1088.91 206.509 1089.31 205.677 1090.11 205.021C1090.92 204.358 1091.97 204.027 1093.26 204.027C1094.14 204.027 1094.92 204.197 1095.6 204.537C1096.29 204.877 1096.83 205.346 1097.2 205.943C1097.58 206.541 1097.77 207.194 1097.77 207.903H1096.08C1096.08 207.13 1095.83 206.523 1095.34 206.084C1094.85 205.639 1094.15 205.416 1093.26 205.416C1092.42 205.416 1091.77 205.601 1091.31 205.97C1090.84 206.333 1090.61 206.84 1090.61 207.49C1090.61 208.012 1090.83 208.454 1091.27 208.817C1091.72 209.175 1092.47 209.503 1093.53 209.802C1094.6 210.101 1095.43 210.432 1096.03 210.795C1096.63 211.152 1097.07 211.571 1097.36 212.052C1097.65 212.532 1097.8 213.098 1097.8 213.748C1097.8 214.785 1097.4 215.617 1096.59 216.244C1095.78 216.865 1094.7 217.176 1093.34 217.176C1092.47 217.176 1091.65 217.009 1090.88 216.675C1090.12 216.335 1089.53 215.872 1089.12 215.286C1088.71 214.7 1088.5 214.035 1088.5 213.291H1090.2C1090.2 214.064 1090.48 214.677 1091.05 215.128C1091.62 215.573 1092.39 215.796 1093.34 215.796C1094.24 215.796 1094.92 215.614 1095.39 215.251C1095.87 214.888 1096.1 214.393 1096.1 213.766C1096.1 213.139 1095.88 212.655 1095.45 212.315C1095.01 211.97 1094.21 211.63 1093.05 211.296ZM1099.29 212.157C1099.29 211.226 1099.47 210.388 1099.83 209.644C1100.2 208.899 1100.71 208.325 1101.36 207.921C1102.02 207.517 1102.76 207.314 1103.6 207.314C1104.9 207.314 1105.94 207.763 1106.74 208.659C1107.54 209.556 1107.94 210.748 1107.94 212.236V212.351C1107.94 213.276 1107.76 214.108 1107.41 214.847C1107.06 215.579 1106.55 216.15 1105.89 216.561C1105.23 216.971 1104.47 217.176 1103.62 217.176C1102.33 217.176 1101.28 216.728 1100.48 215.831C1099.68 214.935 1099.29 213.748 1099.29 212.271V212.157ZM1100.92 212.351C1100.92 213.405 1101.16 214.252 1101.65 214.891C1102.14 215.529 1102.8 215.849 1103.62 215.849C1104.45 215.849 1105.1 215.526 1105.59 214.882C1106.07 214.231 1106.32 213.323 1106.32 212.157C1106.32 211.114 1106.07 210.271 1105.57 209.626C1105.08 208.976 1104.42 208.65 1103.6 208.65C1102.8 208.65 1102.15 208.97 1101.66 209.608C1101.17 210.247 1100.92 211.161 1100.92 212.351ZM1110.78 217V208.747H1109.28V207.49H1110.78V206.515C1110.78 205.495 1111.05 204.707 1111.6 204.15C1112.14 203.594 1112.92 203.315 1113.91 203.315C1114.29 203.315 1114.66 203.365 1115.03 203.465L1114.94 204.783C1114.66 204.73 1114.37 204.704 1114.06 204.704C1113.53 204.704 1113.13 204.859 1112.84 205.17C1112.55 205.475 1112.41 205.914 1112.41 206.488V207.49H1114.44V208.747H1112.41V217H1110.78ZM1118.45 205.188V207.49H1120.22V208.747H1118.45V214.645C1118.45 215.025 1118.53 215.312 1118.68 215.506C1118.84 215.693 1119.11 215.787 1119.49 215.787C1119.68 215.787 1119.94 215.752 1120.27 215.682V217C1119.84 217.117 1119.42 217.176 1119.02 217.176C1118.29 217.176 1117.74 216.956 1117.37 216.517C1117 216.077 1116.82 215.453 1116.82 214.645V208.747H1115.09V207.49H1116.82V205.188H1118.45ZM1123.95 213.388H1122.48L1122.37 204.203H1124.07L1123.95 213.388ZM1122.3 216.183C1122.3 215.919 1122.38 215.699 1122.54 215.523C1122.71 215.342 1122.95 215.251 1123.26 215.251C1123.58 215.251 1123.82 215.342 1123.98 215.523C1124.15 215.699 1124.23 215.919 1124.23 216.183C1124.23 216.446 1124.15 216.666 1123.98 216.842C1123.82 217.012 1123.58 217.097 1123.26 217.097C1122.95 217.097 1122.71 217.012 1122.54 216.842C1122.38 216.666 1122.3 216.446 1122.3 216.183Z" fill="black"/>
<path d="M875.757 255H874.438V246.127H869.529V255H868.217V245.047H875.757V255ZM877.616 251.233C877.616 250.509 877.757 249.857 878.04 249.278C878.327 248.7 878.724 248.253 879.229 247.938C879.74 247.624 880.321 247.467 880.973 247.467C881.98 247.467 882.793 247.815 883.413 248.513C884.037 249.21 884.35 250.137 884.35 251.295V251.384C884.35 252.104 884.211 252.751 883.933 253.325C883.659 253.895 883.265 254.339 882.75 254.658C882.24 254.977 881.652 255.137 880.986 255.137C879.984 255.137 879.17 254.788 878.546 254.091C877.926 253.394 877.616 252.471 877.616 251.322V251.233ZM878.888 251.384C878.888 252.204 879.077 252.863 879.455 253.359C879.838 253.856 880.348 254.104 880.986 254.104C881.629 254.104 882.139 253.854 882.518 253.353C882.896 252.847 883.085 252.14 883.085 251.233C883.085 250.422 882.891 249.766 882.504 249.265C882.121 248.759 881.611 248.506 880.973 248.506C880.348 248.506 879.845 248.754 879.462 249.251C879.079 249.748 878.888 250.459 878.888 251.384ZM891.685 251.787H890.796V255H889.531V251.787H888.643L886.571 255H884.972L887.617 251.172L885.225 247.604H886.756L888.663 250.666H889.531V247.604H890.796V250.666H891.657L893.578 247.604H895.109L892.71 251.179L895.355 255H893.756L891.685 251.787ZM901.07 255C900.997 254.854 900.938 254.594 900.893 254.221C900.305 254.831 899.603 255.137 898.787 255.137C898.058 255.137 897.459 254.932 896.989 254.521C896.524 254.107 896.292 253.583 896.292 252.949C896.292 252.179 896.584 251.582 897.167 251.158C897.755 250.73 898.58 250.516 899.642 250.516H900.872V249.935C900.872 249.493 900.74 249.142 900.476 248.882C900.211 248.618 899.822 248.485 899.307 248.485C898.855 248.485 898.477 248.599 898.172 248.827C897.867 249.055 897.714 249.331 897.714 249.654H896.442C896.442 249.285 896.572 248.93 896.832 248.588C897.096 248.242 897.452 247.968 897.898 247.768C898.35 247.567 898.844 247.467 899.382 247.467C900.234 247.467 900.902 247.681 901.385 248.109C901.868 248.533 902.118 249.119 902.137 249.866V253.271C902.137 253.95 902.223 254.49 902.396 254.891V255H901.07ZM898.972 254.036C899.368 254.036 899.744 253.934 900.1 253.729C900.455 253.523 900.713 253.257 900.872 252.929V251.411H899.881C898.331 251.411 897.557 251.865 897.557 252.771C897.557 253.168 897.689 253.478 897.953 253.701C898.217 253.924 898.557 254.036 898.972 254.036ZM910.183 247.604V255H908.911V248.649H906.396L906.245 251.418C906.163 252.689 905.949 253.599 905.603 254.146C905.261 254.692 904.716 254.977 903.969 255H903.463V253.886L903.825 253.858C904.235 253.813 904.529 253.576 904.707 253.147C904.885 252.719 904.999 251.926 905.049 250.769L905.186 247.604H910.183ZM914.633 253.147L916.355 247.604H917.709L914.735 256.142C914.275 257.372 913.544 257.987 912.541 257.987L912.302 257.967L911.83 257.878V256.853L912.172 256.88C912.6 256.88 912.933 256.793 913.17 256.62C913.411 256.447 913.61 256.13 913.765 255.67L914.045 254.918L911.406 247.604H912.787L914.633 253.147ZM923.629 247.604H924.894V255H923.629V249.606L920.218 255H918.953V247.604H920.218V253.004L923.629 247.604ZM923.971 244.91C923.971 245.462 923.782 245.906 923.403 246.243C923.03 246.576 922.537 246.742 921.927 246.742C921.316 246.742 920.822 246.574 920.443 246.236C920.065 245.899 919.876 245.457 919.876 244.91H920.908C920.908 245.229 920.995 245.48 921.168 245.662C921.341 245.84 921.594 245.929 921.927 245.929C922.246 245.929 922.494 245.84 922.672 245.662C922.854 245.484 922.945 245.234 922.945 244.91H923.971ZM929.891 254.104C930.342 254.104 930.736 253.968 931.073 253.694C931.41 253.421 931.597 253.079 931.634 252.669H932.83C932.807 253.093 932.661 253.496 932.393 253.879C932.124 254.262 931.764 254.567 931.312 254.795C930.866 255.023 930.392 255.137 929.891 255.137C928.883 255.137 928.081 254.802 927.484 254.132C926.892 253.457 926.596 252.537 926.596 251.37V251.158C926.596 250.438 926.728 249.798 926.992 249.237C927.257 248.677 927.635 248.242 928.127 247.932C928.624 247.622 929.209 247.467 929.884 247.467C930.713 247.467 931.401 247.715 931.948 248.212C932.5 248.709 932.794 249.354 932.83 250.146H931.634C931.597 249.668 931.415 249.276 931.087 248.971C930.763 248.661 930.362 248.506 929.884 248.506C929.241 248.506 928.742 248.738 928.387 249.203C928.036 249.663 927.86 250.331 927.86 251.206V251.445C927.86 252.298 928.036 252.954 928.387 253.414C928.738 253.874 929.239 254.104 929.891 254.104ZM939.748 248.629H937.267V255H936.002V248.629H933.568V247.604H939.748V248.629ZM945.436 255C945.363 254.854 945.303 254.594 945.258 254.221C944.67 254.831 943.968 255.137 943.152 255.137C942.423 255.137 941.824 254.932 941.354 254.521C940.89 254.107 940.657 253.583 940.657 252.949C940.657 252.179 940.949 251.582 941.532 251.158C942.12 250.73 942.945 250.516 944.007 250.516H945.237V249.935C945.237 249.493 945.105 249.142 944.841 248.882C944.576 248.618 944.187 248.485 943.672 248.485C943.221 248.485 942.842 248.599 942.537 248.827C942.232 249.055 942.079 249.331 942.079 249.654H940.808C940.808 249.285 940.938 248.93 941.197 248.588C941.462 248.242 941.817 247.968 942.264 247.768C942.715 247.567 943.209 247.467 943.747 247.467C944.599 247.467 945.267 247.681 945.75 248.109C946.233 248.533 946.484 249.119 946.502 249.866V253.271C946.502 253.95 946.589 254.49 946.762 254.891V255H945.436ZM943.337 254.036C943.733 254.036 944.109 253.934 944.465 253.729C944.82 253.523 945.078 253.257 945.237 252.929V251.411H944.246C942.697 251.411 941.922 251.865 941.922 252.771C941.922 253.168 942.054 253.478 942.318 253.701C942.583 253.924 942.922 254.036 943.337 254.036ZM948.443 256.982L947.726 256.49C948.154 255.893 948.377 255.278 948.396 254.645V253.503H949.633V254.494C949.633 254.954 949.519 255.415 949.291 255.875C949.068 256.335 948.785 256.704 948.443 256.982ZM954.821 255V247.604H957.706C958.69 247.604 959.445 247.777 959.969 248.123C960.497 248.465 960.762 248.968 960.762 249.634C960.762 249.976 960.659 250.285 960.454 250.563C960.249 250.837 959.946 251.047 959.545 251.192C959.992 251.297 960.349 251.502 960.618 251.808C960.892 252.113 961.028 252.478 961.028 252.901C961.028 253.58 960.778 254.1 960.276 254.46C959.78 254.82 959.076 255 958.164 255H954.821ZM956.086 251.753V253.981H958.178C958.706 253.981 959.101 253.883 959.36 253.688C959.625 253.492 959.757 253.216 959.757 252.86C959.757 252.122 959.215 251.753 958.13 251.753H956.086ZM956.086 250.741H957.72C958.905 250.741 959.497 250.395 959.497 249.702C959.497 249.009 958.937 248.652 957.815 248.629H956.086V250.741ZM962.368 251.233C962.368 250.509 962.509 249.857 962.792 249.278C963.079 248.7 963.476 248.253 963.981 247.938C964.492 247.624 965.073 247.467 965.725 247.467C966.732 247.467 967.545 247.815 968.165 248.513C968.789 249.21 969.102 250.137 969.102 251.295V251.384C969.102 252.104 968.963 252.751 968.685 253.325C968.411 253.895 968.017 254.339 967.502 254.658C966.992 254.977 966.404 255.137 965.738 255.137C964.736 255.137 963.922 254.788 963.298 254.091C962.678 253.394 962.368 252.471 962.368 251.322V251.233ZM963.64 251.384C963.64 252.204 963.829 252.863 964.207 253.359C964.59 253.856 965.1 254.104 965.738 254.104C966.381 254.104 966.891 253.854 967.27 253.353C967.648 252.847 967.837 252.14 967.837 251.233C967.837 250.422 967.643 249.766 967.256 249.265C966.873 248.759 966.363 248.506 965.725 248.506C965.1 248.506 964.597 248.754 964.214 249.251C963.831 249.748 963.64 250.459 963.64 251.384ZM975.473 247.604H976.737V255H975.473V249.606L972.062 255H970.797V247.604H972.062V253.004L975.473 247.604ZM975.814 244.91C975.814 245.462 975.625 245.906 975.247 246.243C974.873 246.576 974.381 246.742 973.771 246.742C973.16 246.742 972.665 246.574 972.287 246.236C971.909 245.899 971.72 245.457 971.72 244.91H972.752C972.752 245.229 972.839 245.48 973.012 245.662C973.185 245.84 973.438 245.929 973.771 245.929C974.09 245.929 974.338 245.84 974.516 245.662C974.698 245.484 974.789 245.234 974.789 244.91H975.814ZM978.706 253.968L979.144 253.428C979.636 252.79 979.916 251.833 979.984 250.557L980.101 247.604H984.865V253.968H985.815V257.174H984.551V255H979.39V257.174H978.125L978.132 253.968H978.706ZM980.203 253.968H983.601V248.772H981.324L981.249 250.536C981.172 252.008 980.823 253.152 980.203 253.968ZM992.002 247.604H993.267V255H992.002V249.606L988.591 255H987.326V247.604H988.591V253.004L992.002 247.604ZM1000.79 248.629H998.312V255H997.047V248.629H994.613V247.604H1000.79V248.629ZM1004.55 255.137C1003.54 255.137 1002.73 254.809 1002.1 254.152C1001.47 253.492 1001.16 252.61 1001.16 251.507V251.274C1001.16 250.541 1001.29 249.887 1001.57 249.312C1001.85 248.734 1002.25 248.283 1002.75 247.959C1003.25 247.631 1003.8 247.467 1004.39 247.467C1005.35 247.467 1006.1 247.784 1006.63 248.417C1007.16 249.05 1007.43 249.957 1007.43 251.138V251.664H1002.42C1002.44 252.393 1002.65 252.983 1003.06 253.435C1003.47 253.881 1003.99 254.104 1004.61 254.104C1005.06 254.104 1005.44 254.013 1005.75 253.831C1006.06 253.649 1006.33 253.407 1006.56 253.106L1007.33 253.708C1006.72 254.66 1005.79 255.137 1004.55 255.137ZM1004.39 248.506C1003.88 248.506 1003.45 248.693 1003.1 249.066C1002.76 249.436 1002.54 249.955 1002.46 250.625H1006.17V250.529C1006.13 249.887 1005.96 249.39 1005.65 249.039C1005.34 248.684 1004.92 248.506 1004.39 248.506ZM1012.49 255V247.604H1015.37C1016.36 247.604 1017.11 247.777 1017.64 248.123C1018.17 248.465 1018.43 248.968 1018.43 249.634C1018.43 249.976 1018.33 250.285 1018.12 250.563C1017.92 250.837 1017.61 251.047 1017.21 251.192C1017.66 251.297 1018.02 251.502 1018.29 251.808C1018.56 252.113 1018.7 252.478 1018.7 252.901C1018.7 253.58 1018.45 254.1 1017.94 254.46C1017.45 254.82 1016.74 255 1015.83 255H1012.49ZM1013.75 251.753V253.981H1015.85C1016.37 253.981 1016.77 253.883 1017.03 253.688C1017.29 253.492 1017.42 253.216 1017.42 252.86C1017.42 252.122 1016.88 251.753 1015.8 251.753H1013.75ZM1013.75 250.741H1015.39C1016.57 250.741 1017.17 250.395 1017.17 249.702C1017.17 249.009 1016.6 248.652 1015.48 248.629H1013.75V250.741ZM1026.81 254.104C1027.26 254.104 1027.66 253.968 1027.99 253.694C1028.33 253.421 1028.52 253.079 1028.55 252.669H1029.75C1029.73 253.093 1029.58 253.496 1029.31 253.879C1029.04 254.262 1028.68 254.567 1028.23 254.795C1027.79 255.023 1027.31 255.137 1026.81 255.137C1025.8 255.137 1025 254.802 1024.4 254.132C1023.81 253.457 1023.52 252.537 1023.52 251.37V251.158C1023.52 250.438 1023.65 249.798 1023.91 249.237C1024.18 248.677 1024.55 248.242 1025.05 247.932C1025.54 247.622 1026.13 247.467 1026.8 247.467C1027.63 247.467 1028.32 247.715 1028.87 248.212C1029.42 248.709 1029.71 249.354 1029.75 250.146H1028.55C1028.52 249.668 1028.33 249.276 1028.01 248.971C1027.68 248.661 1027.28 248.506 1026.8 248.506C1026.16 248.506 1025.66 248.738 1025.31 249.203C1024.96 249.663 1024.78 250.331 1024.78 251.206V251.445C1024.78 252.298 1024.96 252.954 1025.31 253.414C1025.66 253.874 1026.16 254.104 1026.81 254.104ZM1031.29 255V247.604H1034.17C1035.16 247.604 1035.91 247.777 1036.44 248.123C1036.96 248.465 1037.23 248.968 1037.23 249.634C1037.23 249.976 1037.13 250.285 1036.92 250.563C1036.72 250.837 1036.41 251.047 1036.01 251.192C1036.46 251.297 1036.82 251.502 1037.08 251.808C1037.36 252.113 1037.5 252.478 1037.5 252.901C1037.5 253.58 1037.24 254.1 1036.74 254.46C1036.25 254.82 1035.54 255 1034.63 255H1031.29ZM1032.55 251.753V253.981H1034.64C1035.17 253.981 1035.57 253.883 1035.83 253.688C1036.09 253.492 1036.22 253.216 1036.22 252.86C1036.22 252.122 1035.68 251.753 1034.6 251.753H1032.55ZM1032.55 250.741H1034.19C1035.37 250.741 1035.96 250.395 1035.96 249.702C1035.96 249.009 1035.4 248.652 1034.28 248.629H1032.55V250.741ZM1038.83 251.233C1038.83 250.509 1038.98 249.857 1039.26 249.278C1039.55 248.7 1039.94 248.253 1040.45 247.938C1040.96 247.624 1041.54 247.467 1042.19 247.467C1043.2 247.467 1044.01 247.815 1044.63 248.513C1045.26 249.21 1045.57 250.137 1045.57 251.295V251.384C1045.57 252.104 1045.43 252.751 1045.15 253.325C1044.88 253.895 1044.48 254.339 1043.97 254.658C1043.46 254.977 1042.87 255.137 1042.21 255.137C1041.2 255.137 1040.39 254.788 1039.76 254.091C1039.14 253.394 1038.83 252.471 1038.83 251.322V251.233ZM1040.11 251.384C1040.11 252.204 1040.3 252.863 1040.67 253.359C1041.06 253.856 1041.57 254.104 1042.21 254.104C1042.85 254.104 1043.36 253.854 1043.74 253.353C1044.11 252.847 1044.3 252.14 1044.3 251.233C1044.3 250.422 1044.11 249.766 1043.72 249.265C1043.34 248.759 1042.83 248.506 1042.19 248.506C1041.57 248.506 1041.06 248.754 1040.68 249.251C1040.3 249.748 1040.11 250.459 1040.11 251.384ZM1048.54 250.741H1050.31C1050.41 249.757 1050.76 248.966 1051.36 248.369C1051.96 247.768 1052.73 247.467 1053.65 247.467C1054.61 247.467 1055.41 247.793 1056.02 248.444C1056.64 249.096 1056.97 249.944 1057.02 250.987L1057.03 251.384C1057.03 252.104 1056.88 252.753 1056.6 253.332C1056.32 253.911 1055.92 254.357 1055.41 254.672C1054.9 254.982 1054.32 255.137 1053.66 255.137C1052.71 255.137 1051.93 254.827 1051.32 254.207C1050.72 253.583 1050.38 252.774 1050.31 251.78H1048.54V255H1047.27V247.604H1048.54V250.741ZM1051.56 251.384C1051.56 252.204 1051.75 252.863 1052.12 253.359C1052.51 253.856 1053.02 254.104 1053.66 254.104C1054.3 254.104 1054.81 253.852 1055.19 253.346C1055.56 252.84 1055.75 252.136 1055.75 251.233C1055.75 250.427 1055.56 249.771 1055.18 249.265C1054.8 248.759 1054.29 248.506 1053.65 248.506C1053.02 248.506 1052.51 248.754 1052.13 249.251C1051.75 249.748 1051.56 250.459 1051.56 251.384ZM1064.48 253.147L1066.2 247.604H1067.55L1064.58 256.142C1064.12 257.372 1063.39 257.987 1062.38 257.987L1062.15 257.967L1061.67 257.878V256.853L1062.02 256.88C1062.44 256.88 1062.78 256.793 1063.01 256.62C1063.26 256.447 1063.45 256.13 1063.61 255.67L1063.89 254.918L1061.25 247.604H1062.63L1064.48 253.147ZM1074.27 255H1073V252.32C1072.44 252.466 1071.88 252.539 1071.29 252.539C1070.37 252.539 1069.66 252.302 1069.17 251.828C1068.69 251.354 1068.44 250.68 1068.43 249.805V247.597H1069.7V249.846C1069.72 250.949 1070.25 251.5 1071.29 251.5C1071.88 251.5 1072.44 251.427 1073 251.281V247.604H1074.27V255ZM1079.37 255.137C1078.37 255.137 1077.55 254.809 1076.92 254.152C1076.3 253.492 1075.98 252.61 1075.98 251.507V251.274C1075.98 250.541 1076.12 249.887 1076.4 249.312C1076.68 248.734 1077.07 248.283 1077.57 247.959C1078.08 247.631 1078.63 247.467 1079.21 247.467C1080.18 247.467 1080.92 247.784 1081.46 248.417C1081.99 249.05 1082.26 249.957 1082.26 251.138V251.664H1077.25C1077.26 252.393 1077.48 252.983 1077.88 253.435C1078.29 253.881 1078.81 254.104 1079.44 254.104C1079.89 254.104 1080.27 254.013 1080.58 253.831C1080.89 253.649 1081.16 253.407 1081.39 253.106L1082.16 253.708C1081.54 254.66 1080.61 255.137 1079.37 255.137ZM1079.21 248.506C1078.7 248.506 1078.28 248.693 1077.93 249.066C1077.58 249.436 1077.37 249.955 1077.29 250.625H1080.99V250.529C1080.96 249.887 1080.78 249.39 1080.47 249.039C1080.16 248.684 1079.74 248.506 1079.21 248.506ZM1089.14 248.629H1086.66V255H1085.39V248.629H1082.96V247.604H1089.14V248.629ZM1096.41 255H1095.15V251.842H1091.75V255H1090.48V247.604H1091.75V250.81H1095.15V247.604H1096.41V255ZM1100.87 253.147L1102.59 247.604H1103.95L1100.97 256.142C1100.51 257.372 1099.78 257.987 1098.78 257.987L1098.54 257.967L1098.07 257.878V256.853L1098.41 256.88C1098.84 256.88 1099.17 256.793 1099.41 256.62C1099.65 256.447 1099.85 256.13 1100 255.67L1100.28 254.918L1097.64 247.604H1099.03L1100.87 253.147ZM1106.46 250.741H1108.24C1108.34 249.757 1108.68 248.966 1109.29 248.369C1109.89 247.768 1110.66 247.467 1111.58 247.467C1112.54 247.467 1113.33 247.793 1113.95 248.444C1114.56 249.096 1114.9 249.944 1114.95 250.987L1114.95 251.384C1114.95 252.104 1114.81 252.753 1114.53 253.332C1114.25 253.911 1113.85 254.357 1113.34 254.672C1112.83 254.982 1112.25 255.137 1111.59 255.137C1110.64 255.137 1109.86 254.827 1109.25 254.207C1108.65 253.583 1108.31 252.774 1108.23 251.78H1106.46V255H1105.2V247.604H1106.46V250.741ZM1109.48 251.384C1109.48 252.204 1109.67 252.863 1110.05 253.359C1110.43 253.856 1110.95 254.104 1111.59 254.104C1112.23 254.104 1112.74 253.852 1113.11 253.346C1113.49 252.84 1113.68 252.136 1113.68 251.233C1113.68 250.427 1113.49 249.771 1113.11 249.265C1112.72 248.759 1112.21 248.506 1111.58 248.506C1110.95 248.506 1110.44 248.754 1110.06 249.251C1109.68 249.748 1109.48 250.459 1109.48 251.384ZM1124.05 249.627C1124.05 249.281 1123.92 249.007 1123.66 248.807C1123.39 248.602 1123.03 248.499 1122.57 248.499C1122.12 248.499 1121.75 248.615 1121.45 248.848C1121.15 249.08 1121 249.354 1121 249.668H1119.75C1119.75 249.025 1120.01 248.499 1120.55 248.089C1121.09 247.679 1121.76 247.474 1122.57 247.474C1123.43 247.474 1124.11 247.66 1124.59 248.034C1125.07 248.403 1125.32 248.932 1125.32 249.62C1125.32 249.953 1125.22 250.258 1125.02 250.536C1124.82 250.814 1124.53 251.035 1124.16 251.199C1125.02 251.491 1125.45 252.065 1125.45 252.922C1125.45 253.601 1125.19 254.139 1124.67 254.535C1124.14 254.932 1123.44 255.13 1122.57 255.13C1121.72 255.13 1121.01 254.923 1120.46 254.508C1119.9 254.089 1119.63 253.523 1119.63 252.812H1120.89C1120.89 253.173 1121.05 253.482 1121.37 253.742C1121.69 253.997 1122.09 254.125 1122.57 254.125C1123.05 254.125 1123.44 254.013 1123.74 253.79C1124.03 253.567 1124.18 253.277 1124.18 252.922C1124.18 252.507 1124.06 252.211 1123.81 252.033C1123.56 251.851 1123.17 251.76 1122.65 251.76H1121.39V250.693H1122.76C1123.62 250.671 1124.05 250.315 1124.05 249.627ZM1131.66 255C1131.59 254.854 1131.53 254.594 1131.48 254.221C1130.89 254.831 1130.19 255.137 1129.38 255.137C1128.65 255.137 1128.05 254.932 1127.58 254.521C1127.11 254.107 1126.88 253.583 1126.88 252.949C1126.88 252.179 1127.17 251.582 1127.76 251.158C1128.34 250.73 1129.17 250.516 1130.23 250.516H1131.46V249.935C1131.46 249.493 1131.33 249.142 1131.07 248.882C1130.8 248.618 1130.41 248.485 1129.9 248.485C1129.45 248.485 1129.07 248.599 1128.76 248.827C1128.46 249.055 1128.3 249.331 1128.3 249.654H1127.03C1127.03 249.285 1127.16 248.93 1127.42 248.588C1127.69 248.242 1128.04 247.968 1128.49 247.768C1128.94 247.567 1129.43 247.467 1129.97 247.467C1130.82 247.467 1131.49 247.681 1131.97 248.109C1132.46 248.533 1132.71 249.119 1132.73 249.866V253.271C1132.73 253.95 1132.81 254.49 1132.99 254.891V255H1131.66ZM1129.56 254.036C1129.96 254.036 1130.33 253.934 1130.69 253.729C1131.04 253.523 1131.3 253.257 1131.46 252.929V251.411H1130.47C1128.92 251.411 1128.15 251.865 1128.15 252.771C1128.15 253.168 1128.28 253.478 1128.54 253.701C1128.81 253.924 1129.15 254.036 1129.56 254.036ZM1140.76 255H1139.49V248.649H1136.09V255H1134.82V247.604H1140.76V255ZM1147.57 247.604H1148.84V255H1147.57V249.606L1144.16 255H1142.9V247.604H1144.16V253.004L1147.57 247.604ZM1153.84 254.104C1154.29 254.104 1154.68 253.968 1155.02 253.694C1155.36 253.421 1155.54 253.079 1155.58 252.669H1156.78C1156.75 253.093 1156.61 253.496 1156.34 253.879C1156.07 254.262 1155.71 254.567 1155.26 254.795C1154.81 255.023 1154.34 255.137 1153.84 255.137C1152.83 255.137 1152.03 254.802 1151.43 254.132C1150.84 253.457 1150.54 252.537 1150.54 251.37V251.158C1150.54 250.438 1150.67 249.798 1150.94 249.237C1151.2 248.677 1151.58 248.242 1152.07 247.932C1152.57 247.622 1153.15 247.467 1153.83 247.467C1154.66 247.467 1155.35 247.715 1155.89 248.212C1156.44 248.709 1156.74 249.354 1156.78 250.146H1155.58C1155.54 249.668 1155.36 249.276 1155.03 248.971C1154.71 248.661 1154.31 248.506 1153.83 248.506C1153.19 248.506 1152.69 248.738 1152.33 249.203C1151.98 249.663 1151.81 250.331 1151.81 251.206V251.445C1151.81 252.298 1151.98 252.954 1152.33 253.414C1152.68 253.874 1153.18 254.104 1153.84 254.104ZM1159.58 250.153H1161.5C1162.34 250.162 1163 250.381 1163.49 250.81C1163.98 251.238 1164.22 251.819 1164.22 252.553C1164.22 253.291 1163.97 253.883 1163.47 254.33C1162.97 254.777 1162.29 255 1161.44 255H1158.31V247.604H1159.58V250.153ZM1159.58 251.186V253.968H1161.46C1161.93 253.968 1162.3 253.847 1162.56 253.605C1162.82 253.359 1162.95 253.024 1162.95 252.601C1162.95 252.19 1162.82 251.855 1162.57 251.596C1162.31 251.331 1161.96 251.195 1161.51 251.186H1159.58ZM872.742 263.604H874.007V271H872.742V265.606L869.331 271H868.066V263.604H869.331V269.004L872.742 263.604ZM885.553 271H884.288V267.842H880.891V271H879.619V263.604H880.891V266.81H884.288V263.604H885.553V271ZM892.156 271C892.083 270.854 892.024 270.594 891.979 270.221C891.391 270.831 890.689 271.137 889.873 271.137C889.144 271.137 888.545 270.932 888.075 270.521C887.61 270.107 887.378 269.583 887.378 268.949C887.378 268.179 887.67 267.582 888.253 267.158C888.841 266.73 889.666 266.516 890.728 266.516H891.958V265.935C891.958 265.493 891.826 265.142 891.562 264.882C891.297 264.618 890.908 264.485 890.393 264.485C889.941 264.485 889.563 264.599 889.258 264.827C888.952 265.055 888.8 265.331 888.8 265.654H887.528C887.528 265.285 887.658 264.93 887.918 264.588C888.182 264.242 888.538 263.968 888.984 263.768C889.436 263.567 889.93 263.467 890.468 263.467C891.32 263.467 891.988 263.681 892.471 264.109C892.954 264.533 893.204 265.119 893.223 265.866V269.271C893.223 269.95 893.309 270.49 893.482 270.891V271H892.156ZM890.058 270.036C890.454 270.036 890.83 269.934 891.186 269.729C891.541 269.523 891.799 269.257 891.958 268.929V267.411H890.967C889.417 267.411 888.643 267.865 888.643 268.771C888.643 269.168 888.775 269.478 889.039 269.701C889.303 269.924 889.643 270.036 890.058 270.036ZM900.79 271H899.519V268.32C898.963 268.466 898.393 268.539 897.81 268.539C896.884 268.539 896.178 268.302 895.69 267.828C895.207 267.354 894.961 266.68 894.952 265.805V263.597H896.217V265.846C896.24 266.949 896.771 267.5 897.81 267.5C898.393 267.5 898.963 267.427 899.519 267.281V263.604H900.79V271ZM908.863 271H907.599V267.842H904.201V271H902.93V263.604H904.201V266.81H907.599V263.604H908.863V271ZM915.686 263.604H916.95V271H915.686V265.606L912.274 271H911.01V263.604H912.274V269.004L915.686 263.604ZM924.477 264.629H921.995V271H920.73V264.629H918.297V263.604H924.477V264.629ZM928.229 271.137C927.227 271.137 926.411 270.809 925.782 270.152C925.153 269.492 924.839 268.61 924.839 267.507V267.274C924.839 266.541 924.978 265.887 925.256 265.312C925.538 264.734 925.93 264.283 926.432 263.959C926.938 263.631 927.484 263.467 928.072 263.467C929.034 263.467 929.781 263.784 930.314 264.417C930.848 265.05 931.114 265.957 931.114 267.138V267.664H926.104C926.122 268.393 926.334 268.983 926.739 269.435C927.149 269.881 927.669 270.104 928.298 270.104C928.744 270.104 929.123 270.013 929.433 269.831C929.743 269.649 930.014 269.407 930.246 269.106L931.019 269.708C930.399 270.66 929.469 271.137 928.229 271.137ZM928.072 264.506C927.562 264.506 927.133 264.693 926.787 265.066C926.441 265.436 926.227 265.955 926.145 266.625H929.85V266.529C929.813 265.887 929.64 265.39 929.33 265.039C929.02 264.684 928.601 264.506 928.072 264.506ZM942.106 271H940.842V264.649H937.438V271H936.166V263.604H942.106V271ZM950.385 267.384C950.385 268.509 950.127 269.416 949.612 270.104C949.097 270.793 948.4 271.137 947.521 271.137C946.623 271.137 945.916 270.852 945.401 270.282V273.844H944.137V263.604H945.292L945.354 264.424C945.868 263.786 946.584 263.467 947.5 263.467C948.389 263.467 949.09 263.802 949.605 264.472C950.125 265.142 950.385 266.074 950.385 267.268V267.384ZM949.12 267.24C949.12 266.406 948.942 265.748 948.587 265.265C948.231 264.782 947.744 264.54 947.124 264.54C946.358 264.54 945.784 264.88 945.401 265.559V269.093C945.78 269.767 946.358 270.104 947.138 270.104C947.744 270.104 948.225 269.865 948.58 269.387C948.94 268.904 949.12 268.188 949.12 267.24ZM956.783 263.604H958.048V271H956.783V265.606L953.372 271H952.107V263.604H953.372V269.004L956.783 263.604ZM962.382 267.849H961.459V271H960.188V263.604H961.459V266.734H962.286L964.774 263.604H966.306L963.38 267.158L966.552 271H964.945L962.382 267.849ZM973.702 263.604V271H972.431V264.649H969.915L969.765 267.418C969.683 268.689 969.468 269.599 969.122 270.146C968.78 270.692 968.236 270.977 967.488 271H966.982V269.886L967.345 269.858C967.755 269.813 968.049 269.576 968.227 269.147C968.404 268.719 968.518 267.926 968.568 266.769L968.705 263.604H973.702ZM977.113 266.741H978.891C978.986 265.757 979.335 264.966 979.937 264.369C980.543 263.768 981.306 263.467 982.227 263.467C983.193 263.467 983.983 263.793 984.599 264.444C985.214 265.096 985.547 265.944 985.597 266.987L985.604 267.384C985.604 268.104 985.462 268.753 985.18 269.332C984.897 269.911 984.501 270.357 983.99 270.672C983.48 270.982 982.896 271.137 982.24 271.137C981.288 271.137 980.508 270.827 979.902 270.207C979.296 269.583 978.957 268.774 978.884 267.78H977.113V271H975.849V263.604H977.113V266.741ZM980.135 267.384C980.135 268.204 980.324 268.863 980.702 269.359C981.085 269.856 981.598 270.104 982.24 270.104C982.883 270.104 983.391 269.852 983.765 269.346C984.143 268.84 984.332 268.136 984.332 267.233C984.332 266.427 984.141 265.771 983.758 265.265C983.375 264.759 982.865 264.506 982.227 264.506C981.598 264.506 981.092 264.754 980.709 265.251C980.326 265.748 980.135 266.459 980.135 267.384ZM992.747 271H991.476V268.32C990.92 268.466 990.35 268.539 989.767 268.539C988.841 268.539 988.135 268.302 987.647 267.828C987.164 267.354 986.918 266.68 986.909 265.805V263.597H988.174V265.846C988.197 266.949 988.728 267.5 989.767 267.5C990.35 267.5 990.92 267.427 991.476 267.281V263.604H992.747V271ZM997.847 271.137C996.844 271.137 996.028 270.809 995.399 270.152C994.771 269.492 994.456 268.61 994.456 267.507V267.274C994.456 266.541 994.595 265.887 994.873 265.312C995.156 264.734 995.548 264.283 996.049 263.959C996.555 263.631 997.102 263.467 997.689 263.467C998.651 263.467 999.398 263.784 999.932 264.417C1000.46 265.05 1000.73 265.957 1000.73 267.138V267.664H995.721C995.739 268.393 995.951 268.983 996.356 269.435C996.767 269.881 997.286 270.104 997.915 270.104C998.362 270.104 998.74 270.013 999.05 269.831C999.36 269.649 999.631 269.407 999.863 269.106L1000.64 269.708C1000.02 270.66 999.086 271.137 997.847 271.137ZM997.689 264.506C997.179 264.506 996.751 264.693 996.404 265.066C996.058 265.436 995.844 265.955 995.762 266.625H999.467V266.529C999.43 265.887 999.257 265.39 998.947 265.039C998.637 264.684 998.218 264.506 997.689 264.506ZM1008.24 271H1006.98V267.842H1003.58V271H1002.31V263.604H1003.58V266.81H1006.98V263.604H1008.24V271ZM1015.07 263.604H1016.33V271H1015.07V265.606L1011.66 271H1010.39V263.604H1011.66V269.004L1015.07 263.604ZM1021.43 271.137C1020.43 271.137 1019.61 270.809 1018.98 270.152C1018.35 269.492 1018.04 268.61 1018.04 267.507V267.274C1018.04 266.541 1018.18 265.887 1018.46 265.312C1018.74 264.734 1019.13 264.283 1019.63 263.959C1020.14 263.631 1020.69 263.467 1021.27 263.467C1022.24 263.467 1022.98 263.784 1023.52 264.417C1024.05 265.05 1024.32 265.957 1024.32 267.138V267.664H1019.3C1019.32 268.393 1019.53 268.983 1019.94 269.435C1020.35 269.881 1020.87 270.104 1021.5 270.104C1021.95 270.104 1022.32 270.013 1022.63 269.831C1022.94 269.649 1023.21 269.407 1023.45 269.106L1024.22 269.708C1023.6 270.66 1022.67 271.137 1021.43 271.137ZM1021.27 264.506C1020.76 264.506 1020.33 264.693 1019.99 265.066C1019.64 265.436 1019.43 265.955 1019.35 266.625H1023.05V266.529C1023.01 265.887 1022.84 265.39 1022.53 265.039C1022.22 264.684 1021.8 264.506 1021.27 264.506Z" fill="black"/>
</svg>
