<svg width="209" height="39" viewBox="0 0 209 39" fill="none" xmlns="http://www.w3.org/2000/svg">
<path d="M6 1.5H203V0.5H6V1.5ZM207.5 6V33H208.5V6H207.5ZM203 37.5H6V38.5H203V37.5ZM1.5 33V6H0.5V33H1.5ZM6 37.5C3.51472 37.5 1.5 35.4853 1.5 33H0.5C0.5 36.0376 2.96244 38.5 6 38.5V37.5ZM207.5 33C207.5 35.4853 205.485 37.5 203 37.5V38.5C206.038 38.5 208.5 36.0376 208.5 33H207.5ZM203 1.5C205.485 1.5 207.5 3.51472 207.5 6H208.5C208.5 2.96243 206.038 0.5 203 0.5V1.5ZM6 0.5C2.96243 0.5 0.5 2.96243 0.5 6H1.5C1.5 3.51472 3.51472 1.5 6 1.5V0.5Z" fill="#7367F0"/>
<path d="M59.472 14.368H54.096V11.2H68.736V14.368H63.36V28H59.472V14.368ZM69.8541 15.088H73.5981V28H69.8541V15.088ZM71.7261 13.288C71.0381 13.288 70.4781 13.088 70.0461 12.688C69.6141 12.288 69.3981 11.792 69.3981 11.2C69.3981 10.608 69.6141 10.112 70.0461 9.712C70.4781 9.312 71.0381 9.112 71.7261 9.112C72.4141 9.112 72.9741 9.304 73.4061 9.688C73.8381 10.072 74.0541 10.552 74.0541 11.128C74.0541 11.752 73.8381 12.272 73.4061 12.688C72.9741 13.088 72.4141 13.288 71.7261 13.288ZM93.1803 14.896C94.7963 14.896 96.0763 15.376 97.0203 16.336C97.9803 17.28 98.4603 18.704 98.4603 20.608V28H94.7163V21.184C94.7163 20.16 94.5003 19.4 94.0683 18.904C93.6523 18.392 93.0523 18.136 92.2683 18.136C91.3883 18.136 90.6923 18.424 90.1803 19C89.6683 19.56 89.4123 20.4 89.4123 21.52V28H85.6683V21.184C85.6683 19.152 84.8523 18.136 83.2203 18.136C82.3563 18.136 81.6683 18.424 81.1563 19C80.6443 19.56 80.3883 20.4 80.3883 21.52V28H76.6443V15.088H80.2203V16.576C80.7003 16.032 81.2843 15.616 81.9723 15.328C82.6763 15.04 83.4443 14.896 84.2763 14.896C85.1883 14.896 86.0123 15.08 86.7483 15.448C87.4843 15.8 88.0763 16.32 88.5243 17.008C89.0523 16.336 89.7163 15.816 90.5163 15.448C91.3323 15.08 92.2203 14.896 93.1803 14.896ZM114.176 21.592C114.176 21.64 114.152 21.976 114.104 22.6H104.336C104.512 23.4 104.928 24.032 105.584 24.496C106.24 24.96 107.056 25.192 108.032 25.192C108.704 25.192 109.296 25.096 109.808 24.904C110.336 24.696 110.824 24.376 111.272 23.944L113.264 26.104C112.048 27.496 110.272 28.192 107.936 28.192C106.48 28.192 105.192 27.912 104.072 27.352C102.952 26.776 102.088 25.984 101.48 24.976C100.872 23.968 100.568 22.824 100.568 21.544C100.568 20.28 100.864 19.144 101.456 18.136C102.064 17.112 102.888 16.32 103.928 15.76C104.984 15.184 106.16 14.896 107.456 14.896C108.72 14.896 109.864 15.168 110.888 15.712C111.912 16.256 112.712 17.04 113.288 18.064C113.88 19.072 114.176 20.248 114.176 21.592ZM107.48 17.728C106.632 17.728 105.92 17.968 105.344 18.448C104.768 18.928 104.416 19.584 104.288 20.416H110.648C110.52 19.6 110.168 18.952 109.592 18.472C109.016 17.976 108.312 17.728 107.48 17.728ZM122.024 28.288C120.696 28.288 119.408 28.112 118.16 27.76C116.928 27.392 115.936 26.92 115.184 26.344L116.504 23.416C117.224 23.944 118.08 24.368 119.072 24.688C120.064 25.008 121.056 25.168 122.048 25.168C123.152 25.168 123.968 25.008 124.496 24.688C125.024 24.352 125.288 23.912 125.288 23.368C125.288 22.968 125.128 22.64 124.808 22.384C124.504 22.112 124.104 21.896 123.608 21.736C123.128 21.576 122.472 21.4 121.64 21.208C120.36 20.904 119.312 20.6 118.496 20.296C117.68 19.992 116.976 19.504 116.384 18.832C115.808 18.16 115.52 17.264 115.52 16.144C115.52 15.168 115.784 14.288 116.312 13.504C116.84 12.704 117.632 12.072 118.688 11.608C119.76 11.144 121.064 10.912 122.6 10.912C123.672 10.912 124.72 11.04 125.744 11.296C126.768 11.552 127.664 11.92 128.432 12.4L127.232 15.352C125.68 14.472 124.128 14.032 122.576 14.032C121.488 14.032 120.68 14.208 120.152 14.56C119.64 14.912 119.384 15.376 119.384 15.952C119.384 16.528 119.68 16.96 120.272 17.248C120.88 17.52 121.8 17.792 123.032 18.064C124.312 18.368 125.36 18.672 126.176 18.976C126.992 19.28 127.688 19.76 128.264 20.416C128.856 21.072 129.152 21.96 129.152 23.08C129.152 24.04 128.88 24.92 128.336 25.72C127.808 26.504 127.008 27.128 125.936 27.592C124.864 28.056 123.56 28.288 122.024 28.288ZM137.26 28.192C135.9 28.192 134.676 27.912 133.588 27.352C132.516 26.776 131.676 25.984 131.068 24.976C130.46 23.968 130.156 22.824 130.156 21.544C130.156 20.264 130.46 19.12 131.068 18.112C131.676 17.104 132.516 16.32 133.588 15.76C134.676 15.184 135.9 14.896 137.26 14.896C138.62 14.896 139.836 15.184 140.908 15.76C141.98 16.32 142.82 17.104 143.428 18.112C144.036 19.12 144.34 20.264 144.34 21.544C144.34 22.824 144.036 23.968 143.428 24.976C142.82 25.984 141.98 26.776 140.908 27.352C139.836 27.912 138.62 28.192 137.26 28.192ZM137.26 25.12C138.22 25.12 139.004 24.8 139.612 24.16C140.236 23.504 140.548 22.632 140.548 21.544C140.548 20.456 140.236 19.592 139.612 18.952C139.004 18.296 138.22 17.968 137.26 17.968C136.3 17.968 135.508 18.296 134.884 18.952C134.26 19.592 133.948 20.456 133.948 21.544C133.948 22.632 134.26 23.504 134.884 24.16C135.508 24.8 136.3 25.12 137.26 25.12ZM150.518 15.376H153.83V18.256H150.614V28H146.87V18.256H144.878V15.376H146.87V14.8C146.87 13.328 147.302 12.16 148.166 11.296C149.046 10.432 150.278 10 151.862 10C152.422 10 152.95 10.064 153.446 10.192C153.958 10.304 154.382 10.472 154.718 10.696L153.734 13.408C153.302 13.104 152.798 12.952 152.222 12.952C151.086 12.952 150.518 13.576 150.518 14.824V15.376ZM163.595 27.376C163.227 27.648 162.771 27.856 162.227 28C161.699 28.128 161.139 28.192 160.547 28.192C159.011 28.192 157.819 27.8 156.971 27.016C156.139 26.232 155.723 25.08 155.723 23.56V18.256H153.731V15.376H155.723V12.232H159.467V15.376H162.683V18.256H159.467V23.512C159.467 24.056 159.603 24.48 159.875 24.784C160.163 25.072 160.563 25.216 161.075 25.216C161.667 25.216 162.171 25.056 162.587 24.736L163.595 27.376Z" fill="#7367F0"/>
<path fill-rule="evenodd" clip-rule="evenodd" d="M7 19V22.7391C7 22.7391 7.18055 24.062 8.0909 24.9131L14.5454 31L18 30.9131L17.3636 24.3913L16.0909 22.9131L12.0909 19H7Z" fill="url(#paint0_linear)"/>
<path opacity="0.06" fill-rule="evenodd" clip-rule="evenodd" d="M10.9447 27.3542L13.5878 20.229L15.7354 22.5057L10.9447 27.3542Z" fill="#161616"/>
<path opacity="0.06" fill-rule="evenodd" clip-rule="evenodd" d="M10.9447 27.0692L14.2073 20.7991L15.7354 22.3564L10.9447 27.0692Z" fill="#161616"/>
<path fill-rule="evenodd" clip-rule="evenodd" d="M11.2 27.8467L20.2064 19H25.2V22.7664C25.2 22.7664 25.096 24.0219 24.3975 24.6934L17.8879 31H14.4102L11.2 27.8467Z" fill="url(#paint1_linear)"/>
<path fill-rule="evenodd" clip-rule="evenodd" d="M7 19V15.2609C7 15.2609 7.18055 13.938 8.0909 13.0869L14.5454 7L18 7.08695L17.3636 13.6087L16.0909 15.0869L12.0909 19H7Z" fill="url(#paint2_linear)"/>
<path opacity="0.06" fill-rule="evenodd" clip-rule="evenodd" d="M10.9447 10.1354L13.5877 17.2605L15.7352 14.9838L10.9447 10.1354Z" fill="#161616"/>
<path opacity="0.06" fill-rule="evenodd" clip-rule="evenodd" d="M10.9447 10.4206L14.2072 16.6907L15.7352 15.1334L10.9447 10.4206Z" fill="#161616"/>
<path fill-rule="evenodd" clip-rule="evenodd" d="M11.2 10.1533L20.2064 19H25.2V15.2336C25.2 15.2336 25.096 13.9781 24.3975 13.3066L17.8879 7H14.4102L11.2 10.1533Z" fill="url(#paint3_linear)"/>
<path fill-rule="evenodd" clip-rule="evenodd" d="M41 19V22.7391C41 22.7391 40.8194 24.062 39.9091 24.9131L33.4546 31L30 30.9131L30.6364 24.3913L31.9091 22.9131L35.9091 19H41Z" fill="url(#paint4_linear)"/>
<path opacity="0.06" fill-rule="evenodd" clip-rule="evenodd" d="M37.9439 27.8652L35.2253 20.74L33.0165 23.0167L37.9439 27.8652Z" fill="#161616"/>
<path opacity="0.06" fill-rule="evenodd" clip-rule="evenodd" d="M37.9439 27.5802L34.5882 21.3101L33.0165 22.8674L37.9439 27.5802Z" fill="#161616"/>
<path fill-rule="evenodd" clip-rule="evenodd" d="M36.8 27.8467L27.7936 19H22.8V22.7664C22.8 22.7664 22.904 24.0219 23.6025 24.6934L30.1121 31H33.5898L36.8 27.8467Z" fill="url(#paint5_linear)"/>
<path fill-rule="evenodd" clip-rule="evenodd" d="M41 19V15.2609C41 15.2609 40.8194 13.938 39.9091 13.0869L33.4546 7L30 7.08695L30.6364 13.6087L31.9091 15.0869L35.9091 19H41Z" fill="url(#paint6_linear)"/>
<path opacity="0.06" fill-rule="evenodd" clip-rule="evenodd" d="M37.9439 10.6461L35.2253 17.7712L33.0165 15.4946L37.9439 10.6461Z" fill="#161616"/>
<path opacity="0.06" fill-rule="evenodd" clip-rule="evenodd" d="M37.9439 10.9311L34.5882 17.2012L33.0165 15.6439L37.9439 10.9311Z" fill="#161616"/>
<path fill-rule="evenodd" clip-rule="evenodd" d="M36.8 10.1533L27.7936 19H22.8V15.2336C22.8 15.2336 22.904 13.9781 23.6025 13.3066L30.1121 7H33.5898L36.8 10.1533Z" fill="url(#paint7_linear)"/>
<path fill-rule="evenodd" clip-rule="evenodd" d="M186.116 11.0084C185.628 11.464 185.628 12.2027 186.116 12.6583L192.732 18.8333H178.25C177.56 18.8333 177 19.3557 177 20C177 20.6443 177.56 21.1667 178.25 21.1667H192.732L186.116 27.3417C185.628 27.7973 185.628 28.536 186.116 28.9916C186.604 29.4472 187.396 29.4472 187.884 28.9916L196.632 20.8263C196.637 20.8216 196.642 20.8169 196.647 20.8121C196.866 20.6021 197 20.3157 197 20C197 19.8418 196.966 19.691 196.905 19.5534C196.844 19.4158 196.754 19.2869 196.634 19.175L187.884 11.0084C187.396 10.5528 186.604 10.5528 186.116 11.0084Z" fill="black"/>
<mask id="mask0" mask-type="alpha" maskUnits="userSpaceOnUse" x="177" y="10" width="20" height="20">
<path fill-rule="evenodd" clip-rule="evenodd" d="M186.116 11.0084C185.628 11.464 185.628 12.2027 186.116 12.6583L192.732 18.8333H178.25C177.56 18.8333 177 19.3557 177 20C177 20.6443 177.56 21.1667 178.25 21.1667H192.732L186.116 27.3417C185.628 27.7973 185.628 28.536 186.116 28.9916C186.604 29.4472 187.396 29.4472 187.884 28.9916L196.632 20.8263C196.637 20.8216 196.642 20.8169 196.647 20.8121C196.866 20.6021 197 20.3157 197 20C197 19.8418 196.966 19.691 196.905 19.5534C196.844 19.4158 196.754 19.2869 196.634 19.175L187.884 11.0084C187.396 10.5528 186.604 10.5528 186.116 11.0084Z" fill="white"/>
</mask>
<g mask="url(#mask0)">
<rect x="172" y="6" width="30" height="28" fill="#7367F0"/>
</g>
<defs>
<linearGradient id="paint0_linear" x1="1.5" y1="25" x2="13.4547" y2="35.9585" gradientUnits="userSpaceOnUse">
<stop stop-color="#6B62D3"/>
<stop offset="1" stop-color="#3B30D2"/>
</linearGradient>
<linearGradient id="paint1_linear" x1="19.0507" y1="13.9265" x2="9.08137" y2="26.0099" gradientUnits="userSpaceOnUse">
<stop stop-color="#5C51D6"/>
<stop offset="1" stop-color="#8377F7"/>
</linearGradient>
<linearGradient id="paint2_linear" x1="1.5" y1="13" x2="13.4547" y2="2.04151" gradientUnits="userSpaceOnUse">
<stop stop-color="#6B62D3"/>
<stop offset="1" stop-color="#3B30D2"/>
</linearGradient>
<linearGradient id="paint3_linear" x1="19.0507" y1="24.0735" x2="9.08137" y2="11.9901" gradientUnits="userSpaceOnUse">
<stop stop-color="#5C51D6"/>
<stop offset="1" stop-color="#8377F7"/>
</linearGradient>
<linearGradient id="paint4_linear" x1="46.5" y1="25" x2="34.5453" y2="35.9585" gradientUnits="userSpaceOnUse">
<stop stop-color="#6B62D3"/>
<stop offset="1" stop-color="#3B30D2"/>
</linearGradient>
<linearGradient id="paint5_linear" x1="28.9493" y1="13.9265" x2="38.9186" y2="26.0099" gradientUnits="userSpaceOnUse">
<stop stop-color="#5C51D6"/>
<stop offset="1" stop-color="#8377F7"/>
</linearGradient>
<linearGradient id="paint6_linear" x1="46.5" y1="13" x2="34.5453" y2="2.04151" gradientUnits="userSpaceOnUse">
<stop stop-color="#6B62D3"/>
<stop offset="1" stop-color="#3B30D2"/>
</linearGradient>
<linearGradient id="paint7_linear" x1="28.9493" y1="24.0735" x2="38.9186" y2="11.9901" gradientUnits="userSpaceOnUse">
<stop stop-color="#5C51D6"/>
<stop offset="1" stop-color="#8377F7"/>
</linearGradient>
</defs>
</svg>
