<svg width="157" height="29" viewBox="0 0 157 29" fill="none" xmlns="http://www.w3.org/2000/svg">
<path d="M52.472 9.368H47.096V6.2H61.736V9.368H56.36V23H52.472V9.368ZM62.8541 10.088H66.5981V23H62.8541V10.088ZM64.7261 8.288C64.0381 8.288 63.4781 8.088 63.0461 7.688C62.6141 7.288 62.3981 6.792 62.3981 6.2C62.3981 5.608 62.6141 5.112 63.0461 4.712C63.4781 4.312 64.0381 4.112 64.7261 4.112C65.4141 4.112 65.9741 4.304 66.4061 4.688C66.8381 5.072 67.0541 5.552 67.0541 6.128C67.0541 6.752 66.8381 7.272 66.4061 7.688C65.9741 8.088 65.4141 8.288 64.7261 8.288ZM86.1803 9.896C87.7963 9.896 89.0763 10.376 90.0203 11.336C90.9803 12.28 91.4603 13.704 91.4603 15.608V23H87.7163V16.184C87.7163 15.16 87.5003 14.4 87.0683 13.904C86.6523 13.392 86.0523 13.136 85.2683 13.136C84.3883 13.136 83.6923 13.424 83.1803 14C82.6683 14.56 82.4123 15.4 82.4123 16.52V23H78.6683V16.184C78.6683 14.152 77.8523 13.136 76.2203 13.136C75.3563 13.136 74.6683 13.424 74.1563 14C73.6443 14.56 73.3883 15.4 73.3883 16.52V23H69.6443V10.088H73.2203V11.576C73.7003 11.032 74.2843 10.616 74.9723 10.328C75.6763 10.04 76.4443 9.896 77.2763 9.896C78.1883 9.896 79.0123 10.08 79.7483 10.448C80.4843 10.8 81.0763 11.32 81.5243 12.008C82.0523 11.336 82.7163 10.816 83.5163 10.448C84.3323 10.08 85.2203 9.896 86.1803 9.896ZM107.176 16.592C107.176 16.64 107.152 16.976 107.104 17.6H97.3362C97.5122 18.4 97.9282 19.032 98.5842 19.496C99.2402 19.96 100.056 20.192 101.032 20.192C101.704 20.192 102.296 20.096 102.808 19.904C103.336 19.696 103.824 19.376 104.272 18.944L106.264 21.104C105.048 22.496 103.272 23.192 100.936 23.192C99.4802 23.192 98.1922 22.912 97.0722 22.352C95.9522 21.776 95.0882 20.984 94.4802 19.976C93.8722 18.968 93.5682 17.824 93.5682 16.544C93.5682 15.28 93.8642 14.144 94.4562 13.136C95.0642 12.112 95.8882 11.32 96.9282 10.76C97.9842 10.184 99.1602 9.896 100.456 9.896C101.72 9.896 102.864 10.168 103.888 10.712C104.912 11.256 105.712 12.04 106.288 13.064C106.88 14.072 107.176 15.248 107.176 16.592ZM100.48 12.728C99.6322 12.728 98.9202 12.968 98.3442 13.448C97.7682 13.928 97.4162 14.584 97.2882 15.416H103.648C103.52 14.6 103.168 13.952 102.592 13.472C102.016 12.976 101.312 12.728 100.48 12.728ZM115.024 23.288C113.696 23.288 112.408 23.112 111.16 22.76C109.928 22.392 108.936 21.92 108.184 21.344L109.504 18.416C110.224 18.944 111.08 19.368 112.072 19.688C113.064 20.008 114.056 20.168 115.048 20.168C116.152 20.168 116.968 20.008 117.496 19.688C118.024 19.352 118.288 18.912 118.288 18.368C118.288 17.968 118.128 17.64 117.808 17.384C117.504 17.112 117.104 16.896 116.608 16.736C116.128 16.576 115.472 16.4 114.64 16.208C113.36 15.904 112.312 15.6 111.496 15.296C110.68 14.992 109.976 14.504 109.384 13.832C108.808 13.16 108.52 12.264 108.52 11.144C108.52 10.168 108.784 9.288 109.312 8.504C109.84 7.704 110.632 7.072 111.688 6.608C112.76 6.144 114.064 5.912 115.6 5.912C116.672 5.912 117.72 6.04 118.744 6.296C119.768 6.552 120.664 6.92 121.432 7.4L120.232 10.352C118.68 9.472 117.128 9.032 115.576 9.032C114.488 9.032 113.68 9.208 113.152 9.56C112.64 9.912 112.384 10.376 112.384 10.952C112.384 11.528 112.68 11.96 113.272 12.248C113.88 12.52 114.8 12.792 116.032 13.064C117.312 13.368 118.36 13.672 119.176 13.976C119.992 14.28 120.688 14.76 121.264 15.416C121.856 16.072 122.152 16.96 122.152 18.08C122.152 19.04 121.88 19.92 121.336 20.72C120.808 21.504 120.008 22.128 118.936 22.592C117.864 23.056 116.56 23.288 115.024 23.288ZM130.26 23.192C128.9 23.192 127.676 22.912 126.588 22.352C125.516 21.776 124.676 20.984 124.068 19.976C123.46 18.968 123.156 17.824 123.156 16.544C123.156 15.264 123.46 14.12 124.068 13.112C124.676 12.104 125.516 11.32 126.588 10.76C127.676 10.184 128.9 9.896 130.26 9.896C131.62 9.896 132.836 10.184 133.908 10.76C134.98 11.32 135.82 12.104 136.428 13.112C137.036 14.12 137.34 15.264 137.34 16.544C137.34 17.824 137.036 18.968 136.428 19.976C135.82 20.984 134.98 21.776 133.908 22.352C132.836 22.912 131.62 23.192 130.26 23.192ZM130.26 20.12C131.22 20.12 132.004 19.8 132.612 19.16C133.236 18.504 133.548 17.632 133.548 16.544C133.548 15.456 133.236 14.592 132.612 13.952C132.004 13.296 131.22 12.968 130.26 12.968C129.3 12.968 128.508 13.296 127.884 13.952C127.26 14.592 126.948 15.456 126.948 16.544C126.948 17.632 127.26 18.504 127.884 19.16C128.508 19.8 129.3 20.12 130.26 20.12ZM143.518 10.376H146.83V13.256H143.614V23H139.87V13.256H137.878V10.376H139.87V9.8C139.87 8.328 140.302 7.16 141.166 6.296C142.046 5.432 143.278 5 144.862 5C145.422 5 145.95 5.064 146.446 5.192C146.958 5.304 147.382 5.472 147.718 5.696L146.734 8.408C146.302 8.104 145.798 7.952 145.222 7.952C144.086 7.952 143.518 8.576 143.518 9.824V10.376ZM156.595 22.376C156.227 22.648 155.771 22.856 155.227 23C154.699 23.128 154.139 23.192 153.547 23.192C152.011 23.192 150.819 22.8 149.971 22.016C149.139 21.232 148.723 20.08 148.723 18.56V13.256H146.731V10.376H148.723V7.232H152.467V10.376H155.683V13.256H152.467V18.512C152.467 19.056 152.603 19.48 152.875 19.784C153.163 20.072 153.563 20.216 154.075 20.216C154.667 20.216 155.171 20.056 155.587 19.736L156.595 22.376Z" fill="#7367F0"/>
<path fill-rule="evenodd" clip-rule="evenodd" d="M0 14V17.7391C0 17.7391 0.180551 19.062 1.0909 19.9131L7.54544 26L11 25.9131L10.3636 19.3913L9.09093 17.9131L5.09089 14H0Z" fill="url(#paint0_linear)"/>
<path opacity="0.06" fill-rule="evenodd" clip-rule="evenodd" d="M3.94531 22.3542L6.58844 15.229L8.73597 17.5057L3.94531 22.3542Z" fill="#161616"/>
<path opacity="0.06" fill-rule="evenodd" clip-rule="evenodd" d="M3.94531 22.0692L7.20792 15.7991L8.73597 17.3564L3.94531 22.0692Z" fill="#161616"/>
<path fill-rule="evenodd" clip-rule="evenodd" d="M4.19922 22.8467L13.2056 14H18.1992V17.7664C18.1992 17.7664 18.0952 19.0219 17.3967 19.6934L10.8871 26H7.40943L4.19922 22.8467Z" fill="url(#paint1_linear)"/>
<path fill-rule="evenodd" clip-rule="evenodd" d="M0 14V10.2609C0 10.2609 0.180551 8.93803 1.0909 8.08695L7.54544 2L11 2.08695L10.3636 8.60868L9.09093 10.0869L5.09089 14H0Z" fill="url(#paint2_linear)"/>
<path opacity="0.06" fill-rule="evenodd" clip-rule="evenodd" d="M3.94531 5.13537L6.58836 12.2605L8.73583 9.98383L3.94531 5.13537Z" fill="#161616"/>
<path opacity="0.06" fill-rule="evenodd" clip-rule="evenodd" d="M3.94531 5.42056L7.20782 11.6907L8.73583 10.1334L3.94531 5.42056Z" fill="#161616"/>
<path fill-rule="evenodd" clip-rule="evenodd" d="M4.19922 5.15327L13.2056 14H18.1992V10.2336C18.1992 10.2336 18.0952 8.97813 17.3967 8.30658L10.8871 2H7.40943L4.19922 5.15327Z" fill="url(#paint3_linear)"/>
<path fill-rule="evenodd" clip-rule="evenodd" d="M34 14V17.7391C34 17.7391 33.8194 19.062 32.9091 19.9131L26.4546 26L23 25.9131L23.6364 19.3913L24.9091 17.9131L28.9091 14H34Z" fill="url(#paint4_linear)"/>
<path opacity="0.06" fill-rule="evenodd" clip-rule="evenodd" d="M30.9434 22.8652L28.2248 15.74L26.0159 18.0167L30.9434 22.8652Z" fill="#161616"/>
<path opacity="0.06" fill-rule="evenodd" clip-rule="evenodd" d="M30.9434 22.5802L27.5876 16.3101L26.0159 17.8674L30.9434 22.5802Z" fill="#161616"/>
<path fill-rule="evenodd" clip-rule="evenodd" d="M29.8008 22.8467L20.7944 14H15.8008V17.7664C15.8008 17.7664 15.9048 19.0219 16.6033 19.6934L23.1129 26H26.5906L29.8008 22.8467Z" fill="url(#paint5_linear)"/>
<path fill-rule="evenodd" clip-rule="evenodd" d="M34 14V10.2609C34 10.2609 33.8194 8.93803 32.9091 8.08695L26.4546 2L23 2.08695L23.6364 8.60868L24.9091 10.0869L28.9091 14H34Z" fill="url(#paint6_linear)"/>
<path opacity="0.06" fill-rule="evenodd" clip-rule="evenodd" d="M30.9434 5.64612L28.2248 12.7712L26.0159 10.4946L30.9434 5.64612Z" fill="#161616"/>
<path opacity="0.06" fill-rule="evenodd" clip-rule="evenodd" d="M30.9434 5.93106L27.5876 12.2012L26.0159 10.6439L30.9434 5.93106Z" fill="#161616"/>
<path fill-rule="evenodd" clip-rule="evenodd" d="M29.8008 5.15327L20.7944 14H15.8008V10.2336C15.8008 10.2336 15.9048 8.97813 16.6033 8.30658L23.1129 2H26.5906L29.8008 5.15327Z" fill="url(#paint7_linear)"/>
<defs>
<linearGradient id="paint0_linear" x1="-5.5" y1="20" x2="6.45472" y2="30.9585" gradientUnits="userSpaceOnUse">
<stop stop-color="#6B62D3"/>
<stop offset="1" stop-color="#3B30D2"/>
</linearGradient>
<linearGradient id="paint1_linear" x1="12.0499" y1="8.92655" x2="2.08057" y2="21.0099" gradientUnits="userSpaceOnUse">
<stop stop-color="#5C51D6"/>
<stop offset="1" stop-color="#8377F7"/>
</linearGradient>
<linearGradient id="paint2_linear" x1="-5.5" y1="8" x2="6.45472" y2="-2.95849" gradientUnits="userSpaceOnUse">
<stop stop-color="#6B62D3"/>
<stop offset="1" stop-color="#3B30D2"/>
</linearGradient>
<linearGradient id="paint3_linear" x1="12.0499" y1="19.0735" x2="2.08057" y2="6.99008" gradientUnits="userSpaceOnUse">
<stop stop-color="#5C51D6"/>
<stop offset="1" stop-color="#8377F7"/>
</linearGradient>
<linearGradient id="paint4_linear" x1="39.5" y1="20" x2="27.5453" y2="30.9585" gradientUnits="userSpaceOnUse">
<stop stop-color="#6B62D3"/>
<stop offset="1" stop-color="#3B30D2"/>
</linearGradient>
<linearGradient id="paint5_linear" x1="21.9501" y1="8.92655" x2="31.9194" y2="21.0099" gradientUnits="userSpaceOnUse">
<stop stop-color="#5C51D6"/>
<stop offset="1" stop-color="#8377F7"/>
</linearGradient>
<linearGradient id="paint6_linear" x1="39.5" y1="8" x2="27.5453" y2="-2.95849" gradientUnits="userSpaceOnUse">
<stop stop-color="#6B62D3"/>
<stop offset="1" stop-color="#3B30D2"/>
</linearGradient>
<linearGradient id="paint7_linear" x1="21.9501" y1="19.0735" x2="31.9194" y2="6.99008" gradientUnits="userSpaceOnUse">
<stop stop-color="#5C51D6"/>
<stop offset="1" stop-color="#8377F7"/>
</linearGradient>
</defs>
</svg>
