<svg width="360" height="640" viewBox="0 0 360 640" fill="none" xmlns="http://www.w3.org/2000/svg">
<rect width="360" height="640" fill="white"/>
<rect width="360" height="45" fill="#AAAAAA"/>
<rect y="45" width="360" height="595" fill="#C4C4C4"/>
<path d="M32.999 32.1377H31.3203V29H22.1357V32.1465H20.4482L20.4395 27.6201H21.4854C22.0361 26.999 22.4727 26.167 22.7949 25.124C23.123 24.0752 23.3281 22.9268 23.4102 21.6787L23.6914 16.2031H31.3467V27.6201H33.0166L32.999 32.1377ZM23.4102 27.6201H29.6504V17.5918H25.3174L25.1328 21.3535C25.0566 22.8242 24.8604 24.0781 24.5439 25.1152C24.2334 26.1523 23.8555 26.9873 23.4102 27.6201ZM34.335 24.1572C34.335 23.2256 34.5166 22.3877 34.8799 21.6436C35.249 20.8994 35.7588 20.3252 36.4092 19.9209C37.0654 19.5166 37.8125 19.3145 38.6504 19.3145C39.9453 19.3145 40.9912 19.7627 41.7881 20.6592C42.5908 21.5557 42.9922 22.748 42.9922 24.2363V24.3506C42.9922 25.2764 42.8135 26.1084 42.4561 26.8467C42.1045 27.5791 41.5977 28.1504 40.9355 28.5605C40.2793 28.9707 39.5234 29.1758 38.668 29.1758C37.3789 29.1758 36.333 28.7275 35.5303 27.8311C34.7334 26.9346 34.335 25.748 34.335 24.2715V24.1572ZM35.9697 24.3506C35.9697 25.4053 36.2129 26.252 36.6992 26.8906C37.1914 27.5293 37.8477 27.8486 38.668 27.8486C39.4941 27.8486 40.1504 27.5264 40.6367 26.8818C41.123 26.2314 41.3662 25.3232 41.3662 24.1572C41.3662 23.1143 41.1172 22.2705 40.6191 21.626C40.127 20.9756 39.4707 20.6504 38.6504 20.6504C37.8477 20.6504 37.2002 20.9697 36.708 21.6084C36.2158 22.2471 35.9697 23.1611 35.9697 24.3506ZM49.2061 20.0352C50.4014 20.0352 51.3564 20.4365 52.0713 21.2393C52.792 22.0361 53.1523 23.0879 53.1523 24.3945V24.5439C53.1523 25.4404 52.9795 26.2432 52.6338 26.9521C52.2881 27.6553 51.79 28.2031 51.1396 28.5957C50.4951 28.9824 49.751 29.1758 48.9072 29.1758C47.6299 29.1758 46.6016 28.751 45.8223 27.9014C45.043 27.0459 44.6533 25.9004 44.6533 24.4648V23.6738C44.6533 21.6758 45.0225 20.0879 45.7607 18.9102C46.5049 17.7324 47.6006 17.0146 49.0479 16.7568C49.8682 16.6104 50.4219 16.4316 50.709 16.2207C50.9961 16.0098 51.1396 15.7197 51.1396 15.3506H52.4756C52.4756 16.083 52.3086 16.6543 51.9746 17.0645C51.6465 17.4746 51.1191 17.7646 50.3926 17.9346L49.1797 18.207C48.2129 18.4355 47.4863 18.8223 47 19.3672C46.5195 19.9062 46.2061 20.627 46.0596 21.5293C46.9209 20.5332 47.9697 20.0352 49.2061 20.0352ZM48.8896 21.3711C48.0928 21.3711 47.46 21.6406 46.9912 22.1797C46.5225 22.7129 46.2881 23.4541 46.2881 24.4033V24.5439C46.2881 25.5635 46.5225 26.3721 46.9912 26.9697C47.4658 27.5615 48.1045 27.8574 48.9072 27.8574C49.7158 27.8574 50.3545 27.5586 50.8232 26.9609C51.292 26.3633 51.5264 25.4902 51.5264 24.3418C51.5264 23.4453 51.2891 22.7275 50.8145 22.1885C50.3457 21.6436 49.7041 21.3711 48.8896 21.3711ZM60.8516 29C60.7578 28.8125 60.6816 28.4785 60.623 27.998C59.8672 28.7832 58.9648 29.1758 57.916 29.1758C56.9785 29.1758 56.208 28.9121 55.6045 28.3848C55.0068 27.8516 54.708 27.1777 54.708 26.3633C54.708 25.373 55.083 24.6055 55.833 24.0605C56.5889 23.5098 57.6494 23.2344 59.0146 23.2344H60.5967V22.4873C60.5967 21.9189 60.4268 21.4678 60.0869 21.1338C59.7471 20.7939 59.2461 20.624 58.584 20.624C58.0039 20.624 57.5176 20.7705 57.125 21.0635C56.7324 21.3564 56.5361 21.7109 56.5361 22.127H54.9014C54.9014 21.6523 55.0684 21.1953 55.4023 20.7559C55.7422 20.3105 56.1992 19.959 56.7734 19.7012C57.3535 19.4434 57.9893 19.3145 58.6807 19.3145C59.7764 19.3145 60.6348 19.5898 61.2559 20.1406C61.877 20.6855 62.1992 21.4385 62.2227 22.3994V26.7764C62.2227 27.6494 62.334 28.3438 62.5566 28.8594V29H60.8516ZM58.1533 27.7607C58.6631 27.7607 59.1465 27.6289 59.6035 27.3652C60.0605 27.1016 60.3916 26.7588 60.5967 26.3369V24.3857H59.3223C57.3301 24.3857 56.334 24.9688 56.334 26.1348C56.334 26.6445 56.5039 27.043 56.8438 27.3301C57.1836 27.6172 57.6201 27.7607 58.1533 27.7607ZM64.9209 29V19.4902H68.6299C69.8955 19.4902 70.8652 19.7129 71.5391 20.1582C72.2188 20.5977 72.5586 21.2451 72.5586 22.1006C72.5586 22.54 72.4268 22.9385 72.1631 23.2959C71.8994 23.6475 71.5098 23.917 70.9941 24.1045C71.5684 24.2393 72.0283 24.5029 72.374 24.8955C72.7256 25.2881 72.9014 25.7568 72.9014 26.3018C72.9014 27.1748 72.5791 27.8428 71.9346 28.3057C71.2959 28.7686 70.3906 29 69.2188 29H64.9209ZM66.5469 24.8252V27.6904H69.2363C69.916 27.6904 70.4229 27.5645 70.7568 27.3125C71.0967 27.0605 71.2666 26.7061 71.2666 26.249C71.2666 25.2998 70.5693 24.8252 69.1748 24.8252H66.5469ZM66.5469 23.5244H68.6475C70.1709 23.5244 70.9326 23.0791 70.9326 22.1885C70.9326 21.2979 70.2119 20.8379 68.7705 20.8086H66.5469V23.5244ZM81.207 19.4902H82.833V29H81.207V22.0654L76.8213 29H75.1953V19.4902H76.8213V26.4336L81.207 19.4902ZM92.5098 20.8086H89.3193V29H87.6934V20.8086H84.5645V19.4902H92.5098V20.8086ZM95.8672 22.7686H98.3369C99.415 22.7803 100.268 23.0615 100.895 23.6123C101.521 24.1631 101.835 24.9102 101.835 25.8535C101.835 26.8027 101.513 27.5645 100.868 28.1387C100.224 28.7129 99.3564 29 98.2666 29H94.2412V19.4902H95.8672V22.7686ZM95.8672 24.0957V27.6729H98.2842C98.8936 27.6729 99.3652 27.5176 99.6992 27.207C100.033 26.8906 100.2 26.46 100.2 25.915C100.2 25.3877 100.036 24.957 99.708 24.623C99.3857 24.2832 98.9316 24.1074 98.3457 24.0957H95.8672ZM112.145 27.8486C112.725 27.8486 113.231 27.6729 113.665 27.3213C114.099 26.9697 114.339 26.5303 114.386 26.0029H115.924C115.895 26.5479 115.707 27.0664 115.361 27.5586C115.016 28.0508 114.553 28.4434 113.973 28.7363C113.398 29.0293 112.789 29.1758 112.145 29.1758C110.85 29.1758 109.818 28.7451 109.051 27.8838C108.289 27.0166 107.908 25.833 107.908 24.333V24.0605C107.908 23.1348 108.078 22.3115 108.418 21.5908C108.758 20.8701 109.244 20.3105 109.877 19.9121C110.516 19.5137 111.269 19.3145 112.136 19.3145C113.202 19.3145 114.087 19.6338 114.79 20.2725C115.499 20.9111 115.877 21.7402 115.924 22.7598H114.386C114.339 22.1445 114.104 21.6406 113.683 21.248C113.267 20.8496 112.751 20.6504 112.136 20.6504C111.31 20.6504 110.668 20.9492 110.211 21.5469C109.76 22.1387 109.534 22.9971 109.534 24.1221V24.4297C109.534 25.5254 109.76 26.3691 110.211 26.9609C110.662 27.5527 111.307 27.8486 112.145 27.8486ZM117.321 24.1572C117.321 23.2256 117.503 22.3877 117.866 21.6436C118.235 20.8994 118.745 20.3252 119.396 19.9209C120.052 19.5166 120.799 19.3145 121.637 19.3145C122.932 19.3145 123.978 19.7627 124.774 20.6592C125.577 21.5557 125.979 22.748 125.979 24.2363V24.3506C125.979 25.2764 125.8 26.1084 125.442 26.8467C125.091 27.5791 124.584 28.1504 123.922 28.5605C123.266 28.9707 122.51 29.1758 121.654 29.1758C120.365 29.1758 119.319 28.7275 118.517 27.8311C117.72 26.9346 117.321 25.748 117.321 24.2715V24.1572ZM118.956 24.3506C118.956 25.4053 119.199 26.252 119.686 26.8906C120.178 27.5293 120.834 27.8486 121.654 27.8486C122.48 27.8486 123.137 27.5264 123.623 26.8818C124.109 26.2314 124.353 25.3232 124.353 24.1572C124.353 23.1143 124.104 22.2705 123.605 21.626C123.113 20.9756 122.457 20.6504 121.637 20.6504C120.834 20.6504 120.187 20.9697 119.694 21.6084C119.202 22.2471 118.956 23.1611 118.956 24.3506ZM132.192 20.0352C133.388 20.0352 134.343 20.4365 135.058 21.2393C135.778 22.0361 136.139 23.0879 136.139 24.3945V24.5439C136.139 25.4404 135.966 26.2432 135.62 26.9521C135.274 27.6553 134.776 28.2031 134.126 28.5957C133.481 28.9824 132.737 29.1758 131.894 29.1758C130.616 29.1758 129.588 28.751 128.809 27.9014C128.029 27.0459 127.64 25.9004 127.64 24.4648V23.6738C127.64 21.6758 128.009 20.0879 128.747 18.9102C129.491 17.7324 130.587 17.0146 132.034 16.7568C132.854 16.6104 133.408 16.4316 133.695 16.2207C133.982 16.0098 134.126 15.7197 134.126 15.3506H135.462C135.462 16.083 135.295 16.6543 134.961 17.0645C134.633 17.4746 134.105 17.7646 133.379 17.9346L132.166 18.207C131.199 18.4355 130.473 18.8223 129.986 19.3672C129.506 19.9062 129.192 20.627 129.046 21.5293C129.907 20.5332 130.956 20.0352 132.192 20.0352ZM131.876 21.3711C131.079 21.3711 130.446 21.6406 129.978 22.1797C129.509 22.7129 129.274 23.4541 129.274 24.4033V24.5439C129.274 25.5635 129.509 26.3721 129.978 26.9697C130.452 27.5615 131.091 27.8574 131.894 27.8574C132.702 27.8574 133.341 27.5586 133.81 26.9609C134.278 26.3633 134.513 25.4902 134.513 24.3418C134.513 23.4453 134.275 22.7275 133.801 22.1885C133.332 21.6436 132.69 21.3711 131.876 21.3711ZM139.742 22.7686H142.212C143.29 22.7803 144.143 23.0615 144.77 23.6123C145.396 24.1631 145.71 24.9102 145.71 25.8535C145.71 26.8027 145.388 27.5645 144.743 28.1387C144.099 28.7129 143.231 29 142.142 29H138.116V19.4902H139.742V22.7686ZM149.103 29H147.468V19.4902H149.103V29ZM139.742 24.0957V27.6729H142.159C142.769 27.6729 143.24 27.5176 143.574 27.207C143.908 26.8906 144.075 26.46 144.075 25.915C144.075 25.3877 143.911 24.957 143.583 24.623C143.261 24.2832 142.807 24.1074 142.221 24.0957H139.742ZM159.008 20.8086H155.817V29H154.191V20.8086H151.062V19.4902H159.008V20.8086ZM166.742 19.4902H168.368V29H166.742V22.0654L162.356 29H160.73V19.4902H162.356V26.4336L166.742 19.4902ZM174.925 29.1758C173.636 29.1758 172.587 28.7539 171.778 27.9102C170.97 27.0605 170.565 25.9268 170.565 24.5088V24.21C170.565 23.2666 170.744 22.4258 171.102 21.6875C171.465 20.9434 171.969 20.3633 172.613 19.9473C173.264 19.5254 173.967 19.3145 174.723 19.3145C175.959 19.3145 176.92 19.7217 177.605 20.5361C178.291 21.3506 178.634 22.5166 178.634 24.0342V24.7109H172.191C172.215 25.6484 172.487 26.4072 173.009 26.9873C173.536 27.5615 174.204 27.8486 175.013 27.8486C175.587 27.8486 176.073 27.7314 176.472 27.4971C176.87 27.2627 177.219 26.9521 177.518 26.5654L178.511 27.3389C177.714 28.5635 176.519 29.1758 174.925 29.1758ZM174.723 20.6504C174.066 20.6504 173.516 20.8906 173.07 21.3711C172.625 21.8457 172.35 22.5137 172.244 23.375H177.008V23.252C176.961 22.4258 176.738 21.7871 176.34 21.3359C175.941 20.8789 175.402 20.6504 174.723 20.6504Z" fill="black"/>
<line y1="-1.5" x2="14.0712" y2="-1.5" transform="matrix(-0.710669 0.703527 -0.710669 -0.703527 341 17)" stroke="black" stroke-width="3"/>
<line y1="-1.5" x2="14.0712" y2="-1.5" transform="matrix(0.710669 0.703527 -0.710669 0.703527 331 19)" stroke="black" stroke-width="3"/>
<path d="M32.8047 88H31.4854V83.3994H26.4678V88H25.1553V78.0469H26.4678V82.3262H31.4854V78.0469H32.8047V88ZM39.5039 88C39.431 87.8542 39.3717 87.5944 39.3262 87.2207C38.7383 87.8314 38.0365 88.1367 37.2207 88.1367C36.4915 88.1367 35.8923 87.9316 35.4229 87.5215C34.958 87.1068 34.7256 86.5827 34.7256 85.9492C34.7256 85.179 35.0173 84.582 35.6006 84.1582C36.1885 83.7298 37.0133 83.5156 38.0752 83.5156H39.3057V82.9346C39.3057 82.4925 39.1735 82.1416 38.9092 81.8818C38.6449 81.6175 38.2552 81.4854 37.7402 81.4854C37.2891 81.4854 36.9108 81.5993 36.6055 81.8271C36.3001 82.055 36.1475 82.3307 36.1475 82.6543H34.876C34.876 82.2852 35.0059 81.9297 35.2656 81.5879C35.5299 81.2415 35.8854 80.9681 36.332 80.7676C36.7832 80.5671 37.2777 80.4668 37.8154 80.4668C38.6676 80.4668 39.3353 80.681 39.8184 81.1094C40.3014 81.5332 40.5521 82.1188 40.5703 82.8662V86.2705C40.5703 86.9495 40.6569 87.4896 40.8301 87.8906V88H39.5039ZM37.4053 87.0361C37.8018 87.0361 38.1777 86.9336 38.5332 86.7285C38.8887 86.5234 39.1462 86.2568 39.3057 85.9287V84.4111H38.3145C36.765 84.4111 35.9902 84.8646 35.9902 85.7715C35.9902 86.168 36.1224 86.4779 36.3867 86.7012C36.651 86.9245 36.9906 87.0361 37.4053 87.0361ZM46.6201 82.627C46.6201 82.2806 46.488 82.0072 46.2236 81.8066C45.9593 81.6016 45.597 81.499 45.1367 81.499C44.6901 81.499 44.3164 81.6152 44.0156 81.8477C43.7194 82.0801 43.5713 82.3535 43.5713 82.668H42.3135C42.3135 82.0254 42.5824 81.499 43.1201 81.0889C43.6579 80.6787 44.3301 80.4736 45.1367 80.4736C46.0026 80.4736 46.6771 80.6605 47.1602 81.0342C47.6432 81.4033 47.8848 81.932 47.8848 82.6201C47.8848 82.9528 47.7845 83.2581 47.584 83.5361C47.3835 83.8141 47.0986 84.0352 46.7295 84.1992C47.5908 84.4909 48.0215 85.0651 48.0215 85.9219C48.0215 86.6009 47.7594 87.1387 47.2354 87.5352C46.7113 87.9316 46.0117 88.1299 45.1367 88.1299C44.2845 88.1299 43.5804 87.9225 43.0244 87.5078C42.473 87.0885 42.1973 86.5234 42.1973 85.8125H43.4551C43.4551 86.1725 43.6146 86.4824 43.9336 86.7422C44.2572 86.9974 44.6582 87.125 45.1367 87.125C45.6198 87.125 46.0094 87.0133 46.3057 86.79C46.6019 86.5667 46.75 86.2773 46.75 85.9219C46.75 85.5072 46.6247 85.2109 46.374 85.0332C46.1279 84.8509 45.7428 84.7598 45.2188 84.7598H43.9541V83.6934H45.3281C46.1895 83.6706 46.6201 83.3151 46.6201 82.627ZM49.7783 88V80.6035H52.6631C53.6475 80.6035 54.4017 80.7767 54.9258 81.123C55.4544 81.4648 55.7188 81.9684 55.7188 82.6338C55.7188 82.9756 55.6162 83.2855 55.4111 83.5635C55.2061 83.8369 54.903 84.0465 54.502 84.1924C54.9486 84.2972 55.3063 84.5023 55.5752 84.8076C55.8486 85.113 55.9854 85.4775 55.9854 85.9014C55.9854 86.5804 55.7347 87.0999 55.2334 87.46C54.7367 87.82 54.0326 88 53.1211 88H49.7783ZM51.043 84.7529V86.9814H53.1348C53.6634 86.9814 54.0576 86.8835 54.3174 86.6875C54.5817 86.4915 54.7139 86.2158 54.7139 85.8604C54.7139 85.1221 54.1715 84.7529 53.0869 84.7529H51.043ZM51.043 83.7412H52.6768C53.8617 83.7412 54.4541 83.3949 54.4541 82.7021C54.4541 82.0094 53.8936 81.6517 52.7725 81.6289H51.043V83.7412ZM62.2266 88C62.1536 87.8542 62.0944 87.5944 62.0488 87.2207C61.4609 87.8314 60.7591 88.1367 59.9434 88.1367C59.2142 88.1367 58.6149 87.9316 58.1455 87.5215C57.6807 87.1068 57.4482 86.5827 57.4482 85.9492C57.4482 85.179 57.7399 84.582 58.3232 84.1582C58.9111 83.7298 59.736 83.5156 60.7979 83.5156H62.0283V82.9346C62.0283 82.4925 61.8962 82.1416 61.6318 81.8818C61.3675 81.6175 60.9779 81.4854 60.4629 81.4854C60.0117 81.4854 59.6335 81.5993 59.3281 81.8271C59.0228 82.055 58.8701 82.3307 58.8701 82.6543H57.5986C57.5986 82.2852 57.7285 81.9297 57.9883 81.5879C58.2526 81.2415 58.6081 80.9681 59.0547 80.7676C59.5059 80.5671 60.0003 80.4668 60.5381 80.4668C61.3903 80.4668 62.0579 80.681 62.541 81.1094C63.0241 81.5332 63.2747 82.1188 63.293 82.8662V86.2705C63.293 86.9495 63.3796 87.4896 63.5527 87.8906V88H62.2266ZM60.1279 87.0361C60.5244 87.0361 60.9004 86.9336 61.2559 86.7285C61.6113 86.5234 61.8688 86.2568 62.0283 85.9287V84.4111H61.0371C59.4876 84.4111 58.7129 84.8646 58.7129 85.7715C58.7129 86.168 58.8451 86.4779 59.1094 86.7012C59.3737 86.9245 59.7132 87.0361 60.1279 87.0361ZM71.3184 88H70.0537V84.8418H66.6562V88H65.3848V80.6035H66.6562V83.8096H70.0537V80.6035H71.3184V88ZM78.1406 80.6035H79.4053V88H78.1406V82.6064L74.7295 88H73.4648V80.6035H74.7295V86.0039L78.1406 80.6035ZM84.5049 88.1367C83.5023 88.1367 82.6865 87.8086 82.0576 87.1523C81.4287 86.4915 81.1143 85.6097 81.1143 84.5068V84.2744C81.1143 83.5407 81.2533 82.8867 81.5312 82.3125C81.8138 81.7337 82.2057 81.2826 82.707 80.959C83.2129 80.6309 83.7598 80.4668 84.3477 80.4668C85.3092 80.4668 86.0566 80.7835 86.5898 81.417C87.123 82.0505 87.3896 82.9574 87.3896 84.1377V84.6641H82.3789C82.3971 85.3932 82.609 85.9834 83.0146 86.4346C83.4248 86.8812 83.9443 87.1045 84.5732 87.1045C85.0199 87.1045 85.3981 87.0133 85.708 86.8311C86.0179 86.6488 86.2891 86.4072 86.5215 86.1064L87.2939 86.708C86.6742 87.6605 85.7445 88.1367 84.5049 88.1367ZM84.3477 81.5059C83.8372 81.5059 83.4089 81.6927 83.0625 82.0664C82.7161 82.4355 82.502 82.9551 82.4199 83.625H86.125V83.5293C86.0885 82.8867 85.9154 82.39 85.6055 82.0391C85.2956 81.6836 84.8763 81.5059 84.3477 81.5059Z" fill="black"/>
<rect x="25" y="98" width="292" height="22" rx="5" fill="#939393"/>
<path d="M27.7393 148.529H26.5293V153H25.2168V143.047H26.5293V147.436H27.5547L31.0342 143.047H32.668L28.8672 147.873L32.9482 153H31.3418L27.7393 148.529ZM38.5195 153C38.4466 152.854 38.3874 152.594 38.3418 152.221C37.7539 152.831 37.0521 153.137 36.2363 153.137C35.5072 153.137 34.9079 152.932 34.4385 152.521C33.9736 152.107 33.7412 151.583 33.7412 150.949C33.7412 150.179 34.0329 149.582 34.6162 149.158C35.2041 148.73 36.029 148.516 37.0908 148.516H38.3213V147.935C38.3213 147.493 38.1891 147.142 37.9248 146.882C37.6605 146.618 37.2708 146.485 36.7559 146.485C36.3047 146.485 35.9264 146.599 35.6211 146.827C35.3158 147.055 35.1631 147.331 35.1631 147.654H33.8916C33.8916 147.285 34.0215 146.93 34.2812 146.588C34.5456 146.242 34.901 145.968 35.3477 145.768C35.7988 145.567 36.2933 145.467 36.8311 145.467C37.6833 145.467 38.3509 145.681 38.834 146.109C39.3171 146.533 39.5677 147.119 39.5859 147.866V151.271C39.5859 151.95 39.6725 152.49 39.8457 152.891V153H38.5195ZM36.4209 152.036C36.8174 152.036 37.1934 151.934 37.5488 151.729C37.9043 151.523 38.1618 151.257 38.3213 150.929V149.411H37.3301C35.7806 149.411 35.0059 149.865 35.0059 150.771C35.0059 151.168 35.138 151.478 35.4023 151.701C35.6667 151.924 36.0062 152.036 36.4209 152.036ZM46.9551 146.629H44.4736V153H43.209V146.629H40.7754V145.604H46.9551V146.629ZM50.708 153.137C49.7054 153.137 48.8896 152.809 48.2607 152.152C47.6318 151.492 47.3174 150.61 47.3174 149.507V149.274C47.3174 148.541 47.4564 147.887 47.7344 147.312C48.0169 146.734 48.4089 146.283 48.9102 145.959C49.416 145.631 49.9629 145.467 50.5508 145.467C51.5124 145.467 52.2598 145.784 52.793 146.417C53.3262 147.05 53.5928 147.957 53.5928 149.138V149.664H48.582C48.6003 150.393 48.8122 150.983 49.2178 151.435C49.6279 151.881 50.1475 152.104 50.7764 152.104C51.223 152.104 51.6012 152.013 51.9111 151.831C52.221 151.649 52.4922 151.407 52.7246 151.106L53.4971 151.708C52.8773 152.66 51.9476 153.137 50.708 153.137ZM50.5508 146.506C50.0404 146.506 49.612 146.693 49.2656 147.066C48.9193 147.436 48.7051 147.955 48.623 148.625H52.3281V148.529C52.2917 147.887 52.1185 147.39 51.8086 147.039C51.4987 146.684 51.0794 146.506 50.5508 146.506ZM59.8408 146.649H56.4297V153H55.1582V145.604H59.8408V146.649ZM60.4697 149.233C60.4697 148.509 60.611 147.857 60.8936 147.278C61.1807 146.7 61.5771 146.253 62.083 145.938C62.5934 145.624 63.1745 145.467 63.8262 145.467C64.8333 145.467 65.6468 145.815 66.2666 146.513C66.891 147.21 67.2031 148.137 67.2031 149.295V149.384C67.2031 150.104 67.0641 150.751 66.7861 151.325C66.5127 151.895 66.1185 152.339 65.6035 152.658C65.0931 152.977 64.5052 153.137 63.8398 153.137C62.8372 153.137 62.0238 152.788 61.3994 152.091C60.7796 151.394 60.4697 150.471 60.4697 149.322V149.233ZM61.7412 149.384C61.7412 150.204 61.9303 150.863 62.3086 151.359C62.6914 151.856 63.2018 152.104 63.8398 152.104C64.4824 152.104 64.9928 151.854 65.3711 151.353C65.7493 150.847 65.9385 150.14 65.9385 149.233C65.9385 148.422 65.7448 147.766 65.3574 147.265C64.9746 146.759 64.4642 146.506 63.8262 146.506C63.2018 146.506 62.6982 146.754 62.3154 147.251C61.9326 147.748 61.7412 148.459 61.7412 149.384ZM75.0371 149.384C75.0371 150.509 74.7796 151.416 74.2646 152.104C73.7497 152.793 73.0524 153.137 72.1729 153.137C71.2751 153.137 70.5687 152.852 70.0537 152.282V155.844H68.7891V145.604H69.9443L70.0059 146.424C70.5208 145.786 71.2363 145.467 72.1523 145.467C73.041 145.467 73.7428 145.802 74.2578 146.472C74.7773 147.142 75.0371 148.074 75.0371 149.268V149.384ZM73.7725 149.24C73.7725 148.406 73.5947 147.748 73.2393 147.265C72.8838 146.782 72.3962 146.54 71.7764 146.54C71.0107 146.54 70.4365 146.88 70.0537 147.559V151.093C70.432 151.767 71.0107 152.104 71.79 152.104C72.3962 152.104 72.877 151.865 73.2324 151.387C73.5924 150.904 73.7725 150.188 73.7725 149.24ZM81.4355 145.604H82.7002V153H81.4355V147.606L78.0244 153H76.7598V145.604H78.0244V151.004L81.4355 145.604ZM90.3838 145.604V153H89.1123V150.122H87.2051L85.4619 153H84.0947L85.9541 149.931C85.4801 149.757 85.1156 149.491 84.8604 149.131C84.6097 148.766 84.4844 148.342 84.4844 147.859C84.4844 147.185 84.7373 146.643 85.2432 146.232C85.749 145.818 86.4258 145.608 87.2734 145.604H90.3838ZM85.7559 147.873C85.7559 148.233 85.8789 148.525 86.125 148.748C86.3711 148.967 86.6969 149.078 87.1025 149.083H89.1123V146.629H87.2939C86.8245 146.629 86.4508 146.745 86.1729 146.978C85.8949 147.205 85.7559 147.504 85.7559 147.873Z" fill="black"/>
<rect x="25" y="163" width="292" height="22" rx="5" fill="#939393"/>
<path d="M32.7568 218H31.4375V209.127H26.5293V218H25.2168V208.047H32.7568V218ZM34.6162 214.233C34.6162 213.509 34.7575 212.857 35.04 212.278C35.3271 211.7 35.7236 211.253 36.2295 210.938C36.7399 210.624 37.321 210.467 37.9727 210.467C38.9798 210.467 39.7933 210.815 40.4131 211.513C41.0374 212.21 41.3496 213.137 41.3496 214.295V214.384C41.3496 215.104 41.2106 215.751 40.9326 216.325C40.6592 216.895 40.265 217.339 39.75 217.658C39.2396 217.977 38.6517 218.137 37.9863 218.137C36.9837 218.137 36.1702 217.788 35.5459 217.091C34.9261 216.394 34.6162 215.471 34.6162 214.322V214.233ZM35.8877 214.384C35.8877 215.204 36.0768 215.863 36.4551 216.359C36.8379 216.856 37.3483 217.104 37.9863 217.104C38.6289 217.104 39.1393 216.854 39.5176 216.353C39.8958 215.847 40.085 215.14 40.085 214.233C40.085 213.422 39.8913 212.766 39.5039 212.265C39.1211 211.759 38.6107 211.506 37.9727 211.506C37.3483 211.506 36.8447 211.754 36.4619 212.251C36.0791 212.748 35.8877 213.459 35.8877 214.384ZM48.2812 211.629H45.7998V218H44.5352V211.629H42.1016V210.604H48.2812V211.629ZM55.7598 214.384C55.7598 215.509 55.5023 216.416 54.9873 217.104C54.4723 217.793 53.7751 218.137 52.8955 218.137C51.9977 218.137 51.2913 217.852 50.7764 217.282V220.844H49.5117V210.604H50.667L50.7285 211.424C51.2435 210.786 51.959 210.467 52.875 210.467C53.7637 210.467 54.4655 210.802 54.9805 211.472C55.5 212.142 55.7598 213.074 55.7598 214.268V214.384ZM54.4951 214.24C54.4951 213.406 54.3174 212.748 53.9619 212.265C53.6064 211.782 53.1188 211.54 52.499 211.54C51.7334 211.54 51.1592 211.88 50.7764 212.559V216.093C51.1546 216.767 51.7334 217.104 52.5127 217.104C53.1188 217.104 53.5996 216.865 53.9551 216.387C54.3151 215.904 54.4951 215.188 54.4951 214.24ZM61.9395 218C61.8665 217.854 61.8073 217.594 61.7617 217.221C61.1738 217.831 60.472 218.137 59.6562 218.137C58.9271 218.137 58.3278 217.932 57.8584 217.521C57.3936 217.107 57.1611 216.583 57.1611 215.949C57.1611 215.179 57.4528 214.582 58.0361 214.158C58.624 213.73 59.4489 213.516 60.5107 213.516H61.7412V212.935C61.7412 212.493 61.609 212.142 61.3447 211.882C61.0804 211.618 60.6908 211.485 60.1758 211.485C59.7246 211.485 59.3464 211.599 59.041 211.827C58.7357 212.055 58.583 212.331 58.583 212.654H57.3115C57.3115 212.285 57.4414 211.93 57.7012 211.588C57.9655 211.242 58.321 210.968 58.7676 210.768C59.2188 210.567 59.7132 210.467 60.251 210.467C61.1032 210.467 61.7708 210.681 62.2539 211.109C62.737 211.533 62.9876 212.119 63.0059 212.866V216.271C63.0059 216.95 63.0924 217.49 63.2656 217.891V218H61.9395ZM59.8408 217.036C60.2373 217.036 60.6133 216.934 60.9688 216.729C61.3242 216.523 61.5817 216.257 61.7412 215.929V214.411H60.75C59.2005 214.411 58.4258 214.865 58.4258 215.771C58.4258 216.168 58.5579 216.478 58.8223 216.701C59.0866 216.924 59.4261 217.036 59.8408 217.036ZM70.5732 218H69.3018V215.32C68.7458 215.466 68.1761 215.539 67.5928 215.539C66.6676 215.539 65.9613 215.302 65.4736 214.828C64.9906 214.354 64.7445 213.68 64.7354 212.805V210.597H66V212.846C66.0228 213.949 66.5537 214.5 67.5928 214.5C68.1761 214.5 68.7458 214.427 69.3018 214.281V210.604H70.5732V218ZM75.6729 218.137C74.6702 218.137 73.8545 217.809 73.2256 217.152C72.5967 216.492 72.2822 215.61 72.2822 214.507V214.274C72.2822 213.541 72.4212 212.887 72.6992 212.312C72.9818 211.734 73.3737 211.283 73.875 210.959C74.3809 210.631 74.9277 210.467 75.5156 210.467C76.4772 210.467 77.2246 210.784 77.7578 211.417C78.291 212.05 78.5576 212.957 78.5576 214.138V214.664H73.5469C73.5651 215.393 73.777 215.983 74.1826 216.435C74.5928 216.881 75.1123 217.104 75.7412 217.104C76.1878 217.104 76.5661 217.013 76.876 216.831C77.1859 216.649 77.457 216.407 77.6895 216.106L78.4619 216.708C77.8421 217.66 76.9124 218.137 75.6729 218.137ZM75.5156 211.506C75.0052 211.506 74.5768 211.693 74.2305 212.066C73.8841 212.436 73.6699 212.955 73.5879 213.625H77.293V213.529C77.2565 212.887 77.0833 212.39 76.7734 212.039C76.4635 211.684 76.0443 211.506 75.5156 211.506ZM86.0703 218H84.8057V214.842H81.4082V218H80.1367V210.604H81.4082V213.81H84.8057V210.604H86.0703V218ZM87.7725 214.233C87.7725 213.509 87.9137 212.857 88.1963 212.278C88.4834 211.7 88.8799 211.253 89.3857 210.938C89.8962 210.624 90.4772 210.467 91.1289 210.467C92.1361 210.467 92.9495 210.815 93.5693 211.513C94.1937 212.21 94.5059 213.137 94.5059 214.295V214.384C94.5059 215.104 94.3669 215.751 94.0889 216.325C93.8154 216.895 93.4212 217.339 92.9062 217.658C92.3958 217.977 91.8079 218.137 91.1426 218.137C90.14 218.137 89.3265 217.788 88.7021 217.091C88.0824 216.394 87.7725 215.471 87.7725 214.322V214.233ZM89.0439 214.384C89.0439 215.204 89.2331 215.863 89.6113 216.359C89.9941 216.856 90.5046 217.104 91.1426 217.104C91.7852 217.104 92.2956 216.854 92.6738 216.353C93.0521 215.847 93.2412 215.14 93.2412 214.233C93.2412 213.422 93.0475 212.766 92.6602 212.265C92.2773 211.759 91.7669 211.506 91.1289 211.506C90.5046 211.506 90.001 211.754 89.6182 212.251C89.2354 212.748 89.0439 213.459 89.0439 214.384ZM99.6807 218V210.604H102.565C103.55 210.604 104.304 210.777 104.828 211.123C105.357 211.465 105.621 211.968 105.621 212.634C105.621 212.976 105.519 213.285 105.313 213.563C105.108 213.837 104.805 214.047 104.404 214.192C104.851 214.297 105.209 214.502 105.478 214.808C105.751 215.113 105.888 215.478 105.888 215.901C105.888 216.58 105.637 217.1 105.136 217.46C104.639 217.82 103.935 218 103.023 218H99.6807ZM100.945 214.753V216.981H103.037C103.566 216.981 103.96 216.883 104.22 216.688C104.484 216.492 104.616 216.216 104.616 215.86C104.616 215.122 104.074 214.753 102.989 214.753H100.945ZM100.945 213.741H102.579C103.764 213.741 104.356 213.395 104.356 212.702C104.356 212.009 103.796 211.652 102.675 211.629H100.945V213.741ZM113.811 214.384C113.811 215.509 113.553 216.416 113.038 217.104C112.523 217.793 111.826 218.137 110.946 218.137C110.049 218.137 109.342 217.852 108.827 217.282V220.844H107.562V210.604H108.718L108.779 211.424C109.294 210.786 110.01 210.467 110.926 210.467C111.814 210.467 112.516 210.802 113.031 211.472C113.551 212.142 113.811 213.074 113.811 214.268V214.384ZM112.546 214.24C112.546 213.406 112.368 212.748 112.013 212.265C111.657 211.782 111.17 211.54 110.55 211.54C109.784 211.54 109.21 211.88 108.827 212.559V216.093C109.205 216.767 109.784 217.104 110.563 217.104C111.17 217.104 111.65 216.865 112.006 216.387C112.366 215.904 112.546 215.188 112.546 214.24ZM118.493 218.137C117.491 218.137 116.675 217.809 116.046 217.152C115.417 216.492 115.103 215.61 115.103 214.507V214.274C115.103 213.541 115.242 212.887 115.52 212.312C115.802 211.734 116.194 211.283 116.695 210.959C117.201 210.631 117.748 210.467 118.336 210.467C119.298 210.467 120.045 210.784 120.578 211.417C121.111 212.05 121.378 212.957 121.378 214.138V214.664H116.367C116.385 215.393 116.597 215.983 117.003 216.435C117.413 216.881 117.933 217.104 118.562 217.104C119.008 217.104 119.386 217.013 119.696 216.831C120.006 216.649 120.277 216.407 120.51 216.106L121.282 216.708C120.662 217.66 119.733 218.137 118.493 218.137ZM118.336 211.506C117.826 211.506 117.397 211.693 117.051 212.066C116.704 212.436 116.49 212.955 116.408 213.625H120.113V213.529C120.077 212.887 119.904 212.39 119.594 212.039C119.284 211.684 118.865 211.506 118.336 211.506ZM127.106 216.325L129.622 210.604H131.201V218H129.937V212.62L127.544 218H126.669L124.229 212.504V218H122.964V210.604H124.604L127.106 216.325ZM136.308 218.137C135.305 218.137 134.489 217.809 133.86 217.152C133.231 216.492 132.917 215.61 132.917 214.507V214.274C132.917 213.541 133.056 212.887 133.334 212.312C133.617 211.734 134.008 211.283 134.51 210.959C135.016 210.631 135.562 210.467 136.15 210.467C137.112 210.467 137.859 210.784 138.393 211.417C138.926 212.05 139.192 212.957 139.192 214.138V214.664H134.182C134.2 215.393 134.412 215.983 134.817 216.435C135.228 216.881 135.747 217.104 136.376 217.104C136.823 217.104 137.201 217.013 137.511 216.831C137.821 216.649 138.092 216.407 138.324 216.106L139.097 216.708C138.477 217.66 137.547 218.137 136.308 218.137ZM136.15 211.506C135.64 211.506 135.212 211.693 134.865 212.066C134.519 212.436 134.305 212.955 134.223 213.625H137.928V213.529C137.891 212.887 137.718 212.39 137.408 212.039C137.098 211.684 136.679 211.506 136.15 211.506ZM146.705 218H145.44V214.842H142.043V218H140.771V210.604H142.043V213.81H145.44V210.604H146.705V218ZM153.527 210.604H154.792V218H153.527V212.606L150.116 218H148.852V210.604H150.116V216.004L153.527 210.604Z" fill="black"/>
<rect x="25" y="228" width="292" height="22" rx="5" fill="#939393"/>
<path d="M32.9629 234.463V235.383H32.7637C31.9199 235.398 31.248 235.648 30.748 236.133C30.248 236.617 29.959 237.299 29.8809 238.178C30.3301 237.662 30.9434 237.404 31.7207 237.404C32.4629 237.404 33.0547 237.666 33.4961 238.189C33.9414 238.713 34.1641 239.389 34.1641 240.217C34.1641 241.096 33.9238 241.799 33.4434 242.326C32.9668 242.854 32.3262 243.117 31.5215 243.117C30.7051 243.117 30.043 242.805 29.5352 242.18C29.0273 241.551 28.7734 240.742 28.7734 239.754V239.338C28.7734 237.768 29.1074 236.568 29.7754 235.74C30.4473 234.908 31.4453 234.482 32.7695 234.463H32.9629ZM31.5391 238.307C31.168 238.307 30.8262 238.418 30.5137 238.641C30.2012 238.863 29.9844 239.143 29.8633 239.479V239.877C29.8633 240.58 30.0215 241.146 30.3379 241.576C30.6543 242.006 31.0488 242.221 31.5215 242.221C32.0098 242.221 32.3926 242.041 32.6699 241.682C32.9512 241.322 33.0918 240.852 33.0918 240.27C33.0918 239.684 32.9492 239.211 32.6641 238.852C32.3828 238.488 32.0078 238.307 31.5391 238.307ZM35.9453 238.723L36.3789 234.469H40.75V235.471H37.2988L37.041 237.797C37.459 237.551 37.9336 237.428 38.4648 237.428C39.2422 237.428 39.8594 237.686 40.3164 238.201C40.7734 238.713 41.002 239.406 41.002 240.281C41.002 241.16 40.7637 241.854 40.2871 242.361C39.8145 242.865 39.1523 243.117 38.3008 243.117C37.5469 243.117 36.9316 242.908 36.4551 242.49C35.9785 242.072 35.707 241.494 35.6406 240.756H36.666C36.7324 241.244 36.9062 241.613 37.1875 241.863C37.4688 242.109 37.8398 242.232 38.3008 242.232C38.8047 242.232 39.1992 242.061 39.4844 241.717C39.7734 241.373 39.918 240.898 39.918 240.293C39.918 239.723 39.7617 239.266 39.4492 238.922C39.1406 238.574 38.7285 238.4 38.2129 238.4C37.7402 238.4 37.3691 238.504 37.0996 238.711L36.8125 238.945L35.9453 238.723ZM48.9238 241.564L51.0801 236.66H52.4336V243H51.3496V238.389L49.2988 243H48.5488L46.457 238.289V243H45.373V236.66H46.7793L48.9238 241.564ZM58.2812 236.66H59.3652V243H58.2812V238.377L55.3574 243H54.2734V236.66H55.3574V241.289L58.2812 236.66ZM66.2852 243H65.2012V240.293H62.2891V243H61.1992V236.66H62.2891V239.408H65.2012V236.66H66.2852V243ZM68.0547 242.432C68.0547 242.244 68.1094 242.088 68.2188 241.963C68.332 241.838 68.5 241.775 68.7227 241.775C68.9453 241.775 69.1133 241.838 69.2266 241.963C69.3438 242.088 69.4023 242.244 69.4023 242.432C69.4023 242.611 69.3438 242.762 69.2266 242.883C69.1133 243.004 68.9453 243.064 68.7227 243.064C68.5 243.064 68.332 243.004 68.2188 242.883C68.1094 242.762 68.0547 242.611 68.0547 242.432Z" fill="black"/>
<path d="M27.7393 343.529H26.5293V348H25.2168V338.047H26.5293V342.436H27.5547L31.0342 338.047H32.668L28.8672 342.873L32.9482 348H31.3418L27.7393 343.529ZM33.4268 344.233C33.4268 343.509 33.568 342.857 33.8506 342.278C34.1377 341.7 34.5342 341.253 35.04 340.938C35.5505 340.624 36.1315 340.467 36.7832 340.467C37.7904 340.467 38.6038 340.815 39.2236 341.513C39.848 342.21 40.1602 343.137 40.1602 344.295V344.384C40.1602 345.104 40.0212 345.751 39.7432 346.325C39.4697 346.895 39.0755 347.339 38.5605 347.658C38.0501 347.977 37.4622 348.137 36.7969 348.137C35.7943 348.137 34.9808 347.788 34.3564 347.091C33.7367 346.394 33.4268 345.471 33.4268 344.322V344.233ZM34.6982 344.384C34.6982 345.204 34.8874 345.863 35.2656 346.359C35.6484 346.856 36.1589 347.104 36.7969 347.104C37.4395 347.104 37.9499 346.854 38.3281 346.353C38.7064 345.847 38.8955 345.14 38.8955 344.233C38.8955 343.422 38.7018 342.766 38.3145 342.265C37.9316 341.759 37.4212 341.506 36.7832 341.506C36.1589 341.506 35.6553 341.754 35.2725 342.251C34.8896 342.748 34.6982 343.459 34.6982 344.384ZM46.0049 346.325L48.5205 340.604H50.0996V348H48.835V342.62L46.4424 348H45.5674L43.127 342.504V348H41.8623V340.604H43.5029L46.0049 346.325ZM56.3955 346.325L58.9111 340.604H60.4902V348H59.2256V342.62L56.833 348H55.958L53.5176 342.504V348H52.2529V340.604H53.8936L56.3955 346.325ZM65.5967 348.137C64.5941 348.137 63.7783 347.809 63.1494 347.152C62.5205 346.492 62.2061 345.61 62.2061 344.507V344.274C62.2061 343.541 62.3451 342.887 62.623 342.312C62.9056 341.734 63.2975 341.283 63.7988 340.959C64.3047 340.631 64.8516 340.467 65.4395 340.467C66.401 340.467 67.1484 340.784 67.6816 341.417C68.2148 342.05 68.4814 342.957 68.4814 344.138V344.664H63.4707C63.4889 345.393 63.7008 345.983 64.1064 346.435C64.5166 346.881 65.0361 347.104 65.665 347.104C66.1117 347.104 66.4899 347.013 66.7998 346.831C67.1097 346.649 67.3809 346.407 67.6133 346.106L68.3857 346.708C67.766 347.66 66.8363 348.137 65.5967 348.137ZM65.4395 341.506C64.929 341.506 64.5007 341.693 64.1543 342.066C63.8079 342.436 63.5938 342.955 63.5117 343.625H67.2168V343.529C67.1803 342.887 67.0072 342.39 66.6973 342.039C66.3874 341.684 65.9681 341.506 65.4395 341.506ZM75.9941 348H74.7295V344.842H71.332V348H70.0605V340.604H71.332V343.81H74.7295V340.604H75.9941V348ZM83.5273 341.629H81.0459V348H79.7812V341.629H77.3477V340.604H83.5273V341.629ZM89.2148 348C89.1419 347.854 89.0827 347.594 89.0371 347.221C88.4492 347.831 87.7474 348.137 86.9316 348.137C86.2025 348.137 85.6032 347.932 85.1338 347.521C84.6689 347.107 84.4365 346.583 84.4365 345.949C84.4365 345.179 84.7282 344.582 85.3115 344.158C85.8994 343.73 86.7243 343.516 87.7861 343.516H89.0166V342.935C89.0166 342.493 88.8844 342.142 88.6201 341.882C88.3558 341.618 87.9661 341.485 87.4512 341.485C87 341.485 86.6217 341.599 86.3164 341.827C86.0111 342.055 85.8584 342.331 85.8584 342.654H84.5869C84.5869 342.285 84.7168 341.93 84.9766 341.588C85.2409 341.242 85.5964 340.968 86.043 340.768C86.4941 340.567 86.9886 340.467 87.5264 340.467C88.3786 340.467 89.0462 340.681 89.5293 341.109C90.0124 341.533 90.263 342.119 90.2812 342.866V346.271C90.2812 346.95 90.3678 347.49 90.541 347.891V348H89.2148ZM87.1162 347.036C87.5127 347.036 87.8887 346.934 88.2441 346.729C88.5996 346.523 88.8571 346.257 89.0166 345.929V344.411H88.0254C86.4759 344.411 85.7012 344.865 85.7012 345.771C85.7012 346.168 85.8333 346.478 86.0977 346.701C86.362 346.924 86.7015 347.036 87.1162 347.036ZM98.5117 344.384C98.5117 345.509 98.2542 346.416 97.7393 347.104C97.2243 347.793 96.527 348.137 95.6475 348.137C94.7497 348.137 94.0433 347.852 93.5283 347.282V350.844H92.2637V340.604H93.4189L93.4805 341.424C93.9954 340.786 94.7109 340.467 95.627 340.467C96.5156 340.467 97.2174 340.802 97.7324 341.472C98.252 342.142 98.5117 343.074 98.5117 344.268V344.384ZM97.2471 344.24C97.2471 343.406 97.0693 342.748 96.7139 342.265C96.3584 341.782 95.8708 341.54 95.251 341.54C94.4854 341.54 93.9111 341.88 93.5283 342.559V346.093C93.9066 346.767 94.4854 347.104 95.2646 347.104C95.8708 347.104 96.3516 346.865 96.707 346.387C97.0671 345.904 97.2471 345.188 97.2471 344.24ZM104.91 340.604H106.175V348H104.91V342.606L101.499 348H100.234V340.604H101.499V346.004L104.91 340.604ZM112.99 340.604H114.255V348H112.99V342.606L109.579 348H108.314V340.604H109.579V346.004L112.99 340.604ZM113.332 337.91C113.332 338.462 113.143 338.906 112.765 339.243C112.391 339.576 111.899 339.742 111.288 339.742C110.677 339.742 110.183 339.574 109.805 339.236C109.426 338.899 109.237 338.457 109.237 337.91H110.27C110.27 338.229 110.356 338.48 110.529 338.662C110.702 338.84 110.955 338.929 111.288 338.929C111.607 338.929 111.855 338.84 112.033 338.662C112.215 338.484 112.307 338.234 112.307 337.91H113.332Z" fill="black"/>
<rect x="25" y="358" width="292" height="126" rx="5" fill="#939393"/>
<path d="M297.5 163.5H312C314.485 163.5 316.5 165.515 316.5 168V180C316.5 182.485 314.485 184.5 312 184.5H297.5V163.5Z" fill="#939393" stroke="black"/>
<path d="M307 178L302.67 172H311.33L307 178Z" fill="#C4C4C4"/>
<path d="M34.1104 285.44H32.8047V283H25.6611V285.447H24.3486L24.3418 281.927H25.1553C25.5837 281.444 25.9232 280.797 26.1738 279.985C26.429 279.17 26.5885 278.276 26.6523 277.306L26.8711 273.047H32.8252V281.927H34.124L34.1104 285.44ZM26.6523 281.927H31.5059V274.127H28.1357L27.9922 277.053C27.9329 278.197 27.7803 279.172 27.5342 279.979C27.2926 280.785 26.9987 281.435 26.6523 281.927ZM40.0508 283C39.9779 282.854 39.9186 282.594 39.873 282.221C39.2852 282.831 38.5833 283.137 37.7676 283.137C37.0384 283.137 36.4391 282.932 35.9697 282.521C35.5049 282.107 35.2725 281.583 35.2725 280.949C35.2725 280.179 35.5641 279.582 36.1475 279.158C36.7354 278.73 37.5602 278.516 38.6221 278.516H39.8525V277.935C39.8525 277.493 39.7204 277.142 39.4561 276.882C39.1917 276.618 38.8021 276.485 38.2871 276.485C37.8359 276.485 37.4577 276.599 37.1523 276.827C36.847 277.055 36.6943 277.331 36.6943 277.654H35.4229C35.4229 277.285 35.5527 276.93 35.8125 276.588C36.0768 276.242 36.4323 275.968 36.8789 275.768C37.3301 275.567 37.8245 275.467 38.3623 275.467C39.2145 275.467 39.8822 275.681 40.3652 276.109C40.8483 276.533 41.099 277.119 41.1172 277.866V281.271C41.1172 281.95 41.2038 282.49 41.377 282.891V283H40.0508ZM37.9521 282.036C38.3486 282.036 38.7246 281.934 39.0801 281.729C39.4355 281.523 39.693 281.257 39.8525 280.929V279.411H38.8613C37.3118 279.411 36.5371 279.865 36.5371 280.771C36.5371 281.168 36.6693 281.478 36.9336 281.701C37.1979 281.924 37.5374 282.036 37.9521 282.036ZM48.4863 276.629H46.0049V283H44.7402V276.629H42.3066V275.604H48.4863V276.629ZM54.1738 283C54.1009 282.854 54.0417 282.594 53.9961 282.221C53.4082 282.831 52.7064 283.137 51.8906 283.137C51.1615 283.137 50.5622 282.932 50.0928 282.521C49.6279 282.107 49.3955 281.583 49.3955 280.949C49.3955 280.179 49.6872 279.582 50.2705 279.158C50.8584 278.73 51.6833 278.516 52.7451 278.516H53.9756V277.935C53.9756 277.493 53.8434 277.142 53.5791 276.882C53.3148 276.618 52.9251 276.485 52.4102 276.485C51.959 276.485 51.5807 276.599 51.2754 276.827C50.9701 277.055 50.8174 277.331 50.8174 277.654H49.5459C49.5459 277.285 49.6758 276.93 49.9355 276.588C50.1999 276.242 50.5553 275.968 51.002 275.768C51.4531 275.567 51.9476 275.467 52.4854 275.467C53.3376 275.467 54.0052 275.681 54.4883 276.109C54.9714 276.533 55.222 277.119 55.2402 277.866V281.271C55.2402 281.95 55.3268 282.49 55.5 282.891V283H54.1738ZM52.0752 282.036C52.4717 282.036 52.8477 281.934 53.2031 281.729C53.5586 281.523 53.8161 281.257 53.9756 280.929V279.411H52.9844C51.4349 279.411 50.6602 279.865 50.6602 280.771C50.6602 281.168 50.7923 281.478 51.0566 281.701C51.321 281.924 51.6605 282.036 52.0752 282.036Z" fill="black"/>
<rect x="25" y="293" width="292" height="22" rx="5" fill="#939393"/>
<path d="M297.5 293.5H312C314.485 293.5 316.5 295.515 316.5 298V310C316.5 312.485 314.485 314.5 312 314.5H297.5V293.5Z" fill="#939393" stroke="black"/>
<path d="M307 308L302.67 302H311.33L307 308Z" fill="#C4C4C4"/>
<rect x="24" y="563" width="114" height="38" rx="5" fill="#8C8C8C"/>
<path d="M59.1104 589.44H57.8047V587H50.6611V589.447H49.3486L49.3418 585.927H50.1553C50.5837 585.444 50.9232 584.797 51.1738 583.985C51.429 583.17 51.5885 582.276 51.6523 581.306L51.8711 577.047H57.8252V585.927H59.124L59.1104 589.44ZM51.6523 585.927H56.5059V578.127H53.1357L52.9922 581.053C52.9329 582.197 52.7803 583.172 52.5342 583.979C52.2926 584.785 51.9987 585.435 51.6523 585.927ZM60.1494 583.233C60.1494 582.509 60.2907 581.857 60.5732 581.278C60.8604 580.7 61.2568 580.253 61.7627 579.938C62.2731 579.624 62.8542 579.467 63.5059 579.467C64.513 579.467 65.3265 579.815 65.9463 580.513C66.5706 581.21 66.8828 582.137 66.8828 583.295V583.384C66.8828 584.104 66.7438 584.751 66.4658 585.325C66.1924 585.895 65.7982 586.339 65.2832 586.658C64.7728 586.977 64.1849 587.137 63.5195 587.137C62.5169 587.137 61.7035 586.788 61.0791 586.091C60.4593 585.394 60.1494 584.471 60.1494 583.322V583.233ZM61.4209 583.384C61.4209 584.204 61.61 584.863 61.9883 585.359C62.3711 585.856 62.8815 586.104 63.5195 586.104C64.1621 586.104 64.6725 585.854 65.0508 585.353C65.429 584.847 65.6182 584.14 65.6182 583.233C65.6182 582.422 65.4245 581.766 65.0371 581.265C64.6543 580.759 64.1439 580.506 63.5059 580.506C62.8815 580.506 62.3779 580.754 61.9951 581.251C61.6123 581.748 61.4209 582.459 61.4209 583.384ZM71.7158 580.027C72.6455 580.027 73.3883 580.34 73.9443 580.964C74.5049 581.584 74.7852 582.402 74.7852 583.418V583.534C74.7852 584.231 74.6507 584.856 74.3818 585.407C74.113 585.954 73.7256 586.38 73.2197 586.686C72.7184 586.986 72.1396 587.137 71.4834 587.137C70.4899 587.137 69.6901 586.806 69.084 586.146C68.4779 585.48 68.1748 584.589 68.1748 583.473V582.857C68.1748 581.303 68.4619 580.068 69.0361 579.152C69.6149 578.236 70.4671 577.678 71.5928 577.478C72.2308 577.364 72.6615 577.225 72.8848 577.061C73.1081 576.896 73.2197 576.671 73.2197 576.384H74.2588C74.2588 576.953 74.1289 577.398 73.8691 577.717C73.6139 578.036 73.2038 578.261 72.6387 578.394L71.6953 578.605C70.9434 578.783 70.3783 579.084 70 579.508C69.6263 579.927 69.3825 580.488 69.2686 581.189C69.9385 580.415 70.7542 580.027 71.7158 580.027ZM71.4697 581.066C70.8499 581.066 70.3577 581.276 69.9932 581.695C69.6286 582.11 69.4463 582.687 69.4463 583.425V583.534C69.4463 584.327 69.6286 584.956 69.9932 585.421C70.3623 585.881 70.859 586.111 71.4834 586.111C72.1123 586.111 72.609 585.879 72.9736 585.414C73.3382 584.949 73.5205 584.27 73.5205 583.377C73.5205 582.68 73.3359 582.121 72.9668 581.702C72.6022 581.278 72.1032 581.066 71.4697 581.066ZM80.7734 587C80.7005 586.854 80.6413 586.594 80.5957 586.221C80.0078 586.831 79.306 587.137 78.4902 587.137C77.7611 587.137 77.1618 586.932 76.6924 586.521C76.2275 586.107 75.9951 585.583 75.9951 584.949C75.9951 584.179 76.2868 583.582 76.8701 583.158C77.458 582.73 78.2829 582.516 79.3447 582.516H80.5752V581.935C80.5752 581.493 80.443 581.142 80.1787 580.882C79.9144 580.618 79.5247 580.485 79.0098 580.485C78.5586 580.485 78.1803 580.599 77.875 580.827C77.5697 581.055 77.417 581.331 77.417 581.654H76.1455C76.1455 581.285 76.2754 580.93 76.5352 580.588C76.7995 580.242 77.1549 579.968 77.6016 579.768C78.0527 579.567 78.5472 579.467 79.085 579.467C79.9372 579.467 80.6048 579.681 81.0879 580.109C81.571 580.533 81.8216 581.119 81.8398 581.866V585.271C81.8398 585.95 81.9264 586.49 82.0996 586.891V587H80.7734ZM78.6748 586.036C79.0713 586.036 79.4473 585.934 79.8027 585.729C80.1582 585.523 80.4157 585.257 80.5752 584.929V583.411H79.584C78.0345 583.411 77.2598 583.865 77.2598 584.771C77.2598 585.168 77.3919 585.478 77.6562 585.701C77.9206 585.924 78.2601 586.036 78.6748 586.036ZM83.9385 587V579.604H86.8232C87.8076 579.604 88.5618 579.777 89.0859 580.123C89.6146 580.465 89.8789 580.968 89.8789 581.634C89.8789 581.976 89.7764 582.285 89.5713 582.563C89.3662 582.837 89.0632 583.047 88.6621 583.192C89.1087 583.297 89.4665 583.502 89.7354 583.808C90.0088 584.113 90.1455 584.478 90.1455 584.901C90.1455 585.58 89.8949 586.1 89.3936 586.46C88.8968 586.82 88.1927 587 87.2812 587H83.9385ZM85.2031 583.753V585.981H87.2949C87.8236 585.981 88.2178 585.883 88.4775 585.688C88.7419 585.492 88.874 585.216 88.874 584.86C88.874 584.122 88.3317 583.753 87.2471 583.753H85.2031ZM85.2031 582.741H86.8369C88.0218 582.741 88.6143 582.395 88.6143 581.702C88.6143 581.009 88.0537 580.652 86.9326 580.629H85.2031V582.741ZM96.6055 579.604H97.8701V587H96.6055V581.606L93.1943 587H91.9297V579.604H93.1943V585.004L96.6055 579.604ZM105.396 580.629H102.915V587H101.65V580.629H99.2168V579.604H105.396V580.629ZM108.008 582.153H109.929C110.767 582.162 111.43 582.381 111.918 582.81C112.406 583.238 112.649 583.819 112.649 584.553C112.649 585.291 112.399 585.883 111.897 586.33C111.396 586.777 110.722 587 109.874 587H106.743V579.604H108.008V582.153ZM108.008 583.186V585.968H109.888C110.362 585.968 110.729 585.847 110.988 585.605C111.248 585.359 111.378 585.024 111.378 584.601C111.378 584.19 111.25 583.855 110.995 583.596C110.744 583.331 110.391 583.195 109.936 583.186H108.008Z" fill="black"/>
<rect x="152" y="563" width="114" height="38" rx="5" fill="#8C8C8C"/>
<path d="M35.2656 110.293C35.1602 111.195 34.8262 111.893 34.2637 112.385C33.7051 112.873 32.9609 113.117 32.0312 113.117C31.0234 113.117 30.2148 112.756 29.6055 112.033C29 111.311 28.6973 110.344 28.6973 109.133V108.312C28.6973 107.52 28.8379 106.822 29.1191 106.221C29.4043 105.619 29.8066 105.158 30.3262 104.838C30.8457 104.514 31.4473 104.352 32.1309 104.352C33.0371 104.352 33.7637 104.605 34.3105 105.113C34.8574 105.617 35.1758 106.316 35.2656 107.211H34.1348C34.0371 106.531 33.8242 106.039 33.4961 105.734C33.1719 105.43 32.7168 105.277 32.1309 105.277C31.4121 105.277 30.8477 105.543 30.4375 106.074C30.0312 106.605 29.8281 107.361 29.8281 108.342V109.168C29.8281 110.094 30.0215 110.83 30.4082 111.377C30.7949 111.924 31.3359 112.197 32.0312 112.197C32.6562 112.197 33.1348 112.057 33.4668 111.775C33.8027 111.49 34.0254 110.996 34.1348 110.293H35.2656ZM41.8223 113H40.7383V107.557H37.8203V113H36.7305V106.66H41.8223V113ZM47.4766 113C47.4141 112.875 47.3633 112.652 47.3242 112.332C46.8203 112.855 46.2188 113.117 45.5195 113.117C44.8945 113.117 44.3809 112.941 43.9785 112.59C43.5801 112.234 43.3809 111.785 43.3809 111.242C43.3809 110.582 43.6309 110.07 44.1309 109.707C44.6348 109.34 45.3418 109.156 46.252 109.156H47.3066V108.658C47.3066 108.279 47.1934 107.979 46.9668 107.756C46.7402 107.529 46.4062 107.416 45.9648 107.416C45.5781 107.416 45.2539 107.514 44.9922 107.709C44.7305 107.904 44.5996 108.141 44.5996 108.418H43.5098C43.5098 108.102 43.6211 107.797 43.8438 107.504C44.0703 107.207 44.375 106.973 44.7578 106.801C45.1445 106.629 45.5684 106.543 46.0293 106.543C46.7598 106.543 47.332 106.727 47.7461 107.094C48.1602 107.457 48.375 107.959 48.3906 108.6V111.518C48.3906 112.1 48.4648 112.562 48.6133 112.906V113H47.4766ZM45.6777 112.174C46.0176 112.174 46.3398 112.086 46.6445 111.91C46.9492 111.734 47.1699 111.506 47.3066 111.225V109.924H46.457C45.1289 109.924 44.4648 110.312 44.4648 111.09C44.4648 111.43 44.5781 111.695 44.8047 111.887C45.0312 112.078 45.3223 112.174 45.6777 112.174ZM55.2871 106.66V113H54.1973V107.557H52.041L51.9121 109.93C51.8418 111.02 51.6582 111.799 51.3613 112.268C51.0684 112.736 50.6016 112.98 49.9609 113H49.5273V112.045L49.8379 112.021C50.1895 111.982 50.4414 111.779 50.5938 111.412C50.7461 111.045 50.8438 110.365 50.8867 109.373L51.0039 106.66H55.2871Z" fill="black"/>
<path d="M32.2715 308H31.1816V300.775L28.9961 301.578V300.594L32.1016 299.428H32.2715V308ZM35.9453 303.723L36.3789 299.469H40.75V300.471H37.2988L37.041 302.797C37.459 302.551 37.9336 302.428 38.4648 302.428C39.2422 302.428 39.8594 302.686 40.3164 303.201C40.7734 303.713 41.002 304.406 41.002 305.281C41.002 306.16 40.7637 306.854 40.2871 307.361C39.8145 307.865 39.1523 308.117 38.3008 308.117C37.5469 308.117 36.9316 307.908 36.4551 307.49C35.9785 307.072 35.707 306.494 35.6406 305.756H36.666C36.7324 306.244 36.9062 306.613 37.1875 306.863C37.4688 307.109 37.8398 307.232 38.3008 307.232C38.8047 307.232 39.1992 307.061 39.4844 306.717C39.7734 306.373 39.918 305.898 39.918 305.293C39.918 304.723 39.7617 304.266 39.4492 303.922C39.1406 303.574 38.7285 303.4 38.2129 303.4C37.7402 303.4 37.3691 303.504 37.0996 303.711L36.8125 303.945L35.9453 303.723ZM42.3203 307.432C42.3203 307.244 42.375 307.088 42.4844 306.963C42.5977 306.838 42.7656 306.775 42.9883 306.775C43.2109 306.775 43.3789 306.838 43.4922 306.963C43.6094 307.088 43.668 307.244 43.668 307.432C43.668 307.611 43.6094 307.762 43.4922 307.883C43.3789 308.004 43.2109 308.064 42.9883 308.064C42.7656 308.064 42.5977 308.004 42.4844 307.883C42.375 307.762 42.3203 307.611 42.3203 307.432ZM50.6992 304.361C50.6992 305.631 50.4824 306.574 50.0488 307.191C49.6152 307.809 48.9375 308.117 48.0156 308.117C47.1055 308.117 46.4316 307.816 45.9941 307.215C45.5566 306.609 45.3301 305.707 45.3145 304.508V303.061C45.3145 301.807 45.5312 300.875 45.9648 300.266C46.3984 299.656 47.0781 299.352 48.0039 299.352C48.9219 299.352 49.5977 299.646 50.0312 300.236C50.4648 300.822 50.6875 301.729 50.6992 302.955V304.361ZM49.6152 302.879C49.6152 301.961 49.4863 301.293 49.2285 300.875C48.9707 300.453 48.5625 300.242 48.0039 300.242C47.4492 300.242 47.0449 300.451 46.791 300.869C46.5371 301.287 46.4062 301.93 46.3984 302.797V304.531C46.3984 305.453 46.5312 306.135 46.7969 306.576C47.0664 307.014 47.4727 307.232 48.0156 307.232C48.5508 307.232 48.9473 307.025 49.2051 306.611C49.4668 306.197 49.6035 305.545 49.6152 304.654V302.879ZM52.5859 303.723L53.0195 299.469H57.3906V300.471H53.9395L53.6816 302.797C54.0996 302.551 54.5742 302.428 55.1055 302.428C55.8828 302.428 56.5 302.686 56.957 303.201C57.4141 303.713 57.6426 304.406 57.6426 305.281C57.6426 306.16 57.4043 306.854 56.9277 307.361C56.4551 307.865 55.793 308.117 54.9414 308.117C54.1875 308.117 53.5723 307.908 53.0957 307.49C52.6191 307.072 52.3477 306.494 52.2812 305.756H53.3066C53.373 306.244 53.5469 306.613 53.8281 306.863C54.1094 307.109 54.4805 307.232 54.9414 307.232C55.4453 307.232 55.8398 307.061 56.125 306.717C56.4141 306.373 56.5586 305.898 56.5586 305.293C56.5586 304.723 56.4023 304.266 56.0898 303.922C55.7812 303.574 55.3691 303.4 54.8535 303.4C54.3809 303.4 54.0098 303.504 53.7402 303.711L53.4531 303.945L52.5859 303.723ZM58.9609 307.432C58.9609 307.244 59.0156 307.088 59.125 306.963C59.2383 306.838 59.4062 306.775 59.6289 306.775C59.8516 306.775 60.0195 306.838 60.1328 306.963C60.25 307.088 60.3086 307.244 60.3086 307.432C60.3086 307.611 60.25 307.762 60.1328 307.883C60.0195 308.004 59.8516 308.064 59.6289 308.064C59.4062 308.064 59.2383 308.004 59.125 307.883C59.0156 307.762 58.9609 307.611 58.9609 307.432ZM67.5801 308H61.9902V307.221L64.9434 303.939C65.3809 303.443 65.6816 303.041 65.8457 302.732C66.0137 302.42 66.0977 302.098 66.0977 301.766C66.0977 301.32 65.9629 300.955 65.6934 300.67C65.4238 300.385 65.0645 300.242 64.6152 300.242C64.0762 300.242 63.6562 300.396 63.3555 300.705C63.0586 301.01 62.9102 301.436 62.9102 301.982H61.8262C61.8262 301.197 62.0781 300.562 62.582 300.078C63.0898 299.594 63.7676 299.352 64.6152 299.352C65.4082 299.352 66.0352 299.561 66.4961 299.979C66.957 300.393 67.1875 300.945 67.1875 301.637C67.1875 302.477 66.6523 303.477 65.582 304.637L63.2969 307.115H67.5801V308ZM74.0781 304.361C74.0781 305.631 73.8613 306.574 73.4277 307.191C72.9941 307.809 72.3164 308.117 71.3945 308.117C70.4844 308.117 69.8105 307.816 69.373 307.215C68.9355 306.609 68.709 305.707 68.6934 304.508V303.061C68.6934 301.807 68.9102 300.875 69.3438 300.266C69.7773 299.656 70.457 299.352 71.3828 299.352C72.3008 299.352 72.9766 299.646 73.4102 300.236C73.8438 300.822 74.0664 301.729 74.0781 302.955V304.361ZM72.9941 302.879C72.9941 301.961 72.8652 301.293 72.6074 300.875C72.3496 300.453 71.9414 300.242 71.3828 300.242C70.8281 300.242 70.4238 300.451 70.1699 300.869C69.916 301.287 69.7852 301.93 69.7773 302.797V304.531C69.7773 305.453 69.9102 306.135 70.1758 306.576C70.4453 307.014 70.8516 307.232 71.3945 307.232C71.9297 307.232 72.3262 307.025 72.584 306.611C72.8457 306.197 72.9824 305.545 72.9941 304.654V302.879ZM81.0566 308H75.4668V307.221L78.4199 303.939C78.8574 303.443 79.1582 303.041 79.3223 302.732C79.4902 302.42 79.5742 302.098 79.5742 301.766C79.5742 301.32 79.4395 300.955 79.1699 300.67C78.9004 300.385 78.541 300.242 78.0918 300.242C77.5527 300.242 77.1328 300.396 76.832 300.705C76.5352 301.01 76.3867 301.436 76.3867 301.982H75.3027C75.3027 301.197 75.5547 300.562 76.0586 300.078C76.5664 299.594 77.2441 299.352 78.0918 299.352C78.8848 299.352 79.5117 299.561 79.9727 299.979C80.4336 300.393 80.6641 300.945 80.6641 301.637C80.6641 302.477 80.1289 303.477 79.0586 304.637L76.7734 307.115H81.0566V308ZM85.7676 308H84.6777V300.775L82.4922 301.578V300.594L85.5977 299.428H85.7676V308Z" fill="black"/>
<path d="M29.0728 374V364.758H32.0942C33.0972 364.758 33.8504 364.965 34.354 365.38C34.8618 365.795 35.1157 366.408 35.1157 367.221C35.1157 367.652 34.993 368.035 34.7476 368.37C34.5021 368.7 34.1678 368.956 33.7446 369.138C34.244 369.277 34.6375 369.544 34.9253 369.938C35.2173 370.327 35.3633 370.792 35.3633 371.334C35.3633 372.163 35.0946 372.815 34.5571 373.289C34.0197 373.763 33.2601 374 32.2783 374H29.0728ZM30.2915 369.677V373.003H32.3037C32.8708 373.003 33.3172 372.857 33.6431 372.565C33.9731 372.269 34.1382 371.863 34.1382 371.347C34.1382 370.234 33.533 369.677 32.3228 369.677H30.2915ZM30.2915 368.7H32.1323C32.6655 368.7 33.0908 368.566 33.4082 368.3C33.7298 368.033 33.8906 367.671 33.8906 367.214C33.8906 366.707 33.7425 366.338 33.4463 366.11C33.1501 365.877 32.6994 365.761 32.0942 365.761H30.2915V368.7ZM41.4316 367.132H42.606V374H41.4316V368.992L38.2642 374H37.0898V367.132H38.2642V372.146L41.4316 367.132ZM44.4341 373.042L44.8403 372.54C45.2974 371.948 45.5576 371.059 45.6211 369.874L45.729 367.132H50.1533V373.042H51.0356V376.019H49.8613V374H45.0688V376.019H43.8945L43.9009 373.042H44.4341ZM45.8242 373.042H48.979V368.217H46.8652L46.7954 369.855C46.7235 371.222 46.3997 372.284 45.8242 373.042ZM55.187 374.127C54.256 374.127 53.4985 373.822 52.9146 373.213C52.3306 372.599 52.0386 371.78 52.0386 370.756V370.541C52.0386 369.859 52.1676 369.252 52.4258 368.719C52.6882 368.181 53.0521 367.762 53.5176 367.462C53.9873 367.157 54.4951 367.005 55.041 367.005C55.9339 367.005 56.6279 367.299 57.123 367.887C57.6182 368.475 57.8657 369.318 57.8657 370.414V370.902H53.2129C53.2298 371.579 53.4266 372.127 53.8032 372.546C54.1841 372.961 54.6665 373.168 55.2505 373.168C55.6652 373.168 56.0164 373.084 56.3042 372.915C56.592 372.745 56.8438 372.521 57.0596 372.242L57.7769 372.8C57.2013 373.685 56.3381 374.127 55.187 374.127ZM55.041 367.97C54.5671 367.97 54.1693 368.143 53.8477 368.49C53.526 368.833 53.3271 369.315 53.251 369.938H56.6914V369.849C56.6576 369.252 56.4967 368.791 56.209 368.465C55.9212 368.135 55.5319 367.97 55.041 367.97ZM64.8608 367.132V374H63.6802V368.103H61.3442L61.2046 370.674C61.1284 371.854 60.9295 372.699 60.6079 373.207C60.2905 373.714 59.7848 373.979 59.0908 374H58.6211V372.965L58.9575 372.94C59.3384 372.898 59.6113 372.678 59.7764 372.28C59.9414 371.882 60.0472 371.146 60.0938 370.071L60.2207 367.132H64.8608ZM72.7256 373.168C73.1445 373.168 73.5106 373.042 73.8237 372.788C74.1369 372.534 74.3104 372.216 74.3442 371.835H75.4551C75.4339 372.229 75.2985 372.604 75.0488 372.959C74.7992 373.314 74.4648 373.598 74.0459 373.81C73.6312 374.021 73.1911 374.127 72.7256 374.127C71.7904 374.127 71.0456 373.816 70.4912 373.194C69.9411 372.568 69.666 371.713 69.666 370.629V370.433C69.666 369.764 69.7887 369.169 70.0342 368.649C70.2796 368.128 70.6309 367.724 71.0879 367.437C71.5492 367.149 72.0929 367.005 72.7192 367.005C73.4894 367.005 74.1284 367.236 74.6362 367.697C75.1483 368.158 75.4212 368.757 75.4551 369.493H74.3442C74.3104 369.049 74.1411 368.685 73.8364 368.401C73.536 368.114 73.1636 367.97 72.7192 367.97C72.1226 367.97 71.6592 368.186 71.3291 368.617C71.0033 369.045 70.8403 369.665 70.8403 370.477V370.699C70.8403 371.491 71.0033 372.1 71.3291 372.527C71.6549 372.955 72.1204 373.168 72.7256 373.168ZM82.4058 367.132V374H81.2251V368.103H78.8892L78.7495 370.674C78.6733 371.854 78.4744 372.699 78.1528 373.207C77.8354 373.714 77.3298 373.979 76.6357 374H76.166V372.965L76.5024 372.94C76.8833 372.898 77.1562 372.678 77.3213 372.28C77.4863 371.882 77.5921 371.146 77.6387 370.071L77.7656 367.132H82.4058ZM88.5312 374C88.4635 373.865 88.4085 373.623 88.3662 373.276C87.8203 373.843 87.1686 374.127 86.4111 374.127C85.734 374.127 85.1776 373.937 84.7417 373.556C84.3101 373.171 84.0942 372.684 84.0942 372.096C84.0942 371.381 84.3651 370.826 84.9067 370.433C85.4526 370.035 86.2186 369.836 87.2046 369.836H88.3472V369.296C88.3472 368.886 88.2244 368.56 87.979 368.319C87.7336 368.073 87.3717 367.951 86.8936 367.951C86.4746 367.951 86.1234 368.056 85.8398 368.268C85.5563 368.48 85.4146 368.736 85.4146 369.036H84.2339C84.2339 368.693 84.3545 368.363 84.5957 368.046C84.8411 367.724 85.1712 367.47 85.5859 367.284C86.0049 367.098 86.464 367.005 86.9634 367.005C87.7547 367.005 88.3747 367.204 88.8232 367.602C89.2718 367.995 89.5046 368.539 89.5215 369.233V372.394C89.5215 373.025 89.6019 373.526 89.7627 373.898V374H88.5312ZM86.5825 373.105C86.9507 373.105 87.2998 373.01 87.6299 372.819C87.96 372.629 88.1991 372.381 88.3472 372.077V370.667H87.4268C85.988 370.667 85.2686 371.089 85.2686 371.931C85.2686 372.299 85.3913 372.587 85.6367 372.794C85.8822 373.001 86.1974 373.105 86.5825 373.105ZM91.3052 373.042L91.7114 372.54C92.1685 371.948 92.4287 371.059 92.4922 369.874L92.6001 367.132H97.0244V373.042H97.9067V376.019H96.7324V374H91.9399V376.019H90.7656L90.772 373.042H91.3052ZM92.6953 373.042H95.8501V368.217H93.7363L93.6665 369.855C93.5946 371.222 93.2708 372.284 92.6953 373.042ZM101.347 371.074H100.49V374H99.3096V367.132H100.49V370.039H101.258L103.569 367.132H104.991L102.274 370.433L105.219 374H103.728L101.347 371.074ZM110.672 367.132H111.846V374H110.672V368.992L107.504 374H106.33V367.132H107.504V372.146L110.672 367.132ZM118.175 367.132H119.349V374H118.175V368.992L115.007 374H113.833V367.132H115.007V372.146L118.175 367.132ZM118.492 364.631C118.492 365.143 118.317 365.556 117.965 365.869C117.618 366.178 117.161 366.332 116.594 366.332C116.027 366.332 115.568 366.175 115.217 365.862C114.866 365.549 114.69 365.139 114.69 364.631H115.648C115.648 364.927 115.729 365.16 115.89 365.329C116.05 365.494 116.285 365.577 116.594 365.577C116.89 365.577 117.121 365.494 117.286 365.329C117.455 365.164 117.54 364.931 117.54 364.631H118.492ZM127.214 373.168C127.633 373.168 127.999 373.042 128.312 372.788C128.625 372.534 128.799 372.216 128.833 371.835H129.943C129.922 372.229 129.787 372.604 129.537 372.959C129.287 373.314 128.953 373.598 128.534 373.81C128.119 374.021 127.679 374.127 127.214 374.127C126.279 374.127 125.534 373.816 124.979 373.194C124.429 372.568 124.154 371.713 124.154 370.629V370.433C124.154 369.764 124.277 369.169 124.522 368.649C124.768 368.128 125.119 367.724 125.576 367.437C126.037 367.149 126.581 367.005 127.208 367.005C127.978 367.005 128.617 367.236 129.125 367.697C129.637 368.158 129.91 368.757 129.943 369.493H128.833C128.799 369.049 128.629 368.685 128.325 368.401C128.024 368.114 127.652 367.97 127.208 367.97C126.611 367.97 126.147 368.186 125.817 368.617C125.492 369.045 125.329 369.665 125.329 370.477V370.699C125.329 371.491 125.492 372.1 125.817 372.527C126.143 372.955 126.609 373.168 127.214 373.168ZM130.953 370.502C130.953 369.83 131.084 369.224 131.346 368.687C131.613 368.15 131.981 367.735 132.451 367.443C132.925 367.151 133.464 367.005 134.069 367.005C135.005 367.005 135.76 367.329 136.335 367.976C136.915 368.624 137.205 369.485 137.205 370.56V370.642C137.205 371.311 137.076 371.912 136.818 372.445C136.564 372.974 136.198 373.386 135.72 373.683C135.246 373.979 134.7 374.127 134.082 374.127C133.151 374.127 132.396 373.803 131.816 373.156C131.24 372.508 130.953 371.651 130.953 370.585V370.502ZM132.133 370.642C132.133 371.404 132.309 372.015 132.66 372.477C133.016 372.938 133.49 373.168 134.082 373.168C134.679 373.168 135.153 372.936 135.504 372.47C135.855 372 136.031 371.345 136.031 370.502C136.031 369.749 135.851 369.14 135.491 368.674C135.136 368.205 134.662 367.97 134.069 367.97C133.49 367.97 133.022 368.2 132.667 368.662C132.311 369.123 132.133 369.783 132.133 370.642ZM144.289 374H143.115V371.067H139.96V374H138.779V367.132H139.96V370.109H143.115V367.132H144.289V374ZM146.206 373.384C146.206 373.181 146.265 373.012 146.384 372.876C146.507 372.741 146.688 372.673 146.93 372.673C147.171 372.673 147.353 372.741 147.476 372.876C147.603 373.012 147.666 373.181 147.666 373.384C147.666 373.579 147.603 373.742 147.476 373.873C147.353 374.004 147.171 374.07 146.93 374.07C146.688 374.07 146.507 374.004 146.384 373.873C146.265 373.742 146.206 373.579 146.206 373.384Z" fill="black"/>
<path d="M185.812 582.345C185.812 583.32 185.647 584.172 185.319 584.901C184.991 585.626 184.526 586.18 183.925 586.562C183.323 586.945 182.621 587.137 181.819 587.137C181.035 587.137 180.34 586.945 179.734 586.562C179.128 586.175 178.657 585.626 178.319 584.915C177.987 584.2 177.816 583.372 177.807 582.434V581.716C177.807 580.759 177.973 579.913 178.306 579.18C178.638 578.446 179.108 577.885 179.714 577.498C180.325 577.106 181.022 576.91 181.806 576.91C182.603 576.91 183.305 577.104 183.911 577.491C184.522 577.874 184.991 578.432 185.319 579.166C185.647 579.895 185.812 580.745 185.812 581.716V582.345ZM184.506 581.702C184.506 580.522 184.269 579.617 183.795 578.988C183.321 578.355 182.658 578.038 181.806 578.038C180.976 578.038 180.322 578.355 179.844 578.988C179.37 579.617 179.126 580.492 179.112 581.613V582.345C179.112 583.489 179.352 584.389 179.83 585.045C180.313 585.697 180.976 586.022 181.819 586.022C182.667 586.022 183.323 585.715 183.788 585.1C184.253 584.48 184.492 583.593 184.506 582.44V581.702ZM193.078 580.629H190.597V587H189.332V580.629H186.898V579.604H193.078V580.629ZM198.567 585.325L201.083 579.604H202.662V587H201.397V581.62L199.005 587H198.13L195.689 581.504V587H194.425V579.604H196.065L198.567 585.325ZM207.769 587.137C206.766 587.137 205.95 586.809 205.321 586.152C204.692 585.492 204.378 584.61 204.378 583.507V583.274C204.378 582.541 204.517 581.887 204.795 581.312C205.077 580.734 205.469 580.283 205.971 579.959C206.477 579.631 207.023 579.467 207.611 579.467C208.573 579.467 209.32 579.784 209.854 580.417C210.387 581.05 210.653 581.957 210.653 583.138V583.664H205.643C205.661 584.393 205.873 584.983 206.278 585.435C206.688 585.881 207.208 586.104 207.837 586.104C208.284 586.104 208.662 586.013 208.972 585.831C209.282 585.649 209.553 585.407 209.785 585.106L210.558 585.708C209.938 586.66 209.008 587.137 207.769 587.137ZM207.611 580.506C207.101 580.506 206.673 580.693 206.326 581.066C205.98 581.436 205.766 581.955 205.684 582.625H209.389V582.529C209.352 581.887 209.179 581.39 208.869 581.039C208.559 580.684 208.14 580.506 207.611 580.506ZM218.166 587H216.901V583.842H213.504V587H212.232V579.604H213.504V582.81H216.901V579.604H218.166V587ZM224.988 579.604H226.253V587H224.988V581.606L221.577 587H220.312V579.604H221.577V585.004L224.988 579.604ZM233.779 580.629H231.298V587H230.033V580.629H227.6V579.604H233.779V580.629ZM236.391 582.153H238.312C239.15 582.162 239.813 582.381 240.301 582.81C240.788 583.238 241.032 583.819 241.032 584.553C241.032 585.291 240.782 585.883 240.28 586.33C239.779 586.777 239.104 587 238.257 587H235.126V579.604H236.391V582.153ZM236.391 583.186V585.968H238.271C238.744 585.968 239.111 585.847 239.371 585.605C239.631 585.359 239.761 585.024 239.761 584.601C239.761 584.19 239.633 583.855 239.378 583.596C239.127 583.331 238.774 583.195 238.318 583.186H236.391Z" fill="black"/>
</svg>
